<svg xmlns="http://www.w3.org/2000/svg" width="1600" height="900" viewBox="0 0 1600 900" role="img">
<defs><marker id="arrow-1e3a5f" viewBox="0 0 10 10" refX="9" refY="5" markerWidth="8" markerHeight="8" orient="auto-start-reverse"><path d="M 0 0 L 10 5 L 0 10 z" fill="#1e3a5f"/></marker><marker id="arrow-d59621" viewBox="0 0 10 10" refX="9" refY="5" markerWidth="8" markerHeight="8" orient="auto-start-reverse"><path d="M 0 0 L 10 5 L 0 10 z" fill="#d59621"/></marker><marker id="arrow-3c8d77" viewBox="0 0 10 10" refX="9" refY="5" markerWidth="8" markerHeight="8" orient="auto-start-reverse"><path d="M 0 0 L 10 5 L 0 10 z" fill="#3c8d77"/></marker><marker id="arrow-c94c4c" viewBox="0 0 10 10" refX="9" refY="5" markerWidth="8" markerHeight="8" orient="auto-start-reverse"><path d="M 0 0 L 10 5 L 0 10 z" fill="#c94c4c"/></marker><marker id="arrow-7651a6" viewBox="0 0 10 10" refX="9" refY="5" markerWidth="8" markerHeight="8" orient="auto-start-reverse"><path d="M 0 0 L 10 5 L 0 10 z" fill="#7651a6"/></marker><marker id="arrow-55708f" viewBox="0 0 10 10" refX="9" refY="5" markerWidth="8" markerHeight="8" orient="auto-start-reverse"><path d="M 0 0 L 10 5 L 0 10 z" fill="#55708f"/></marker></defs>
<rect width="1600" height="900" fill="#fbf7ec"/>
<path d="M 20 180 C 420 171, 920 190, 1580 177 M 30 718 C 530 727, 980 707, 1570 721" stroke="#e7dfce" stroke-width="2" fill="none" opacity=".52"/>

<text x="70" y="76" font-family="'Kaiti SC','STKaiti','Noto Sans SC',sans-serif" font-size="43" font-weight="760" fill="#1e3a5f" text-anchor="start" opacity="1"><tspan x="70" dy="0">CaseOps Slice 3：从候选到可审计 Context Pack</tspan></text><path d="M 70 94 C 265 87, 485 102, 710 93" fill="none" stroke="#d59621" stroke-width="7" stroke-linecap="round" opacity=".85"/><text x="72" y="128" font-family="'Kaiti SC','STKaiti','Noto Sans SC',sans-serif" font-size="23" font-weight="500" fill="#55708f" text-anchor="start" opacity="1"><tspan x="72" dy="0">检索只发现候选；Scope、用途、时态、完整性与信任门禁决定什么能成为证据。</tspan></text>
<rect x="50" y="215" width="235" height="130" rx="22" fill="#f7e7b8" stroke="#d59621" stroke-width="3"/><rect x="52" y="214" width="234" height="131" rx="23" fill="none" stroke="#d59621" stroke-width="1.2" opacity=".32" transform="rotate(.18 167.5 280)"/>
<text x="167" y="258" font-family="'Kaiti SC','STKaiti','Noto Sans SC',sans-serif" font-size="29" font-weight="720" fill="#d59621" text-anchor="middle" opacity="1"><tspan x="167" dy="0">Question</tspan></text>
<text x="167" y="294" font-family="'Kaiti SC','STKaiti','Noto Sans SC',sans-serif" font-size="20" font-weight="500" fill="#1e3a5f" text-anchor="middle" opacity="1"><tspan x="167" dy="0">Principal · purpose</tspan></text>
<text x="167" y="321" font-family="'Kaiti SC','STKaiti','Noto Sans SC',sans-serif" font-size="20" font-weight="500" fill="#1e3a5f" text-anchor="middle" opacity="1"><tspan x="167" dy="0">as_of · budget</tspan></text>
<rect x="350" y="215" width="235" height="130" rx="22" fill="#dfeaf4" stroke="#1e3a5f" stroke-width="3"/><rect x="352" y="214" width="234" height="131" rx="23" fill="none" stroke="#1e3a5f" stroke-width="1.2" opacity=".32" transform="rotate(.18 467.5 280)"/>
<text x="467" y="258" font-family="'Kaiti SC','STKaiti','Noto Sans SC',sans-serif" font-size="29" font-weight="720" fill="#1e3a5f" text-anchor="middle" opacity="1"><tspan x="467" dy="0">Query Planner</tspan></text>
<text x="467" y="296" font-family="'Kaiti SC','STKaiti','Noto Sans SC',sans-serif" font-size="20" font-weight="500" fill="#1e3a5f" text-anchor="middle" opacity="1"><tspan x="467" dy="0">allowlist · max_hops=2</tspan></text>
<path d="M 285 280 C 306.6666666666667 278, 328.3333333333333 282, 350 280" fill="none" stroke="#d59621" stroke-width="4" stroke-linecap="round" marker-end="url(#arrow-d59621)"/>

<rect x="80" y="430" width="250" height="110" rx="22" fill="#dfeaf4" stroke="#1e3a5f" stroke-width="3"/><rect x="82" y="429" width="249" height="111" rx="23" fill="none" stroke="#1e3a5f" stroke-width="1.2" opacity=".32" transform="rotate(.18 205 485)"/>
<text x="205" y="474" font-family="'Kaiti SC','STKaiti','Noto Sans SC',sans-serif" font-size="28" font-weight="720" fill="#1e3a5f" text-anchor="middle" opacity="1"><tspan x="205" dy="0">Structured</tspan></text>
<text x="205" y="510" font-family="'Kaiti SC','STKaiti','Noto Sans SC',sans-serif" font-size="19" font-weight="500" fill="#1e3a5f" text-anchor="middle" opacity="1"><tspan x="205" dy="0">案件事实 · 精确业务键</tspan></text>
<rect x="390" y="430" width="250" height="110" rx="22" fill="#e9e0f4" stroke="#7651a6" stroke-width="3"/><rect x="392" y="429" width="249" height="111" rx="23" fill="none" stroke="#7651a6" stroke-width="1.2" opacity=".32" transform="rotate(.18 515 485)"/>
<text x="515" y="474" font-family="'Kaiti SC','STKaiti','Noto Sans SC',sans-serif" font-size="27" font-weight="720" fill="#7651a6" text-anchor="middle" opacity="1"><tspan x="515" dy="0">PostgreSQL FTS</tspan></text>
<text x="515" y="510" font-family="'Kaiti SC','STKaiti','Noto Sans SC',sans-serif" font-size="18" font-weight="500" fill="#1e3a5f" text-anchor="middle" opacity="1"><tspan x="515" dy="0">GIN · websearch_to_tsquery</tspan></text>
<rect x="700" y="430" width="250" height="110" rx="22" fill="#dcefe7" stroke="#3c8d77" stroke-width="3"/><rect x="702" y="429" width="249" height="111" rx="23" fill="none" stroke="#3c8d77" stroke-width="1.2" opacity=".32" transform="rotate(.18 825 485)"/>
<text x="825" y="474" font-family="'Kaiti SC','STKaiti','Noto Sans SC',sans-serif" font-size="28" font-weight="720" fill="#3c8d77" text-anchor="middle" opacity="1"><tspan x="825" dy="0">Graph Paths</tspan></text>
<text x="825" y="510" font-family="'Kaiti SC','STKaiti','Noto Sans SC',sans-serif" font-size="19" font-weight="500" fill="#1e3a5f" text-anchor="middle" opacity="1"><tspan x="825" dy="0">允许模板 · 最长两跳</tspan></text>
<path d="M 420 345 C 348.3333333333333 343, 276.6666666666667 432, 205 430" fill="none" stroke="#1e3a5f" stroke-width="4" stroke-linecap="round" marker-end="url(#arrow-1e3a5f)"/>
<path d="M 467 345 C 483 343, 499 432, 515 430" fill="none" stroke="#7651a6" stroke-width="4" stroke-linecap="round" marker-end="url(#arrow-7651a6)"/>
<path d="M 515 345 C 618.3333333333334 343, 721.6666666666666 432, 825 430" fill="none" stroke="#3c8d77" stroke-width="4" stroke-linecap="round" marker-end="url(#arrow-3c8d77)"/>

<rect x="1010" y="390" width="210" height="150" rx="22" fill="#fffdf7" stroke="#1e3a5f" stroke-width="3"/><rect x="1012" y="389" width="209" height="151" rx="23" fill="none" stroke="#1e3a5f" stroke-width="1.2" opacity=".32" transform="rotate(.18 1115 465)"/>
<text x="1115" y="438" font-family="'Kaiti SC','STKaiti','Noto Sans SC',sans-serif" font-size="34" font-weight="760" fill="#1e3a5f" text-anchor="middle" opacity="1"><tspan x="1115" dy="0">RRF</tspan></text>
<text x="1115" y="477" font-family="'Kaiti SC','STKaiti','Noto Sans SC',sans-serif" font-size="19" font-weight="500" fill="#1e3a5f" text-anchor="middle" opacity="1"><tspan x="1115" dy="0">跨通道按名次融合</tspan></text>
<text x="1115" y="509" font-family="'Kaiti SC','STKaiti','Noto Sans SC',sans-serif" font-size="20" font-weight="500" fill="#55708f" text-anchor="middle" opacity="1"><tspan x="1115" dy="0">k = 60</tspan></text>
<path d="M 330 485 C 556.6666666666666 483, 783.3333333333334 437, 1010 435" fill="none" stroke="#1e3a5f" stroke-width="4" stroke-linecap="round" marker-end="url(#arrow-1e3a5f)"/>
<path d="M 640 485 C 763.3333333333334 483, 886.6666666666666 467, 1010 465" fill="none" stroke="#7651a6" stroke-width="4" stroke-linecap="round" marker-end="url(#arrow-7651a6)"/>
<path d="M 950 485 C 970 483, 990 502, 1010 500" fill="none" stroke="#3c8d77" stroke-width="4" stroke-linecap="round" marker-end="url(#arrow-3c8d77)"/>

<rect x="1270" y="245" width="275" height="295" rx="22" fill="#f7dddd" stroke="#c94c4c" stroke-width="4"/><rect x="1272" y="244" width="274" height="296" rx="23" fill="none" stroke="#c94c4c" stroke-width="1.2" opacity=".32" transform="rotate(.18 1407.5 392.5)"/>
<text x="1407" y="292" font-family="'Kaiti SC','STKaiti','Noto Sans SC',sans-serif" font-size="30" font-weight="760" fill="#c94c4c" text-anchor="middle" opacity="1"><tspan x="1407" dy="0">Context Gates</tspan></text>
<text x="1407" y="345" font-family="'Kaiti SC','STKaiti','Noto Sans SC',sans-serif" font-size="21" font-weight="500" fill="#1e3a5f" text-anchor="middle" opacity="1"><tspan x="1407" dy="0">scope · purpose</tspan><tspan x="1407" dy="31.92">temporal · sha256</tspan><tspan x="1407" dy="31.92">untrusted instruction</tspan><tspan x="1407" dy="31.92">dedup · budget</tspan></text>
<path d="M 1220 465 C 1236.6666666666667 463, 1253.3333333333333 422, 1270 420" fill="none" stroke="#c94c4c" stroke-width="4" stroke-linecap="round" marker-end="url(#arrow-c94c4c)"/>

<rect x="935" y="650" width="275" height="105" rx="22" fill="#dcefe7" stroke="#3c8d77" stroke-width="4"/><rect x="937" y="649" width="274" height="106" rx="23" fill="none" stroke="#3c8d77" stroke-width="1.2" opacity=".32" transform="rotate(.18 1072.5 702.5)"/>
<text x="1072" y="693" font-family="'Kaiti SC','STKaiti','Noto Sans SC',sans-serif" font-size="30" font-weight="760" fill="#3c8d77" text-anchor="middle" opacity="1"><tspan x="1072" dy="0">Context Pack</tspan></text>
<text x="1072" y="729" font-family="'Kaiti SC','STKaiti','Noto Sans SC',sans-serif" font-size="20" font-weight="500" fill="#1e3a5f" text-anchor="middle" opacity="1"><tspan x="1072" dy="0">7 Evidence · sufficient</tspan></text>
<rect x="1270" y="650" width="275" height="105" rx="22" fill="#fffdf7" stroke="#3c8d77" stroke-width="3"/><rect x="1272" y="649" width="274" height="106" rx="23" fill="none" stroke="#3c8d77" stroke-width="1.2" opacity=".32" transform="rotate(.18 1407.5 702.5)"/>
<text x="1407" y="693" font-family="'Kaiti SC','STKaiti','Noto Sans SC',sans-serif" font-size="30" font-weight="760" fill="#3c8d77" text-anchor="middle" opacity="1"><tspan x="1407" dy="0">3 Claims</tspan></text>
<text x="1407" y="729" font-family="'Kaiti SC','STKaiti','Noto Sans SC',sans-serif" font-size="19" font-weight="500" fill="#1e3a5f" text-anchor="middle" opacity="1"><tspan x="1407" dy="0">每条绑定 Evidence ID</tspan></text>
<path d="M 1407 540 C 1308 538, 1209 652, 1110 650" fill="none" stroke="#3c8d77" stroke-width="4" stroke-linecap="round" marker-end="url(#arrow-3c8d77)"/>
<path d="M 1210 702 C 1230 700, 1250 704, 1270 702" fill="none" stroke="#3c8d77" stroke-width="4" stroke-linecap="round" marker-end="url(#arrow-3c8d77)"/>

<rect x="50" y="650" width="795" height="105" rx="22" fill="#fffdf7" stroke="#1e3a5f" stroke-width="3" stroke-dasharray="11 8"/><rect x="52" y="649" width="794" height="106" rx="23" fill="none" stroke="#1e3a5f" stroke-width="1.2" opacity=".32" transform="rotate(.18 447.5 702.5)"/>
<text x="85" y="692" font-family="'Kaiti SC','STKaiti','Noto Sans SC',sans-serif" font-size="27" font-weight="760" fill="#1e3a5f" text-anchor="start" opacity="1"><tspan x="85" dy="0">Context Trace</tspan></text>
<rect x="270" y="668" width="170" height="52" rx="26" fill="#dcefe7" stroke="#3c8d77" stroke-width="2.4"/><rect x="272" y="667" width="169" height="53" rx="27" fill="none" stroke="#3c8d77" stroke-width="1.2" opacity=".32" transform="rotate(.18 355 694)"/><text x="355" y="702" font-family="'Kaiti SC','STKaiti','Noto Sans SC',sans-serif" font-size="20" font-weight="700" fill="#3c8d77" text-anchor="middle" opacity="1"><tspan x="355" dy="0">7 selected</tspan></text>
<rect x="465" y="668" width="160" height="52" rx="26" fill="#f7dddd" stroke="#c94c4c" stroke-width="2.4"/><rect x="467" y="667" width="159" height="53" rx="27" fill="none" stroke="#c94c4c" stroke-width="1.2" opacity=".32" transform="rotate(.18 545 694)"/><text x="545" y="702" font-family="'Kaiti SC','STKaiti','Noto Sans SC',sans-serif" font-size="20" font-weight="700" fill="#c94c4c" text-anchor="middle" opacity="1"><tspan x="545" dy="0">旧规则 ×</tspan></text>
<rect x="650" y="668" width="160" height="52" rx="26" fill="#f7dddd" stroke="#c94c4c" stroke-width="2.4"/><rect x="652" y="667" width="159" height="53" rx="27" fill="none" stroke="#c94c4c" stroke-width="1.2" opacity=".32" transform="rotate(.18 730 694)"/><text x="730" y="702" font-family="'Kaiti SC','STKaiti','Noto Sans SC',sans-serif" font-size="20" font-weight="700" fill="#c94c4c" text-anchor="middle" opacity="1"><tspan x="730" dy="0">恶意邮件 ×</tspan></text>
<text x="800" y="817" font-family="'Kaiti SC','STKaiti','Noto Sans SC',sans-serif" font-size="25" font-weight="700" fill="#c94c4c" text-anchor="middle" opacity="1"><tspan x="800" dy="0">ContextRun + Audit + CloudEvents Outbox 在同一事务中持久化；重放不重复构建。</tspan></text>

<text x="1525" y="860" font-family="'Kaiti SC','STKaiti',sans-serif" font-size="18" fill="#55708f" text-anchor="end">生产级多智能体系统 · 第 04 章</text>
</svg>