<svg xmlns="http://www.w3.org/2000/svg" width="1600" height="900" viewBox="0 0 1600 900" role="img">
<defs><marker id="arrow-1e3a5f" viewBox="0 0 10 10" refX="9" refY="5" markerWidth="8" markerHeight="8" orient="auto-start-reverse"><path d="M 0 0 L 10 5 L 0 10 z" fill="#1e3a5f"/></marker><marker id="arrow-d59621" viewBox="0 0 10 10" refX="9" refY="5" markerWidth="8" markerHeight="8" orient="auto-start-reverse"><path d="M 0 0 L 10 5 L 0 10 z" fill="#d59621"/></marker><marker id="arrow-3c8d77" viewBox="0 0 10 10" refX="9" refY="5" markerWidth="8" markerHeight="8" orient="auto-start-reverse"><path d="M 0 0 L 10 5 L 0 10 z" fill="#3c8d77"/></marker><marker id="arrow-c94c4c" viewBox="0 0 10 10" refX="9" refY="5" markerWidth="8" markerHeight="8" orient="auto-start-reverse"><path d="M 0 0 L 10 5 L 0 10 z" fill="#c94c4c"/></marker><marker id="arrow-7651a6" viewBox="0 0 10 10" refX="9" refY="5" markerWidth="8" markerHeight="8" orient="auto-start-reverse"><path d="M 0 0 L 10 5 L 0 10 z" fill="#7651a6"/></marker><marker id="arrow-55708f" viewBox="0 0 10 10" refX="9" refY="5" markerWidth="8" markerHeight="8" orient="auto-start-reverse"><path d="M 0 0 L 10 5 L 0 10 z" fill="#55708f"/></marker></defs>
<rect width="1600" height="900" fill="#fbf7ec"/>
<path d="M 20 180 C 420 171, 920 190, 1580 177 M 30 718 C 530 727, 980 707, 1570 721" stroke="#e7dfce" stroke-width="2" fill="none" opacity=".52"/>

<text x="70" y="76" font-family="'Kaiti SC','STKaiti','Noto Sans SC',sans-serif" font-size="43" font-weight="760" fill="#1e3a5f" text-anchor="start" opacity="1"><tspan x="70" dy="0">七类上下文，三个工程平面</tspan></text><path d="M 70 94 C 265 87, 485 102, 710 93" fill="none" stroke="#d59621" stroke-width="7" stroke-linecap="round" opacity=".85"/><text x="72" y="128" font-family="'Kaiti SC','STKaiti','Noto Sans SC',sans-serif" font-size="23" font-weight="500" fill="#55708f" text-anchor="start" opacity="1"><tspan x="72" dy="0">分类不是为了贴标签，而是为了明确来源、Owner、生命周期和进入模型的规则。</tspan></text>
<rect x="60" y="210" width="465" height="500" rx="22" fill="#f7e7b8" stroke="#d59621" stroke-width="3"/><rect x="62" y="209" width="464" height="501" rx="23" fill="none" stroke="#d59621" stroke-width="1.2" opacity=".32" transform="rotate(.18 292.5 460)"/>
<rect x="165" y="235" width="255" height="52" rx="26" fill="#fffdf7" stroke="#d59621" stroke-width="2.4"/><rect x="167" y="234" width="254" height="53" rx="27" fill="none" stroke="#d59621" stroke-width="1.2" opacity=".32" transform="rotate(.18 292.5 261)"/><text x="292.5" y="269" font-family="'Kaiti SC','STKaiti','Noto Sans SC',sans-serif" font-size="29" font-weight="700" fill="#d59621" text-anchor="middle" opacity="1"><tspan x="292.5" dy="0">目标平面</tspan></text>
<rect x="105" y="330" width="375" height="105" rx="22" fill="#fffdf7" stroke="#d59621" stroke-width="3"/><rect x="107" y="329" width="374" height="106" rx="23" fill="none" stroke="#d59621" stroke-width="1.2" opacity=".32" transform="rotate(.18 292.5 382.5)"/>
<text x="292" y="375" font-family="'Kaiti SC','STKaiti','Noto Sans SC',sans-serif" font-size="29" font-weight="700" fill="#d59621" text-anchor="middle" opacity="1"><tspan x="292" dy="0">Task &amp; Goal</tspan></text>
<text x="292" y="407" font-family="'Kaiti SC','STKaiti','Noto Sans SC',sans-serif" font-size="20" font-weight="500" fill="#1e3a5f" text-anchor="middle" opacity="1"><tspan x="292" dy="0">目标 · 验收 · 计划 · 未决问题</tspan></text>
<rect x="105" y="480" width="375" height="105" rx="22" fill="#fffdf7" stroke="#c94c4c" stroke-width="3"/><rect x="107" y="479" width="374" height="106" rx="23" fill="none" stroke="#c94c4c" stroke-width="1.2" opacity=".32" transform="rotate(.18 292.5 532.5)"/>
<text x="292" y="525" font-family="'Kaiti SC','STKaiti','Noto Sans SC',sans-serif" font-size="28" font-weight="700" fill="#c94c4c" text-anchor="middle" opacity="1"><tspan x="292" dy="0">Policy &amp; Normative</tspan></text>
<text x="292" y="557" font-family="'Kaiti SC','STKaiti','Noto Sans SC',sans-serif" font-size="20" font-weight="500" fill="#1e3a5f" text-anchor="middle" opacity="1"><tspan x="292" dy="0">权限 · 合规 · 业务口径 · 审批</tspan></text>
<rect x="565" y="210" width="480" height="500" rx="22" fill="#dfeaf4" stroke="#1e3a5f" stroke-width="3"/><rect x="567" y="209" width="479" height="501" rx="23" fill="none" stroke="#1e3a5f" stroke-width="1.2" opacity=".32" transform="rotate(.18 805 460)"/>
<rect x="675" y="235" width="260" height="52" rx="26" fill="#fffdf7" stroke="#1e3a5f" stroke-width="2.4"/><rect x="677" y="234" width="259" height="53" rx="27" fill="none" stroke="#1e3a5f" stroke-width="1.2" opacity=".32" transform="rotate(.18 805 261)"/><text x="805" y="269" font-family="'Kaiti SC','STKaiti','Noto Sans SC',sans-serif" font-size="29" font-weight="700" fill="#1e3a5f" text-anchor="middle" opacity="1"><tspan x="805" dy="0">执行平面</tspan></text>
<rect x="610" y="320" width="390" height="90" rx="22" fill="#fffdf7" stroke="#1e3a5f" stroke-width="3"/><rect x="612" y="319" width="389" height="91" rx="23" fill="none" stroke="#1e3a5f" stroke-width="1.2" opacity=".32" transform="rotate(.18 805 365)"/>
<text x="805" y="366" font-family="'Kaiti SC','STKaiti','Noto Sans SC',sans-serif" font-size="27" font-weight="700" fill="#1e3a5f" text-anchor="middle" opacity="1"><tspan x="805" dy="0">Environmental</tspan></text>
<text x="805" y="394" font-family="'Kaiti SC','STKaiti','Noto Sans SC',sans-serif" font-size="19" font-weight="500" fill="#55708f" text-anchor="middle" opacity="1"><tspan x="805" dy="0">租户 · 环境 · Runtime 依赖</tspan></text>
<rect x="610" y="445" width="390" height="90" rx="22" fill="#dcefe7" stroke="#3c8d77" stroke-width="3"/><rect x="612" y="444" width="389" height="91" rx="23" fill="none" stroke="#3c8d77" stroke-width="1.2" opacity=".32" transform="rotate(.18 805 490)"/>
<text x="805" y="490" font-family="'Kaiti SC','STKaiti','Noto Sans SC',sans-serif" font-size="27" font-weight="700" fill="#3c8d77" text-anchor="middle" opacity="1"><tspan x="805" dy="0">Agent State</tspan></text>
<text x="805" y="518" font-family="'Kaiti SC','STKaiti','Noto Sans SC',sans-serif" font-size="19" font-weight="500" fill="#1e3a5f" text-anchor="middle" opacity="1"><tspan x="805" dy="0">步骤 · 工具结果 · 错误 · 预算</tspan></text>
<rect x="610" y="570" width="390" height="90" rx="22" fill="#e9e0f4" stroke="#7651a6" stroke-width="3"/><rect x="612" y="569" width="389" height="91" rx="23" fill="none" stroke="#7651a6" stroke-width="1.2" opacity=".32" transform="rotate(.18 805 615)"/>
<text x="805" y="615" font-family="'Kaiti SC','STKaiti','Noto Sans SC',sans-serif" font-size="27" font-weight="700" fill="#7651a6" text-anchor="middle" opacity="1"><tspan x="805" dy="0">Orchestration</tspan></text>
<text x="805" y="643" font-family="'Kaiti SC','STKaiti','Noto Sans SC',sans-serif" font-size="19" font-weight="500" fill="#1e3a5f" text-anchor="middle" opacity="1"><tspan x="805" dy="0">Task Graph · Owner · Artifact</tspan></text>
<rect x="1085" y="210" width="455" height="500" rx="22" fill="#dcefe7" stroke="#3c8d77" stroke-width="3"/><rect x="1087" y="209" width="454" height="501" rx="23" fill="none" stroke="#3c8d77" stroke-width="1.2" opacity=".32" transform="rotate(.18 1312.5 460)"/>
<rect x="1185" y="235" width="255" height="52" rx="26" fill="#fffdf7" stroke="#3c8d77" stroke-width="2.4"/><rect x="1187" y="234" width="254" height="53" rx="27" fill="none" stroke="#3c8d77" stroke-width="1.2" opacity=".32" transform="rotate(.18 1312.5 261)"/><text x="1312.5" y="269" font-family="'Kaiti SC','STKaiti','Noto Sans SC',sans-serif" font-size="29" font-weight="700" fill="#3c8d77" text-anchor="middle" opacity="1"><tspan x="1312.5" dy="0">时间平面</tspan></text>
<rect x="1130" y="355" width="365" height="105" rx="22" fill="#fffdf7" stroke="#3c8d77" stroke-width="3"/><rect x="1132" y="354" width="364" height="106" rx="23" fill="none" stroke="#3c8d77" stroke-width="1.2" opacity=".32" transform="rotate(.18 1312.5 407.5)"/>
<text x="1312" y="400" font-family="'Kaiti SC','STKaiti','Noto Sans SC',sans-serif" font-size="27" font-weight="700" fill="#3c8d77" text-anchor="middle" opacity="1"><tspan x="1312" dy="0">Historical / Memory</tspan></text>
<text x="1312" y="432" font-family="'Kaiti SC','STKaiti','Noto Sans SC',sans-serif" font-size="20" font-weight="500" fill="#1e3a5f" text-anchor="middle" opacity="1"><tspan x="1312" dy="0">消息 · 摘要 · 偏好 · 经验</tspan></text>
<rect x="1130" y="510" width="365" height="105" rx="22" fill="#fffdf7" stroke="#c94c4c" stroke-width="3"/><rect x="1132" y="509" width="364" height="106" rx="23" fill="none" stroke="#c94c4c" stroke-width="1.2" opacity=".32" transform="rotate(.18 1312.5 562.5)"/>
<text x="1312" y="555" font-family="'Kaiti SC','STKaiti','Noto Sans SC',sans-serif" font-size="28" font-weight="700" fill="#c94c4c" text-anchor="middle" opacity="1"><tspan x="1312" dy="0">Temporal</tspan></text>
<text x="1312" y="587" font-family="'Kaiti SC','STKaiti','Noto Sans SC',sans-serif" font-size="20" font-weight="500" fill="#1e3a5f" text-anchor="middle" opacity="1"><tspan x="1312" dy="0">event · valid · observed · as_of</tspan></text>
<text x="800" y="790" font-family="'Kaiti SC','STKaiti','Noto Sans SC',sans-serif" font-size="27" font-weight="700" fill="#c94c4c" text-anchor="middle" opacity="1"><tspan x="800" dy="0">秘密与连接属于 Tool Runtime；模型通常只需要抽象后的权限与环境结论。</tspan></text>

<text x="1525" y="860" font-family="'Kaiti SC','STKaiti',sans-serif" font-size="18" fill="#55708f" text-anchor="end">生产级多智能体系统 · 第 04 章</text>
</svg>