<svg xmlns="http://www.w3.org/2000/svg" width="1600" height="900" viewBox="0 0 1600 900" role="img">
<defs><marker id="arrow-1e3a5f" viewBox="0 0 10 10" refX="9" refY="5" markerWidth="8" markerHeight="8" orient="auto-start-reverse"><path d="M 0 0 L 10 5 L 0 10 z" fill="#1e3a5f"/></marker><marker id="arrow-d59621" viewBox="0 0 10 10" refX="9" refY="5" markerWidth="8" markerHeight="8" orient="auto-start-reverse"><path d="M 0 0 L 10 5 L 0 10 z" fill="#d59621"/></marker><marker id="arrow-3c8d77" viewBox="0 0 10 10" refX="9" refY="5" markerWidth="8" markerHeight="8" orient="auto-start-reverse"><path d="M 0 0 L 10 5 L 0 10 z" fill="#3c8d77"/></marker><marker id="arrow-c94c4c" viewBox="0 0 10 10" refX="9" refY="5" markerWidth="8" markerHeight="8" orient="auto-start-reverse"><path d="M 0 0 L 10 5 L 0 10 z" fill="#c94c4c"/></marker><marker id="arrow-7651a6" viewBox="0 0 10 10" refX="9" refY="5" markerWidth="8" markerHeight="8" orient="auto-start-reverse"><path d="M 0 0 L 10 5 L 0 10 z" fill="#7651a6"/></marker><marker id="arrow-55708f" viewBox="0 0 10 10" refX="9" refY="5" markerWidth="8" markerHeight="8" orient="auto-start-reverse"><path d="M 0 0 L 10 5 L 0 10 z" fill="#55708f"/></marker></defs>
<rect width="1600" height="900" fill="#fbf7ec"/>
<path d="M 20 180 C 420 171, 920 190, 1580 177 M 30 718 C 530 727, 980 707, 1570 721" stroke="#e7dfce" stroke-width="2" fill="none" opacity=".52"/>

<text x="70" y="76" font-family="'Kaiti SC','STKaiti','Noto Sans SC',sans-serif" font-size="43" font-weight="760" fill="#1e3a5f" text-anchor="start" opacity="1"><tspan x="70" dy="0">Context Pack：一次模型调用的输入合同</tspan></text><path d="M 70 94 C 265 87, 485 102, 710 93" fill="none" stroke="#d59621" stroke-width="7" stroke-linecap="round" opacity=".85"/><text x="72" y="128" font-family="'Kaiti SC','STKaiti','Noto Sans SC',sans-serif" font-size="23" font-weight="500" fill="#55708f" text-anchor="start" opacity="1"><tspan x="72" dy="0">每个槽位都有来源、版本、预算和遗漏规则；Pack 可以保存、重放与评测。</tspan></text>
<rect x="65" y="205" width="1040" height="530" rx="22" fill="#fffdf7" stroke="#1e3a5f" stroke-width="4"/><rect x="67" y="204" width="1039" height="531" rx="23" fill="none" stroke="#1e3a5f" stroke-width="1.2" opacity=".32" transform="rotate(.18 585 470)"/>
<text x="105" y="260" font-family="'Kaiti SC','STKaiti','Noto Sans SC',sans-serif" font-size="34" font-weight="760" fill="#1e3a5f" text-anchor="start" opacity="1"><tspan x="105" dy="0">Context Pack</tspan></text>
<rect x="820" y="225" width="230" height="52" rx="26" fill="#dfeaf4" stroke="#1e3a5f" stroke-width="2.4"/><rect x="822" y="224" width="229" height="53" rx="27" fill="none" stroke="#1e3a5f" stroke-width="1.2" opacity=".32" transform="rotate(.18 935 251)"/><text x="935" y="259" font-family="'Kaiti SC','STKaiti','Noto Sans SC',sans-serif" font-size="20" font-weight="700" fill="#1e3a5f" text-anchor="middle" opacity="1"><tspan x="935" dy="0">pack_hash = sha256…</tspan></text>
<rect x="105" y="315" width="210" height="150" rx="22" fill="#f7e7b8" stroke="#d59621" stroke-width="3"/><rect x="107" y="314" width="209" height="151" rx="23" fill="none" stroke="#d59621" stroke-width="1.2" opacity=".32" transform="rotate(.18 210 390)"/>
<text x="210" y="362" font-family="'Kaiti SC','STKaiti','Noto Sans SC',sans-serif" font-size="27" font-weight="700" fill="#d59621" text-anchor="middle" opacity="1"><tspan x="210" dy="0">Instructions</tspan></text>
<text x="210" y="400" font-family="'Kaiti SC','STKaiti','Noto Sans SC',sans-serif" font-size="20" font-weight="500" fill="#1e3a5f" text-anchor="middle" opacity="1"><tspan x="210" dy="0">适用规则</tspan><tspan x="210" dy="25.6">输出合同</tspan></text>
<rect x="345" y="315" width="210" height="150" rx="22" fill="#dfeaf4" stroke="#1e3a5f" stroke-width="3"/><rect x="347" y="314" width="209" height="151" rx="23" fill="none" stroke="#1e3a5f" stroke-width="1.2" opacity=".32" transform="rotate(.18 450 390)"/>
<text x="450" y="362" font-family="'Kaiti SC','STKaiti','Noto Sans SC',sans-serif" font-size="27" font-weight="700" fill="#1e3a5f" text-anchor="middle" opacity="1"><tspan x="450" dy="0">Goal + State</tspan></text>
<text x="450" y="400" font-family="'Kaiti SC','STKaiti','Noto Sans SC',sans-serif" font-size="20" font-weight="500" fill="#1e3a5f" text-anchor="middle" opacity="1"><tspan x="450" dy="0">验收 · as_of</tspan><tspan x="450" dy="25.6">步骤 · 未决问题</tspan></text>
<rect x="585" y="315" width="210" height="150" rx="22" fill="#dcefe7" stroke="#3c8d77" stroke-width="3"/><rect x="587" y="314" width="209" height="151" rx="23" fill="none" stroke="#3c8d77" stroke-width="1.2" opacity=".32" transform="rotate(.18 690 390)"/>
<text x="690" y="362" font-family="'Kaiti SC','STKaiti','Noto Sans SC',sans-serif" font-size="27" font-weight="700" fill="#3c8d77" text-anchor="middle" opacity="1"><tspan x="690" dy="0">Evidence</tspan></text>
<text x="690" y="400" font-family="'Kaiti SC','STKaiti','Noto Sans SC',sans-serif" font-size="20" font-weight="500" fill="#1e3a5f" text-anchor="middle" opacity="1"><tspan x="690" dy="0">Claim · 来源</tspan><tspan x="690" dy="25.6">时间 · Locator</tspan></text>
<rect x="825" y="315" width="210" height="150" rx="22" fill="#e9e0f4" stroke="#7651a6" stroke-width="3"/><rect x="827" y="314" width="209" height="151" rx="23" fill="none" stroke="#7651a6" stroke-width="1.2" opacity=".32" transform="rotate(.18 930 390)"/>
<text x="930" y="362" font-family="'Kaiti SC','STKaiti','Noto Sans SC',sans-serif" font-size="27" font-weight="700" fill="#7651a6" text-anchor="middle" opacity="1"><tspan x="930" dy="0">Capabilities</tspan></text>
<text x="930" y="400" font-family="'Kaiti SC','STKaiti','Noto Sans SC',sans-serif" font-size="20" font-weight="500" fill="#1e3a5f" text-anchor="middle" opacity="1"><tspan x="930" dy="0">工具 · Schema</tspan><tspan x="930" dy="25.6">权限 · 风险</tspan></text>
<rect x="105" y="515" width="450" height="150" rx="22" fill="#f7dddd" stroke="#c94c4c" stroke-width="3"/><rect x="107" y="514" width="449" height="151" rx="23" fill="none" stroke="#c94c4c" stroke-width="1.2" opacity=".32" transform="rotate(.18 330 590)"/>
<text x="330" y="562" font-family="'Kaiti SC','STKaiti','Noto Sans SC',sans-serif" font-size="27" font-weight="700" fill="#c94c4c" text-anchor="middle" opacity="1"><tspan x="330" dy="0">Omissions</tspan></text>
<text x="330" y="600" font-family="'Kaiti SC','STKaiti','Noto Sans SC',sans-serif" font-size="20" font-weight="500" fill="#1e3a5f" text-anchor="middle" opacity="1"><tspan x="330" dy="0">未选内容 + 明确原因</tspan><tspan x="330" dy="25.6">越权 · 过期 · 被替代 · 超预算</tspan></text>
<rect x="585" y="515" width="450" height="150" rx="22" fill="#fffdf7" stroke="#3c8d77" stroke-width="3"/><rect x="587" y="514" width="449" height="151" rx="23" fill="none" stroke="#3c8d77" stroke-width="1.2" opacity=".32" transform="rotate(.18 810 590)"/>
<text x="810" y="562" font-family="'Kaiti SC','STKaiti','Noto Sans SC',sans-serif" font-size="27" font-weight="700" fill="#3c8d77" text-anchor="middle" opacity="1"><tspan x="810" dy="0">Token Allocation</tspan></text>
<text x="810" y="600" font-family="'Kaiti SC','STKaiti','Noto Sans SC',sans-serif" font-size="20" font-weight="500" fill="#1e3a5f" text-anchor="middle" opacity="1"><tspan x="810" dy="0">指令 · 任务 · 证据 · 工具</tspan><tspan x="810" dy="25.6">始终预留回答与修复空间</tspan></text>
<rect x="1160" y="210" width="380" height="525" rx="22" fill="#fffdf7" stroke="#c94c4c" stroke-width="3"/><rect x="1162" y="209" width="379" height="526" rx="23" fill="none" stroke="#c94c4c" stroke-width="1.2" opacity=".32" transform="rotate(.18 1350 472.5)"/>
<text x="1350" y="270" font-family="'Kaiti SC','STKaiti','Noto Sans SC',sans-serif" font-size="31" font-weight="760" fill="#c94c4c" text-anchor="middle" opacity="1"><tspan x="1350" dy="0">六条不变量</tspan></text>
<text x="1200" y="340" font-family="'Kaiti SC','STKaiti','Noto Sans SC',sans-serif" font-size="23" font-weight="500" fill="#1e3a5f" text-anchor="start" opacity="1"><tspan x="1200" dy="0">① 相关：服务当前任务</tspan><tspan x="1200" dy="35.65">② 授权：用户和用途允许</tspan><tspan x="1200" dy="35.65">③ 及时：满足 as_of / freshness</tspan><tspan x="1200" dy="35.65">④ 可追溯：来源 / 版本 / Locator</tspan><tspan x="1200" dy="35.65">⑤ 有预算：按策略选择</tspan><tspan x="1200" dy="35.65">⑥ 可评测：可保存与重放</tspan></text>
<text x="800" y="805" font-family="'Kaiti SC','STKaiti','Noto Sans SC',sans-serif" font-size="27" font-weight="700" fill="#3c8d77" text-anchor="middle" opacity="1"><tspan x="800" dy="0">Chunk 只有绑定来源、时间、权限、Locator 和 Claim 后，才升级为 Evidence。</tspan></text>

<text x="1525" y="860" font-family="'Kaiti SC','STKaiti',sans-serif" font-size="18" fill="#55708f" text-anchor="end">生产级多智能体系统 · 第 04 章</text>
</svg>