<svg xmlns="http://www.w3.org/2000/svg" width="1600" height="900" viewBox="0 0 1600 900" role="img">
<defs><marker id="arrow-1e3a5f" viewBox="0 0 10 10" refX="9" refY="5" markerWidth="8" markerHeight="8" orient="auto-start-reverse"><path d="M 0 0 L 10 5 L 0 10 z" fill="#1e3a5f"/></marker><marker id="arrow-d59621" viewBox="0 0 10 10" refX="9" refY="5" markerWidth="8" markerHeight="8" orient="auto-start-reverse"><path d="M 0 0 L 10 5 L 0 10 z" fill="#d59621"/></marker><marker id="arrow-3c8d77" viewBox="0 0 10 10" refX="9" refY="5" markerWidth="8" markerHeight="8" orient="auto-start-reverse"><path d="M 0 0 L 10 5 L 0 10 z" fill="#3c8d77"/></marker><marker id="arrow-c94c4c" viewBox="0 0 10 10" refX="9" refY="5" markerWidth="8" markerHeight="8" orient="auto-start-reverse"><path d="M 0 0 L 10 5 L 0 10 z" fill="#c94c4c"/></marker><marker id="arrow-7651a6" viewBox="0 0 10 10" refX="9" refY="5" markerWidth="8" markerHeight="8" orient="auto-start-reverse"><path d="M 0 0 L 10 5 L 0 10 z" fill="#7651a6"/></marker><marker id="arrow-55708f" viewBox="0 0 10 10" refX="9" refY="5" markerWidth="8" markerHeight="8" orient="auto-start-reverse"><path d="M 0 0 L 10 5 L 0 10 z" fill="#55708f"/></marker></defs>
<rect width="1600" height="900" fill="#fbf7ec"/>
<path d="M 20 180 C 420 171, 920 190, 1580 177 M 30 718 C 530 727, 980 707, 1570 721" stroke="#e7dfce" stroke-width="2" fill="none" opacity=".52"/>

<text x="70" y="76" font-family="'Kaiti SC','STKaiti','Noto Sans SC',sans-serif" font-size="43" font-weight="760" fill="#1e3a5f" text-anchor="start" opacity="1"><tspan x="70" dy="0">企业知识调查：确定性治理主干 + 受约束检索推理</tspan></text><path d="M 70 94 C 265 87, 485 102, 710 93" fill="none" stroke="#d59621" stroke-width="7" stroke-linecap="round" opacity=".85"/><text x="72" y="128" font-family="'Kaiti SC','STKaiti','Noto Sans SC',sans-serif" font-size="23" font-weight="500" fill="#55708f" text-anchor="start" opacity="1"><tspan x="72" dy="0">从 Source Manifest 到 Claim-Citation，每一层都有版本、权限、时态和 Trace。</tspan></text>
<rect x="45" y="245" width="225" height="360" rx="22" fill="#fffdf7" stroke="#d59621" stroke-width="3"/><rect x="47" y="244" width="224" height="361" rx="23" fill="none" stroke="#d59621" stroke-width="1.2" opacity=".32" transform="rotate(.18 157.5 425)"/>
<text x="157" y="295" font-family="'Kaiti SC','STKaiti','Noto Sans SC',sans-serif" font-size="29" font-weight="720" fill="#d59621" text-anchor="middle" opacity="1"><tspan x="157" dy="0">Source Registry</tspan></text>
<text x="157" y="355" font-family="'Kaiti SC','STKaiti','Noto Sans SC',sans-serif" font-size="21" font-weight="500" fill="#1e3a5f" text-anchor="middle" opacity="1"><tspan x="157" dy="0">Service Catalog</tspan><tspan x="157" dy="31.5">Deployment DB</tspan><tspan x="157" dy="31.5">Incident Store</tspan><tspan x="157" dy="31.5">Runbook Repo</tspan><tspan x="157" dy="31.5">Policy Store</tspan></text>
<rect x="335" y="245" width="220" height="360" rx="22" fill="#dfeaf4" stroke="#1e3a5f" stroke-width="3"/><rect x="337" y="244" width="219" height="361" rx="23" fill="none" stroke="#1e3a5f" stroke-width="1.2" opacity=".32" transform="rotate(.18 445 425)"/>
<text x="445" y="295" font-family="'Kaiti SC','STKaiti','Noto Sans SC',sans-serif" font-size="29" font-weight="720" fill="#1e3a5f" text-anchor="middle" opacity="1"><tspan x="445" dy="0">Ingestion</tspan></text>
<text x="445" y="355" font-family="'Kaiti SC','STKaiti','Noto Sans SC',sans-serif" font-size="21" font-weight="500" fill="#1e3a5f" text-anchor="middle" opacity="1"><tspan x="445" dy="0">解析 · Chunk</tspan><tspan x="445" dy="31.5">Evidence Anchor</tspan><tspan x="445" dy="31.5">实体链接</tspan><tspan x="445" dy="31.5">版本与删除</tspan><tspan x="445" dy="31.5">索引发布</tspan></text>
<rect x="620" y="245" width="220" height="360" rx="22" fill="#e9e0f4" stroke="#7651a6" stroke-width="3"/><rect x="622" y="244" width="219" height="361" rx="23" fill="none" stroke="#7651a6" stroke-width="1.2" opacity=".32" transform="rotate(.18 730 425)"/>
<text x="730" y="295" font-family="'Kaiti SC','STKaiti','Noto Sans SC',sans-serif" font-size="29" font-weight="720" fill="#7651a6" text-anchor="middle" opacity="1"><tspan x="730" dy="0">Retrieval</tspan></text>
<text x="730" y="355" font-family="'Kaiti SC','STKaiti','Noto Sans SC',sans-serif" font-size="21" font-weight="500" fill="#1e3a5f" text-anchor="middle" opacity="1"><tspan x="730" dy="0">Query Plan</tspan><tspan x="730" dy="31.5">FTS · Vector</tspan><tspan x="730" dy="31.5">Graph · SQL</tspan><tspan x="730" dy="31.5">Gap Retrieval</tspan><tspan x="730" dy="31.5">终止条件</tspan></text>
<rect x="905" y="245" width="220" height="360" rx="22" fill="#dcefe7" stroke="#3c8d77" stroke-width="3"/><rect x="907" y="244" width="219" height="361" rx="23" fill="none" stroke="#3c8d77" stroke-width="1.2" opacity=".32" transform="rotate(.18 1015 425)"/>
<text x="1015" y="295" font-family="'Kaiti SC','STKaiti','Noto Sans SC',sans-serif" font-size="29" font-weight="720" fill="#3c8d77" text-anchor="middle" opacity="1"><tspan x="1015" dy="0">Context Builder</tspan></text>
<text x="1015" y="355" font-family="'Kaiti SC','STKaiti','Noto Sans SC',sans-serif" font-size="21" font-weight="500" fill="#1e3a5f" text-anchor="middle" opacity="1"><tspan x="1015" dy="0">ACL · 时态</tspan><tspan x="1015" dy="31.5">Evidence Gate</tspan><tspan x="1015" dy="31.5">去重 · 压缩</tspan><tspan x="1015" dy="31.5">Budget Select</tspan><tspan x="1015" dy="31.5">Context Pack</tspan></text>
<rect x="1190" y="245" width="365" height="360" rx="22" fill="#fffdf7" stroke="#c94c4c" stroke-width="3"/><rect x="1192" y="244" width="364" height="361" rx="23" fill="none" stroke="#c94c4c" stroke-width="1.2" opacity=".32" transform="rotate(.18 1372.5 425)"/>
<text x="1372" y="295" font-family="'Kaiti SC','STKaiti','Noto Sans SC',sans-serif" font-size="29" font-weight="720" fill="#c94c4c" text-anchor="middle" opacity="1"><tspan x="1372" dy="0">Investigation Answer</tspan></text>
<rect x="1235" y="345" width="275" height="120" rx="22" fill="#f7dddd" stroke="#c94c4c" stroke-width="3"/><rect x="1237" y="344" width="274" height="121" rx="23" fill="none" stroke="#c94c4c" stroke-width="1.2" opacity=".32" transform="rotate(.18 1372.5 405)"/>
<text x="1372" y="390" font-family="'Kaiti SC','STKaiti','Noto Sans SC',sans-serif" font-size="28" font-weight="720" fill="#c94c4c" text-anchor="middle" opacity="1"><tspan x="1372" dy="0">Claim</tspan></text>
<text x="1372" y="430" font-family="'Kaiti SC','STKaiti','Noto Sans SC',sans-serif" font-size="19" font-weight="500" fill="#1e3a5f" text-anchor="middle" opacity="1"><tspan x="1372" dy="0">fact · inference · hypothesis</tspan></text>
<text x="1372" y="520" font-family="'Kaiti SC','STKaiti','Noto Sans SC',sans-serif" font-size="21" font-weight="500" fill="#1e3a5f" text-anchor="middle" opacity="1"><tspan x="1372" dy="0">Evidence IDs</tspan><tspan x="1372" dy="31.5">Missing Evidence</tspan><tspan x="1372" dy="31.5">Context Pack ID</tspan></text>
<path d="M 270 425 C 291.6666666666667 423, 313.3333333333333 427, 335 425" fill="none" stroke="#d59621" stroke-width="4" stroke-linecap="round" marker-end="url(#arrow-d59621)"/>
<path d="M 555 425 C 576.6666666666666 423, 598.3333333333334 427, 620 425" fill="none" stroke="#1e3a5f" stroke-width="4" stroke-linecap="round" marker-end="url(#arrow-1e3a5f)"/>
<path d="M 840 425 C 861.6666666666666 423, 883.3333333333334 427, 905 425" fill="none" stroke="#7651a6" stroke-width="4" stroke-linecap="round" marker-end="url(#arrow-7651a6)"/>
<path d="M 1125 425 C 1146.6666666666667 423, 1168.3333333333333 427, 1190 425" fill="none" stroke="#3c8d77" stroke-width="4" stroke-linecap="round" marker-end="url(#arrow-3c8d77)"/>
<rect x="290" y="690" width="1020" height="80" rx="35" fill="#fffdf7" stroke="#1e3a5f" stroke-width="3" stroke-dasharray="12 9"/><rect x="292" y="689" width="1019" height="81" rx="36" fill="none" stroke="#1e3a5f" stroke-width="1.2" opacity=".32" transform="rotate(.18 800 730)"/>
<text x="800" y="738" font-family="'Kaiti SC','STKaiti','Noto Sans SC',sans-serif" font-size="26" font-weight="720" fill="#1e3a5f" text-anchor="middle" opacity="1"><tspan x="800" dy="0">Context Trace + Retriever / Pack / Answer Evaluation</tspan></text>
<path d="M 1015 605 C 1015 603, 1015 692, 1015 690" fill="none" stroke="#1e3a5f" stroke-width="4" stroke-linecap="round" stroke-dasharray="9 7" marker-end="url(#arrow-1e3a5f)"/>
<text x="800" y="825" font-family="'Kaiti SC','STKaiti','Noto Sans SC',sans-serif" font-size="26" font-weight="700" fill="#c94c4c" text-anchor="middle" opacity="1"><tspan x="800" dy="0">真正的产物不是一段答案，而是一条能够被重放的证据决策链。</tspan></text>

<text x="1525" y="860" font-family="'Kaiti SC','STKaiti',sans-serif" font-size="18" fill="#55708f" text-anchor="end">生产级多智能体系统 · 第 04 章</text>
</svg>