<svg xmlns="http://www.w3.org/2000/svg" width="1600" height="900" viewBox="0 0 1600 900" role="img">
<defs><marker id="arrow-1e3a5f" viewBox="0 0 10 10" refX="9" refY="5" markerWidth="8" markerHeight="8" orient="auto-start-reverse"><path d="M 0 0 L 10 5 L 0 10 z" fill="#1e3a5f"/></marker><marker id="arrow-d59621" viewBox="0 0 10 10" refX="9" refY="5" markerWidth="8" markerHeight="8" orient="auto-start-reverse"><path d="M 0 0 L 10 5 L 0 10 z" fill="#d59621"/></marker><marker id="arrow-3c8d77" viewBox="0 0 10 10" refX="9" refY="5" markerWidth="8" markerHeight="8" orient="auto-start-reverse"><path d="M 0 0 L 10 5 L 0 10 z" fill="#3c8d77"/></marker><marker id="arrow-c94c4c" viewBox="0 0 10 10" refX="9" refY="5" markerWidth="8" markerHeight="8" orient="auto-start-reverse"><path d="M 0 0 L 10 5 L 0 10 z" fill="#c94c4c"/></marker><marker id="arrow-7651a6" viewBox="0 0 10 10" refX="9" refY="5" markerWidth="8" markerHeight="8" orient="auto-start-reverse"><path d="M 0 0 L 10 5 L 0 10 z" fill="#7651a6"/></marker><marker id="arrow-55708f" viewBox="0 0 10 10" refX="9" refY="5" markerWidth="8" markerHeight="8" orient="auto-start-reverse"><path d="M 0 0 L 10 5 L 0 10 z" fill="#55708f"/></marker></defs>
<rect width="1600" height="900" fill="#fbf7ec"/>
<path d="M 20 180 C 420 171, 920 190, 1580 177 M 30 718 C 530 727, 980 707, 1570 721" stroke="#e7dfce" stroke-width="2" fill="none" opacity=".52"/>

<text x="70" y="76" font-family="'Kaiti SC','STKaiti','Noto Sans SC',sans-serif" font-size="43" font-weight="760" fill="#1e3a5f" text-anchor="start" opacity="1"><tspan x="70" dy="0">GraphRAG 检索相连事实，而不是相邻文字</tspan></text><path d="M 70 94 C 265 87, 485 102, 710 93" fill="none" stroke="#d59621" stroke-width="7" stroke-linecap="round" opacity=".85"/><text x="72" y="128" font-family="'Kaiti SC','STKaiti','Noto Sans SC',sans-serif" font-size="23" font-weight="500" fill="#55708f" text-anchor="start" opacity="1"><tspan x="72" dy="0">关系的类型、方向、有效时间、来源与权限共同决定路径是否可用。</tspan></text>
<rect x="55" y="200" width="210" height="125" rx="22" fill="#dcefe7" stroke="#3c8d77" stroke-width="3"/><rect x="57" y="199" width="209" height="126" rx="23" fill="none" stroke="#3c8d77" stroke-width="1.2" opacity=".32" transform="rotate(.18 160 262.5)"/>
<text x="160" y="250" font-family="'Kaiti SC','STKaiti','Noto Sans SC',sans-serif" font-size="29" font-weight="720" fill="#3c8d77" text-anchor="middle" opacity="1"><tspan x="160" dy="0">Team</tspan></text>
<text x="160" y="288" font-family="'Kaiti SC','STKaiti','Noto Sans SC',sans-serif" font-size="19" font-weight="500" fill="#1e3a5f" text-anchor="middle" opacity="1"><tspan x="160" dy="0">owner @ as_of</tspan></text>
<rect x="55" y="360" width="210" height="125" rx="22" fill="#dfeaf4" stroke="#1e3a5f" stroke-width="3"/><rect x="57" y="359" width="209" height="126" rx="23" fill="none" stroke="#1e3a5f" stroke-width="1.2" opacity=".32" transform="rotate(.18 160 422.5)"/>
<text x="160" y="410" font-family="'Kaiti SC','STKaiti','Noto Sans SC',sans-serif" font-size="30" font-weight="720" fill="#1e3a5f" text-anchor="middle" opacity="1"><tspan x="160" dy="0">Service</tspan></text>
<text x="160" y="448" font-family="'Kaiti SC','STKaiti','Noto Sans SC',sans-serif" font-size="20" font-weight="500" fill="#55708f" text-anchor="middle" opacity="1"><tspan x="160" dy="0">payment-api</tspan></text>
<rect x="370" y="200" width="230" height="125" rx="22" fill="#f7e7b8" stroke="#d59621" stroke-width="3"/><rect x="372" y="199" width="229" height="126" rx="23" fill="none" stroke="#d59621" stroke-width="1.2" opacity=".32" transform="rotate(.18 485 262.5)"/>
<text x="485" y="250" font-family="'Kaiti SC','STKaiti','Noto Sans SC',sans-serif" font-size="29" font-weight="720" fill="#d59621" text-anchor="middle" opacity="1"><tspan x="485" dy="0">Deployment</tspan></text>
<text x="485" y="288" font-family="'Kaiti SC','STKaiti','Noto Sans SC',sans-serif" font-size="18" font-weight="500" fill="#1e3a5f" text-anchor="middle" opacity="1"><tspan x="485" dy="0">release-2026.07.23.1</tspan></text>
<rect x="370" y="520" width="230" height="125" rx="22" fill="#f7dddd" stroke="#c94c4c" stroke-width="3"/><rect x="372" y="519" width="229" height="126" rx="23" fill="none" stroke="#c94c4c" stroke-width="1.2" opacity=".32" transform="rotate(.18 485 582.5)"/>
<text x="485" y="570" font-family="'Kaiti SC','STKaiti','Noto Sans SC',sans-serif" font-size="29" font-weight="720" fill="#c94c4c" text-anchor="middle" opacity="1"><tspan x="485" dy="0">Incident</tspan></text>
<text x="485" y="608" font-family="'Kaiti SC','STKaiti','Noto Sans SC',sans-serif" font-size="20" font-weight="500" fill="#1e3a5f" text-anchor="middle" opacity="1"><tspan x="485" dy="0">PAY-4097</tspan></text>
<rect x="730" y="360" width="230" height="125" rx="22" fill="#e9e0f4" stroke="#7651a6" stroke-width="3"/><rect x="732" y="359" width="229" height="126" rx="23" fill="none" stroke="#7651a6" stroke-width="1.2" opacity=".32" transform="rotate(.18 845 422.5)"/>
<text x="845" y="410" font-family="'Kaiti SC','STKaiti','Noto Sans SC',sans-serif" font-size="29" font-weight="720" fill="#7651a6" text-anchor="middle" opacity="1"><tspan x="845" dy="0">Runbook</tspan></text>
<text x="845" y="448" font-family="'Kaiti SC','STKaiti','Noto Sans SC',sans-serif" font-size="20" font-weight="500" fill="#1e3a5f" text-anchor="middle" opacity="1"><tspan x="845" dy="0">valid version</tspan></text>
<rect x="1090" y="360" width="220" height="125" rx="22" fill="#f7dddd" stroke="#c94c4c" stroke-width="3"/><rect x="1092" y="359" width="219" height="126" rx="23" fill="none" stroke="#c94c4c" stroke-width="1.2" opacity=".32" transform="rotate(.18 1200 422.5)"/>
<text x="1200" y="410" font-family="'Kaiti SC','STKaiti','Noto Sans SC',sans-serif" font-size="29" font-weight="720" fill="#c94c4c" text-anchor="middle" opacity="1"><tspan x="1200" dy="0">Policy</tspan></text>
<text x="1200" y="448" font-family="'Kaiti SC','STKaiti','Noto Sans SC',sans-serif" font-size="19" font-weight="500" fill="#1e3a5f" text-anchor="middle" opacity="1"><tspan x="1200" dy="0">scope + approval</tspan></text>
<path d="M 160 325 C 160 323, 160 362, 160 360" fill="none" stroke="#3c8d77" stroke-width="4" stroke-linecap="round" marker-end="url(#arrow-3c8d77)"/>
<text x="185" y="347" font-family="'Kaiti SC','STKaiti','Noto Sans SC',sans-serif" font-size="18" font-weight="500" fill="#3c8d77" text-anchor="start" opacity="1"><tspan x="185" dy="0">OWNS</tspan></text>
<path d="M 265 390 C 300 388, 335 272, 370 270" fill="none" stroke="#d59621" stroke-width="4" stroke-linecap="round" marker-end="url(#arrow-d59621)"/>
<text x="315" y="305" font-family="'Kaiti SC','STKaiti','Noto Sans SC',sans-serif" font-size="18" font-weight="500" fill="#d59621" text-anchor="middle" opacity="1"><tspan x="315" dy="0">DEPLOYED_AS</tspan></text>
<path d="M 265 450 C 300 448, 335 582, 370 580" fill="none" stroke="#c94c4c" stroke-width="4" stroke-linecap="round" marker-end="url(#arrow-c94c4c)"/>
<text x="315" y="550" font-family="'Kaiti SC','STKaiti','Noto Sans SC',sans-serif" font-size="18" font-weight="500" fill="#c94c4c" text-anchor="middle" opacity="1"><tspan x="315" dy="0">AFFECTED_BY</tspan></text>
<path d="M 265 420 C 420 418, 575 422, 730 420" fill="none" stroke="#7651a6" stroke-width="4" stroke-linecap="round" marker-end="url(#arrow-7651a6)"/>
<text x="500" y="395" font-family="'Kaiti SC','STKaiti','Noto Sans SC',sans-serif" font-size="18" font-weight="500" fill="#7651a6" text-anchor="middle" opacity="1"><tspan x="500" dy="0">GOVERNED_BY</tspan></text>
<path d="M 960 420 C 1003.3333333333334 418, 1046.6666666666667 422, 1090 420" fill="none" stroke="#c94c4c" stroke-width="4" stroke-linecap="round" marker-end="url(#arrow-c94c4c)"/>
<text x="1025" y="395" font-family="'Kaiti SC','STKaiti','Noto Sans SC',sans-serif" font-size="18" font-weight="500" fill="#c94c4c" text-anchor="middle" opacity="1"><tspan x="1025" dy="0">APPLIES_TO</tspan></text>
<rect x="1370" y="245" width="170" height="355" rx="22" fill="#fffdf7" stroke="#1e3a5f" stroke-width="3" stroke-dasharray="10 8"/><rect x="1372" y="244" width="169" height="356" rx="23" fill="none" stroke="#1e3a5f" stroke-width="1.2" opacity=".32" transform="rotate(.18 1455 422.5)"/>
<text x="1455" y="290" font-family="'Kaiti SC','STKaiti','Noto Sans SC',sans-serif" font-size="28" font-weight="720" fill="#1e3a5f" text-anchor="middle" opacity="1"><tspan x="1455" dy="0">每条边</tspan></text>
<text x="1455" y="345" font-family="'Kaiti SC','STKaiti','Noto Sans SC',sans-serif" font-size="20" font-weight="500" fill="#1e3a5f" text-anchor="middle" opacity="1"><tspan x="1455" dy="0">valid_from/to</tspan><tspan x="1455" dy="31">source_version</tspan><tspan x="1455" dy="31">ACL label</tspan><tspan x="1455" dy="31">extraction method</tspan><tspan x="1455" dy="31">confidence</tspan><tspan x="1455" dy="31">supersedes</tspan></text>
<text x="800" y="755" font-family="'Kaiti SC','STKaiti','Noto Sans SC',sans-serif" font-size="27" font-weight="700" fill="#c94c4c" text-anchor="middle" opacity="1"><tspan x="800" dy="0">“发布后发生”只证明时间相关；根因还需要机制、差异或回滚对照证据。</tspan></text>

<text x="1525" y="860" font-family="'Kaiti SC','STKaiti',sans-serif" font-size="18" fill="#55708f" text-anchor="end">生产级多智能体系统 · 第 04 章</text>
</svg>