<svg xmlns="http://www.w3.org/2000/svg" width="1600" height="900" viewBox="0 0 1600 900" role="img">
<defs><marker id="arrow-1e3a5f" viewBox="0 0 10 10" refX="9" refY="5" markerWidth="8" markerHeight="8" orient="auto-start-reverse"><path d="M 0 0 L 10 5 L 0 10 z" fill="#1e3a5f"/></marker><marker id="arrow-d59621" viewBox="0 0 10 10" refX="9" refY="5" markerWidth="8" markerHeight="8" orient="auto-start-reverse"><path d="M 0 0 L 10 5 L 0 10 z" fill="#d59621"/></marker><marker id="arrow-3c8d77" viewBox="0 0 10 10" refX="9" refY="5" markerWidth="8" markerHeight="8" orient="auto-start-reverse"><path d="M 0 0 L 10 5 L 0 10 z" fill="#3c8d77"/></marker><marker id="arrow-c94c4c" viewBox="0 0 10 10" refX="9" refY="5" markerWidth="8" markerHeight="8" orient="auto-start-reverse"><path d="M 0 0 L 10 5 L 0 10 z" fill="#c94c4c"/></marker><marker id="arrow-7651a6" viewBox="0 0 10 10" refX="9" refY="5" markerWidth="8" markerHeight="8" orient="auto-start-reverse"><path d="M 0 0 L 10 5 L 0 10 z" fill="#7651a6"/></marker><marker id="arrow-55708f" viewBox="0 0 10 10" refX="9" refY="5" markerWidth="8" markerHeight="8" orient="auto-start-reverse"><path d="M 0 0 L 10 5 L 0 10 z" fill="#55708f"/></marker></defs>
<rect width="1600" height="900" fill="#fbf7ec"/>
<path d="M 20 180 C 420 171, 920 190, 1580 177 M 30 718 C 530 727, 980 707, 1570 721" stroke="#e7dfce" stroke-width="2" fill="none" opacity=".52"/>

<text x="70" y="76" font-family="'Kaiti SC','STKaiti','Noto Sans SC',sans-serif" font-size="43" font-weight="760" fill="#1e3a5f" text-anchor="start" opacity="1"><tspan x="70" dy="0">Hybrid Retrieval 负责分工，Agentic Retrieval 负责补缺口</tspan></text><path d="M 70 94 C 265 87, 485 102, 710 93" fill="none" stroke="#d59621" stroke-width="7" stroke-linecap="round" opacity=".85"/><text x="72" y="128" font-family="'Kaiti SC','STKaiti','Noto Sans SC',sans-serif" font-size="23" font-weight="500" fill="#55708f" text-anchor="start" opacity="1"><tspan x="72" dy="0">先按查询形状选择通道，再用证据充分性决定回答、补检索或部分结束。</tspan></text>
<rect x="55" y="355" width="190" height="135" rx="22" fill="#f7e7b8" stroke="#d59621" stroke-width="3"/><rect x="57" y="354" width="189" height="136" rx="23" fill="none" stroke="#d59621" stroke-width="1.2" opacity=".32" transform="rotate(.18 150 422.5)"/>
<text x="150" y="405" font-family="'Kaiti SC','STKaiti','Noto Sans SC',sans-serif" font-size="30" font-weight="720" fill="#d59621" text-anchor="middle" opacity="1"><tspan x="150" dy="0">Query Plan</tspan></text>
<text x="150" y="443" font-family="'Kaiti SC','STKaiti','Noto Sans SC',sans-serif" font-size="18" font-weight="500" fill="#1e3a5f" text-anchor="middle" opacity="1"><tspan x="150" dy="0">实体 · 时间 · 证据要求</tspan></text>
<rect x="330" y="190" width="210" height="95" rx="22" fill="#dfeaf4" stroke="#1e3a5f" stroke-width="3"/><rect x="332" y="189" width="209" height="96" rx="23" fill="none" stroke="#1e3a5f" stroke-width="1.2" opacity=".32" transform="rotate(.18 435 237.5)"/>
<text x="435" y="248" font-family="'Kaiti SC','STKaiti','Noto Sans SC',sans-serif" font-size="27" font-weight="700" fill="#1e3a5f" text-anchor="middle" opacity="1"><tspan x="435" dy="0">FTS / BM25</tspan></text>
<rect x="330" y="315" width="210" height="95" rx="22" fill="#dcefe7" stroke="#3c8d77" stroke-width="3"/><rect x="332" y="314" width="209" height="96" rx="23" fill="none" stroke="#3c8d77" stroke-width="1.2" opacity=".32" transform="rotate(.18 435 362.5)"/>
<text x="435" y="373" font-family="'Kaiti SC','STKaiti','Noto Sans SC',sans-serif" font-size="27" font-weight="700" fill="#3c8d77" text-anchor="middle" opacity="1"><tspan x="435" dy="0">Vector</tspan></text>
<rect x="330" y="440" width="210" height="95" rx="22" fill="#e9e0f4" stroke="#7651a6" stroke-width="3"/><rect x="332" y="439" width="209" height="96" rx="23" fill="none" stroke="#7651a6" stroke-width="1.2" opacity=".32" transform="rotate(.18 435 487.5)"/>
<text x="435" y="498" font-family="'Kaiti SC','STKaiti','Noto Sans SC',sans-serif" font-size="27" font-weight="700" fill="#7651a6" text-anchor="middle" opacity="1"><tspan x="435" dy="0">Graph</tspan></text>
<rect x="330" y="565" width="210" height="95" rx="22" fill="#f7dddd" stroke="#c94c4c" stroke-width="3"/><rect x="332" y="564" width="209" height="96" rx="23" fill="none" stroke="#c94c4c" stroke-width="1.2" opacity=".32" transform="rotate(.18 435 612.5)"/>
<text x="435" y="623" font-family="'Kaiti SC','STKaiti','Noto Sans SC',sans-serif" font-size="27" font-weight="700" fill="#c94c4c" text-anchor="middle" opacity="1"><tspan x="435" dy="0">SQL / API</tspan></text>
<path d="M 245 390 C 273.3333333333333 388, 301.6666666666667 239, 330 237" fill="none" stroke="#1e3a5f" stroke-width="4" stroke-linecap="round" marker-end="url(#arrow-1e3a5f)"/>
<path d="M 245 410 C 273.3333333333333 408, 301.6666666666667 364, 330 362" fill="none" stroke="#3c8d77" stroke-width="4" stroke-linecap="round" marker-end="url(#arrow-3c8d77)"/>
<path d="M 245 435 C 273.3333333333333 433, 301.6666666666667 489, 330 487" fill="none" stroke="#7651a6" stroke-width="4" stroke-linecap="round" marker-end="url(#arrow-7651a6)"/>
<path d="M 245 455 C 273.3333333333333 453, 301.6666666666667 614, 330 612" fill="none" stroke="#c94c4c" stroke-width="4" stroke-linecap="round" marker-end="url(#arrow-c94c4c)"/>
<rect x="655" y="330" width="220" height="165" rx="22" fill="#fffdf7" stroke="#1e3a5f" stroke-width="4"/><rect x="657" y="329" width="219" height="166" rx="23" fill="none" stroke="#1e3a5f" stroke-width="1.2" opacity=".32" transform="rotate(.18 765 412.5)"/>
<text x="765" y="382" font-family="'Kaiti SC','STKaiti','Noto Sans SC',sans-serif" font-size="28" font-weight="720" fill="#1e3a5f" text-anchor="middle" opacity="1"><tspan x="765" dy="0">Merge + Rerank</tspan></text>
<text x="765" y="425" font-family="'Kaiti SC','STKaiti','Noto Sans SC',sans-serif" font-size="20" font-weight="500" fill="#55708f" text-anchor="middle" opacity="1"><tspan x="765" dy="0">提高 Recall</tspan><tspan x="765" dy="25.6">再提升前列精度</tspan></text>
<path d="M 540 237 C 578.3333333333334 235, 616.6666666666666 372, 655 370" fill="none" stroke="#1e3a5f" stroke-width="4" stroke-linecap="round" marker-end="url(#arrow-1e3a5f)"/>
<path d="M 540 362 C 578.3333333333334 360, 616.6666666666666 402, 655 400" fill="none" stroke="#3c8d77" stroke-width="4" stroke-linecap="round" marker-end="url(#arrow-3c8d77)"/>
<path d="M 540 487 C 578.3333333333334 485, 616.6666666666666 432, 655 430" fill="none" stroke="#7651a6" stroke-width="4" stroke-linecap="round" marker-end="url(#arrow-7651a6)"/>
<path d="M 540 612 C 578.3333333333334 610, 616.6666666666666 462, 655 460" fill="none" stroke="#c94c4c" stroke-width="4" stroke-linecap="round" marker-end="url(#arrow-c94c4c)"/>
<rect x="980" y="330" width="230" height="165" rx="22" fill="#dcefe7" stroke="#3c8d77" stroke-width="4"/><rect x="982" y="329" width="229" height="166" rx="23" fill="none" stroke="#3c8d77" stroke-width="1.2" opacity=".32" transform="rotate(.18 1095 412.5)"/>
<text x="1095" y="382" font-family="'Kaiti SC','STKaiti','Noto Sans SC',sans-serif" font-size="28" font-weight="720" fill="#3c8d77" text-anchor="middle" opacity="1"><tspan x="1095" dy="0">Evidence Gate</tspan></text>
<text x="1095" y="425" font-family="'Kaiti SC','STKaiti','Noto Sans SC',sans-serif" font-size="20" font-weight="500" fill="#1e3a5f" text-anchor="middle" opacity="1"><tspan x="1095" dy="0">ACL · 时态</tspan><tspan x="1095" dy="25.6">来源 · 去重</tspan></text>
<path d="M 875 412 C 910 410, 945 414, 980 412" fill="none" stroke="#1e3a5f" stroke-width="4" stroke-linecap="round" marker-end="url(#arrow-1e3a5f)"/>
<rect x="1330" y="240" width="220" height="125" rx="22" fill="#dcefe7" stroke="#3c8d77" stroke-width="3"/><rect x="1332" y="239" width="219" height="126" rx="23" fill="none" stroke="#3c8d77" stroke-width="1.2" opacity=".32" transform="rotate(.18 1440 302.5)"/>
<text x="1440" y="288" font-family="'Kaiti SC','STKaiti','Noto Sans SC',sans-serif" font-size="29" font-weight="720" fill="#3c8d77" text-anchor="middle" opacity="1"><tspan x="1440" dy="0">充分</tspan></text>
<text x="1440" y="326" font-family="'Kaiti SC','STKaiti','Noto Sans SC',sans-serif" font-size="19" font-weight="500" fill="#1e3a5f" text-anchor="middle" opacity="1"><tspan x="1440" dy="0">Build Pack → Answer</tspan></text>
<rect x="1330" y="470" width="220" height="125" rx="22" fill="#f7e7b8" stroke="#d59621" stroke-width="3"/><rect x="1332" y="469" width="219" height="126" rx="23" fill="none" stroke="#d59621" stroke-width="1.2" opacity=".32" transform="rotate(.18 1440 532.5)"/>
<text x="1440" y="518" font-family="'Kaiti SC','STKaiti','Noto Sans SC',sans-serif" font-size="29" font-weight="720" fill="#d59621" text-anchor="middle" opacity="1"><tspan x="1440" dy="0">有缺口</tspan></text>
<text x="1440" y="556" font-family="'Kaiti SC','STKaiti','Noto Sans SC',sans-serif" font-size="19" font-weight="500" fill="#1e3a5f" text-anchor="middle" opacity="1"><tspan x="1440" dy="0">Refine Query</tspan></text>
<path d="M 1210 390 C 1250 388, 1290 312, 1330 310" fill="none" stroke="#3c8d77" stroke-width="4" stroke-linecap="round" marker-end="url(#arrow-3c8d77)"/>
<path d="M 1210 440 C 1250 438, 1290 522, 1330 520" fill="none" stroke="#d59621" stroke-width="4" stroke-linecap="round" marker-end="url(#arrow-d59621)"/>
<path d="M 1440 595 C 1033.3333333333333 593, 626.6666666666666 687, 220 685" fill="none" stroke="#d59621" stroke-width="4" stroke-linecap="round" stroke-dasharray="12 9" marker-end="url(#arrow-d59621)"/>
<text x="800" y="755" font-family="'Kaiti SC','STKaiti','Noto Sans SC',sans-serif" font-size="27" font-weight="700" fill="#c94c4c" text-anchor="middle" opacity="1"><tspan x="800" dy="0">终止 = 证据充分 OR 达到轮数 / 截止时间 / 预算 OR 连续无进展</tspan></text>

<text x="1525" y="860" font-family="'Kaiti SC','STKaiti',sans-serif" font-size="18" fill="#55708f" text-anchor="end">生产级多智能体系统 · 第 04 章</text>
</svg>