<svg xmlns="http://www.w3.org/2000/svg" width="1600" height="900" viewBox="0 0 1600 900" role="img">
<defs><marker id="arrow-1e3a5f" viewBox="0 0 10 10" refX="9" refY="5" markerWidth="8" markerHeight="8" orient="auto-start-reverse"><path d="M 0 0 L 10 5 L 0 10 z" fill="#1e3a5f"/></marker><marker id="arrow-d59621" viewBox="0 0 10 10" refX="9" refY="5" markerWidth="8" markerHeight="8" orient="auto-start-reverse"><path d="M 0 0 L 10 5 L 0 10 z" fill="#d59621"/></marker><marker id="arrow-3c8d77" viewBox="0 0 10 10" refX="9" refY="5" markerWidth="8" markerHeight="8" orient="auto-start-reverse"><path d="M 0 0 L 10 5 L 0 10 z" fill="#3c8d77"/></marker><marker id="arrow-c94c4c" viewBox="0 0 10 10" refX="9" refY="5" markerWidth="8" markerHeight="8" orient="auto-start-reverse"><path d="M 0 0 L 10 5 L 0 10 z" fill="#c94c4c"/></marker><marker id="arrow-7651a6" viewBox="0 0 10 10" refX="9" refY="5" markerWidth="8" markerHeight="8" orient="auto-start-reverse"><path d="M 0 0 L 10 5 L 0 10 z" fill="#7651a6"/></marker><marker id="arrow-55708f" viewBox="0 0 10 10" refX="9" refY="5" markerWidth="8" markerHeight="8" orient="auto-start-reverse"><path d="M 0 0 L 10 5 L 0 10 z" fill="#55708f"/></marker></defs>
<rect width="1600" height="900" fill="#fbf7ec"/>
<path d="M 20 180 C 420 171, 920 190, 1580 177 M 30 718 C 530 727, 980 707, 1570 721" stroke="#e7dfce" stroke-width="2" fill="none" opacity=".52"/>

<text x="70" y="76" font-family="'Kaiti SC','STKaiti','Noto Sans SC',sans-serif" font-size="43" font-weight="760" fill="#1e3a5f" text-anchor="start"><tspan x="70" dy="0">持续评测：从数据到发布，再从生产回到数据</tspan></text><path d="M 70 94 C 265 87, 485 102, 710 93" fill="none" stroke="#d59621" stroke-width="7" stroke-linecap="round" opacity=".85"/><text x="72" y="128" font-family="'Kaiti SC','STKaiti','Noto Sans SC',sans-serif" font-size="23" font-weight="500" fill="#55708f" text-anchor="start"><tspan x="72" dy="0">离线回归控制发布；线上观测发现真实分布、质量事件与漂移。</tspan></text>
<rect x="60" y="290" width="200" height="125" rx="22" fill="#dfeaf4" stroke="#1e3a5f" stroke-width="3"/><rect x="62" y="289" width="199" height="126" rx="23" fill="none" stroke="#1e3a5f" stroke-width="1.2" opacity=".28" transform="rotate(.18 160 352.5)"/>
<text x="160" y="340" font-family="'Kaiti SC','STKaiti','Noto Sans SC',sans-serif" font-size="28" font-weight="760" fill="#1e3a5f" text-anchor="middle"><tspan x="160" dy="0">Dataset</tspan></text>
<text x="160" y="375" font-family="'Kaiti SC','STKaiti','Noto Sans SC',sans-serif" font-size="20" font-weight="500" fill="#1e3a5f" text-anchor="middle"><tspan x="160" dy="0">+ Fixture</tspan></text>
<rect x="320" y="290" width="200" height="125" rx="22" fill="#dcefe7" stroke="#3c8d77" stroke-width="3"/><rect x="322" y="289" width="199" height="126" rx="23" fill="none" stroke="#3c8d77" stroke-width="1.2" opacity=".28" transform="rotate(.18 420 352.5)"/>
<text x="420" y="340" font-family="'Kaiti SC','STKaiti','Noto Sans SC',sans-serif" font-size="28" font-weight="760" fill="#3c8d77" text-anchor="middle"><tspan x="420" dy="0">Replay</tspan></text>
<text x="420" y="375" font-family="'Kaiti SC','STKaiti','Noto Sans SC',sans-serif" font-size="20" font-weight="500" fill="#1e3a5f" text-anchor="middle"><tspan x="420" dy="0">N-run</tspan></text>
<rect x="580" y="290" width="200" height="125" rx="22" fill="#f7e7b8" stroke="#d59621" stroke-width="3"/><rect x="582" y="289" width="199" height="126" rx="23" fill="none" stroke="#d59621" stroke-width="1.2" opacity=".28" transform="rotate(.18 680 352.5)"/>
<text x="680" y="340" font-family="'Kaiti SC','STKaiti','Noto Sans SC',sans-serif" font-size="28" font-weight="760" fill="#d59621" text-anchor="middle"><tspan x="680" dy="0">Score</tspan></text>
<text x="680" y="375" font-family="'Kaiti SC','STKaiti','Noto Sans SC',sans-serif" font-size="20" font-weight="500" fill="#1e3a5f" text-anchor="middle"><tspan x="680" dy="0">Rules + Judge</tspan></text>
<rect x="840" y="290" width="200" height="125" rx="22" fill="#e9e0f4" stroke="#7651a6" stroke-width="3"/><rect x="842" y="289" width="199" height="126" rx="23" fill="none" stroke="#7651a6" stroke-width="1.2" opacity=".28" transform="rotate(.18 940 352.5)"/>
<text x="940" y="340" font-family="'Kaiti SC','STKaiti','Noto Sans SC',sans-serif" font-size="28" font-weight="760" fill="#7651a6" text-anchor="middle"><tspan x="940" dy="0">Compare</tspan></text>
<text x="940" y="375" font-family="'Kaiti SC','STKaiti','Noto Sans SC',sans-serif" font-size="20" font-weight="500" fill="#1e3a5f" text-anchor="middle"><tspan x="940" dy="0">Paired + Slice</tspan></text>
<rect x="1100" y="290" width="200" height="125" rx="22" fill="#f7dddd" stroke="#c94c4c" stroke-width="3"/><rect x="1102" y="289" width="199" height="126" rx="23" fill="none" stroke="#c94c4c" stroke-width="1.2" opacity=".28" transform="rotate(.18 1200 352.5)"/>
<text x="1200" y="340" font-family="'Kaiti SC','STKaiti','Noto Sans SC',sans-serif" font-size="28" font-weight="760" fill="#c94c4c" text-anchor="middle"><tspan x="1200" dy="0">Gate</tspan></text>
<text x="1200" y="375" font-family="'Kaiti SC','STKaiti','Noto Sans SC',sans-serif" font-size="20" font-weight="500" fill="#1e3a5f" text-anchor="middle"><tspan x="1200" dy="0">Go / No-Go</tspan></text>
<rect x="1360" y="290" width="180" height="125" rx="22" fill="#fffdf7" stroke="#1e3a5f" stroke-width="3"/><rect x="1362" y="289" width="179" height="126" rx="23" fill="none" stroke="#1e3a5f" stroke-width="1.2" opacity=".28" transform="rotate(.18 1450 352.5)"/>
<text x="1450" y="340" font-family="'Kaiti SC','STKaiti','Noto Sans SC',sans-serif" font-size="27" font-weight="760" fill="#1e3a5f" text-anchor="middle"><tspan x="1450" dy="0">Canary</tspan></text>
<text x="1450" y="375" font-family="'Kaiti SC','STKaiti','Noto Sans SC',sans-serif" font-size="20" font-weight="500" fill="#1e3a5f" text-anchor="middle"><tspan x="1450" dy="0">Production</tspan></text>
<path d="M 260 352 C 280 350, 300 354, 320 352" fill="none" stroke="#1e3a5f" stroke-width="4" stroke-linecap="round" marker-end="url(#arrow-1e3a5f)"/>
<path d="M 520 352 C 540 350, 560 354, 580 352" fill="none" stroke="#3c8d77" stroke-width="4" stroke-linecap="round" marker-end="url(#arrow-3c8d77)"/>
<path d="M 780 352 C 800 350, 820 354, 840 352" fill="none" stroke="#d59621" stroke-width="4" stroke-linecap="round" marker-end="url(#arrow-d59621)"/>
<path d="M 1040 352 C 1060 350, 1080 354, 1100 352" fill="none" stroke="#7651a6" stroke-width="4" stroke-linecap="round" marker-end="url(#arrow-7651a6)"/>
<path d="M 1300 352 C 1320 350, 1340 354, 1360 352" fill="none" stroke="#c94c4c" stroke-width="4" stroke-linecap="round" marker-end="url(#arrow-c94c4c)"/>
<rect x="360" y="570" width="880" height="130" rx="42" fill="#fffdf7" stroke="#1e3a5f" stroke-width="3" stroke-dasharray="12 9"/><rect x="362" y="569" width="879" height="131" rx="43" fill="none" stroke="#1e3a5f" stroke-width="1.2" opacity=".28" transform="rotate(.18 800 635)"/>
<text x="800" y="615" font-family="'Kaiti SC','STKaiti','Noto Sans SC',sans-serif" font-size="26" font-weight="760" fill="#1e3a5f" text-anchor="middle"><tspan x="800" dy="0">规则全量 · Judge 抽样 · 用户反馈 · 业务结果</tspan></text>
<text x="800" y="657" font-family="'Kaiti SC','STKaiti','Noto Sans SC',sans-serif" font-size="22" font-weight="500" fill="#55708f" text-anchor="middle"><tspan x="800" dy="0">Input / Path / Quality / System / Data Drift</tspan></text>
<path d="M 1450 415 C 1370 413, 1290 572, 1210 570" fill="none" stroke="#1e3a5f" stroke-width="4" stroke-linecap="round" stroke-dasharray="12 9" marker-end="url(#arrow-1e3a5f)"/>
<path d="M 390 635 C 313.3333333333333 633, 236.66666666666666 417, 160 415" fill="none" stroke="#c94c4c" stroke-width="4" stroke-linecap="round" stroke-dasharray="12 9" marker-end="url(#arrow-c94c4c)"/>
<text x="800" y="795" font-family="'Kaiti SC','STKaiti','Noto Sans SC',sans-serif" font-size="28" font-weight="760" fill="#c94c4c" text-anchor="middle"><tspan x="800" dy="0">质量事件 → 最小复现 Case → 人工复核 → 治理后进入 Golden Dataset</tspan></text>

<text x="1525" y="860" font-family="'Kaiti SC','STKaiti',sans-serif" font-size="18" fill="#55708f" text-anchor="end">生产级多智能体系统 · 第 08 章</text>
</svg>