<svg xmlns="http://www.w3.org/2000/svg" width="1600" height="900" viewBox="0 0 1600 900" role="img">
<defs><marker id="arrow-1e3a5f" viewBox="0 0 10 10" refX="9" refY="5" markerWidth="8" markerHeight="8" orient="auto-start-reverse"><path d="M 0 0 L 10 5 L 0 10 z" fill="#1e3a5f"/></marker><marker id="arrow-d59621" viewBox="0 0 10 10" refX="9" refY="5" markerWidth="8" markerHeight="8" orient="auto-start-reverse"><path d="M 0 0 L 10 5 L 0 10 z" fill="#d59621"/></marker><marker id="arrow-3c8d77" viewBox="0 0 10 10" refX="9" refY="5" markerWidth="8" markerHeight="8" orient="auto-start-reverse"><path d="M 0 0 L 10 5 L 0 10 z" fill="#3c8d77"/></marker><marker id="arrow-c94c4c" viewBox="0 0 10 10" refX="9" refY="5" markerWidth="8" markerHeight="8" orient="auto-start-reverse"><path d="M 0 0 L 10 5 L 0 10 z" fill="#c94c4c"/></marker><marker id="arrow-7651a6" viewBox="0 0 10 10" refX="9" refY="5" markerWidth="8" markerHeight="8" orient="auto-start-reverse"><path d="M 0 0 L 10 5 L 0 10 z" fill="#7651a6"/></marker><marker id="arrow-55708f" viewBox="0 0 10 10" refX="9" refY="5" markerWidth="8" markerHeight="8" orient="auto-start-reverse"><path d="M 0 0 L 10 5 L 0 10 z" fill="#55708f"/></marker></defs>
<rect width="1600" height="900" fill="#fbf7ec"/>
<path d="M 20 180 C 420 171, 920 190, 1580 177 M 30 718 C 530 727, 980 707, 1570 721" stroke="#e7dfce" stroke-width="2" fill="none" opacity=".52"/>

<text x="70" y="76" font-family="'Kaiti SC','STKaiti','Noto Sans SC',sans-serif" font-size="43" font-weight="760" fill="#1e3a5f" text-anchor="start"><tspan x="70" dy="0">评测对象：一条受约束的因果链</tspan></text><path d="M 70 94 C 265 87, 485 102, 710 93" fill="none" stroke="#d59621" stroke-width="7" stroke-linecap="round" opacity=".85"/><text x="72" y="128" font-family="'Kaiti SC','STKaiti','Noto Sans SC',sans-serif" font-size="23" font-weight="500" fill="#55708f" text-anchor="start"><tspan x="72" dy="0">最终答案只告诉我们结果；分层指标和运行证据解释结果怎样产生。</tspan></text>
<rect x="45" y="270" width="145" height="115" rx="22" fill="#f7dddd" stroke="#c94c4c" stroke-width="3"/><rect x="47" y="269" width="144" height="116" rx="23" fill="none" stroke="#c94c4c" stroke-width="1.2" opacity=".28" transform="rotate(.18 117.5 327.5)"/>
<text x="117" y="323" font-family="'Kaiti SC','STKaiti','Noto Sans SC',sans-serif" font-size="28" font-weight="760" fill="#c94c4c" text-anchor="middle"><tspan x="117" dy="0">Goal</tspan></text>
<text x="117" y="357" font-family="'Kaiti SC','STKaiti','Noto Sans SC',sans-serif" font-size="19" font-weight="500" fill="#1e3a5f" text-anchor="middle"><tspan x="117" dy="0">约束</tspan></text>
<rect x="220" y="270" width="145" height="115" rx="22" fill="#dfeaf4" stroke="#1e3a5f" stroke-width="3"/><rect x="222" y="269" width="144" height="116" rx="23" fill="none" stroke="#1e3a5f" stroke-width="1.2" opacity=".28" transform="rotate(.18 292.5 327.5)"/>
<text x="292" y="323" font-family="'Kaiti SC','STKaiti','Noto Sans SC',sans-serif" font-size="28" font-weight="760" fill="#1e3a5f" text-anchor="middle"><tspan x="292" dy="0">Plan</tspan></text>
<text x="292" y="357" font-family="'Kaiti SC','STKaiti','Noto Sans SC',sans-serif" font-size="19" font-weight="500" fill="#1e3a5f" text-anchor="middle"><tspan x="292" dy="0">依赖</tspan></text>
<rect x="395" y="270" width="145" height="115" rx="22" fill="#f7e7b8" stroke="#d59621" stroke-width="3"/><rect x="397" y="269" width="144" height="116" rx="23" fill="none" stroke="#d59621" stroke-width="1.2" opacity=".28" transform="rotate(.18 467.5 327.5)"/>
<text x="467" y="323" font-family="'Kaiti SC','STKaiti','Noto Sans SC',sans-serif" font-size="28" font-weight="760" fill="#d59621" text-anchor="middle"><tspan x="467" dy="0">Route</tspan></text>
<text x="467" y="357" font-family="'Kaiti SC','STKaiti','Noto Sans SC',sans-serif" font-size="19" font-weight="500" fill="#1e3a5f" text-anchor="middle"><tspan x="467" dy="0">团队</tspan></text>
<rect x="570" y="270" width="145" height="115" rx="22" fill="#dcefe7" stroke="#3c8d77" stroke-width="3"/><rect x="572" y="269" width="144" height="116" rx="23" fill="none" stroke="#3c8d77" stroke-width="1.2" opacity=".28" transform="rotate(.18 642.5 327.5)"/>
<text x="642" y="323" font-family="'Kaiti SC','STKaiti','Noto Sans SC',sans-serif" font-size="27" font-weight="760" fill="#3c8d77" text-anchor="middle"><tspan x="642" dy="0">Worker</tspan></text>
<text x="642" y="357" font-family="'Kaiti SC','STKaiti','Noto Sans SC',sans-serif" font-size="19" font-weight="500" fill="#1e3a5f" text-anchor="middle"><tspan x="642" dy="0">能力</tspan></text>
<rect x="745" y="270" width="145" height="115" rx="22" fill="#e9e0f4" stroke="#7651a6" stroke-width="3"/><rect x="747" y="269" width="144" height="116" rx="23" fill="none" stroke="#7651a6" stroke-width="1.2" opacity=".28" transform="rotate(.18 817.5 327.5)"/>
<text x="817" y="323" font-family="'Kaiti SC','STKaiti','Noto Sans SC',sans-serif" font-size="28" font-weight="760" fill="#7651a6" text-anchor="middle"><tspan x="817" dy="0">Tool</tspan></text>
<text x="817" y="357" font-family="'Kaiti SC','STKaiti','Noto Sans SC',sans-serif" font-size="19" font-weight="500" fill="#1e3a5f" text-anchor="middle"><tspan x="817" dy="0">动作</tspan></text>
<rect x="920" y="270" width="145" height="115" rx="22" fill="#dcefe7" stroke="#3c8d77" stroke-width="3"/><rect x="922" y="269" width="144" height="116" rx="23" fill="none" stroke="#3c8d77" stroke-width="1.2" opacity=".28" transform="rotate(.18 992.5 327.5)"/>
<text x="992" y="323" font-family="'Kaiti SC','STKaiti','Noto Sans SC',sans-serif" font-size="25" font-weight="760" fill="#3c8d77" text-anchor="middle"><tspan x="992" dy="0">Evidence</tspan></text>
<text x="992" y="357" font-family="'Kaiti SC','STKaiti','Noto Sans SC',sans-serif" font-size="19" font-weight="500" fill="#1e3a5f" text-anchor="middle"><tspan x="992" dy="0">来源</tspan></text>
<rect x="1095" y="270" width="145" height="115" rx="22" fill="#f7e7b8" stroke="#d59621" stroke-width="3"/><rect x="1097" y="269" width="144" height="116" rx="23" fill="none" stroke="#d59621" stroke-width="1.2" opacity=".28" transform="rotate(.18 1167.5 327.5)"/>
<text x="1167" y="323" font-family="'Kaiti SC','STKaiti','Noto Sans SC',sans-serif" font-size="28" font-weight="760" fill="#d59621" text-anchor="middle"><tspan x="1167" dy="0">Join</tspan></text>
<text x="1167" y="357" font-family="'Kaiti SC','STKaiti','Noto Sans SC',sans-serif" font-size="19" font-weight="500" fill="#1e3a5f" text-anchor="middle"><tspan x="1167" dy="0">归并</tspan></text>
<rect x="1270" y="270" width="145" height="115" rx="22" fill="#dfeaf4" stroke="#1e3a5f" stroke-width="3"/><rect x="1272" y="269" width="144" height="116" rx="23" fill="none" stroke="#1e3a5f" stroke-width="1.2" opacity=".28" transform="rotate(.18 1342.5 327.5)"/>
<text x="1342" y="323" font-family="'Kaiti SC','STKaiti','Noto Sans SC',sans-serif" font-size="24" font-weight="760" fill="#1e3a5f" text-anchor="middle"><tspan x="1342" dy="0">Decision</tspan></text>
<text x="1342" y="357" font-family="'Kaiti SC','STKaiti','Noto Sans SC',sans-serif" font-size="19" font-weight="500" fill="#1e3a5f" text-anchor="middle"><tspan x="1342" dy="0">风险</tspan></text>
<rect x="1445" y="270" width="120" height="115" rx="22" fill="#f7dddd" stroke="#c94c4c" stroke-width="3"/><rect x="1447" y="269" width="119" height="116" rx="23" fill="none" stroke="#c94c4c" stroke-width="1.2" opacity=".28" transform="rotate(.18 1505 327.5)"/>
<text x="1505" y="323" font-family="'Kaiti SC','STKaiti','Noto Sans SC',sans-serif" font-size="23" font-weight="760" fill="#c94c4c" text-anchor="middle"><tspan x="1505" dy="0">Answer</tspan></text>
<text x="1505" y="357" font-family="'Kaiti SC','STKaiti','Noto Sans SC',sans-serif" font-size="19" font-weight="500" fill="#1e3a5f" text-anchor="middle"><tspan x="1505" dy="0">表达</tspan></text>
<path d="M 190 327 C 200 325, 210 329, 220 327" fill="none" stroke="#c94c4c" stroke-width="4" stroke-linecap="round" marker-end="url(#arrow-c94c4c)"/>
<path d="M 365 327 C 375 325, 385 329, 395 327" fill="none" stroke="#1e3a5f" stroke-width="4" stroke-linecap="round" marker-end="url(#arrow-1e3a5f)"/>
<path d="M 540 327 C 550 325, 560 329, 570 327" fill="none" stroke="#d59621" stroke-width="4" stroke-linecap="round" marker-end="url(#arrow-d59621)"/>
<path d="M 715 327 C 725 325, 735 329, 745 327" fill="none" stroke="#3c8d77" stroke-width="4" stroke-linecap="round" marker-end="url(#arrow-3c8d77)"/>
<path d="M 890 327 C 900 325, 910 329, 920 327" fill="none" stroke="#7651a6" stroke-width="4" stroke-linecap="round" marker-end="url(#arrow-7651a6)"/>
<path d="M 1065 327 C 1075 325, 1085 329, 1095 327" fill="none" stroke="#3c8d77" stroke-width="4" stroke-linecap="round" marker-end="url(#arrow-3c8d77)"/>
<path d="M 1240 327 C 1250 325, 1260 329, 1270 327" fill="none" stroke="#d59621" stroke-width="4" stroke-linecap="round" marker-end="url(#arrow-d59621)"/>
<path d="M 1415 327 C 1425 325, 1435 329, 1445 327" fill="none" stroke="#1e3a5f" stroke-width="4" stroke-linecap="round" marker-end="url(#arrow-1e3a5f)"/>
<rect x="65" y="485" width="275" height="52" rx="26" fill="#fffdf7" stroke="#c94c4c" stroke-width="2.4"/><rect x="67" y="484" width="274" height="53" rx="27" fill="none" stroke="#c94c4c" stroke-width="1.2" opacity=".28" transform="rotate(.18 202.5 511)"/><text x="202.5" y="519" font-family="'Kaiti SC','STKaiti','Noto Sans SC',sans-serif" font-size="20" font-weight="700" fill="#c94c4c" text-anchor="middle"><tspan x="202.5" dy="0">合同 / 约束覆盖</tspan></text>
<rect x="365" y="485" width="275" height="52" rx="26" fill="#fffdf7" stroke="#d59621" stroke-width="2.4"/><rect x="367" y="484" width="274" height="53" rx="27" fill="none" stroke="#d59621" stroke-width="1.2" opacity=".28" transform="rotate(.18 502.5 511)"/><text x="502.5" y="519" font-family="'Kaiti SC','STKaiti','Noto Sans SC',sans-serif" font-size="20" font-weight="700" fill="#d59621" text-anchor="middle"><tspan x="502.5" dy="0">计划 / 路由准确</tspan></text>
<rect x="665" y="485" width="275" height="52" rx="26" fill="#fffdf7" stroke="#7651a6" stroke-width="2.4"/><rect x="667" y="484" width="274" height="53" rx="27" fill="none" stroke="#7651a6" stroke-width="1.2" opacity=".28" transform="rotate(.18 802.5 511)"/><text x="802.5" y="519" font-family="'Kaiti SC','STKaiti','Noto Sans SC',sans-serif" font-size="20" font-weight="700" fill="#7651a6" text-anchor="middle"><tspan x="802.5" dy="0">工具 / 权限正确</tspan></text>
<rect x="965" y="485" width="275" height="52" rx="26" fill="#fffdf7" stroke="#3c8d77" stroke-width="2.4"/><rect x="967" y="484" width="274" height="53" rx="27" fill="none" stroke="#3c8d77" stroke-width="1.2" opacity=".28" transform="rotate(.18 1102.5 511)"/><text x="1102.5" y="519" font-family="'Kaiti SC','STKaiti','Noto Sans SC',sans-serif" font-size="20" font-weight="700" fill="#3c8d77" text-anchor="middle"><tspan x="1102.5" dy="0">证据 / 忠实度</tspan></text>
<rect x="1265" y="485" width="275" height="52" rx="26" fill="#fffdf7" stroke="#1e3a5f" stroke-width="2.4"/><rect x="1267" y="484" width="274" height="53" rx="27" fill="none" stroke="#1e3a5f" stroke-width="1.2" opacity=".28" transform="rotate(.18 1402.5 511)"/><text x="1402.5" y="519" font-family="'Kaiti SC','STKaiti','Noto Sans SC',sans-serif" font-size="20" font-weight="700" fill="#1e3a5f" text-anchor="middle"><tspan x="1402.5" dy="0">目标 / 决策质量</tspan></text>
<path d="M 117 385 C 145.33333333333334 383, 173.66666666666666 487, 202 485" fill="none" stroke="#c94c4c" stroke-width="4" stroke-linecap="round" stroke-dasharray="9 7"/>
<path d="M 467 385 C 478.6666666666667 383, 490.3333333333333 487, 502 485" fill="none" stroke="#d59621" stroke-width="4" stroke-linecap="round" stroke-dasharray="9 7"/>
<path d="M 817 385 C 812 383, 807 487, 802 485" fill="none" stroke="#7651a6" stroke-width="4" stroke-linecap="round" stroke-dasharray="9 7"/>
<path d="M 992 385 C 1028.6666666666667 383, 1065.3333333333333 487, 1102 485" fill="none" stroke="#3c8d77" stroke-width="4" stroke-linecap="round" stroke-dasharray="9 7"/>
<path d="M 1422 385 C 1415.3333333333333 383, 1408.6666666666667 487, 1402 485" fill="none" stroke="#1e3a5f" stroke-width="4" stroke-linecap="round" stroke-dasharray="9 7"/>
<rect x="300" y="650" width="1000" height="100" rx="42" fill="#fffdf7" stroke="#c94c4c" stroke-width="3" stroke-dasharray="12 9"/><rect x="302" y="649" width="999" height="101" rx="43" fill="none" stroke="#c94c4c" stroke-width="1.2" opacity=".28" transform="rotate(.18 800 700)"/>
<text x="800" y="693" font-family="'Kaiti SC','STKaiti','Noto Sans SC',sans-serif" font-size="28" font-weight="760" fill="#c94c4c" text-anchor="middle"><tspan x="800" dy="0">端到端指标判断是否成功 · 分层指标定位哪里失败</tspan></text>
<text x="800" y="730" font-family="'Kaiti SC','STKaiti','Noto Sans SC',sans-serif" font-size="21" font-weight="500" fill="#55708f" text-anchor="middle"><tspan x="800" dy="0">Case + Plan + Trace + Context Graph + Evidence + Score 一起保存</tspan></text>

<text x="1525" y="860" font-family="'Kaiti SC','STKaiti',sans-serif" font-size="18" fill="#55708f" text-anchor="end">生产级多智能体系统 · 第 08 章</text>
</svg>