<svg xmlns="http://www.w3.org/2000/svg" width="1600" height="900" viewBox="0 0 1600 900" role="img">
<defs><marker id="arrow-1e3a5f" viewBox="0 0 10 10" refX="9" refY="5" markerWidth="8" markerHeight="8" orient="auto-start-reverse"><path d="M 0 0 L 10 5 L 0 10 z" fill="#1e3a5f"/></marker><marker id="arrow-d59621" viewBox="0 0 10 10" refX="9" refY="5" markerWidth="8" markerHeight="8" orient="auto-start-reverse"><path d="M 0 0 L 10 5 L 0 10 z" fill="#d59621"/></marker><marker id="arrow-3c8d77" viewBox="0 0 10 10" refX="9" refY="5" markerWidth="8" markerHeight="8" orient="auto-start-reverse"><path d="M 0 0 L 10 5 L 0 10 z" fill="#3c8d77"/></marker><marker id="arrow-c94c4c" viewBox="0 0 10 10" refX="9" refY="5" markerWidth="8" markerHeight="8" orient="auto-start-reverse"><path d="M 0 0 L 10 5 L 0 10 z" fill="#c94c4c"/></marker><marker id="arrow-7651a6" viewBox="0 0 10 10" refX="9" refY="5" markerWidth="8" markerHeight="8" orient="auto-start-reverse"><path d="M 0 0 L 10 5 L 0 10 z" fill="#7651a6"/></marker><marker id="arrow-55708f" viewBox="0 0 10 10" refX="9" refY="5" markerWidth="8" markerHeight="8" orient="auto-start-reverse"><path d="M 0 0 L 10 5 L 0 10 z" fill="#55708f"/></marker></defs>
<rect width="1600" height="900" fill="#fbf7ec"/>
<path d="M 20 180 C 420 171, 920 190, 1580 177 M 30 718 C 530 727, 980 707, 1570 721" stroke="#e7dfce" stroke-width="2" fill="none" opacity=".52"/>

<text x="70" y="76" font-family="'Kaiti SC','STKaiti','Noto Sans SC',sans-serif" font-size="43" font-weight="760" fill="#1e3a5f" text-anchor="start"><tspan x="70" dy="0">四层正确性：从可解析到可决策</tspan></text><path d="M 70 94 C 265 87, 485 102, 710 93" fill="none" stroke="#d59621" stroke-width="7" stroke-linecap="round" opacity=".85"/><text x="72" y="128" font-family="'Kaiti SC','STKaiti','Noto Sans SC',sans-serif" font-size="23" font-weight="500" fill="#55708f" text-anchor="start"><tspan x="72" dy="0">外层需要更多语义判断；内层失败时，外层高分不能抵扣。</tspan></text>
<rect x="120" y="235" width="1360" height="500" rx="38" fill="#f7dddd" stroke="#c94c4c" stroke-width="4"/><rect x="122" y="234" width="1359" height="501" rx="39" fill="none" stroke="#c94c4c" stroke-width="1.2" opacity=".28" transform="rotate(.18 800 485)"/>
<text x="800" y="288" font-family="'Kaiti SC','STKaiti','Noto Sans SC',sans-serif" font-size="30" font-weight="760" fill="#c94c4c" text-anchor="middle"><tspan x="800" dy="0">④ 推理正确 · 决策与权衡</tspan></text>
<rect x="245" y="315" width="1110" height="355" rx="34" fill="#f7e7b8" stroke="#d59621" stroke-width="4"/><rect x="247" y="314" width="1109" height="356" rx="35" fill="none" stroke="#d59621" stroke-width="1.2" opacity=".28" transform="rotate(.18 800 492.5)"/>
<text x="800" y="366" font-family="'Kaiti SC','STKaiti','Noto Sans SC',sans-serif" font-size="29" font-weight="760" fill="#d59621" text-anchor="middle"><tspan x="800" dy="0">③ 语义正确 · 事实与证据</tspan></text>
<rect x="370" y="395" width="860" height="210" rx="30" fill="#dcefe7" stroke="#3c8d77" stroke-width="4"/><rect x="372" y="394" width="859" height="211" rx="31" fill="none" stroke="#3c8d77" stroke-width="1.2" opacity=".28" transform="rotate(.18 800 500)"/>
<text x="800" y="446" font-family="'Kaiti SC','STKaiti','Noto Sans SC',sans-serif" font-size="27" font-weight="760" fill="#3c8d77" text-anchor="middle"><tspan x="800" dy="0">② 行为正确 · 路由、工具、权限、副作用</tspan></text>
<rect x="520" y="475" width="560" height="80" rx="26" fill="#dfeaf4" stroke="#1e3a5f" stroke-width="4"/><rect x="522" y="474" width="559" height="81" rx="27" fill="none" stroke="#1e3a5f" stroke-width="1.2" opacity=".28" transform="rotate(.18 800 515)"/>
<text x="800" y="526" font-family="'Kaiti SC','STKaiti','Noto Sans SC',sans-serif" font-size="25" font-weight="760" fill="#1e3a5f" text-anchor="middle"><tspan x="800" dy="0">① 结构正确 · Schema、类型、状态</tspan></text>
<rect x="160" y="650" width="265" height="52" rx="26" fill="#fffdf7" stroke="#c94c4c" stroke-width="2.4"/><rect x="162" y="649" width="264" height="53" rx="27" fill="none" stroke="#c94c4c" stroke-width="1.2" opacity=".28" transform="rotate(.18 292.5 676)"/><text x="292.5" y="684" font-family="'Kaiti SC','STKaiti','Noto Sans SC',sans-serif" font-size="20" font-weight="700" fill="#c94c4c" text-anchor="middle"><tspan x="292.5" dy="0">领域专家 + Rubric</tspan></text>
<rect x="450" y="650" width="265" height="52" rx="26" fill="#fffdf7" stroke="#d59621" stroke-width="2.4"/><rect x="452" y="649" width="264" height="53" rx="27" fill="none" stroke="#d59621" stroke-width="1.2" opacity=".28" transform="rotate(.18 582.5 676)"/><text x="582.5" y="684" font-family="'Kaiti SC','STKaiti','Noto Sans SC',sans-serif" font-size="20" font-weight="700" fill="#d59621" text-anchor="middle"><tspan x="582.5" dy="0">证据规则 + Judge</tspan></text>
<rect x="740" y="650" width="265" height="52" rx="26" fill="#fffdf7" stroke="#3c8d77" stroke-width="2.4"/><rect x="742" y="649" width="264" height="53" rx="27" fill="none" stroke="#3c8d77" stroke-width="1.2" opacity=".28" transform="rotate(.18 872.5 676)"/><text x="872.5" y="684" font-family="'Kaiti SC','STKaiti','Noto Sans SC',sans-serif" font-size="20" font-weight="700" fill="#3c8d77" text-anchor="middle"><tspan x="872.5" dy="0">Trace / 图断言</tspan></text>
<rect x="1030" y="650" width="265" height="52" rx="26" fill="#fffdf7" stroke="#1e3a5f" stroke-width="2.4"/><rect x="1032" y="649" width="264" height="53" rx="27" fill="none" stroke="#1e3a5f" stroke-width="1.2" opacity=".28" transform="rotate(.18 1162.5 676)"/><text x="1162.5" y="684" font-family="'Kaiti SC','STKaiti','Noto Sans SC',sans-serif" font-size="20" font-weight="700" fill="#1e3a5f" text-anchor="middle"><tspan x="1162.5" dy="0">代码 / 状态机</tspan></text>
<text x="800" y="795" font-family="'Kaiti SC','STKaiti','Noto Sans SC',sans-serif" font-size="28" font-weight="760" fill="#c94c4c" text-anchor="middle"><tspan x="800" dy="0">跨租户泄露、未授权副作用、合同破坏：任何一次命中都应硬阻断。</tspan></text>

<text x="1525" y="860" font-family="'Kaiti SC','STKaiti',sans-serif" font-size="18" fill="#55708f" text-anchor="end">生产级多智能体系统 · 第 08 章</text>
</svg>