<svg xmlns="http://www.w3.org/2000/svg" width="1600" height="900" viewBox="0 0 1600 900" role="img">
<defs><marker id="arrow-1e3a5f" viewBox="0 0 10 10" refX="9" refY="5" markerWidth="8" markerHeight="8" orient="auto-start-reverse"><path d="M 0 0 L 10 5 L 0 10 z" fill="#1e3a5f"/></marker><marker id="arrow-d59621" viewBox="0 0 10 10" refX="9" refY="5" markerWidth="8" markerHeight="8" orient="auto-start-reverse"><path d="M 0 0 L 10 5 L 0 10 z" fill="#d59621"/></marker><marker id="arrow-3c8d77" viewBox="0 0 10 10" refX="9" refY="5" markerWidth="8" markerHeight="8" orient="auto-start-reverse"><path d="M 0 0 L 10 5 L 0 10 z" fill="#3c8d77"/></marker><marker id="arrow-c94c4c" viewBox="0 0 10 10" refX="9" refY="5" markerWidth="8" markerHeight="8" orient="auto-start-reverse"><path d="M 0 0 L 10 5 L 0 10 z" fill="#c94c4c"/></marker><marker id="arrow-7651a6" viewBox="0 0 10 10" refX="9" refY="5" markerWidth="8" markerHeight="8" orient="auto-start-reverse"><path d="M 0 0 L 10 5 L 0 10 z" fill="#7651a6"/></marker><marker id="arrow-55708f" viewBox="0 0 10 10" refX="9" refY="5" markerWidth="8" markerHeight="8" orient="auto-start-reverse"><path d="M 0 0 L 10 5 L 0 10 z" fill="#55708f"/></marker></defs>
<rect width="1600" height="900" fill="#fbf7ec"/>
<path d="M 20 180 C 420 171, 920 190, 1580 177 M 30 718 C 530 727, 980 707, 1570 721" stroke="#e7dfce" stroke-width="2" fill="none" opacity=".52"/>

<text x="70" y="76" font-family="'Kaiti SC','STKaiti','Noto Sans SC',sans-serif" font-size="43" font-weight="760" fill="#1e3a5f" text-anchor="start"><tspan x="70" dy="0">Judge 控制面：有边界的语义测量仪器</tspan></text><path d="M 70 94 C 265 87, 485 102, 710 93" fill="none" stroke="#d59621" stroke-width="7" stroke-linecap="round" opacity=".85"/><text x="72" y="128" font-family="'Kaiti SC','STKaiti','Noto Sans SC',sans-serif" font-size="23" font-weight="500" fill="#55708f" text-anchor="start"><tspan x="72" dy="0">能由代码确定的属性交给规则；开放属性由校准后的 Judge 判断；争议和高风险进入人工复核。</tspan></text>
<rect x="55" y="245" width="340" height="410" rx="22" fill="#dfeaf4" stroke="#1e3a5f" stroke-width="3"/><rect x="57" y="244" width="339" height="411" rx="23" fill="none" stroke="#1e3a5f" stroke-width="1.2" opacity=".28" transform="rotate(.18 225 450)"/>
<text x="225" y="302" font-family="'Kaiti SC','STKaiti','Noto Sans SC',sans-serif" font-size="28" font-weight="760" fill="#1e3a5f" text-anchor="middle"><tspan x="225" dy="0">Measurement Input</tspan></text>
<rect x="95" y="350" width="260" height="52" rx="26" fill="#fffdf7" stroke="#1e3a5f" stroke-width="2.4"/><rect x="97" y="349" width="259" height="53" rx="27" fill="none" stroke="#1e3a5f" stroke-width="1.2" opacity=".28" transform="rotate(.18 225 376)"/><text x="225" y="384" font-family="'Kaiti SC','STKaiti','Noto Sans SC',sans-serif" font-size="20" font-weight="700" fill="#1e3a5f" text-anchor="middle"><tspan x="225" dy="0">Case + Output</tspan></text>
<rect x="95" y="430" width="260" height="52" rx="26" fill="#f7e7b8" stroke="#d59621" stroke-width="2.4"/><rect x="97" y="429" width="259" height="53" rx="27" fill="none" stroke="#d59621" stroke-width="1.2" opacity=".28" transform="rotate(.18 225 456)"/><text x="225" y="464" font-family="'Kaiti SC','STKaiti','Noto Sans SC',sans-serif" font-size="20" font-weight="700" fill="#d59621" text-anchor="middle"><tspan x="225" dy="0">Rubric</tspan></text>
<rect x="95" y="510" width="260" height="52" rx="26" fill="#dcefe7" stroke="#3c8d77" stroke-width="2.4"/><rect x="97" y="509" width="259" height="53" rx="27" fill="none" stroke="#3c8d77" stroke-width="1.2" opacity=".28" transform="rotate(.18 225 536)"/><text x="225" y="544" font-family="'Kaiti SC','STKaiti','Noto Sans SC',sans-serif" font-size="20" font-weight="700" fill="#3c8d77" text-anchor="middle"><tspan x="225" dy="0">Evidence Pack</tspan></text>
<rect x="95" y="590" width="260" height="52" rx="26" fill="#e9e0f4" stroke="#7651a6" stroke-width="2.4"/><rect x="97" y="589" width="259" height="53" rx="27" fill="none" stroke="#7651a6" stroke-width="1.2" opacity=".28" transform="rotate(.18 225 616)"/><text x="225" y="624" font-family="'Kaiti SC','STKaiti','Noto Sans SC',sans-serif" font-size="20" font-weight="700" fill="#7651a6" text-anchor="middle"><tspan x="225" dy="0">版本 / Slice</tspan></text>
<path d="M 395 450 C 420 448, 445 452, 470 450" fill="none" stroke="#1e3a5f" stroke-width="4" stroke-linecap="round" marker-end="url(#arrow-1e3a5f)"/>
<rect x="470" y="245" width="330" height="410" rx="22" fill="#f7e7b8" stroke="#d59621" stroke-width="4"/><rect x="472" y="244" width="329" height="411" rx="23" fill="none" stroke="#d59621" stroke-width="1.2" opacity=".28" transform="rotate(.18 635 450)"/>
<text x="635" y="302" font-family="'Kaiti SC','STKaiti','Noto Sans SC',sans-serif" font-size="30" font-weight="760" fill="#d59621" text-anchor="middle"><tspan x="635" dy="0">LLM-as-a-Judge</tspan></text>
<text x="635" y="370" font-family="'Kaiti SC','STKaiti','Noto Sans SC',sans-serif" font-size="23" font-weight="500" fill="#1e3a5f" text-anchor="middle"><tspan x="635" dy="0">单答 / 参考引导</tspan><tspan x="635" dy="34.96">Pairwise 随机顺序</tspan><tspan x="635" dy="34.96">结构化 Verdict</tspan><tspan x="635" dy="34.96">EvidenceRef</tspan><tspan x="635" dy="34.96">Abstain</tspan></text>
<path d="M 800 450 C 825 448, 850 452, 875 450" fill="none" stroke="#d59621" stroke-width="4" stroke-linecap="round" marker-end="url(#arrow-d59621)"/>
<rect x="875" y="245" width="330" height="410" rx="22" fill="#dcefe7" stroke="#3c8d77" stroke-width="3"/><rect x="877" y="244" width="329" height="411" rx="23" fill="none" stroke="#3c8d77" stroke-width="1.2" opacity=".28" transform="rotate(.18 1040 450)"/>
<text x="1040" y="302" font-family="'Kaiti SC','STKaiti','Noto Sans SC',sans-serif" font-size="30" font-weight="760" fill="#3c8d77" text-anchor="middle"><tspan x="1040" dy="0">Calibration</tspan></text>
<text x="1040" y="370" font-family="'Kaiti SC','STKaiti','Noto Sans SC',sans-serif" font-size="23" font-weight="500" fill="#1e3a5f" text-anchor="middle"><tspan x="1040" dy="0">人类标签</tspan><tspan x="1040" dy="34.96">一致率 / Kappa</tspan><tspan x="1040" dy="34.96">Precision / Recall</tspan><tspan x="1040" dy="34.96">顺序翻转率</tspan><tspan x="1040" dy="34.96">切片误差</tspan></text>
<path d="M 1205 450 C 1230 448, 1255 452, 1280 450" fill="none" stroke="#3c8d77" stroke-width="4" stroke-linecap="round" marker-end="url(#arrow-3c8d77)"/>
<rect x="1280" y="245" width="265" height="410" rx="22" fill="#f7dddd" stroke="#c94c4c" stroke-width="3"/><rect x="1282" y="244" width="264" height="411" rx="23" fill="none" stroke="#c94c4c" stroke-width="1.2" opacity=".28" transform="rotate(.18 1412.5 450)"/>
<text x="1412" y="302" font-family="'Kaiti SC','STKaiti','Noto Sans SC',sans-serif" font-size="29" font-weight="760" fill="#c94c4c" text-anchor="middle"><tspan x="1412" dy="0">Human Review</tspan></text>
<text x="1412" y="380" font-family="'Kaiti SC','STKaiti','Noto Sans SC',sans-serif" font-size="23" font-weight="500" fill="#1e3a5f" text-anchor="middle"><tspan x="1412" dy="0">高风险</tspan><tspan x="1412" dy="36.34">Judge 弃权</tspan><tspan x="1412" dy="36.34">证据冲突</tspan><tspan x="1412" dy="36.34">新任务</tspan><tspan x="1412" dy="36.34">抽样审计</tspan></text>
<rect x="445" y="705" width="710" height="80" rx="38" fill="#fffdf7" stroke="#c94c4c" stroke-width="3" stroke-dasharray="12 9"/><rect x="447" y="704" width="709" height="81" rx="39" fill="none" stroke="#c94c4c" stroke-width="1.2" opacity=".28" transform="rotate(.18 800 745)"/>
<text x="800" y="755" font-family="'Kaiti SC','STKaiti','Noto Sans SC',sans-serif" font-size="26" font-weight="760" fill="#c94c4c" text-anchor="middle"><tspan x="800" dy="0">位置偏差 · 冗长偏差 · 自偏好 · Prompt Injection</tspan></text>

<text x="1525" y="860" font-family="'Kaiti SC','STKaiti',sans-serif" font-size="18" fill="#55708f" text-anchor="end">生产级多智能体系统 · 第 08 章</text>
</svg>