<svg xmlns="http://www.w3.org/2000/svg" width="1600" height="900" viewBox="0 0 1600 900" role="img">
<defs><marker id="arrow-1e3a5f" viewBox="0 0 10 10" refX="9" refY="5" markerWidth="8" markerHeight="8" orient="auto-start-reverse"><path d="M 0 0 L 10 5 L 0 10 z" fill="#1e3a5f"/></marker><marker id="arrow-d59621" viewBox="0 0 10 10" refX="9" refY="5" markerWidth="8" markerHeight="8" orient="auto-start-reverse"><path d="M 0 0 L 10 5 L 0 10 z" fill="#d59621"/></marker><marker id="arrow-3c8d77" viewBox="0 0 10 10" refX="9" refY="5" markerWidth="8" markerHeight="8" orient="auto-start-reverse"><path d="M 0 0 L 10 5 L 0 10 z" fill="#3c8d77"/></marker><marker id="arrow-c94c4c" viewBox="0 0 10 10" refX="9" refY="5" markerWidth="8" markerHeight="8" orient="auto-start-reverse"><path d="M 0 0 L 10 5 L 0 10 z" fill="#c94c4c"/></marker><marker id="arrow-7651a6" viewBox="0 0 10 10" refX="9" refY="5" markerWidth="8" markerHeight="8" orient="auto-start-reverse"><path d="M 0 0 L 10 5 L 0 10 z" fill="#7651a6"/></marker><marker id="arrow-55708f" viewBox="0 0 10 10" refX="9" refY="5" markerWidth="8" markerHeight="8" orient="auto-start-reverse"><path d="M 0 0 L 10 5 L 0 10 z" fill="#55708f"/></marker></defs>
<rect width="1600" height="900" fill="#fbf7ec"/>
<path d="M 20 180 C 420 171, 920 190, 1580 177 M 30 718 C 530 727, 980 707, 1570 721" stroke="#e7dfce" stroke-width="2" fill="none" opacity=".52"/>

<text x="70" y="76" font-family="'Kaiti SC','STKaiti','Noto Sans SC',sans-serif" font-size="43" font-weight="760" fill="#1e3a5f" text-anchor="start"><tspan x="70" dy="0">N-run：一次通过不是稳定性证明</tspan></text><path d="M 70 94 C 265 87, 485 102, 710 93" fill="none" stroke="#d59621" stroke-width="7" stroke-linecap="round" opacity=".85"/><text x="72" y="128" font-family="'Kaiti SC','STKaiti','Noto Sans SC',sans-serif" font-size="23" font-weight="500" fill="#55708f" text-anchor="start"><tspan x="72" dy="0">候选搜索关心至少一次成功；生产路径更关心每一次都安全、都满足不变量。</tspan></text>
<text x="100" y="245" font-family="'Kaiti SC','STKaiti','Noto Sans SC',sans-serif" font-size="28" font-weight="760" fill="#1e3a5f" text-anchor="start"><tspan x="100" dy="0">同一 Golden Case · 固定 Fixture · 10 次运行</tspan></text>
<rect x="90" y="295" width="105" height="120" rx="22" fill="#dcefe7" stroke="#3c8d77" stroke-width="3"/><rect x="92" y="294" width="104" height="121" rx="23" fill="none" stroke="#3c8d77" stroke-width="1.2" opacity=".28" transform="rotate(.18 142.5 355)"/><text x="142" y="365" font-family="'Kaiti SC','STKaiti','Noto Sans SC',sans-serif" font-size="47" font-weight="800" fill="#3c8d77" text-anchor="middle"><tspan x="142" dy="0">✓</tspan></text><text x="142" y="402" font-family="'Kaiti SC','STKaiti','Noto Sans SC',sans-serif" font-size="18" font-weight="500" fill="#55708f" text-anchor="middle"><tspan x="142" dy="0">R1</tspan></text><rect x="235" y="295" width="105" height="120" rx="22" fill="#dcefe7" stroke="#3c8d77" stroke-width="3"/><rect x="237" y="294" width="104" height="121" rx="23" fill="none" stroke="#3c8d77" stroke-width="1.2" opacity=".28" transform="rotate(.18 287.5 355)"/><text x="287" y="365" font-family="'Kaiti SC','STKaiti','Noto Sans SC',sans-serif" font-size="47" font-weight="800" fill="#3c8d77" text-anchor="middle"><tspan x="287" dy="0">✓</tspan></text><text x="287" y="402" font-family="'Kaiti SC','STKaiti','Noto Sans SC',sans-serif" font-size="18" font-weight="500" fill="#55708f" text-anchor="middle"><tspan x="287" dy="0">R2</tspan></text><rect x="380" y="295" width="105" height="120" rx="22" fill="#dcefe7" stroke="#3c8d77" stroke-width="3"/><rect x="382" y="294" width="104" height="121" rx="23" fill="none" stroke="#3c8d77" stroke-width="1.2" opacity=".28" transform="rotate(.18 432.5 355)"/><text x="432" y="365" font-family="'Kaiti SC','STKaiti','Noto Sans SC',sans-serif" font-size="47" font-weight="800" fill="#3c8d77" text-anchor="middle"><tspan x="432" dy="0">✓</tspan></text><text x="432" y="402" font-family="'Kaiti SC','STKaiti','Noto Sans SC',sans-serif" font-size="18" font-weight="500" fill="#55708f" text-anchor="middle"><tspan x="432" dy="0">R3</tspan></text><rect x="525" y="295" width="105" height="120" rx="22" fill="#dcefe7" stroke="#3c8d77" stroke-width="3"/><rect x="527" y="294" width="104" height="121" rx="23" fill="none" stroke="#3c8d77" stroke-width="1.2" opacity=".28" transform="rotate(.18 577.5 355)"/><text x="577" y="365" font-family="'Kaiti SC','STKaiti','Noto Sans SC',sans-serif" font-size="47" font-weight="800" fill="#3c8d77" text-anchor="middle"><tspan x="577" dy="0">✓</tspan></text><text x="577" y="402" font-family="'Kaiti SC','STKaiti','Noto Sans SC',sans-serif" font-size="18" font-weight="500" fill="#55708f" text-anchor="middle"><tspan x="577" dy="0">R4</tspan></text><rect x="670" y="295" width="105" height="120" rx="22" fill="#dcefe7" stroke="#3c8d77" stroke-width="3"/><rect x="672" y="294" width="104" height="121" rx="23" fill="none" stroke="#3c8d77" stroke-width="1.2" opacity=".28" transform="rotate(.18 722.5 355)"/><text x="722" y="365" font-family="'Kaiti SC','STKaiti','Noto Sans SC',sans-serif" font-size="47" font-weight="800" fill="#3c8d77" text-anchor="middle"><tspan x="722" dy="0">✓</tspan></text><text x="722" y="402" font-family="'Kaiti SC','STKaiti','Noto Sans SC',sans-serif" font-size="18" font-weight="500" fill="#55708f" text-anchor="middle"><tspan x="722" dy="0">R5</tspan></text><rect x="815" y="295" width="105" height="120" rx="22" fill="#dcefe7" stroke="#3c8d77" stroke-width="3"/><rect x="817" y="294" width="104" height="121" rx="23" fill="none" stroke="#3c8d77" stroke-width="1.2" opacity=".28" transform="rotate(.18 867.5 355)"/><text x="867" y="365" font-family="'Kaiti SC','STKaiti','Noto Sans SC',sans-serif" font-size="47" font-weight="800" fill="#3c8d77" text-anchor="middle"><tspan x="867" dy="0">✓</tspan></text><text x="867" y="402" font-family="'Kaiti SC','STKaiti','Noto Sans SC',sans-serif" font-size="18" font-weight="500" fill="#55708f" text-anchor="middle"><tspan x="867" dy="0">R6</tspan></text><rect x="960" y="295" width="105" height="120" rx="22" fill="#f7dddd" stroke="#c94c4c" stroke-width="3"/><rect x="962" y="294" width="104" height="121" rx="23" fill="none" stroke="#c94c4c" stroke-width="1.2" opacity=".28" transform="rotate(.18 1012.5 355)"/><text x="1012" y="365" font-family="'Kaiti SC','STKaiti','Noto Sans SC',sans-serif" font-size="47" font-weight="800" fill="#c94c4c" text-anchor="middle"><tspan x="1012" dy="0">✕</tspan></text><text x="1012" y="402" font-family="'Kaiti SC','STKaiti','Noto Sans SC',sans-serif" font-size="18" font-weight="500" fill="#55708f" text-anchor="middle"><tspan x="1012" dy="0">R7</tspan></text><rect x="1105" y="295" width="105" height="120" rx="22" fill="#dcefe7" stroke="#3c8d77" stroke-width="3"/><rect x="1107" y="294" width="104" height="121" rx="23" fill="none" stroke="#3c8d77" stroke-width="1.2" opacity=".28" transform="rotate(.18 1157.5 355)"/><text x="1157" y="365" font-family="'Kaiti SC','STKaiti','Noto Sans SC',sans-serif" font-size="47" font-weight="800" fill="#3c8d77" text-anchor="middle"><tspan x="1157" dy="0">✓</tspan></text><text x="1157" y="402" font-family="'Kaiti SC','STKaiti','Noto Sans SC',sans-serif" font-size="18" font-weight="500" fill="#55708f" text-anchor="middle"><tspan x="1157" dy="0">R8</tspan></text><rect x="1250" y="295" width="105" height="120" rx="22" fill="#dcefe7" stroke="#3c8d77" stroke-width="3"/><rect x="1252" y="294" width="104" height="121" rx="23" fill="none" stroke="#3c8d77" stroke-width="1.2" opacity=".28" transform="rotate(.18 1302.5 355)"/><text x="1302" y="365" font-family="'Kaiti SC','STKaiti','Noto Sans SC',sans-serif" font-size="47" font-weight="800" fill="#3c8d77" text-anchor="middle"><tspan x="1302" dy="0">✓</tspan></text><text x="1302" y="402" font-family="'Kaiti SC','STKaiti','Noto Sans SC',sans-serif" font-size="18" font-weight="500" fill="#55708f" text-anchor="middle"><tspan x="1302" dy="0">R9</tspan></text><rect x="1395" y="295" width="105" height="120" rx="22" fill="#dcefe7" stroke="#3c8d77" stroke-width="3"/><rect x="1397" y="294" width="104" height="121" rx="23" fill="none" stroke="#3c8d77" stroke-width="1.2" opacity=".28" transform="rotate(.18 1447.5 355)"/><text x="1447" y="365" font-family="'Kaiti SC','STKaiti','Noto Sans SC',sans-serif" font-size="47" font-weight="800" fill="#3c8d77" text-anchor="middle"><tspan x="1447" dy="0">✓</tspan></text><text x="1447" y="402" font-family="'Kaiti SC','STKaiti','Noto Sans SC',sans-serif" font-size="18" font-weight="500" fill="#55708f" text-anchor="middle"><tspan x="1447" dy="0">R10</tspan></text>
<rect x="80" y="500" width="440" height="170" rx="22" fill="#dfeaf4" stroke="#1e3a5f" stroke-width="3"/><rect x="82" y="499" width="439" height="171" rx="23" fill="none" stroke="#1e3a5f" stroke-width="1.2" opacity=".28" transform="rotate(.18 300 585)"/>
<text x="300" y="552" font-family="'Kaiti SC','STKaiti','Noto Sans SC',sans-serif" font-size="34" font-weight="760" fill="#1e3a5f" text-anchor="middle"><tspan x="300" dy="0">pass@k</tspan></text>
<text x="300" y="603" font-family="'Kaiti SC','STKaiti','Noto Sans SC',sans-serif" font-size="24" font-weight="500" fill="#1e3a5f" text-anchor="middle"><tspan x="300" dy="0">k 次中至少一次成功</tspan></text>
<text x="300" y="640" font-family="'Kaiti SC','STKaiti','Noto Sans SC',sans-serif" font-size="20" font-weight="500" fill="#55708f" text-anchor="middle"><tspan x="300" dy="0">候选生成 / 搜索</tspan></text>
<rect x="580" y="500" width="440" height="170" rx="22" fill="#f7e7b8" stroke="#d59621" stroke-width="3"/><rect x="582" y="499" width="439" height="171" rx="23" fill="none" stroke="#d59621" stroke-width="1.2" opacity=".28" transform="rotate(.18 800 585)"/>
<text x="800" y="552" font-family="'Kaiti SC','STKaiti','Noto Sans SC',sans-serif" font-size="34" font-weight="760" fill="#d59621" text-anchor="middle"><tspan x="800" dy="0">pass^k</tspan></text>
<text x="800" y="603" font-family="'Kaiti SC','STKaiti','Noto Sans SC',sans-serif" font-size="24" font-weight="500" fill="#1e3a5f" text-anchor="middle"><tspan x="800" dy="0">本书记号：k 次全部成功</tspan></text>
<text x="800" y="640" font-family="'Kaiti SC','STKaiti','Noto Sans SC',sans-serif" font-size="20" font-weight="500" fill="#55708f" text-anchor="middle"><tspan x="800" dy="0">稳定执行</tspan></text>
<rect x="1080" y="500" width="440" height="170" rx="22" fill="#f7dddd" stroke="#c94c4c" stroke-width="3"/><rect x="1082" y="499" width="439" height="171" rx="23" fill="none" stroke="#c94c4c" stroke-width="1.2" opacity=".28" transform="rotate(.18 1300 585)"/>
<text x="1300" y="552" font-family="'Kaiti SC','STKaiti','Noto Sans SC',sans-serif" font-size="32" font-weight="760" fill="#c94c4c" text-anchor="middle"><tspan x="1300" dy="0">safe_path_rate</tspan></text>
<text x="1300" y="603" font-family="'Kaiti SC','STKaiti','Noto Sans SC',sans-serif" font-size="23" font-weight="500" fill="#1e3a5f" text-anchor="middle"><tspan x="1300" dy="0">满足安全不变量的运行比例</tspan></text>
<text x="1300" y="640" font-family="'Kaiti SC','STKaiti','Noto Sans SC',sans-serif" font-size="20" font-weight="500" fill="#55708f" text-anchor="middle"><tspan x="1300" dy="0">高风险硬门禁</tspan></text>
<text x="800" y="770" font-family="'Kaiti SC','STKaiti','Noto Sans SC',sans-serif" font-size="29" font-weight="760" fill="#c94c4c" text-anchor="middle"><tspan x="800" dy="0">保存每次 Plan、Route、Tool、Evidence 与 Trace；不要只保存平均分。</tspan></text>

<text x="1525" y="860" font-family="'Kaiti SC','STKaiti',sans-serif" font-size="18" fill="#55708f" text-anchor="end">生产级多智能体系统 · 第 08 章</text>
</svg>