<svg xmlns="http://www.w3.org/2000/svg" width="1600" height="900" viewBox="0 0 1600 900" role="img">
<defs><marker id="arrow-1e3a5f" viewBox="0 0 10 10" refX="9" refY="5" markerWidth="8" markerHeight="8" orient="auto-start-reverse"><path d="M 0 0 L 10 5 L 0 10 z" fill="#1e3a5f"/></marker><marker id="arrow-d59621" viewBox="0 0 10 10" refX="9" refY="5" markerWidth="8" markerHeight="8" orient="auto-start-reverse"><path d="M 0 0 L 10 5 L 0 10 z" fill="#d59621"/></marker><marker id="arrow-3c8d77" viewBox="0 0 10 10" refX="9" refY="5" markerWidth="8" markerHeight="8" orient="auto-start-reverse"><path d="M 0 0 L 10 5 L 0 10 z" fill="#3c8d77"/></marker><marker id="arrow-c94c4c" viewBox="0 0 10 10" refX="9" refY="5" markerWidth="8" markerHeight="8" orient="auto-start-reverse"><path d="M 0 0 L 10 5 L 0 10 z" fill="#c94c4c"/></marker><marker id="arrow-7651a6" viewBox="0 0 10 10" refX="9" refY="5" markerWidth="8" markerHeight="8" orient="auto-start-reverse"><path d="M 0 0 L 10 5 L 0 10 z" fill="#7651a6"/></marker><marker id="arrow-55708f" viewBox="0 0 10 10" refX="9" refY="5" markerWidth="8" markerHeight="8" orient="auto-start-reverse"><path d="M 0 0 L 10 5 L 0 10 z" fill="#55708f"/></marker></defs>
<rect width="1600" height="900" fill="#fbf7ec"/>
<path d="M 20 180 C 420 171, 920 190, 1580 177 M 30 718 C 530 727, 980 707, 1570 721" stroke="#e7dfce" stroke-width="2" fill="none" opacity=".52"/>

<text x="70" y="76" font-family="'Kaiti SC','STKaiti','Noto Sans SC',sans-serif" font-size="43" font-weight="760" fill="#1e3a5f" text-anchor="start"><tspan x="70" dy="0">一次 Agent 请求的可观测因果链</tspan></text><path d="M 70 94 C 265 87, 485 102, 710 93" fill="none" stroke="#d59621" stroke-width="7" stroke-linecap="round" opacity=".85"/><text x="72" y="128" font-family="'Kaiti SC','STKaiti','Noto Sans SC',sans-serif" font-size="23" font-weight="500" fill="#55708f" text-anchor="start"><tspan x="72" dy="0">Trace 连接因果路径，Metric 聚合趋势，Log 解释事件；Baggage 只传播受控低敏上下文。</tspan></text>
<rect x="55" y="280" width="205" height="135" rx="22" fill="#f7e7b8" stroke="#d59621" stroke-width="3"/><rect x="57" y="279" width="204" height="136" rx="23" fill="none" stroke="#d59621" stroke-width="1.2" opacity=".32" transform="rotate(.18 157.5 347.5)"/>
<text x="157" y="333" font-family="'Kaiti SC','STKaiti','Noto Sans SC',sans-serif" font-size="29" font-weight="720" fill="#d59621" text-anchor="middle"><tspan x="157" dy="0">Request</tspan></text>
<text x="157" y="373" font-family="'Kaiti SC','STKaiti','Noto Sans SC',sans-serif" font-size="18" font-weight="500" fill="#1e3a5f" text-anchor="middle"><tspan x="157" dy="0">request_id · deadline</tspan></text>
<rect x="315" y="280" width="205" height="135" rx="22" fill="#dfeaf4" stroke="#1e3a5f" stroke-width="3"/><rect x="317" y="279" width="204" height="136" rx="23" fill="none" stroke="#1e3a5f" stroke-width="1.2" opacity=".32" transform="rotate(.18 417.5 347.5)"/>
<text x="417" y="333" font-family="'Kaiti SC','STKaiti','Noto Sans SC',sans-serif" font-size="29" font-weight="720" fill="#1e3a5f" text-anchor="middle"><tspan x="417" dy="0">Supervisor</tspan></text>
<text x="417" y="373" font-family="'Kaiti SC','STKaiti','Noto Sans SC',sans-serif" font-size="18" font-weight="500" fill="#1e3a5f" text-anchor="middle"><tspan x="417" dy="0">plan · budget</tspan></text>
<rect x="575" y="280" width="205" height="135" rx="22" fill="#e9e0f4" stroke="#7651a6" stroke-width="3"/><rect x="577" y="279" width="204" height="136" rx="23" fill="none" stroke="#7651a6" stroke-width="1.2" opacity=".32" transform="rotate(.18 677.5 347.5)"/>
<text x="677" y="333" font-family="'Kaiti SC','STKaiti','Noto Sans SC',sans-serif" font-size="29" font-weight="720" fill="#7651a6" text-anchor="middle"><tspan x="677" dy="0">Agent</tspan></text>
<text x="677" y="373" font-family="'Kaiti SC','STKaiti','Noto Sans SC',sans-serif" font-size="18" font-weight="500" fill="#1e3a5f" text-anchor="middle"><tspan x="677" dy="0">model · prompt</tspan></text>
<rect x="835" y="280" width="205" height="135" rx="22" fill="#dcefe7" stroke="#3c8d77" stroke-width="3"/><rect x="837" y="279" width="204" height="136" rx="23" fill="none" stroke="#3c8d77" stroke-width="1.2" opacity=".32" transform="rotate(.18 937.5 347.5)"/>
<text x="937" y="333" font-family="'Kaiti SC','STKaiti','Noto Sans SC',sans-serif" font-size="29" font-weight="720" fill="#3c8d77" text-anchor="middle"><tspan x="937" dy="0">Tool</tspan></text>
<text x="937" y="373" font-family="'Kaiti SC','STKaiti','Noto Sans SC',sans-serif" font-size="18" font-weight="500" fill="#1e3a5f" text-anchor="middle"><tspan x="937" dy="0">operation · policy</tspan></text>
<rect x="1095" y="280" width="205" height="135" rx="22" fill="#f7dddd" stroke="#c94c4c" stroke-width="3"/><rect x="1097" y="279" width="204" height="136" rx="23" fill="none" stroke="#c94c4c" stroke-width="1.2" opacity=".32" transform="rotate(.18 1197.5 347.5)"/>
<text x="1197" y="333" font-family="'Kaiti SC','STKaiti','Noto Sans SC',sans-serif" font-size="29" font-weight="720" fill="#c94c4c" text-anchor="middle"><tspan x="1197" dy="0">Queue</tspan></text>
<text x="1197" y="373" font-family="'Kaiti SC','STKaiti','Noto Sans SC',sans-serif" font-size="18" font-weight="500" fill="#1e3a5f" text-anchor="middle"><tspan x="1197" dy="0">attempt · idempotency</tspan></text>
<rect x="1355" y="280" width="190" height="135" rx="22" fill="#fffdf7" stroke="#1e3a5f" stroke-width="3"/><rect x="1357" y="279" width="189" height="136" rx="23" fill="none" stroke="#1e3a5f" stroke-width="1.2" opacity=".32" transform="rotate(.18 1450 347.5)"/>
<text x="1450" y="333" font-family="'Kaiti SC','STKaiti','Noto Sans SC',sans-serif" font-size="29" font-weight="720" fill="#1e3a5f" text-anchor="middle"><tspan x="1450" dy="0">DB / API</tspan></text>
<text x="1450" y="373" font-family="'Kaiti SC','STKaiti','Noto Sans SC',sans-serif" font-size="18" font-weight="500" fill="#1e3a5f" text-anchor="middle"><tspan x="1450" dy="0">query · status</tspan></text>
<path d="M 260 347 C 278.3333333333333 345, 296.6666666666667 349, 315 347" fill="none" stroke="#d59621" stroke-width="4" stroke-linecap="round" marker-end="url(#arrow-d59621)"/>
<path d="M 520 347 C 538.3333333333334 345, 556.6666666666666 349, 575 347" fill="none" stroke="#1e3a5f" stroke-width="4" stroke-linecap="round" marker-end="url(#arrow-1e3a5f)"/>
<path d="M 780 347 C 798.3333333333334 345, 816.6666666666666 349, 835 347" fill="none" stroke="#7651a6" stroke-width="4" stroke-linecap="round" marker-end="url(#arrow-7651a6)"/>
<path d="M 1040 347 C 1058.3333333333333 345, 1076.6666666666667 349, 1095 347" fill="none" stroke="#3c8d77" stroke-width="4" stroke-linecap="round" marker-end="url(#arrow-3c8d77)"/>
<path d="M 1300 347 C 1318.3333333333333 345, 1336.6666666666667 349, 1355 347" fill="none" stroke="#c94c4c" stroke-width="4" stroke-linecap="round" marker-end="url(#arrow-c94c4c)"/>
<rect x="120" y="505" width="1360" height="180" rx="22" fill="#fffdf7" stroke="#1e3a5f" stroke-width="3" stroke-dasharray="12 9"/><rect x="122" y="504" width="1359" height="181" rx="23" fill="none" stroke="#1e3a5f" stroke-width="1.2" opacity=".32" transform="rotate(.18 800 595)"/>
<rect x="175" y="545" width="220" height="52" rx="26" fill="#dfeaf4" stroke="#1e3a5f" stroke-width="2.4"/><rect x="177" y="544" width="219" height="53" rx="27" fill="none" stroke="#1e3a5f" stroke-width="1.2" opacity=".32" transform="rotate(.18 285 571)"/><text x="285" y="579" font-family="'Kaiti SC','STKaiti','Noto Sans SC',sans-serif" font-size="22" font-weight="700" fill="#1e3a5f" text-anchor="middle"><tspan x="285" dy="0">Trace · 单次因果</tspan></text>
<rect x="455" y="545" width="220" height="52" rx="26" fill="#dcefe7" stroke="#3c8d77" stroke-width="2.4"/><rect x="457" y="544" width="219" height="53" rx="27" fill="none" stroke="#3c8d77" stroke-width="1.2" opacity=".32" transform="rotate(.18 565 571)"/><text x="565" y="579" font-family="'Kaiti SC','STKaiti','Noto Sans SC',sans-serif" font-size="22" font-weight="700" fill="#3c8d77" text-anchor="middle"><tspan x="565" dy="0">Metric · 聚合趋势</tspan></text>
<rect x="735" y="545" width="220" height="52" rx="26" fill="#f7e7b8" stroke="#d59621" stroke-width="2.4"/><rect x="737" y="544" width="219" height="53" rx="27" fill="none" stroke="#d59621" stroke-width="1.2" opacity=".32" transform="rotate(.18 845 571)"/><text x="845" y="579" font-family="'Kaiti SC','STKaiti','Noto Sans SC',sans-serif" font-size="22" font-weight="700" fill="#d59621" text-anchor="middle"><tspan x="845" dy="0">Log · 离散事件</tspan></text>
<rect x="1015" y="545" width="260" height="52" rx="26" fill="#e9e0f4" stroke="#7651a6" stroke-width="2.4"/><rect x="1017" y="544" width="259" height="53" rx="27" fill="none" stroke="#7651a6" stroke-width="1.2" opacity=".32" transform="rotate(.18 1145 571)"/><text x="1145" y="579" font-family="'Kaiti SC','STKaiti','Noto Sans SC',sans-serif" font-size="22" font-weight="700" fill="#7651a6" text-anchor="middle"><tspan x="1145" dy="0">Baggage · 传播上下文</tspan></text>
<text x="800" y="655" font-family="'Kaiti SC','STKaiti','Noto Sans SC',sans-serif" font-size="24" font-weight="500" fill="#55708f" text-anchor="middle"><tspan x="800" dy="0">完整内容进入受控 Artifact；遥测只保存稳定属性、哈希和不可变引用。</tspan></text>
<text x="800" y="770" font-family="'Kaiti SC','STKaiti','Noto Sans SC',sans-serif" font-size="29" font-weight="700" fill="#c94c4c" text-anchor="middle"><tspan x="800" dy="0">禁止：Secret · 原始 Prompt · PII · request_id 作为 Metric Label</tspan></text>

<text x="1525" y="860" font-family="'Kaiti SC','STKaiti',sans-serif" font-size="18" fill="#55708f" text-anchor="end">生产级多智能体系统 · 第 05 章</text>
</svg>