<svg xmlns="http://www.w3.org/2000/svg" width="1600" height="900" viewBox="0 0 1600 900" role="img">
<defs><marker id="arrow-1e3a5f" viewBox="0 0 10 10" refX="9" refY="5" markerWidth="8" markerHeight="8" orient="auto-start-reverse"><path d="M 0 0 L 10 5 L 0 10 z" fill="#1e3a5f"/></marker><marker id="arrow-d59621" viewBox="0 0 10 10" refX="9" refY="5" markerWidth="8" markerHeight="8" orient="auto-start-reverse"><path d="M 0 0 L 10 5 L 0 10 z" fill="#d59621"/></marker><marker id="arrow-3c8d77" viewBox="0 0 10 10" refX="9" refY="5" markerWidth="8" markerHeight="8" orient="auto-start-reverse"><path d="M 0 0 L 10 5 L 0 10 z" fill="#3c8d77"/></marker><marker id="arrow-c94c4c" viewBox="0 0 10 10" refX="9" refY="5" markerWidth="8" markerHeight="8" orient="auto-start-reverse"><path d="M 0 0 L 10 5 L 0 10 z" fill="#c94c4c"/></marker><marker id="arrow-7651a6" viewBox="0 0 10 10" refX="9" refY="5" markerWidth="8" markerHeight="8" orient="auto-start-reverse"><path d="M 0 0 L 10 5 L 0 10 z" fill="#7651a6"/></marker><marker id="arrow-55708f" viewBox="0 0 10 10" refX="9" refY="5" markerWidth="8" markerHeight="8" orient="auto-start-reverse"><path d="M 0 0 L 10 5 L 0 10 z" fill="#55708f"/></marker></defs>
<rect width="1600" height="900" fill="#fbf7ec"/>
<path d="M 20 180 C 420 171, 920 190, 1580 177 M 30 718 C 530 727, 980 707, 1570 721" stroke="#e7dfce" stroke-width="2" fill="none" opacity=".52"/>

<text x="70" y="76" font-family="'Kaiti SC','STKaiti','Noto Sans SC',sans-serif" font-size="43" font-weight="760" fill="#1e3a5f" text-anchor="start"><tspan x="70" dy="0">生产级 Agent 平台的五个平面</tspan></text><path d="M 70 94 C 265 87, 485 102, 710 93" fill="none" stroke="#d59621" stroke-width="7" stroke-linecap="round" opacity=".85"/><text x="72" y="128" font-family="'Kaiti SC','STKaiti','Noto Sans SC',sans-serif" font-size="23" font-weight="500" fill="#55708f" text-anchor="start"><tspan x="72" dy="0">责任可以部署在一起，但入口、决策、执行、状态与运营的所有权不能混在一起。</tspan></text>
<rect x="60" y="240" width="270" height="410" rx="22" fill="#f7e7b8" stroke="#d59621" stroke-width="3"/><rect x="62" y="239" width="269" height="411" rx="23" fill="none" stroke="#d59621" stroke-width="1.2" opacity=".32" transform="rotate(.18 195 445)"/>
<rect x="95" y="270" width="200" height="52" rx="26" fill="#fffdf7" stroke="#d59621" stroke-width="2.4"/><rect x="97" y="269" width="199" height="53" rx="27" fill="none" stroke="#d59621" stroke-width="1.2" opacity=".32" transform="rotate(.18 195 296)"/><text x="195" y="304" font-family="'Kaiti SC','STKaiti','Noto Sans SC',sans-serif" font-size="29" font-weight="700" fill="#d59621" text-anchor="middle"><tspan x="195" dy="0">体验平面</tspan></text>
<text x="195" y="385" font-family="'Kaiti SC','STKaiti','Noto Sans SC',sans-serif" font-size="25" font-weight="500" fill="#1e3a5f" text-anchor="middle"><tspan x="195" dy="0">UI / API</tspan><tspan x="195" dy="38.75">流式响应</tspan><tspan x="195" dy="38.75">Webhook</tspan><tspan x="195" dy="38.75">取消与反馈</tspan></text>
<rect x="365" y="240" width="270" height="410" rx="22" fill="#dfeaf4" stroke="#1e3a5f" stroke-width="3"/><rect x="367" y="239" width="269" height="411" rx="23" fill="none" stroke="#1e3a5f" stroke-width="1.2" opacity=".32" transform="rotate(.18 500 445)"/>
<rect x="400" y="270" width="200" height="52" rx="26" fill="#fffdf7" stroke="#1e3a5f" stroke-width="2.4"/><rect x="402" y="269" width="199" height="53" rx="27" fill="none" stroke="#1e3a5f" stroke-width="1.2" opacity=".32" transform="rotate(.18 500 296)"/><text x="500" y="304" font-family="'Kaiti SC','STKaiti','Noto Sans SC',sans-serif" font-size="29" font-weight="700" fill="#1e3a5f" text-anchor="middle"><tspan x="500" dy="0">控制平面</tspan></text>
<text x="500" y="385" font-family="'Kaiti SC','STKaiti','Noto Sans SC',sans-serif" font-size="25" font-weight="500" fill="#1e3a5f" text-anchor="middle"><tspan x="500" dy="0">计划与路由</tspan><tspan x="500" dy="38.75">Policy Gate</tspan><tspan x="500" dy="38.75">预算与审批</tspan><tspan x="500" dy="38.75">Checkpoint</tspan></text>
<rect x="670" y="240" width="270" height="410" rx="22" fill="#e9e0f4" stroke="#7651a6" stroke-width="3"/><rect x="672" y="239" width="269" height="411" rx="23" fill="none" stroke="#7651a6" stroke-width="1.2" opacity=".32" transform="rotate(.18 805 445)"/>
<rect x="705" y="270" width="200" height="52" rx="26" fill="#fffdf7" stroke="#7651a6" stroke-width="2.4"/><rect x="707" y="269" width="199" height="53" rx="27" fill="none" stroke="#7651a6" stroke-width="1.2" opacity=".32" transform="rotate(.18 805 296)"/><text x="805" y="304" font-family="'Kaiti SC','STKaiti','Noto Sans SC',sans-serif" font-size="29" font-weight="700" fill="#7651a6" text-anchor="middle"><tspan x="805" dy="0">执行平面</tspan></text>
<text x="805" y="385" font-family="'Kaiti SC','STKaiti','Noto Sans SC',sans-serif" font-size="25" font-weight="500" fill="#1e3a5f" text-anchor="middle"><tspan x="805" dy="0">Agent Runtime</tspan><tspan x="805" dy="38.75">Tool Server</tspan><tspan x="805" dy="38.75">Worker / Sandbox</tspan><tspan x="805" dy="38.75">Model Gateway</tspan></text>
<rect x="975" y="240" width="270" height="410" rx="22" fill="#dcefe7" stroke="#3c8d77" stroke-width="3"/><rect x="977" y="239" width="269" height="411" rx="23" fill="none" stroke="#3c8d77" stroke-width="1.2" opacity=".32" transform="rotate(.18 1110 445)"/>
<rect x="1010" y="270" width="200" height="52" rx="26" fill="#fffdf7" stroke="#3c8d77" stroke-width="2.4"/><rect x="1012" y="269" width="199" height="53" rx="27" fill="none" stroke="#3c8d77" stroke-width="1.2" opacity=".32" transform="rotate(.18 1110 296)"/><text x="1110" y="304" font-family="'Kaiti SC','STKaiti','Noto Sans SC',sans-serif" font-size="29" font-weight="700" fill="#3c8d77" text-anchor="middle"><tspan x="1110" dy="0">数据平面</tspan></text>
<text x="1110" y="385" font-family="'Kaiti SC','STKaiti','Noto Sans SC',sans-serif" font-size="25" font-weight="500" fill="#1e3a5f" text-anchor="middle"><tspan x="1110" dy="0">SQL / Graph</tspan><tspan x="1110" dy="38.75">Vector / Object</tspan><tspan x="1110" dy="38.75">Cache / Queue</tspan><tspan x="1110" dy="38.75">SoT 与派生索引</tspan></text>
<rect x="1280" y="240" width="270" height="410" rx="22" fill="#f7dddd" stroke="#c94c4c" stroke-width="3"/><rect x="1282" y="239" width="269" height="411" rx="23" fill="none" stroke="#c94c4c" stroke-width="1.2" opacity=".32" transform="rotate(.18 1415 445)"/>
<rect x="1315" y="270" width="200" height="52" rx="26" fill="#fffdf7" stroke="#c94c4c" stroke-width="2.4"/><rect x="1317" y="269" width="199" height="53" rx="27" fill="none" stroke="#c94c4c" stroke-width="1.2" opacity=".32" transform="rotate(.18 1415 296)"/><text x="1415" y="304" font-family="'Kaiti SC','STKaiti','Noto Sans SC',sans-serif" font-size="29" font-weight="700" fill="#c94c4c" text-anchor="middle"><tspan x="1415" dy="0">运营平面</tspan></text>
<text x="1415" y="385" font-family="'Kaiti SC','STKaiti','Noto Sans SC',sans-serif" font-size="25" font-weight="500" fill="#1e3a5f" text-anchor="middle"><tspan x="1415" dy="0">Telemetry / SLO</tspan><tspan x="1415" dy="38.75">发布与告警</tspan><tspan x="1415" dy="38.75">备份与恢复</tspan><tspan x="1415" dy="38.75">安全与审计</tspan></text>
<path d="M 330 445 C 341.6666666666667 443, 353.3333333333333 447, 365 445" fill="none" stroke="#d59621" stroke-width="4" stroke-linecap="round" marker-end="url(#arrow-d59621)"/>
<path d="M 635 445 C 646.6666666666666 443, 658.3333333333334 447, 670 445" fill="none" stroke="#1e3a5f" stroke-width="4" stroke-linecap="round" marker-end="url(#arrow-1e3a5f)"/>
<path d="M 940 445 C 951.6666666666666 443, 963.3333333333334 447, 975 445" fill="none" stroke="#7651a6" stroke-width="4" stroke-linecap="round" marker-end="url(#arrow-7651a6)"/>
<path d="M 1245 445 C 1256.6666666666667 443, 1268.3333333333333 447, 1280 445" fill="none" stroke="#3c8d77" stroke-width="4" stroke-linecap="round" marker-end="url(#arrow-3c8d77)"/>
<text x="800" y="760" font-family="'Kaiti SC','STKaiti','Noto Sans SC',sans-serif" font-size="28" font-weight="700" fill="#c94c4c" text-anchor="middle"><tspan x="800" dy="0">模型只负责局部判断；权限、状态、恢复与运营保证必须由确定性平台承担。</tspan></text>

<text x="1525" y="860" font-family="'Kaiti SC','STKaiti',sans-serif" font-size="18" fill="#55708f" text-anchor="end">生产级多智能体系统 · 第 05 章</text>
</svg>