<svg xmlns="http://www.w3.org/2000/svg" width="1600" height="900" viewBox="0 0 1600 900" role="img">
<defs><marker id="arrow-1e3a5f" viewBox="0 0 10 10" refX="9" refY="5" markerWidth="8" markerHeight="8" orient="auto-start-reverse"><path d="M 0 0 L 10 5 L 0 10 z" fill="#1e3a5f"/></marker><marker id="arrow-d59621" viewBox="0 0 10 10" refX="9" refY="5" markerWidth="8" markerHeight="8" orient="auto-start-reverse"><path d="M 0 0 L 10 5 L 0 10 z" fill="#d59621"/></marker><marker id="arrow-3c8d77" viewBox="0 0 10 10" refX="9" refY="5" markerWidth="8" markerHeight="8" orient="auto-start-reverse"><path d="M 0 0 L 10 5 L 0 10 z" fill="#3c8d77"/></marker><marker id="arrow-c94c4c" viewBox="0 0 10 10" refX="9" refY="5" markerWidth="8" markerHeight="8" orient="auto-start-reverse"><path d="M 0 0 L 10 5 L 0 10 z" fill="#c94c4c"/></marker><marker id="arrow-7651a6" viewBox="0 0 10 10" refX="9" refY="5" markerWidth="8" markerHeight="8" orient="auto-start-reverse"><path d="M 0 0 L 10 5 L 0 10 z" fill="#7651a6"/></marker><marker id="arrow-55708f" viewBox="0 0 10 10" refX="9" refY="5" markerWidth="8" markerHeight="8" orient="auto-start-reverse"><path d="M 0 0 L 10 5 L 0 10 z" fill="#55708f"/></marker></defs>
<rect width="1600" height="900" fill="#fbf7ec"/>
<path d="M 20 180 C 420 171, 920 190, 1580 177 M 30 718 C 530 727, 980 707, 1570 721" stroke="#e7dfce" stroke-width="2" fill="none" opacity=".52"/>

<text x="70" y="76" font-family="'Kaiti SC','STKaiti','Noto Sans SC',sans-serif" font-size="43" font-weight="760" fill="#1e3a5f" text-anchor="start"><tspan x="70" dy="0">可靠性保护层：限制等待、放大与故障扩散</tspan></text><path d="M 70 94 C 265 87, 485 102, 710 93" fill="none" stroke="#d59621" stroke-width="7" stroke-linecap="round" opacity=".85"/><text x="72" y="128" font-family="'Kaiti SC','STKaiti','Noto Sans SC',sans-serif" font-size="23" font-weight="500" fill="#55708f" text-anchor="start"><tspan x="72" dy="0">每一层解决不同问题；最危险的反模式是多层无界重试和无限排队。</tspan></text>
<rect x="75" y="225" width="1450" height="500" rx="22" fill="#f7dddd" stroke="#c94c4c" stroke-width="4"/><rect x="77" y="224" width="1449" height="501" rx="23" fill="none" stroke="#c94c4c" stroke-width="1.2" opacity=".32" transform="rotate(.18 800 475)"/>
<text x="115" y="275" font-family="'Kaiti SC','STKaiti','Noto Sans SC',sans-serif" font-size="28" font-weight="760" fill="#c94c4c" text-anchor="start"><tspan x="115" dy="0">Deadline / 全局预算</tspan></text>
<rect x="145" y="305" width="1310" height="360" rx="22" fill="#f7e7b8" stroke="#d59621" stroke-width="4"/><rect x="147" y="304" width="1309" height="361" rx="23" fill="none" stroke="#d59621" stroke-width="1.2" opacity=".32" transform="rotate(.18 800 485)"/>
<text x="185" y="355" font-family="'Kaiti SC','STKaiti','Noto Sans SC',sans-serif" font-size="27" font-weight="740" fill="#d59621" text-anchor="start"><tspan x="185" dy="0">Timeout + 有界 Retry / Jitter</tspan></text>
<rect x="215" y="385" width="1170" height="220" rx="22" fill="#dfeaf4" stroke="#1e3a5f" stroke-width="4"/><rect x="217" y="384" width="1169" height="221" rx="23" fill="none" stroke="#1e3a5f" stroke-width="1.2" opacity=".32" transform="rotate(.18 800 495)"/>
<text x="255" y="435" font-family="'Kaiti SC','STKaiti','Noto Sans SC',sans-serif" font-size="27" font-weight="740" fill="#1e3a5f" text-anchor="start"><tspan x="255" dy="0">Circuit Breaker + Bulkhead + Rate Limit</tspan></text>
<rect x="420" y="470" width="760" height="90" rx="22" fill="#dcefe7" stroke="#3c8d77" stroke-width="4"/><rect x="422" y="469" width="759" height="91" rx="23" fill="none" stroke="#3c8d77" stroke-width="1.2" opacity=".32" transform="rotate(.18 800 515)"/>
<text x="800" y="525" font-family="'Kaiti SC','STKaiti','Noto Sans SC',sans-serif" font-size="28" font-weight="760" fill="#3c8d77" text-anchor="middle"><tspan x="800" dy="0">Queue / DLQ / Backpressure / Idempotency</tspan></text>
<rect x="80" y="760" width="300" height="52" rx="26" fill="#fffdf7" stroke="#c94c4c" stroke-width="2.4"/><rect x="82" y="759" width="299" height="53" rx="27" fill="none" stroke="#c94c4c" stroke-width="1.2" opacity=".32" transform="rotate(.18 230 786)"/><text x="230" y="794" font-family="'Kaiti SC','STKaiti','Noto Sans SC',sans-serif" font-size="22" font-weight="700" fill="#c94c4c" text-anchor="middle"><tspan x="230" dy="0">入口：绝对截止时间</tspan></text>
<path d="M 380 786 C 426.6666666666667 784, 473.3333333333333 788, 520 786" fill="none" stroke="#c94c4c" stroke-width="4" stroke-linecap="round" marker-end="url(#arrow-c94c4c)"/>
<rect x="520" y="760" width="270" height="52" rx="26" fill="#fffdf7" stroke="#d59621" stroke-width="2.4"/><rect x="522" y="759" width="269" height="53" rx="27" fill="none" stroke="#d59621" stroke-width="1.2" opacity=".32" transform="rotate(.18 655 786)"/><text x="655" y="794" font-family="'Kaiti SC','STKaiti','Noto Sans SC',sans-serif" font-size="22" font-weight="700" fill="#d59621" text-anchor="middle"><tspan x="655" dy="0">单层负责重试</tspan></text>
<path d="M 790 786 C 836.6666666666666 784, 883.3333333333334 788, 930 786" fill="none" stroke="#d59621" stroke-width="4" stroke-linecap="round" marker-end="url(#arrow-d59621)"/>
<rect x="930" y="760" width="300" height="52" rx="26" fill="#fffdf7" stroke="#3c8d77" stroke-width="2.4"/><rect x="932" y="759" width="299" height="53" rx="27" fill="none" stroke="#3c8d77" stroke-width="1.2" opacity=".32" transform="rotate(.18 1080 786)"/><text x="1080" y="794" font-family="'Kaiti SC','STKaiti','Noto Sans SC',sans-serif" font-size="22" font-weight="700" fill="#3c8d77" text-anchor="middle"><tspan x="1080" dy="0">过载：拒绝或降级</tspan></text>
<path d="M 1230 786 C 1276.6666666666667 784, 1323.3333333333333 788, 1370 786" fill="none" stroke="#3c8d77" stroke-width="4" stroke-linecap="round" marker-end="url(#arrow-3c8d77)"/>
<rect x="1370" y="760" width="150" height="52" rx="26" fill="#fffdf7" stroke="#1e3a5f" stroke-width="2.4"/><rect x="1372" y="759" width="149" height="53" rx="27" fill="none" stroke="#1e3a5f" stroke-width="1.2" opacity=".32" transform="rotate(.18 1445 786)"/><text x="1445" y="794" font-family="'Kaiti SC','STKaiti','Noto Sans SC',sans-serif" font-size="22" font-weight="700" fill="#1e3a5f" text-anchor="middle"><tspan x="1445" dy="0">可证明</tspan></text>
<text x="800" y="690" font-family="'Kaiti SC','STKaiti','Noto Sans SC',sans-serif" font-size="25" font-weight="700" fill="#1e3a5f" text-anchor="middle"><tspan x="800" dy="0">错误分类决定：重试、快速失败、降级、进 DLQ，还是人工升级。</tspan></text>

<text x="1525" y="860" font-family="'Kaiti SC','STKaiti',sans-serif" font-size="18" fill="#55708f" text-anchor="end">生产级多智能体系统 · 第 05 章</text>
</svg>