<svg xmlns="http://www.w3.org/2000/svg" width="1600" height="900" viewBox="0 0 1600 900" role="img">
<defs><marker id="arrow-1e3a5f" viewBox="0 0 10 10" refX="9" refY="5" markerWidth="8" markerHeight="8" orient="auto-start-reverse"><path d="M 0 0 L 10 5 L 0 10 z" fill="#1e3a5f"/></marker><marker id="arrow-d59621" viewBox="0 0 10 10" refX="9" refY="5" markerWidth="8" markerHeight="8" orient="auto-start-reverse"><path d="M 0 0 L 10 5 L 0 10 z" fill="#d59621"/></marker><marker id="arrow-3c8d77" viewBox="0 0 10 10" refX="9" refY="5" markerWidth="8" markerHeight="8" orient="auto-start-reverse"><path d="M 0 0 L 10 5 L 0 10 z" fill="#3c8d77"/></marker><marker id="arrow-c94c4c" viewBox="0 0 10 10" refX="9" refY="5" markerWidth="8" markerHeight="8" orient="auto-start-reverse"><path d="M 0 0 L 10 5 L 0 10 z" fill="#c94c4c"/></marker><marker id="arrow-7651a6" viewBox="0 0 10 10" refX="9" refY="5" markerWidth="8" markerHeight="8" orient="auto-start-reverse"><path d="M 0 0 L 10 5 L 0 10 z" fill="#7651a6"/></marker><marker id="arrow-55708f" viewBox="0 0 10 10" refX="9" refY="5" markerWidth="8" markerHeight="8" orient="auto-start-reverse"><path d="M 0 0 L 10 5 L 0 10 z" fill="#55708f"/></marker></defs>
<rect width="1600" height="900" fill="#fbf7ec"/>
<path d="M 20 180 C 420 171, 920 190, 1580 177 M 30 718 C 530 727, 980 707, 1570 721" stroke="#e7dfce" stroke-width="2" fill="none" opacity=".52"/>

<text x="70" y="76" font-family="'Kaiti SC','STKaiti','Noto Sans SC',sans-serif" font-size="43" font-weight="760" fill="#1e3a5f" text-anchor="start"><tspan x="70" dy="0">无状态核心，状态化边缘</tspan></text><path d="M 70 94 C 265 87, 485 102, 710 93" fill="none" stroke="#d59621" stroke-width="7" stroke-linecap="round" opacity=".85"/><text x="72" y="128" font-family="'Kaiti SC','STKaiti','Noto Sans SC',sans-serif" font-size="23" font-weight="500" fill="#55708f" text-anchor="start"><tspan x="72" dy="0">计算实例可以替换；每一份持久状态都必须有唯一 Owner、SoT 和恢复路径。</tspan></text>
<rect x="390" y="220" width="820" height="420" rx="22" fill="#fffdf7" stroke="#1e3a5f" stroke-width="4" stroke-dasharray="13 9"/><rect x="392" y="219" width="819" height="421" rx="23" fill="none" stroke="#1e3a5f" stroke-width="1.2" opacity=".32" transform="rotate(.18 800 430)"/>
<rect x="660" y="245" width="280" height="52" rx="26" fill="#dfeaf4" stroke="#1e3a5f" stroke-width="2.4"/><rect x="662" y="244" width="279" height="53" rx="27" fill="none" stroke="#1e3a5f" stroke-width="1.2" opacity=".32" transform="rotate(.18 800 271)"/><text x="800" y="279" font-family="'Kaiti SC','STKaiti','Noto Sans SC',sans-serif" font-size="28" font-weight="700" fill="#1e3a5f" text-anchor="middle"><tspan x="800" dy="0">可替换计算核心</tspan></text>
<rect x="455" y="350" width="200" height="125" rx="22" fill="#f7e7b8" stroke="#d59621" stroke-width="3"/><rect x="457" y="349" width="199" height="126" rx="23" fill="none" stroke="#d59621" stroke-width="1.2" opacity=".32" transform="rotate(.18 555 412.5)"/>
<text x="555" y="402" font-family="'Kaiti SC','STKaiti','Noto Sans SC',sans-serif" font-size="30" font-weight="720" fill="#d59621" text-anchor="middle"><tspan x="555" dy="0">Gateway</tspan></text>
<text x="555" y="442" font-family="'Kaiti SC','STKaiti','Noto Sans SC',sans-serif" font-size="20" font-weight="500" fill="#1e3a5f" text-anchor="middle"><tspan x="555" dy="0">身份 · Deadline</tspan></text>
<rect x="700" y="350" width="200" height="125" rx="22" fill="#e9e0f4" stroke="#7651a6" stroke-width="3"/><rect x="702" y="349" width="199" height="126" rx="23" fill="none" stroke="#7651a6" stroke-width="1.2" opacity=".32" transform="rotate(.18 800 412.5)"/>
<text x="800" y="402" font-family="'Kaiti SC','STKaiti','Noto Sans SC',sans-serif" font-size="30" font-weight="720" fill="#7651a6" text-anchor="middle"><tspan x="800" dy="0">Supervisor</tspan></text>
<text x="800" y="442" font-family="'Kaiti SC','STKaiti','Noto Sans SC',sans-serif" font-size="20" font-weight="500" fill="#1e3a5f" text-anchor="middle"><tspan x="800" dy="0">计划 · 预算</tspan></text>
<rect x="945" y="350" width="200" height="125" rx="22" fill="#dcefe7" stroke="#3c8d77" stroke-width="3"/><rect x="947" y="349" width="199" height="126" rx="23" fill="none" stroke="#3c8d77" stroke-width="1.2" opacity=".32" transform="rotate(.18 1045 412.5)"/>
<text x="1045" y="402" font-family="'Kaiti SC','STKaiti','Noto Sans SC',sans-serif" font-size="30" font-weight="720" fill="#3c8d77" text-anchor="middle"><tspan x="1045" dy="0">Agent / Tool</tspan></text>
<text x="1045" y="442" font-family="'Kaiti SC','STKaiti','Noto Sans SC',sans-serif" font-size="20" font-weight="500" fill="#1e3a5f" text-anchor="middle"><tspan x="1045" dy="0">执行 · 隔离</tspan></text>
<path d="M 655 412 C 670 410, 685 414, 700 412" fill="none" stroke="#d59621" stroke-width="4" stroke-linecap="round" marker-end="url(#arrow-d59621)"/>
<path d="M 900 412 C 915 410, 930 414, 945 412" fill="none" stroke="#7651a6" stroke-width="4" stroke-linecap="round" marker-end="url(#arrow-7651a6)"/>
<rect x="35" y="235" width="260" height="130" rx="22" fill="#f7dddd" stroke="#c94c4c" stroke-width="3"/><rect x="37" y="234" width="259" height="131" rx="23" fill="none" stroke="#c94c4c" stroke-width="1.2" opacity=".32" transform="rotate(.18 165 300)"/>
<text x="165" y="285" font-family="'Kaiti SC','STKaiti','Noto Sans SC',sans-serif" font-size="29" font-weight="720" fill="#c94c4c" text-anchor="middle"><tspan x="165" dy="0">PostgreSQL</tspan></text>
<text x="165" y="326" font-family="'Kaiti SC','STKaiti','Noto Sans SC',sans-serif" font-size="19" font-weight="500" fill="#1e3a5f" text-anchor="middle"><tspan x="165" dy="0">Task · Checkpoint · 幂等</tspan></text>
<rect x="35" y="470" width="260" height="130" rx="22" fill="#dcefe7" stroke="#3c8d77" stroke-width="3"/><rect x="37" y="469" width="259" height="131" rx="23" fill="none" stroke="#3c8d77" stroke-width="1.2" opacity=".32" transform="rotate(.18 165 535)"/>
<text x="165" y="520" font-family="'Kaiti SC','STKaiti','Noto Sans SC',sans-serif" font-size="29" font-weight="720" fill="#3c8d77" text-anchor="middle"><tspan x="165" dy="0">Object Store</tspan></text>
<text x="165" y="561" font-family="'Kaiti SC','STKaiti','Noto Sans SC',sans-serif" font-size="19" font-weight="500" fill="#1e3a5f" text-anchor="middle"><tspan x="165" dy="0">Evidence · Artifact</tspan></text>
<rect x="1305" y="235" width="260" height="130" rx="22" fill="#e9e0f4" stroke="#7651a6" stroke-width="3"/><rect x="1307" y="234" width="259" height="131" rx="23" fill="none" stroke="#7651a6" stroke-width="1.2" opacity=".32" transform="rotate(.18 1435 300)"/>
<text x="1435" y="285" font-family="'Kaiti SC','STKaiti','Noto Sans SC',sans-serif" font-size="29" font-weight="720" fill="#7651a6" text-anchor="middle"><tspan x="1435" dy="0">Graph / Vector</tspan></text>
<text x="1435" y="326" font-family="'Kaiti SC','STKaiti','Noto Sans SC',sans-serif" font-size="19" font-weight="500" fill="#1e3a5f" text-anchor="middle"><tspan x="1435" dy="0">知识图 · 派生索引</tspan></text>
<rect x="1305" y="470" width="260" height="130" rx="22" fill="#f7e7b8" stroke="#d59621" stroke-width="3"/><rect x="1307" y="469" width="259" height="131" rx="23" fill="none" stroke="#d59621" stroke-width="1.2" opacity=".32" transform="rotate(.18 1435 535)"/>
<text x="1435" y="520" font-family="'Kaiti SC','STKaiti','Noto Sans SC',sans-serif" font-size="29" font-weight="720" fill="#d59621" text-anchor="middle"><tspan x="1435" dy="0">Queue / Cache</tspan></text>
<text x="1435" y="561" font-family="'Kaiti SC','STKaiti','Noto Sans SC',sans-serif" font-size="19" font-weight="500" fill="#1e3a5f" text-anchor="middle"><tspan x="1435" dy="0">异步 · 背压 · 临时状态</tspan></text>
<path d="M 390 330 C 358.3333333333333 328, 326.6666666666667 302, 295 300" fill="none" stroke="#c94c4c" stroke-width="4" stroke-linecap="round" marker-end="url(#arrow-c94c4c)"/>
<path d="M 390 515 C 358.3333333333333 513, 326.6666666666667 537, 295 535" fill="none" stroke="#3c8d77" stroke-width="4" stroke-linecap="round" marker-end="url(#arrow-3c8d77)"/>
<path d="M 1210 330 C 1241.6666666666667 328, 1273.3333333333333 302, 1305 300" fill="none" stroke="#7651a6" stroke-width="4" stroke-linecap="round" marker-end="url(#arrow-7651a6)"/>
<path d="M 1210 515 C 1241.6666666666667 513, 1273.3333333333333 537, 1305 535" fill="none" stroke="#d59621" stroke-width="4" stroke-linecap="round" marker-end="url(#arrow-d59621)"/>
<text x="800" y="704" font-family="'Kaiti SC','STKaiti','Noto Sans SC',sans-serif" font-size="27" font-weight="700" fill="#c94c4c" text-anchor="middle"><tspan x="800" dy="0">SoT 丢失不能靠相似索引找回；派生索引丢失则必须能够从版本化源重建。</tspan></text>
<text x="800" y="758" font-family="'Kaiti SC','STKaiti','Noto Sans SC',sans-serif" font-size="25" font-weight="700" fill="#3c8d77" text-anchor="middle"><tspan x="800" dy="0">实例重启 → 读取 Checkpoint → 校验版本 → 继续或安全停止</tspan></text>

<text x="1525" y="860" font-family="'Kaiti SC','STKaiti',sans-serif" font-size="18" fill="#55708f" text-anchor="end">生产级多智能体系统 · 第 05 章</text>
</svg>