<svg xmlns="http://www.w3.org/2000/svg" width="1600" height="900" viewBox="0 0 1600 900">
<defs><marker id="arrow-1e3a5f" viewBox="0 0 10 10" refX="9" refY="5" markerWidth="7" markerHeight="7" orient="auto-start-reverse"><path d="M 0 0 L 10 5 L 0 10 z" fill="#1e3a5f"/></marker><marker id="arrow-d59621" viewBox="0 0 10 10" refX="9" refY="5" markerWidth="7" markerHeight="7" orient="auto-start-reverse"><path d="M 0 0 L 10 5 L 0 10 z" fill="#d59621"/></marker><marker id="arrow-3c8d77" viewBox="0 0 10 10" refX="9" refY="5" markerWidth="7" markerHeight="7" orient="auto-start-reverse"><path d="M 0 0 L 10 5 L 0 10 z" fill="#3c8d77"/></marker><marker id="arrow-c94c4c" viewBox="0 0 10 10" refX="9" refY="5" markerWidth="7" markerHeight="7" orient="auto-start-reverse"><path d="M 0 0 L 10 5 L 0 10 z" fill="#c94c4c"/></marker><marker id="arrow-7651a6" viewBox="0 0 10 10" refX="9" refY="5" markerWidth="7" markerHeight="7" orient="auto-start-reverse"><path d="M 0 0 L 10 5 L 0 10 z" fill="#7651a6"/></marker><filter id="paper"><feTurbulence type="fractalNoise" baseFrequency=".8" numOctaves="2" seed="7" result="noise"/><feColorMatrix in="noise" type="saturate" values="0"/><feComponentTransfer><feFuncA type="table" tableValues="0 .035"/></feComponentTransfer></filter></defs>
<rect width="1600" height="900" fill="#fbf7ec"/><rect width="1600" height="900" fill="#38516d" filter="url(#paper)" opacity=".16"/>

<text x="70" y="82" font-family="'Kaiti SC','STKaiti','Noto Sans SC',sans-serif" font-size="43" font-weight="800" fill="#1e3a5f" text-anchor="start"><tspan x="70" dy="0">AgentOps：五个联动运营视图</tspan></text><text x="72" y="128" font-family="'Kaiti SC','STKaiti','Noto Sans SC',sans-serif" font-size="22" font-weight="500" fill="#55708f" text-anchor="start"><tspan x="72" dy="0">APM 仍然重要，但观测对象必须从服务上移到用户 Goal。</tspan></text><path d="M 70 160 C 556.6666666666666 158, 1043.3333333333333 162, 1530 160" fill="none" stroke="#d59621" stroke-width="3" stroke-linecap="round" stroke-dasharray="10 10"/>
<rect x="75" y="235" width="250" height="345" rx="22" fill="#dcefe7" stroke="#3c8d77" stroke-width="3"/><rect x="77" y="234" width="249" height="346" rx="23" fill="none" stroke="#3c8d77" stroke-width="1.2" opacity=".28" transform="rotate(.18 200 407.5)"/>
<text x="200" y="290" font-family="'Kaiti SC','STKaiti','Noto Sans SC',sans-serif" font-size="31" font-weight="800" fill="#3c8d77" text-anchor="middle"><tspan x="200" dy="0">业务视图</tspan></text>
<text x="200" y="350" font-family="'Kaiti SC','STKaiti','Noto Sans SC',sans-serif" font-size="22" font-weight="500" fill="#1e3a5f" text-anchor="middle"><tspan x="200" dy="0">Goal Success</tspan><tspan x="200" dy="36.3">Evidence</tspan><tspan x="200" dy="36.3">User Impact</tspan><tspan x="200" dy="36.3">SLO / Budget</tspan></text>
<rect x="375" y="235" width="250" height="345" rx="22" fill="#dfeaf4" stroke="#1e3a5f" stroke-width="3"/><rect x="377" y="234" width="249" height="346" rx="23" fill="none" stroke="#1e3a5f" stroke-width="1.2" opacity=".28" transform="rotate(.18 500 407.5)"/>
<text x="500" y="290" font-family="'Kaiti SC','STKaiti','Noto Sans SC',sans-serif" font-size="31" font-weight="800" fill="#1e3a5f" text-anchor="middle"><tspan x="500" dy="0">执行视图</tspan></text>
<text x="500" y="350" font-family="'Kaiti SC','STKaiti','Noto Sans SC',sans-serif" font-size="22" font-weight="500" fill="#1e3a5f" text-anchor="middle"><tspan x="500" dy="0">Plan / Step</tspan><tspan x="500" dy="36.3">Route / Join</tspan><tspan x="500" dy="36.3">Deadline</tspan><tspan x="500" dy="36.3">Retry</tspan></text>
<rect x="675" y="235" width="250" height="345" rx="22" fill="#e9e0f4" stroke="#7651a6" stroke-width="3"/><rect x="677" y="234" width="249" height="346" rx="23" fill="none" stroke="#7651a6" stroke-width="1.2" opacity=".28" transform="rotate(.18 800 407.5)"/>
<text x="800" y="290" font-family="'Kaiti SC','STKaiti','Noto Sans SC',sans-serif" font-size="31" font-weight="800" fill="#7651a6" text-anchor="middle"><tspan x="800" dy="0">模型视图</tspan></text>
<text x="800" y="350" font-family="'Kaiti SC','STKaiti','Noto Sans SC',sans-serif" font-size="22" font-weight="500" fill="#1e3a5f" text-anchor="middle"><tspan x="800" dy="0">Prompt / Model</tspan><tspan x="800" dy="36.3">Token / TTFT</tspan><tspan x="800" dy="36.3">Output Schema</tspan><tspan x="800" dy="36.3">Fallback</tspan></text>
<rect x="975" y="235" width="250" height="345" rx="22" fill="#f7e7b8" stroke="#d59621" stroke-width="3"/><rect x="977" y="234" width="249" height="346" rx="23" fill="none" stroke="#d59621" stroke-width="1.2" opacity=".28" transform="rotate(.18 1100 407.5)"/>
<text x="1100" y="290" font-family="'Kaiti SC','STKaiti','Noto Sans SC',sans-serif" font-size="31" font-weight="800" fill="#d59621" text-anchor="middle"><tspan x="1100" dy="0">工具视图</tspan></text>
<text x="1100" y="350" font-family="'Kaiti SC','STKaiti','Noto Sans SC',sans-serif" font-size="22" font-weight="500" fill="#1e3a5f" text-anchor="middle"><tspan x="1100" dy="0">Tool Intent</tspan><tspan x="1100" dy="36.3">Policy</tspan><tspan x="1100" dy="36.3">Side Effect</tspan><tspan x="1100" dy="36.3">Evidence</tspan></text>
<rect x="1275" y="235" width="250" height="345" rx="22" fill="#f7dddd" stroke="#c94c4c" stroke-width="3"/><rect x="1277" y="234" width="249" height="346" rx="23" fill="none" stroke="#c94c4c" stroke-width="1.2" opacity=".28" transform="rotate(.18 1400 407.5)"/>
<text x="1400" y="290" font-family="'Kaiti SC','STKaiti','Noto Sans SC',sans-serif" font-size="31" font-weight="800" fill="#c94c4c" text-anchor="middle"><tspan x="1400" dy="0">控制视图</tspan></text>
<text x="1400" y="350" font-family="'Kaiti SC','STKaiti','Noto Sans SC',sans-serif" font-size="22" font-weight="500" fill="#1e3a5f" text-anchor="middle"><tspan x="1400" dy="0">Approval</tspan><tspan x="1400" dy="36.3">Circuit</tspan><tspan x="1400" dy="36.3">Degrade</tspan><tspan x="1400" dy="36.3">Recover</tspan></text>
<path d="M 200 580 C 200 578, 200 667, 200 665" fill="none" stroke="#3c8d77" stroke-width="4" stroke-linecap="round"/>
<path d="M 500 580 C 500 578, 500 667, 500 665" fill="none" stroke="#1e3a5f" stroke-width="4" stroke-linecap="round"/>
<path d="M 800 580 C 800 578, 800 667, 800 665" fill="none" stroke="#7651a6" stroke-width="4" stroke-linecap="round"/>
<path d="M 1100 580 C 1100 578, 1100 667, 1100 665" fill="none" stroke="#d59621" stroke-width="4" stroke-linecap="round"/>
<path d="M 1400 580 C 1400 578, 1400 667, 1400 665" fill="none" stroke="#c94c4c" stroke-width="4" stroke-linecap="round"/>
<rect x="95" y="665" width="1410" height="90" rx="38" fill="#fffdf7" stroke="#1e3a5f" stroke-width="4"/><rect x="97" y="664" width="1409" height="91" rx="39" fill="none" stroke="#1e3a5f" stroke-width="1.2" opacity=".28" transform="rotate(.18 800 710)"/>
<text x="800" y="705" font-family="'Kaiti SC','STKaiti','Noto Sans SC',sans-serif" font-size="28" font-weight="800" fill="#1e3a5f" text-anchor="middle"><tspan x="800" dy="0">Correlation Spine</tspan></text>
<text x="800" y="740" font-family="'Kaiti SC','STKaiti','Noto Sans SC',sans-serif" font-size="21" font-weight="500" fill="#55708f" text-anchor="middle"><tspan x="800" dy="0">request · session · goal · task · step · trace · artifact · evidence · version</tspan></text>
<text x="800" y="820" font-family="'Kaiti SC','STKaiti','Noto Sans SC',sans-serif" font-size="28" font-weight="760" fill="#c94c4c" text-anchor="middle"><tspan x="800" dy="0">五张孤立 Dashboard 不能解释用户目标；统一关联主干才能重建因果。</tspan></text>

</svg>