<svg xmlns="http://www.w3.org/2000/svg" width="1600" height="900" viewBox="0 0 1600 900">
<defs><marker id="arrow-1e3a5f" viewBox="0 0 10 10" refX="9" refY="5" markerWidth="7" markerHeight="7" orient="auto-start-reverse"><path d="M 0 0 L 10 5 L 0 10 z" fill="#1e3a5f"/></marker><marker id="arrow-d59621" viewBox="0 0 10 10" refX="9" refY="5" markerWidth="7" markerHeight="7" orient="auto-start-reverse"><path d="M 0 0 L 10 5 L 0 10 z" fill="#d59621"/></marker><marker id="arrow-3c8d77" viewBox="0 0 10 10" refX="9" refY="5" markerWidth="7" markerHeight="7" orient="auto-start-reverse"><path d="M 0 0 L 10 5 L 0 10 z" fill="#3c8d77"/></marker><marker id="arrow-c94c4c" viewBox="0 0 10 10" refX="9" refY="5" markerWidth="7" markerHeight="7" orient="auto-start-reverse"><path d="M 0 0 L 10 5 L 0 10 z" fill="#c94c4c"/></marker><marker id="arrow-7651a6" viewBox="0 0 10 10" refX="9" refY="5" markerWidth="7" markerHeight="7" orient="auto-start-reverse"><path d="M 0 0 L 10 5 L 0 10 z" fill="#7651a6"/></marker><filter id="paper"><feTurbulence type="fractalNoise" baseFrequency=".8" numOctaves="2" seed="7" result="noise"/><feColorMatrix in="noise" type="saturate" values="0"/><feComponentTransfer><feFuncA type="table" tableValues="0 .035"/></feComponentTransfer></filter></defs>
<rect width="1600" height="900" fill="#fbf7ec"/><rect width="1600" height="900" fill="#38516d" filter="url(#paper)" opacity=".16"/>

<text x="70" y="82" font-family="'Kaiti SC','STKaiti','Noto Sans SC',sans-serif" font-size="43" font-weight="800" fill="#1e3a5f" text-anchor="start"><tspan x="70" dy="0">持续运营闭环：上线只是第一天</tspan></text><text x="72" y="128" font-family="'Kaiti SC','STKaiti','Noto Sans SC',sans-serif" font-size="22" font-weight="500" fill="#55708f" text-anchor="start"><tspan x="72" dy="0">生产事件、成本和反馈必须回流到评测、发布和下一轮可靠性改进。</tspan></text><path d="M 70 160 C 556.6666666666666 158, 1043.3333333333333 162, 1530 160" fill="none" stroke="#d59621" stroke-width="3" stroke-linecap="round" stroke-dasharray="10 10"/>
<circle cx="800" cy="235" r="82" fill="#dcefe7" stroke="#3c8d77" stroke-width="4"/><circle cx="801" cy="235" r="80" fill="none" stroke="#3c8d77" stroke-width="1" opacity=".25"/><text x="800" y="243" font-family="'Kaiti SC','STKaiti','Noto Sans SC',sans-serif" font-size="27" font-weight="800" fill="#3c8d77" text-anchor="middle"><tspan x="800" dy="0">SLO</tspan></text><circle cx="1120" cy="330" r="82" fill="#dfeaf4" stroke="#1e3a5f" stroke-width="4"/><circle cx="1121" cy="330" r="80" fill="none" stroke="#1e3a5f" stroke-width="1" opacity=".25"/><text x="1120" y="338" font-family="'Kaiti SC','STKaiti','Noto Sans SC',sans-serif" font-size="27" font-weight="800" fill="#1e3a5f" text-anchor="middle"><tspan x="1120" dy="0">Detect</tspan></text><circle cx="1250" cy="560" r="82" fill="#f7e7b8" stroke="#d59621" stroke-width="4"/><circle cx="1251" cy="560" r="80" fill="none" stroke="#d59621" stroke-width="1" opacity=".25"/><text x="1250" y="568" font-family="'Kaiti SC','STKaiti','Noto Sans SC',sans-serif" font-size="27" font-weight="800" fill="#d59621" text-anchor="middle"><tspan x="1250" dy="0">Diagnose</tspan></text><circle cx="1025" cy="735" r="82" fill="#f7dddd" stroke="#c94c4c" stroke-width="4"/><circle cx="1026" cy="735" r="80" fill="none" stroke="#c94c4c" stroke-width="1" opacity=".25"/><text x="1025" y="743" font-family="'Kaiti SC','STKaiti','Noto Sans SC',sans-serif" font-size="27" font-weight="800" fill="#c94c4c" text-anchor="middle"><tspan x="1025" dy="0">Control</tspan></text><circle cx="575" cy="735" r="82" fill="#e9e0f4" stroke="#7651a6" stroke-width="4"/><circle cx="576" cy="735" r="80" fill="none" stroke="#7651a6" stroke-width="1" opacity=".25"/><text x="575" y="743" font-family="'Kaiti SC','STKaiti','Noto Sans SC',sans-serif" font-size="27" font-weight="800" fill="#7651a6" text-anchor="middle"><tspan x="575" dy="0">Recover</tspan></text><circle cx="350" cy="560" r="82" fill="#dcefe7" stroke="#3c8d77" stroke-width="4"/><circle cx="351" cy="560" r="80" fill="none" stroke="#3c8d77" stroke-width="1" opacity=".25"/><text x="350" y="568" font-family="'Kaiti SC','STKaiti','Noto Sans SC',sans-serif" font-size="27" font-weight="800" fill="#3c8d77" text-anchor="middle"><tspan x="350" dy="0">Verify</tspan></text><circle cx="480" cy="330" r="82" fill="#f7e7b8" stroke="#d59621" stroke-width="4"/><circle cx="481" cy="330" r="80" fill="none" stroke="#d59621" stroke-width="1" opacity=".25"/><text x="480" y="338" font-family="'Kaiti SC','STKaiti','Noto Sans SC',sans-serif" font-size="27" font-weight="800" fill="#d59621" text-anchor="middle"><tspan x="480" dy="0">Learn</tspan></text>
<path d="M 875 255 C 933.3333333333334 253, 991.6666666666666 312, 1050 310" fill="none" stroke="#3c8d77" stroke-width="4" stroke-linecap="round" marker-end="url(#arrow-3c8d77)"/>
<path d="M 1170 395 C 1188.3333333333333 393, 1206.6666666666667 482, 1225 480" fill="none" stroke="#1e3a5f" stroke-width="4" stroke-linecap="round" marker-end="url(#arrow-1e3a5f)"/>
<path d="M 1200 625 C 1161.6666666666667 623, 1123.3333333333333 692, 1085 690" fill="none" stroke="#d59621" stroke-width="4" stroke-linecap="round" marker-end="url(#arrow-d59621)"/>
<path d="M 940 750 C 846.6666666666666 748, 753.3333333333334 752, 660 750" fill="none" stroke="#c94c4c" stroke-width="4" stroke-linecap="round" marker-end="url(#arrow-c94c4c)"/>
<path d="M 515 690 C 476.6666666666667 688, 438.3333333333333 627, 400 625" fill="none" stroke="#7651a6" stroke-width="4" stroke-linecap="round" marker-end="url(#arrow-7651a6)"/>
<path d="M 375 480 C 393.3333333333333 478, 411.6666666666667 397, 430 395" fill="none" stroke="#3c8d77" stroke-width="4" stroke-linecap="round" marker-end="url(#arrow-3c8d77)"/>
<path d="M 550 310 C 608.3333333333334 308, 666.6666666666666 257, 725 255" fill="none" stroke="#d59621" stroke-width="4" stroke-linecap="round" marker-end="url(#arrow-d59621)"/>
<rect x="615" y="415" width="370" height="205" rx="40" fill="#fffdf7" stroke="#1e3a5f" stroke-width="4"/><rect x="617" y="414" width="369" height="206" rx="41" fill="none" stroke="#1e3a5f" stroke-width="1.2" opacity=".28" transform="rotate(.18 800 517.5)"/>
<text x="800" y="465" font-family="'Kaiti SC','STKaiti','Noto Sans SC',sans-serif" font-size="29" font-weight="800" fill="#1e3a5f" text-anchor="middle"><tspan x="800" dy="0">Production Evidence</tspan></text>
<text x="800" y="512" font-family="'Kaiti SC','STKaiti','Noto Sans SC',sans-serif" font-size="21" font-weight="500" fill="#55708f" text-anchor="middle"><tspan x="800" dy="0">Goal · Trace · Graph</tspan><tspan x="800" dy="31.5">Artifact · Cost · Incident</tspan><tspan x="800" dy="31.5">Feedback · GameDay</tspan></text>
<rect x="85" y="760" width="330" height="82" rx="30" fill="#f7dddd" stroke="#c94c4c" stroke-width="3" stroke-dasharray="9 7"/><rect x="87" y="759" width="329" height="83" rx="31" fill="none" stroke="#c94c4c" stroke-width="1.2" opacity=".28" transform="rotate(.18 250 801)"/>
<text x="250" y="795" font-family="'Kaiti SC','STKaiti','Noto Sans SC',sans-serif" font-size="24" font-weight="800" fill="#c94c4c" text-anchor="middle"><tspan x="250" dy="0">Golden Dataset</tspan></text>
<text x="250" y="824" font-family="'Kaiti SC','STKaiti','Noto Sans SC',sans-serif" font-size="18" font-weight="500" fill="#1e3a5f" text-anchor="middle"><tspan x="250" dy="0">+ Runbook + Alert</tspan></text>
<path d="M 420 790 C 460 788, 500 757, 540 755" fill="none" stroke="#c94c4c" stroke-width="4" stroke-linecap="round" stroke-dasharray="9 7" marker-end="url(#arrow-c94c4c)"/>
<rect x="1185" y="760" width="330" height="82" rx="30" fill="#dcefe7" stroke="#3c8d77" stroke-width="3" stroke-dasharray="9 7"/><rect x="1187" y="759" width="329" height="83" rx="31" fill="none" stroke="#3c8d77" stroke-width="1.2" opacity=".28" transform="rotate(.18 1350 801)"/>
<text x="1350" y="795" font-family="'Kaiti SC','STKaiti','Noto Sans SC',sans-serif" font-size="24" font-weight="800" fill="#3c8d77" text-anchor="middle"><tspan x="1350" dy="0">Release / ORR</tspan></text>
<text x="1350" y="824" font-family="'Kaiti SC','STKaiti','Noto Sans SC',sans-serif" font-size="18" font-weight="500" fill="#1e3a5f" text-anchor="middle"><tspan x="1350" dy="0">Go · Conditional · No-Go</tspan></text>
<path d="M 1060 755 C 1100 753, 1140 792, 1180 790" fill="none" stroke="#3c8d77" stroke-width="4" stroke-linecap="round" stroke-dasharray="9 7" marker-end="url(#arrow-3c8d77)"/>

</svg>