<svg xmlns="http://www.w3.org/2000/svg" width="1600" height="900" viewBox="0 0 1600 900">
<defs><marker id="arrow-1e3a5f" viewBox="0 0 10 10" refX="9" refY="5" markerWidth="7" markerHeight="7" orient="auto-start-reverse"><path d="M 0 0 L 10 5 L 0 10 z" fill="#1e3a5f"/></marker><marker id="arrow-d59621" viewBox="0 0 10 10" refX="9" refY="5" markerWidth="7" markerHeight="7" orient="auto-start-reverse"><path d="M 0 0 L 10 5 L 0 10 z" fill="#d59621"/></marker><marker id="arrow-3c8d77" viewBox="0 0 10 10" refX="9" refY="5" markerWidth="7" markerHeight="7" orient="auto-start-reverse"><path d="M 0 0 L 10 5 L 0 10 z" fill="#3c8d77"/></marker><marker id="arrow-c94c4c" viewBox="0 0 10 10" refX="9" refY="5" markerWidth="7" markerHeight="7" orient="auto-start-reverse"><path d="M 0 0 L 10 5 L 0 10 z" fill="#c94c4c"/></marker><marker id="arrow-7651a6" viewBox="0 0 10 10" refX="9" refY="5" markerWidth="7" markerHeight="7" orient="auto-start-reverse"><path d="M 0 0 L 10 5 L 0 10 z" fill="#7651a6"/></marker><filter id="paper"><feTurbulence type="fractalNoise" baseFrequency=".8" numOctaves="2" seed="7" result="noise"/><feColorMatrix in="noise" type="saturate" values="0"/><feComponentTransfer><feFuncA type="table" tableValues="0 .035"/></feComponentTransfer></filter></defs>
<rect width="1600" height="900" fill="#fbf7ec"/><rect width="1600" height="900" fill="#38516d" filter="url(#paper)" opacity=".16"/>

<text x="70" y="82" font-family="'Kaiti SC','STKaiti','Noto Sans SC',sans-serif" font-size="43" font-weight="800" fill="#1e3a5f" text-anchor="start"><tspan x="70" dy="0">成本因果树：每一笔消耗都要回到 Goal Outcome</tspan></text><text x="72" y="128" font-family="'Kaiti SC','STKaiti','Noto Sans SC',sans-serif" font-size="22" font-weight="500" fill="#55708f" text-anchor="start"><tspan x="72" dy="0">总账单只能说明花了多少；因果归因才能判断花得是否值得。</tspan></text><path d="M 70 160 C 556.6666666666666 158, 1043.3333333333333 162, 1530 160" fill="none" stroke="#d59621" stroke-width="3" stroke-linecap="round" stroke-dasharray="10 10"/>
<rect x="620" y="205" width="360" height="100" rx="34" fill="#dcefe7" stroke="#3c8d77" stroke-width="4"/><rect x="622" y="204" width="359" height="101" rx="35" fill="none" stroke="#3c8d77" stroke-width="1.2" opacity=".28" transform="rotate(.18 800 255)"/>
<text x="800" y="250" font-family="'Kaiti SC','STKaiti','Noto Sans SC',sans-serif" font-size="31" font-weight="800" fill="#3c8d77" text-anchor="middle"><tspan x="800" dy="0">Goal / Outcome</tspan></text>
<text x="800" y="284" font-family="'Kaiti SC','STKaiti','Noto Sans SC',sans-serif" font-size="19" font-weight="500" fill="#55708f" text-anchor="middle"><tspan x="800" dy="0">success · partial · failed · blocked</tspan></text>
<path d="M 710 305 C 603.3333333333334 303, 496.6666666666667 412, 390 410" fill="none" stroke="#3c8d77" stroke-width="4" stroke-linecap="round" marker-end="url(#arrow-3c8d77)"/>
<path d="M 800 305 C 800 303, 800 412, 800 410" fill="none" stroke="#3c8d77" stroke-width="4" stroke-linecap="round" marker-end="url(#arrow-3c8d77)"/>
<path d="M 890 305 C 996.6666666666666 303, 1103.3333333333333 412, 1210 410" fill="none" stroke="#3c8d77" stroke-width="4" stroke-linecap="round" marker-end="url(#arrow-3c8d77)"/>
<rect x="180" y="410" width="420" height="110" rx="22" fill="#dfeaf4" stroke="#1e3a5f" stroke-width="3"/><rect x="182" y="409" width="419" height="111" rx="23" fill="none" stroke="#1e3a5f" stroke-width="1.2" opacity=".28" transform="rotate(.18 390 465)"/>
<text x="390" y="455" font-family="'Kaiti SC','STKaiti','Noto Sans SC',sans-serif" font-size="28" font-weight="800" fill="#1e3a5f" text-anchor="middle"><tspan x="390" dy="0">Team / Step</tspan></text>
<text x="390" y="491" font-family="'Kaiti SC','STKaiti','Noto Sans SC',sans-serif" font-size="19" font-weight="500" fill="#55708f" text-anchor="middle"><tspan x="390" dy="0">critical path · optional · discarded</tspan></text>
<rect x="590" y="410" width="420" height="110" rx="22" fill="#e9e0f4" stroke="#7651a6" stroke-width="3"/><rect x="592" y="409" width="419" height="111" rx="23" fill="none" stroke="#7651a6" stroke-width="1.2" opacity=".28" transform="rotate(.18 800 465)"/>
<text x="800" y="455" font-family="'Kaiti SC','STKaiti','Noto Sans SC',sans-serif" font-size="28" font-weight="800" fill="#7651a6" text-anchor="middle"><tspan x="800" dy="0">Model / Tool</tspan></text>
<text x="800" y="491" font-family="'Kaiti SC','STKaiti','Noto Sans SC',sans-serif" font-size="19" font-weight="500" fill="#55708f" text-anchor="middle"><tspan x="800" dy="0">token · call · provider · evidence</tspan></text>
<rect x="1000" y="410" width="420" height="110" rx="22" fill="#f7e7b8" stroke="#d59621" stroke-width="3"/><rect x="1002" y="409" width="419" height="111" rx="23" fill="none" stroke="#d59621" stroke-width="1.2" opacity=".28" transform="rotate(.18 1210 465)"/>
<text x="1210" y="455" font-family="'Kaiti SC','STKaiti','Noto Sans SC',sans-serif" font-size="28" font-weight="800" fill="#d59621" text-anchor="middle"><tspan x="1210" dy="0">Retry / Cache</tspan></text>
<text x="1210" y="491" font-family="'Kaiti SC','STKaiti','Noto Sans SC',sans-serif" font-size="19" font-weight="500" fill="#55708f" text-anchor="middle"><tspan x="1210" dy="0">amplification · hit · stale · bypass</tspan></text>
<path d="M 390 520 C 390 518, 390 637, 390 635" fill="none" stroke="#1e3a5f" stroke-width="4" stroke-linecap="round" marker-end="url(#arrow-1e3a5f)"/>
<path d="M 800 520 C 800 518, 800 637, 800 635" fill="none" stroke="#7651a6" stroke-width="4" stroke-linecap="round" marker-end="url(#arrow-7651a6)"/>
<path d="M 1210 520 C 1210 518, 1210 637, 1210 635" fill="none" stroke="#d59621" stroke-width="4" stroke-linecap="round" marker-end="url(#arrow-d59621)"/>
<rect x="140" y="635" width="440" height="115" rx="22" fill="#dcefe7" stroke="#3c8d77" stroke-width="3"/><rect x="142" y="634" width="439" height="116" rx="23" fill="none" stroke="#3c8d77" stroke-width="1.2" opacity=".28" transform="rotate(.18 360 692.5)"/>
<text x="360" y="680" font-family="'Kaiti SC','STKaiti','Noto Sans SC',sans-serif" font-size="26" font-weight="800" fill="#3c8d77" text-anchor="middle"><tspan x="360" dy="0">Cost per Successful Goal</tspan></text>
<text x="360" y="717" font-family="'Kaiti SC','STKaiti','Noto Sans SC',sans-serif" font-size="19" font-weight="500" fill="#1e3a5f" text-anchor="middle"><tspan x="360" dy="0">成本是否转化为用户价值</tspan></text>
<rect x="580" y="635" width="440" height="115" rx="22" fill="#f7dddd" stroke="#c94c4c" stroke-width="3"/><rect x="582" y="634" width="439" height="116" rx="23" fill="none" stroke="#c94c4c" stroke-width="1.2" opacity=".28" transform="rotate(.18 800 692.5)"/>
<text x="800" y="680" font-family="'Kaiti SC','STKaiti','Noto Sans SC',sans-serif" font-size="26" font-weight="800" fill="#c94c4c" text-anchor="middle"><tspan x="800" dy="0">Wasted / Retry Cost</tspan></text>
<text x="800" y="717" font-family="'Kaiti SC','STKaiti','Noto Sans SC',sans-serif" font-size="19" font-weight="500" fill="#1e3a5f" text-anchor="middle"><tspan x="800" dy="0">失败、丢弃、重复和无贡献</tspan></text>
<rect x="1020" y="635" width="440" height="115" rx="22" fill="#dfeaf4" stroke="#1e3a5f" stroke-width="3"/><rect x="1022" y="634" width="439" height="116" rx="23" fill="none" stroke="#1e3a5f" stroke-width="1.2" opacity=".28" transform="rotate(.18 1240 692.5)"/>
<text x="1240" y="680" font-family="'Kaiti SC','STKaiti','Noto Sans SC',sans-serif" font-size="25" font-weight="800" fill="#1e3a5f" text-anchor="middle"><tspan x="1240" dy="0">Critical Path / Evidence Cost</tspan></text>
<text x="1240" y="717" font-family="'Kaiti SC','STKaiti','Noto Sans SC',sans-serif" font-size="19" font-weight="500" fill="#1e3a5f" text-anchor="middle"><tspan x="1240" dy="0">完成目标真正需要的投入</tspan></text>
<text x="800" y="825" font-family="'Kaiti SC','STKaiti','Noto Sans SC',sans-serif" font-size="28" font-weight="760" fill="#c94c4c" text-anchor="middle"><tspan x="800" dy="0">预算不足时显式降级或阻断；不要静默删除必要 Evidence。</tspan></text>

</svg>