<svg xmlns="http://www.w3.org/2000/svg" width="1600" height="900" viewBox="0 0 1600 900">
<defs><marker id="arrow-1e3a5f" viewBox="0 0 10 10" refX="9" refY="5" markerWidth="7" markerHeight="7" orient="auto-start-reverse"><path d="M 0 0 L 10 5 L 0 10 z" fill="#1e3a5f"/></marker><marker id="arrow-d59621" viewBox="0 0 10 10" refX="9" refY="5" markerWidth="7" markerHeight="7" orient="auto-start-reverse"><path d="M 0 0 L 10 5 L 0 10 z" fill="#d59621"/></marker><marker id="arrow-3c8d77" viewBox="0 0 10 10" refX="9" refY="5" markerWidth="7" markerHeight="7" orient="auto-start-reverse"><path d="M 0 0 L 10 5 L 0 10 z" fill="#3c8d77"/></marker><marker id="arrow-c94c4c" viewBox="0 0 10 10" refX="9" refY="5" markerWidth="7" markerHeight="7" orient="auto-start-reverse"><path d="M 0 0 L 10 5 L 0 10 z" fill="#c94c4c"/></marker><marker id="arrow-7651a6" viewBox="0 0 10 10" refX="9" refY="5" markerWidth="7" markerHeight="7" orient="auto-start-reverse"><path d="M 0 0 L 10 5 L 0 10 z" fill="#7651a6"/></marker><filter id="paper"><feTurbulence type="fractalNoise" baseFrequency=".8" numOctaves="2" seed="7" result="noise"/><feColorMatrix in="noise" type="saturate" values="0"/><feComponentTransfer><feFuncA type="table" tableValues="0 .035"/></feComponentTransfer></filter></defs>
<rect width="1600" height="900" fill="#fbf7ec"/><rect width="1600" height="900" fill="#38516d" filter="url(#paper)" opacity=".16"/>

<text x="70" y="82" font-family="'Kaiti SC','STKaiti','Noto Sans SC',sans-serif" font-size="43" font-weight="800" fill="#1e3a5f" text-anchor="start"><tspan x="70" dy="0">诊断三件套：Graph × Trace × Artifact</tspan></text><text x="72" y="128" font-family="'Kaiti SC','STKaiti','Noto Sans SC',sans-serif" font-size="22" font-weight="500" fill="#55708f" text-anchor="start"><tspan x="72" dy="0">同一事故的关系、时间和原始材料必须能够彼此跳转。</tspan></text><path d="M 70 160 C 556.6666666666666 158, 1043.3333333333333 162, 1530 160" fill="none" stroke="#d59621" stroke-width="3" stroke-linecap="round" stroke-dasharray="10 10"/>
<rect x="90" y="255" width="390" height="310" rx="22" fill="#dcefe7" stroke="#3c8d77" stroke-width="4"/><rect x="92" y="254" width="389" height="311" rx="23" fill="none" stroke="#3c8d77" stroke-width="1.2" opacity=".28" transform="rotate(.18 285 410)"/>
<text x="285" y="315" font-family="'Kaiti SC','STKaiti','Noto Sans SC',sans-serif" font-size="32" font-weight="800" fill="#3c8d77" text-anchor="middle"><tspan x="285" dy="0">Context Graph</tspan></text>
<text x="285" y="375" font-family="'Kaiti SC','STKaiti','Noto Sans SC',sans-serif" font-size="24" font-weight="500" fill="#1e3a5f" text-anchor="middle"><tspan x="285" dy="0">为什么依赖？</tspan><tspan x="285" dy="40.8">Claim 由谁支持？</tspan><tspan x="285" dy="40.8">错误传播到哪里？</tspan></text>
<rect x="605" y="255" width="390" height="310" rx="22" fill="#dfeaf4" stroke="#1e3a5f" stroke-width="4"/><rect x="607" y="254" width="389" height="311" rx="23" fill="none" stroke="#1e3a5f" stroke-width="1.2" opacity=".28" transform="rotate(.18 800 410)"/>
<text x="800" y="315" font-family="'Kaiti SC','STKaiti','Noto Sans SC',sans-serif" font-size="32" font-weight="800" fill="#1e3a5f" text-anchor="middle"><tspan x="800" dy="0">Trace</tspan></text>
<text x="800" y="375" font-family="'Kaiti SC','STKaiti','Noto Sans SC',sans-serif" font-size="24" font-weight="500" fill="#1e3a5f" text-anchor="middle"><tspan x="800" dy="0">何时发生？</tspan><tspan x="800" dy="40.8">关键路径多慢？</tspan><tspan x="800" dy="40.8">哪里重试或取消？</tspan></text>
<rect x="1120" y="255" width="390" height="310" rx="22" fill="#f7e7b8" stroke="#d59621" stroke-width="4"/><rect x="1122" y="254" width="389" height="311" rx="23" fill="none" stroke="#d59621" stroke-width="1.2" opacity=".28" transform="rotate(.18 1315 410)"/>
<text x="1315" y="315" font-family="'Kaiti SC','STKaiti','Noto Sans SC',sans-serif" font-size="32" font-weight="800" fill="#d59621" text-anchor="middle"><tspan x="1315" dy="0">Artifact</tspan></text>
<text x="1315" y="375" font-family="'Kaiti SC','STKaiti','Noto Sans SC',sans-serif" font-size="24" font-weight="500" fill="#1e3a5f" text-anchor="middle"><tspan x="1315" dy="0">当时看到了什么？</tspan><tspan x="1315" dy="40.8">Prompt / Tool Result</tspan><tspan x="1315" dy="40.8">Policy / Evidence</tspan></text>
<path d="M 285 565 C 381.6666666666667 563, 478.3333333333333 692, 575 690" fill="none" stroke="#3c8d77" stroke-width="4" stroke-linecap="round" marker-end="url(#arrow-3c8d77)"/>
<path d="M 800 565 C 800 563, 800 667, 800 665" fill="none" stroke="#1e3a5f" stroke-width="4" stroke-linecap="round" marker-end="url(#arrow-1e3a5f)"/>
<path d="M 1315 565 C 1218.3333333333333 563, 1121.6666666666667 692, 1025 690" fill="none" stroke="#d59621" stroke-width="4" stroke-linecap="round" marker-end="url(#arrow-d59621)"/>
<rect x="510" y="665" width="580" height="120" rx="36" fill="#f7dddd" stroke="#c94c4c" stroke-width="4"/><rect x="512" y="664" width="579" height="121" rx="37" fill="none" stroke="#c94c4c" stroke-width="1.2" opacity=".28" transform="rotate(.18 800 725)"/>
<text x="800" y="712" font-family="'Kaiti SC','STKaiti','Noto Sans SC',sans-serif" font-size="31" font-weight="800" fill="#c94c4c" text-anchor="middle"><tspan x="800" dy="0">Incident Reconstruction</tspan></text>
<text x="800" y="752" font-family="'Kaiti SC','STKaiti','Noto Sans SC',sans-serif" font-size="23" font-weight="500" fill="#1e3a5f" text-anchor="middle"><tspan x="800" dy="0">找到第一个因果错误，不只修饰最终答案</tspan></text>
<text x="800" y="845" font-family="'Kaiti SC','STKaiti','Noto Sans SC',sans-serif" font-size="25" font-weight="500" fill="#55708f" text-anchor="middle"><tspan x="800" dy="0">敏感原文进入受控 Artifact；Trace 与 Graph 只保存最小属性和引用。</tspan></text>

</svg>