<svg xmlns="http://www.w3.org/2000/svg" width="1600" height="900" viewBox="0 0 1600 900">
<defs><marker id="arrow-1e3a5f" viewBox="0 0 10 10" refX="9" refY="5" markerWidth="7" markerHeight="7" orient="auto-start-reverse"><path d="M 0 0 L 10 5 L 0 10 z" fill="#1e3a5f"/></marker><marker id="arrow-d59621" viewBox="0 0 10 10" refX="9" refY="5" markerWidth="7" markerHeight="7" orient="auto-start-reverse"><path d="M 0 0 L 10 5 L 0 10 z" fill="#d59621"/></marker><marker id="arrow-3c8d77" viewBox="0 0 10 10" refX="9" refY="5" markerWidth="7" markerHeight="7" orient="auto-start-reverse"><path d="M 0 0 L 10 5 L 0 10 z" fill="#3c8d77"/></marker><marker id="arrow-c94c4c" viewBox="0 0 10 10" refX="9" refY="5" markerWidth="7" markerHeight="7" orient="auto-start-reverse"><path d="M 0 0 L 10 5 L 0 10 z" fill="#c94c4c"/></marker><marker id="arrow-7651a6" viewBox="0 0 10 10" refX="9" refY="5" markerWidth="7" markerHeight="7" orient="auto-start-reverse"><path d="M 0 0 L 10 5 L 0 10 z" fill="#7651a6"/></marker><filter id="paper"><feTurbulence type="fractalNoise" baseFrequency=".8" numOctaves="2" seed="7" result="noise"/><feColorMatrix in="noise" type="saturate" values="0"/><feComponentTransfer><feFuncA type="table" tableValues="0 .035"/></feComponentTransfer></filter></defs>
<rect width="1600" height="900" fill="#fbf7ec"/><rect width="1600" height="900" fill="#38516d" filter="url(#paper)" opacity=".16"/>

<text x="70" y="82" font-family="'Kaiti SC','STKaiti','Noto Sans SC',sans-serif" font-size="43" font-weight="800" fill="#1e3a5f" text-anchor="start"><tspan x="70" dy="0">事故重建：沿因果链寻找 First Wrong Node</tspan></text><text x="72" y="128" font-family="'Kaiti SC','STKaiti','Noto Sans SC',sans-serif" font-size="22" font-weight="500" fill="#55708f" text-anchor="start"><tspan x="72" dy="0">最终 Answer 往往只是下游症状；修复应落在第一个违反合同的节点。</tspan></text><path d="M 70 160 C 556.6666666666666 158, 1043.3333333333333 162, 1530 160" fill="none" stroke="#d59621" stroke-width="3" stroke-linecap="round" stroke-dasharray="10 10"/>
<rect x="45" y="315" width="170" height="150" rx="22" fill="#dfeaf4" stroke="#1e3a5f" stroke-width="3"/><rect x="47" y="314" width="169" height="151" rx="23" fill="none" stroke="#1e3a5f" stroke-width="1.2" opacity=".28" transform="rotate(.18 130 390)"/><text x="130" y="370" font-family="'Kaiti SC','STKaiti','Noto Sans SC',sans-serif" font-size="27" font-weight="800" fill="#1e3a5f" text-anchor="middle"><tspan x="130" dy="0">Goal</tspan></text><text x="130" y="414" font-family="'Kaiti SC','STKaiti','Noto Sans SC',sans-serif" font-size="19" font-weight="500" fill="#55708f" text-anchor="middle"><tspan x="130" dy="0">目标 / 约束</tspan></text><path d="M 215 390 C 230 388, 245 392, 260 390" fill="none" stroke="#1e3a5f" stroke-width="4" stroke-linecap="round" marker-end="url(#arrow-1e3a5f)"/><rect x="265" y="315" width="170" height="150" rx="22" fill="#fffdf7" stroke="#1e3a5f" stroke-width="3"/><rect x="267" y="314" width="169" height="151" rx="23" fill="none" stroke="#1e3a5f" stroke-width="1.2" opacity=".28" transform="rotate(.18 350 390)"/><text x="350" y="370" font-family="'Kaiti SC','STKaiti','Noto Sans SC',sans-serif" font-size="27" font-weight="800" fill="#1e3a5f" text-anchor="middle"><tspan x="350" dy="0">Plan</tspan></text><text x="350" y="414" font-family="'Kaiti SC','STKaiti','Noto Sans SC',sans-serif" font-size="19" font-weight="500" fill="#55708f" text-anchor="middle"><tspan x="350" dy="0">依赖 / 版本</tspan></text><path d="M 435 390 C 450 388, 465 392, 480 390" fill="none" stroke="#1e3a5f" stroke-width="4" stroke-linecap="round" marker-end="url(#arrow-1e3a5f)"/><rect x="485" y="315" width="170" height="150" rx="22" fill="#dfeaf4" stroke="#1e3a5f" stroke-width="3"/><rect x="487" y="314" width="169" height="151" rx="23" fill="none" stroke="#1e3a5f" stroke-width="1.2" opacity=".28" transform="rotate(.18 570 390)"/><text x="570" y="370" font-family="'Kaiti SC','STKaiti','Noto Sans SC',sans-serif" font-size="27" font-weight="800" fill="#1e3a5f" text-anchor="middle"><tspan x="570" dy="0">Route</tspan></text><text x="570" y="414" font-family="'Kaiti SC','STKaiti','Noto Sans SC',sans-serif" font-size="19" font-weight="500" fill="#55708f" text-anchor="middle"><tspan x="570" dy="0">能力快照</tspan></text><path d="M 655 390 C 670 388, 685 392, 700 390" fill="none" stroke="#1e3a5f" stroke-width="4" stroke-linecap="round" marker-end="url(#arrow-1e3a5f)"/><rect x="705" y="315" width="170" height="150" rx="22" fill="#fffdf7" stroke="#1e3a5f" stroke-width="3"/><rect x="707" y="314" width="169" height="151" rx="23" fill="none" stroke="#1e3a5f" stroke-width="1.2" opacity=".28" transform="rotate(.18 790 390)"/><text x="790" y="370" font-family="'Kaiti SC','STKaiti','Noto Sans SC',sans-serif" font-size="27" font-weight="800" fill="#1e3a5f" text-anchor="middle"><tspan x="790" dy="0">Worker</tspan></text><text x="790" y="414" font-family="'Kaiti SC','STKaiti','Noto Sans SC',sans-serif" font-size="19" font-weight="500" fill="#55708f" text-anchor="middle"><tspan x="790" dy="0">执行合同</tspan></text><path d="M 875 390 C 890 388, 905 392, 920 390" fill="none" stroke="#c94c4c" stroke-width="4" stroke-linecap="round" marker-end="url(#arrow-c94c4c)"/><rect x="925" y="315" width="170" height="150" rx="22" fill="#f7dddd" stroke="#c94c4c" stroke-width="5"/><rect x="927" y="314" width="169" height="151" rx="23" fill="none" stroke="#c94c4c" stroke-width="1.2" opacity=".28" transform="rotate(.18 1010 390)"/><text x="1010" y="370" font-family="'Kaiti SC','STKaiti','Noto Sans SC',sans-serif" font-size="27" font-weight="800" fill="#c94c4c" text-anchor="middle"><tspan x="1010" dy="0">Tool</tspan></text><text x="1010" y="414" font-family="'Kaiti SC','STKaiti','Noto Sans SC',sans-serif" font-size="19" font-weight="500" fill="#55708f" text-anchor="middle"><tspan x="1010" dy="0">数据 / 副作用</tspan></text><path d="M 1095 390 C 1110 388, 1125 392, 1140 390" fill="none" stroke="#1e3a5f" stroke-width="4" stroke-linecap="round" marker-end="url(#arrow-1e3a5f)"/><rect x="1145" y="315" width="170" height="150" rx="22" fill="#fffdf7" stroke="#55708f" stroke-width="3"/><rect x="1147" y="314" width="169" height="151" rx="23" fill="none" stroke="#55708f" stroke-width="1.2" opacity=".28" transform="rotate(.18 1230 390)"/><text x="1230" y="370" font-family="'Kaiti SC','STKaiti','Noto Sans SC',sans-serif" font-size="27" font-weight="800" fill="#55708f" text-anchor="middle"><tspan x="1230" dy="0">Evidence</tspan></text><text x="1230" y="414" font-family="'Kaiti SC','STKaiti','Noto Sans SC',sans-serif" font-size="19" font-weight="500" fill="#55708f" text-anchor="middle"><tspan x="1230" dy="0">事实 / 时效</tspan></text><path d="M 1315 390 C 1330 388, 1345 392, 1360 390" fill="none" stroke="#1e3a5f" stroke-width="4" stroke-linecap="round" marker-end="url(#arrow-1e3a5f)"/><rect x="1365" y="315" width="170" height="150" rx="22" fill="#dfeaf4" stroke="#55708f" stroke-width="3"/><rect x="1367" y="314" width="169" height="151" rx="23" fill="none" stroke="#55708f" stroke-width="1.2" opacity=".28" transform="rotate(.18 1450 390)"/><text x="1450" y="370" font-family="'Kaiti SC','STKaiti','Noto Sans SC',sans-serif" font-size="27" font-weight="800" fill="#55708f" text-anchor="middle"><tspan x="1450" dy="0">Answer</tspan></text><text x="1450" y="414" font-family="'Kaiti SC','STKaiti','Noto Sans SC',sans-serif" font-size="19" font-weight="500" fill="#55708f" text-anchor="middle"><tspan x="1450" dy="0">表达 / 决策</tspan></text>
<rect x="855" y="215" width="260" height="65" rx="28" fill="#f7dddd" stroke="#c94c4c" stroke-width="3"/><rect x="857" y="214" width="259" height="66" rx="29" fill="none" stroke="#c94c4c" stroke-width="1.2" opacity=".28" transform="rotate(.18 985 247.5)"/>
<text x="985" y="257" font-family="'Kaiti SC','STKaiti','Noto Sans SC',sans-serif" font-size="24" font-weight="800" fill="#c94c4c" text-anchor="middle"><tspan x="985" dy="0">First Wrong Node</tspan></text>
<path d="M 985 280 C 993.3333333333334 278, 1001.6666666666666 317, 1010 315" fill="none" stroke="#c94c4c" stroke-width="4" stroke-linecap="round" marker-end="url(#arrow-c94c4c)"/>
<rect x="80" y="570" width="1440" height="155" rx="32" fill="#fffdf7" stroke="#d59621" stroke-width="3" stroke-dasharray="12 9"/><rect x="82" y="569" width="1439" height="156" rx="33" fill="none" stroke="#d59621" stroke-width="1.2" opacity=".28" transform="rotate(.18 800 647.5)"/>
<text x="130" y="620" font-family="'Kaiti SC','STKaiti','Noto Sans SC',sans-serif" font-size="27" font-weight="800" fill="#d59621" text-anchor="start"><tspan x="130" dy="0">逆向提问</tspan></text>
<text x="320" y="620" font-family="'Kaiti SC','STKaiti','Noto Sans SC',sans-serif" font-size="23" font-weight="700" fill="#1e3a5f" text-anchor="start"><tspan x="320" dy="0">影响谁？</tspan></text>
<text x="500" y="620" font-family="'Kaiti SC','STKaiti','Noto Sans SC',sans-serif" font-size="23" font-weight="700" fill="#1e3a5f" text-anchor="start"><tspan x="500" dy="0">哪个版本？</tspan></text>
<text x="700" y="620" font-family="'Kaiti SC','STKaiti','Noto Sans SC',sans-serif" font-size="23" font-weight="700" fill="#1e3a5f" text-anchor="start"><tspan x="700" dy="0">哪个合同先失效？</tspan></text>
<text x="970" y="620" font-family="'Kaiti SC','STKaiti','Noto Sans SC',sans-serif" font-size="23" font-weight="700" fill="#1e3a5f" text-anchor="start"><tspan x="970" dy="0">错误如何传播？</tspan></text>
<text x="1225" y="620" font-family="'Kaiti SC','STKaiti','Noto Sans SC',sans-serif" font-size="23" font-weight="700" fill="#1e3a5f" text-anchor="start"><tspan x="1225" dy="0">保护为何漏检？</tspan></text>
<text x="800" y="685" font-family="'Kaiti SC','STKaiti','Noto Sans SC',sans-serif" font-size="23" font-weight="500" fill="#55708f" text-anchor="middle"><tspan x="800" dy="0">Alert → representative Goal → Plan → Route → Tool → Context → Evidence → Answer</tspan></text>
<text x="800" y="820" font-family="'Kaiti SC','STKaiti','Noto Sans SC',sans-serif" font-size="28" font-weight="760" fill="#c94c4c" text-anchor="middle"><tspan x="800" dy="0">不要只在 Answer 后补一句 Prompt；修复合同、受影响状态、评测案例和检测能力。</tspan></text>

</svg>