<svg xmlns="http://www.w3.org/2000/svg" width="1600" height="900" viewBox="0 0 1600 900" role="img">
<defs><marker id="arrow-1e3a5f" viewBox="0 0 10 10" refX="9" refY="5" markerWidth="8" markerHeight="8" orient="auto-start-reverse"><path d="M 0 0 L 10 5 L 0 10 z" fill="#1e3a5f"/></marker><marker id="arrow-d59621" viewBox="0 0 10 10" refX="9" refY="5" markerWidth="8" markerHeight="8" orient="auto-start-reverse"><path d="M 0 0 L 10 5 L 0 10 z" fill="#d59621"/></marker><marker id="arrow-3c8d77" viewBox="0 0 10 10" refX="9" refY="5" markerWidth="8" markerHeight="8" orient="auto-start-reverse"><path d="M 0 0 L 10 5 L 0 10 z" fill="#3c8d77"/></marker><marker id="arrow-c94c4c" viewBox="0 0 10 10" refX="9" refY="5" markerWidth="8" markerHeight="8" orient="auto-start-reverse"><path d="M 0 0 L 10 5 L 0 10 z" fill="#c94c4c"/></marker><marker id="arrow-7651a6" viewBox="0 0 10 10" refX="9" refY="5" markerWidth="8" markerHeight="8" orient="auto-start-reverse"><path d="M 0 0 L 10 5 L 0 10 z" fill="#7651a6"/></marker><marker id="arrow-55708f" viewBox="0 0 10 10" refX="9" refY="5" markerWidth="8" markerHeight="8" orient="auto-start-reverse"><path d="M 0 0 L 10 5 L 0 10 z" fill="#55708f"/></marker></defs>
<rect width="1600" height="900" fill="#fbf7ec"/>
<path d="M 20 180 C 420 171, 920 190, 1580 177 M 30 718 C 530 727, 980 707, 1570 721" stroke="#e7dfce" stroke-width="2" fill="none" opacity=".52"/>

<text x="70" y="76" font-family="'Kaiti SC','STKaiti','Noto Sans SC',sans-serif" font-size="43" font-weight="760" fill="#1e3a5f" text-anchor="start"><tspan x="70" dy="0">纵深防御：从恶意内容到受控副作用</tspan></text><path d="M 70 94 C 265 87, 485 102, 710 93" fill="none" stroke="#d59621" stroke-width="7" stroke-linecap="round" opacity=".85"/><text x="72" y="128" font-family="'Kaiti SC','STKaiti','Noto Sans SC',sans-serif" font-size="23" font-weight="500" fill="#55708f" text-anchor="start"><tspan x="72" dy="0">不同控制阻断不同失效；注入检测漏报后，授权、执行、DLP 和响应仍应成立。</tspan></text>
<rect x="45" y="280" width="155" height="130" rx="22" fill="#f7dddd" stroke="#c94c4c" stroke-width="3"/><rect x="47" y="279" width="154" height="131" rx="23" fill="none" stroke="#c94c4c" stroke-width="1.2" opacity=".32" transform="rotate(.18 122.5 345)"/>
<text x="122" y="330" font-family="'Kaiti SC','STKaiti','Noto Sans SC',sans-serif" font-size="29" font-weight="720" fill="#c94c4c" text-anchor="middle"><tspan x="122" dy="0">输入</tspan></text>
<text x="122" y="370" font-family="'Kaiti SC','STKaiti','Noto Sans SC',sans-serif" font-size="19" font-weight="500" fill="#1e3a5f" text-anchor="middle"><tspan x="122" dy="0">协议 · 注入</tspan></text>
<rect x="245" y="280" width="155" height="130" rx="22" fill="#dfeaf4" stroke="#1e3a5f" stroke-width="3"/><rect x="247" y="279" width="154" height="131" rx="23" fill="none" stroke="#1e3a5f" stroke-width="1.2" opacity=".32" transform="rotate(.18 322.5 345)"/>
<text x="322" y="330" font-family="'Kaiti SC','STKaiti','Noto Sans SC',sans-serif" font-size="29" font-weight="720" fill="#1e3a5f" text-anchor="middle"><tspan x="322" dy="0">Context</tspan></text>
<text x="322" y="370" font-family="'Kaiti SC','STKaiti','Noto Sans SC',sans-serif" font-size="19" font-weight="500" fill="#1e3a5f" text-anchor="middle"><tspan x="322" dy="0">类型 · 来源</tspan></text>
<rect x="445" y="280" width="155" height="130" rx="22" fill="#e9e0f4" stroke="#7651a6" stroke-width="3"/><rect x="447" y="279" width="154" height="131" rx="23" fill="none" stroke="#7651a6" stroke-width="1.2" opacity=".32" transform="rotate(.18 522.5 345)"/>
<text x="522" y="330" font-family="'Kaiti SC','STKaiti','Noto Sans SC',sans-serif" font-size="29" font-weight="720" fill="#7651a6" text-anchor="middle"><tspan x="522" dy="0">Agent</tspan></text>
<text x="522" y="370" font-family="'Kaiti SC','STKaiti','Noto Sans SC',sans-serif" font-size="19" font-weight="500" fill="#1e3a5f" text-anchor="middle"><tspan x="522" dy="0">目标 · 预算</tspan></text>
<rect x="645" y="280" width="175" height="130" rx="22" fill="#f7e7b8" stroke="#d59621" stroke-width="3"/><rect x="647" y="279" width="174" height="131" rx="23" fill="none" stroke="#d59621" stroke-width="1.2" opacity=".32" transform="rotate(.18 732.5 345)"/>
<text x="732" y="330" font-family="'Kaiti SC','STKaiti','Noto Sans SC',sans-serif" font-size="29" font-weight="720" fill="#d59621" text-anchor="middle"><tspan x="732" dy="0">Tool Guard</tspan></text>
<text x="732" y="370" font-family="'Kaiti SC','STKaiti','Noto Sans SC',sans-serif" font-size="19" font-weight="500" fill="#1e3a5f" text-anchor="middle"><tspan x="732" dy="0">交集授权</tspan></text>
<rect x="865" y="280" width="175" height="130" rx="22" fill="#dcefe7" stroke="#3c8d77" stroke-width="3"/><rect x="867" y="279" width="174" height="131" rx="23" fill="none" stroke="#3c8d77" stroke-width="1.2" opacity=".32" transform="rotate(.18 952.5 345)"/>
<text x="952" y="330" font-family="'Kaiti SC','STKaiti','Noto Sans SC',sans-serif" font-size="29" font-weight="720" fill="#3c8d77" text-anchor="middle"><tspan x="952" dy="0">Executor</tspan></text>
<text x="952" y="370" font-family="'Kaiti SC','STKaiti','Noto Sans SC',sans-serif" font-size="19" font-weight="500" fill="#1e3a5f" text-anchor="middle"><tspan x="952" dy="0">隔离 · 凭证</tspan></text>
<rect x="1085" y="280" width="175" height="130" rx="22" fill="#dfeaf4" stroke="#1e3a5f" stroke-width="3"/><rect x="1087" y="279" width="174" height="131" rx="23" fill="none" stroke="#1e3a5f" stroke-width="1.2" opacity=".32" transform="rotate(.18 1172.5 345)"/>
<text x="1172" y="330" font-family="'Kaiti SC','STKaiti','Noto Sans SC',sans-serif" font-size="29" font-weight="720" fill="#1e3a5f" text-anchor="middle"><tspan x="1172" dy="0">Output Gate</tspan></text>
<text x="1172" y="370" font-family="'Kaiti SC','STKaiti','Noto Sans SC',sans-serif" font-size="19" font-weight="500" fill="#1e3a5f" text-anchor="middle"><tspan x="1172" dy="0">ACL · DLP</tspan></text>
<rect x="1305" y="280" width="250" height="130" rx="22" fill="#fffdf7" stroke="#c94c4c" stroke-width="3"/><rect x="1307" y="279" width="249" height="131" rx="23" fill="none" stroke="#c94c4c" stroke-width="1.2" opacity=".32" transform="rotate(.18 1430 345)"/>
<text x="1430" y="330" font-family="'Kaiti SC','STKaiti','Noto Sans SC',sans-serif" font-size="29" font-weight="720" fill="#c94c4c" text-anchor="middle"><tspan x="1430" dy="0">用户 / 下游</tspan></text>
<text x="1430" y="370" font-family="'Kaiti SC','STKaiti','Noto Sans SC',sans-serif" font-size="19" font-weight="500" fill="#1e3a5f" text-anchor="middle"><tspan x="1430" dy="0">渠道安全渲染</tspan></text>
<path d="M 200 345 C 215 343, 230 347, 245 345" fill="none" stroke="#c94c4c" stroke-width="4" stroke-linecap="round" marker-end="url(#arrow-c94c4c)"/>
<path d="M 400 345 C 415 343, 430 347, 445 345" fill="none" stroke="#1e3a5f" stroke-width="4" stroke-linecap="round" marker-end="url(#arrow-1e3a5f)"/>
<path d="M 600 345 C 615 343, 630 347, 645 345" fill="none" stroke="#7651a6" stroke-width="4" stroke-linecap="round" marker-end="url(#arrow-7651a6)"/>
<path d="M 820 345 C 835 343, 850 347, 865 345" fill="none" stroke="#d59621" stroke-width="4" stroke-linecap="round" marker-end="url(#arrow-d59621)"/>
<path d="M 1040 345 C 1055 343, 1070 347, 1085 345" fill="none" stroke="#3c8d77" stroke-width="4" stroke-linecap="round" marker-end="url(#arrow-3c8d77)"/>
<path d="M 1260 345 C 1275 343, 1290 347, 1305 345" fill="none" stroke="#1e3a5f" stroke-width="4" stroke-linecap="round" marker-end="url(#arrow-1e3a5f)"/>
<rect x="175" y="535" width="1250" height="125" rx="40" fill="#fffdf7" stroke="#1e3a5f" stroke-width="3" stroke-dasharray="12 9"/><rect x="177" y="534" width="1249" height="126" rx="41" fill="none" stroke="#1e3a5f" stroke-width="1.2" opacity=".32" transform="rotate(.18 800 597.5)"/>
<rect x="220" y="575" width="210" height="52" rx="26" fill="#dfeaf4" stroke="#1e3a5f" stroke-width="2.4"/><rect x="222" y="574" width="209" height="53" rx="27" fill="none" stroke="#1e3a5f" stroke-width="1.2" opacity=".32" transform="rotate(.18 325 601)"/><text x="325" y="609" font-family="'Kaiti SC','STKaiti','Noto Sans SC',sans-serif" font-size="21" font-weight="700" fill="#1e3a5f" text-anchor="middle"><tspan x="325" dy="0">Audit · 决策证据</tspan></text>
<rect x="500" y="575" width="210" height="52" rx="26" fill="#e9e0f4" stroke="#7651a6" stroke-width="2.4"/><rect x="502" y="574" width="209" height="53" rx="27" fill="none" stroke="#7651a6" stroke-width="1.2" opacity=".32" transform="rotate(.18 605 601)"/><text x="605" y="609" font-family="'Kaiti SC','STKaiti','Noto Sans SC',sans-serif" font-size="21" font-weight="700" fill="#7651a6" text-anchor="middle"><tspan x="605" dy="0">Monitor · 漂移</tspan></text>
<rect x="780" y="575" width="210" height="52" rx="26" fill="#f7dddd" stroke="#c94c4c" stroke-width="2.4"/><rect x="782" y="574" width="209" height="53" rx="27" fill="none" stroke="#c94c4c" stroke-width="1.2" opacity=".32" transform="rotate(.18 885 601)"/><text x="885" y="609" font-family="'Kaiti SC','STKaiti','Noto Sans SC',sans-serif" font-size="21" font-weight="700" fill="#c94c4c" text-anchor="middle"><tspan x="885" dy="0">Kill Switch</tspan></text>
<rect x="1060" y="575" width="310" height="52" rx="26" fill="#dcefe7" stroke="#3c8d77" stroke-width="2.4"/><rect x="1062" y="574" width="309" height="53" rx="27" fill="none" stroke="#3c8d77" stroke-width="1.2" opacity=".32" transform="rotate(.18 1215 601)"/><text x="1215" y="609" font-family="'Kaiti SC','STKaiti','Noto Sans SC',sans-serif" font-size="21" font-weight="700" fill="#3c8d77" text-anchor="middle"><tspan x="1215" dy="0">Red Team · 持续回归</tspan></text>
<text x="800" y="755" font-family="'Kaiti SC','STKaiti','Noto Sans SC',sans-serif" font-size="27" font-weight="700" fill="#c94c4c" text-anchor="middle"><tspan x="800" dy="0">安全不是十个分类器串联，而是协议、身份、策略、执行、数据和运营边界共同失效隔离。</tspan></text>

<text x="1525" y="860" font-family="'Kaiti SC','STKaiti',sans-serif" font-size="18" fill="#55708f" text-anchor="end">生产级多智能体系统 · 第 06 章</text>
</svg>