<svg xmlns="http://www.w3.org/2000/svg" width="1600" height="900" viewBox="0 0 1600 900" role="img">
<defs><marker id="arrow-1e3a5f" viewBox="0 0 10 10" refX="9" refY="5" markerWidth="8" markerHeight="8" orient="auto-start-reverse"><path d="M 0 0 L 10 5 L 0 10 z" fill="#1e3a5f"/></marker><marker id="arrow-d59621" viewBox="0 0 10 10" refX="9" refY="5" markerWidth="8" markerHeight="8" orient="auto-start-reverse"><path d="M 0 0 L 10 5 L 0 10 z" fill="#d59621"/></marker><marker id="arrow-3c8d77" viewBox="0 0 10 10" refX="9" refY="5" markerWidth="8" markerHeight="8" orient="auto-start-reverse"><path d="M 0 0 L 10 5 L 0 10 z" fill="#3c8d77"/></marker><marker id="arrow-c94c4c" viewBox="0 0 10 10" refX="9" refY="5" markerWidth="8" markerHeight="8" orient="auto-start-reverse"><path d="M 0 0 L 10 5 L 0 10 z" fill="#c94c4c"/></marker><marker id="arrow-7651a6" viewBox="0 0 10 10" refX="9" refY="5" markerWidth="8" markerHeight="8" orient="auto-start-reverse"><path d="M 0 0 L 10 5 L 0 10 z" fill="#7651a6"/></marker><marker id="arrow-55708f" viewBox="0 0 10 10" refX="9" refY="5" markerWidth="8" markerHeight="8" orient="auto-start-reverse"><path d="M 0 0 L 10 5 L 0 10 z" fill="#55708f"/></marker></defs>
<rect width="1600" height="900" fill="#fbf7ec"/>
<path d="M 20 180 C 420 171, 920 190, 1580 177 M 30 718 C 530 727, 980 707, 1570 721" stroke="#e7dfce" stroke-width="2" fill="none" opacity=".52"/>

<text x="70" y="76" font-family="'Kaiti SC','STKaiti','Noto Sans SC',sans-serif" font-size="43" font-weight="760" fill="#1e3a5f" text-anchor="start"><tspan x="70" dy="0">隐私安全是一条用途绑定的数据生命周期</tspan></text><path d="M 70 94 C 265 87, 485 102, 710 93" fill="none" stroke="#d59621" stroke-width="7" stroke-linecap="round" opacity=".85"/><text x="72" y="128" font-family="'Kaiti SC','STKaiti','Noto Sans SC',sans-serif" font-size="23" font-weight="500" fill="#55708f" text-anchor="start"><tspan x="72" dy="0">输出打码只是最后一步；数据在进入 Context、Memory、索引和审计前就应被最小化。</tspan></text>
<rect x="45" y="315" width="190" height="135" rx="22" fill="#f7dddd" stroke="#c94c4c" stroke-width="3"/><rect x="47" y="314" width="189" height="136" rx="23" fill="none" stroke="#c94c4c" stroke-width="1.2" opacity=".32" transform="rotate(.18 140 382.5)"/>
<text x="140" y="367" font-family="'Kaiti SC','STKaiti','Noto Sans SC',sans-serif" font-size="28" font-weight="720" fill="#c94c4c" text-anchor="middle"><tspan x="140" dy="0">发现 / 摄取</tspan></text>
<text x="140" y="408" font-family="'Kaiti SC','STKaiti','Noto Sans SC',sans-serif" font-size="19" font-weight="500" fill="#1e3a5f" text-anchor="middle"><tspan x="140" dy="0">来源 · 分类</tspan></text>
<rect x="280" y="315" width="190" height="135" rx="22" fill="#f7e7b8" stroke="#d59621" stroke-width="3"/><rect x="282" y="314" width="189" height="136" rx="23" fill="none" stroke="#d59621" stroke-width="1.2" opacity=".32" transform="rotate(.18 375 382.5)"/>
<text x="375" y="367" font-family="'Kaiti SC','STKaiti','Noto Sans SC',sans-serif" font-size="28" font-weight="720" fill="#d59621" text-anchor="middle"><tspan x="375" dy="0">用途门禁</tspan></text>
<text x="375" y="408" font-family="'Kaiti SC','STKaiti','Noto Sans SC',sans-serif" font-size="19" font-weight="500" fill="#1e3a5f" text-anchor="middle"><tspan x="375" dy="0">需要原值吗？</tspan></text>
<rect x="515" y="315" width="210" height="135" rx="22" fill="#e9e0f4" stroke="#7651a6" stroke-width="3"/><rect x="517" y="314" width="209" height="136" rx="23" fill="none" stroke="#7651a6" stroke-width="1.2" opacity=".32" transform="rotate(.18 620 382.5)"/>
<text x="620" y="367" font-family="'Kaiti SC','STKaiti','Noto Sans SC',sans-serif" font-size="28" font-weight="720" fill="#7651a6" text-anchor="middle"><tspan x="620" dy="0">隐私转换</tspan></text>
<text x="620" y="408" font-family="'Kaiti SC','STKaiti','Noto Sans SC',sans-serif" font-size="19" font-weight="500" fill="#1e3a5f" text-anchor="middle"><tspan x="620" dy="0">Mask · Tokenize</tspan></text>
<rect x="770" y="315" width="210" height="135" rx="22" fill="#dfeaf4" stroke="#1e3a5f" stroke-width="3"/><rect x="772" y="314" width="209" height="136" rx="23" fill="none" stroke="#1e3a5f" stroke-width="1.2" opacity=".32" transform="rotate(.18 875 382.5)"/>
<text x="875" y="367" font-family="'Kaiti SC','STKaiti','Noto Sans SC',sans-serif" font-size="28" font-weight="720" fill="#1e3a5f" text-anchor="middle"><tspan x="875" dy="0">受控使用</tspan></text>
<text x="875" y="408" font-family="'Kaiti SC','STKaiti','Noto Sans SC',sans-serif" font-size="19" font-weight="500" fill="#1e3a5f" text-anchor="middle"><tspan x="875" dy="0">Context · Tool</tspan></text>
<rect x="1025" y="315" width="210" height="135" rx="22" fill="#dcefe7" stroke="#3c8d77" stroke-width="3"/><rect x="1027" y="314" width="209" height="136" rx="23" fill="none" stroke="#3c8d77" stroke-width="1.2" opacity=".32" transform="rotate(.18 1130 382.5)"/>
<text x="1130" y="367" font-family="'Kaiti SC','STKaiti','Noto Sans SC',sans-serif" font-size="28" font-weight="720" fill="#3c8d77" text-anchor="middle"><tspan x="1130" dy="0">保留 / 访问</tspan></text>
<text x="1130" y="408" font-family="'Kaiti SC','STKaiti','Noto Sans SC',sans-serif" font-size="18" font-weight="500" fill="#1e3a5f" text-anchor="middle"><tspan x="1130" dy="0">TTL · Role · Channel</tspan></text>
<rect x="1280" y="315" width="275" height="135" rx="22" fill="#fffdf7" stroke="#c94c4c" stroke-width="3"/><rect x="1282" y="314" width="274" height="136" rx="23" fill="none" stroke="#c94c4c" stroke-width="1.2" opacity=".32" transform="rotate(.18 1417.5 382.5)"/>
<text x="1417" y="367" font-family="'Kaiti SC','STKaiti','Noto Sans SC',sans-serif" font-size="28" font-weight="720" fill="#c94c4c" text-anchor="middle"><tspan x="1417" dy="0">删除传播</tspan></text>
<text x="1417" y="408" font-family="'Kaiti SC','STKaiti','Noto Sans SC',sans-serif" font-size="18" font-weight="500" fill="#1e3a5f" text-anchor="middle"><tspan x="1417" dy="0">Memory · Index · Export</tspan></text>
<path d="M 235 382 C 250 380, 265 384, 280 382" fill="none" stroke="#c94c4c" stroke-width="4" stroke-linecap="round" marker-end="url(#arrow-c94c4c)"/>
<path d="M 470 382 C 485 380, 500 384, 515 382" fill="none" stroke="#d59621" stroke-width="4" stroke-linecap="round" marker-end="url(#arrow-d59621)"/>
<path d="M 725 382 C 740 380, 755 384, 770 382" fill="none" stroke="#7651a6" stroke-width="4" stroke-linecap="round" marker-end="url(#arrow-7651a6)"/>
<path d="M 980 382 C 995 380, 1010 384, 1025 382" fill="none" stroke="#1e3a5f" stroke-width="4" stroke-linecap="round" marker-end="url(#arrow-1e3a5f)"/>
<path d="M 1235 382 C 1250 380, 1265 384, 1280 382" fill="none" stroke="#3c8d77" stroke-width="4" stroke-linecap="round" marker-end="url(#arrow-3c8d77)"/>
<rect x="265" y="545" width="1070" height="120" rx="40" fill="#fffdf7" stroke="#1e3a5f" stroke-width="3" stroke-dasharray="12 9"/><rect x="267" y="544" width="1069" height="121" rx="41" fill="none" stroke="#1e3a5f" stroke-width="1.2" opacity=".32" transform="rotate(.18 800 605)"/>
<text x="800" y="595" font-family="'Kaiti SC','STKaiti','Noto Sans SC',sans-serif" font-size="23" font-weight="700" fill="#1e3a5f" text-anchor="middle"><tspan x="800" dy="0">Provenance + Consent / Policy + Detector Version + Retention + Deletion Evidence</tspan></text>
<text x="800" y="635" font-family="'Kaiti SC','STKaiti','Noto Sans SC',sans-serif" font-size="21" font-weight="500" fill="#55708f" text-anchor="middle"><tspan x="800" dy="0">原始会话删除后，摘要、长期 Memory、向量索引、Artifact、评测集和备份到期都要处理。</tspan></text>
<text x="800" y="760" font-family="'Kaiti SC','STKaiti','Noto Sans SC',sans-serif" font-size="28" font-weight="700" fill="#c94c4c" text-anchor="middle"><tspan x="800" dy="0">Encryption 保护传输和存储；它不减少解密后进入模型的敏感内容。</tspan></text>

<text x="1525" y="860" font-family="'Kaiti SC','STKaiti',sans-serif" font-size="18" fill="#55708f" text-anchor="end">生产级多智能体系统 · 第 06 章</text>
</svg>