<svg xmlns="http://www.w3.org/2000/svg" width="1600" height="900" viewBox="0 0 1600 900" role="img">
<defs><marker id="arrow-1e3a5f" viewBox="0 0 10 10" refX="9" refY="5" markerWidth="8" markerHeight="8" orient="auto-start-reverse"><path d="M 0 0 L 10 5 L 0 10 z" fill="#1e3a5f"/></marker><marker id="arrow-d59621" viewBox="0 0 10 10" refX="9" refY="5" markerWidth="8" markerHeight="8" orient="auto-start-reverse"><path d="M 0 0 L 10 5 L 0 10 z" fill="#d59621"/></marker><marker id="arrow-3c8d77" viewBox="0 0 10 10" refX="9" refY="5" markerWidth="8" markerHeight="8" orient="auto-start-reverse"><path d="M 0 0 L 10 5 L 0 10 z" fill="#3c8d77"/></marker><marker id="arrow-c94c4c" viewBox="0 0 10 10" refX="9" refY="5" markerWidth="8" markerHeight="8" orient="auto-start-reverse"><path d="M 0 0 L 10 5 L 0 10 z" fill="#c94c4c"/></marker><marker id="arrow-7651a6" viewBox="0 0 10 10" refX="9" refY="5" markerWidth="8" markerHeight="8" orient="auto-start-reverse"><path d="M 0 0 L 10 5 L 0 10 z" fill="#7651a6"/></marker><marker id="arrow-55708f" viewBox="0 0 10 10" refX="9" refY="5" markerWidth="8" markerHeight="8" orient="auto-start-reverse"><path d="M 0 0 L 10 5 L 0 10 z" fill="#55708f"/></marker></defs>
<rect width="1600" height="900" fill="#fbf7ec"/>
<path d="M 20 180 C 420 171, 920 190, 1580 177 M 30 718 C 530 727, 980 707, 1570 721" stroke="#e7dfce" stroke-width="2" fill="none" opacity=".52"/>

<text x="70" y="76" font-family="'Kaiti SC','STKaiti','Noto Sans SC',sans-serif" font-size="43" font-weight="760" fill="#1e3a5f" text-anchor="start"><tspan x="70" dy="0">红队验证是一条持续安全证据闭环</tspan></text><path d="M 70 94 C 265 87, 485 102, 710 93" fill="none" stroke="#d59621" stroke-width="7" stroke-linecap="round" opacity=".85"/><text x="72" y="128" font-family="'Kaiti SC','STKaiti','Noto Sans SC',sans-serif" font-size="23" font-weight="500" fill="#55708f" text-anchor="start"><tspan x="72" dy="0">从资产与不变量出发，执行可重复攻击，观察副作用、告警和恢复，再进入发布回归。</tspan></text>
<rect x="55" y="310" width="210" height="140" rx="22" fill="#dfeaf4" stroke="#1e3a5f" stroke-width="3"/><rect x="57" y="309" width="209" height="141" rx="23" fill="none" stroke="#1e3a5f" stroke-width="1.2" opacity=".32" transform="rotate(.18 160 380)"/>
<text x="160" y="360" font-family="'Kaiti SC','STKaiti','Noto Sans SC',sans-serif" font-size="28" font-weight="720" fill="#1e3a5f" text-anchor="middle"><tspan x="160" dy="0">Threat Record</tspan></text>
<text x="160" y="405" font-family="'Kaiti SC','STKaiti','Noto Sans SC',sans-serif" font-size="18" font-weight="500" fill="#1e3a5f" text-anchor="middle"><tspan x="160" dy="0">资产 · 边界 · 不变量</tspan></text>
<rect x="315" y="310" width="210" height="140" rx="22" fill="#f7dddd" stroke="#c94c4c" stroke-width="3"/><rect x="317" y="309" width="209" height="141" rx="23" fill="none" stroke="#c94c4c" stroke-width="1.2" opacity=".32" transform="rotate(.18 420 380)"/>
<text x="420" y="360" font-family="'Kaiti SC','STKaiti','Noto Sans SC',sans-serif" font-size="28" font-weight="720" fill="#c94c4c" text-anchor="middle"><tspan x="420" dy="0">Attack Case</tspan></text>
<text x="420" y="405" font-family="'Kaiti SC','STKaiti','Noto Sans SC',sans-serif" font-size="18" font-weight="500" fill="#1e3a5f" text-anchor="middle"><tspan x="420" dy="0">入口 · Payload · 禁用目标</tspan></text>
<rect x="575" y="310" width="210" height="140" rx="22" fill="#f7e7b8" stroke="#d59621" stroke-width="3"/><rect x="577" y="309" width="209" height="141" rx="23" fill="none" stroke="#d59621" stroke-width="1.2" opacity=".32" transform="rotate(.18 680 380)"/>
<text x="680" y="360" font-family="'Kaiti SC','STKaiti','Noto Sans SC',sans-serif" font-size="28" font-weight="720" fill="#d59621" text-anchor="middle"><tspan x="680" dy="0">Controlled Run</tspan></text>
<text x="680" y="405" font-family="'Kaiti SC','STKaiti','Noto Sans SC',sans-serif" font-size="18" font-weight="500" fill="#1e3a5f" text-anchor="middle"><tspan x="680" dy="0">隔离身份 · 多次重复</tspan></text>
<rect x="835" y="310" width="210" height="140" rx="22" fill="#e9e0f4" stroke="#7651a6" stroke-width="3"/><rect x="837" y="309" width="209" height="141" rx="23" fill="none" stroke="#7651a6" stroke-width="1.2" opacity=".32" transform="rotate(.18 940 380)"/>
<text x="940" y="360" font-family="'Kaiti SC','STKaiti','Noto Sans SC',sans-serif" font-size="28" font-weight="720" fill="#7651a6" text-anchor="middle"><tspan x="940" dy="0">Observe</tspan></text>
<text x="940" y="405" font-family="'Kaiti SC','STKaiti','Noto Sans SC',sans-serif" font-size="18" font-weight="500" fill="#1e3a5f" text-anchor="middle"><tspan x="940" dy="0">副作用 · Audit · Alert</tspan></text>
<rect x="1095" y="310" width="210" height="140" rx="22" fill="#dcefe7" stroke="#3c8d77" stroke-width="3"/><rect x="1097" y="309" width="209" height="141" rx="23" fill="none" stroke="#3c8d77" stroke-width="1.2" opacity=".32" transform="rotate(.18 1200 380)"/>
<text x="1200" y="360" font-family="'Kaiti SC','STKaiti','Noto Sans SC',sans-serif" font-size="28" font-weight="720" fill="#3c8d77" text-anchor="middle"><tspan x="1200" dy="0">Evaluate</tspan></text>
<text x="1200" y="405" font-family="'Kaiti SC','STKaiti','Noto Sans SC',sans-serif" font-size="18" font-weight="500" fill="#1e3a5f" text-anchor="middle"><tspan x="1200" dy="0">ASR · STC · False Block</tspan></text>
<rect x="1355" y="310" width="190" height="140" rx="22" fill="#fffdf7" stroke="#1e3a5f" stroke-width="3"/><rect x="1357" y="309" width="189" height="141" rx="23" fill="none" stroke="#1e3a5f" stroke-width="1.2" opacity=".32" transform="rotate(.18 1450 380)"/>
<text x="1450" y="360" font-family="'Kaiti SC','STKaiti','Noto Sans SC',sans-serif" font-size="28" font-weight="720" fill="#1e3a5f" text-anchor="middle"><tspan x="1450" dy="0">Accept</tspan></text>
<text x="1450" y="405" font-family="'Kaiti SC','STKaiti','Noto Sans SC',sans-serif" font-size="18" font-weight="500" fill="#1e3a5f" text-anchor="middle"><tspan x="1450" dy="0">版本 · 范围 · 风险</tspan></text>
<path d="M 265 380 C 281.6666666666667 378, 298.3333333333333 382, 315 380" fill="none" stroke="#1e3a5f" stroke-width="4" stroke-linecap="round" marker-end="url(#arrow-1e3a5f)"/>
<path d="M 525 380 C 541.6666666666666 378, 558.3333333333334 382, 575 380" fill="none" stroke="#c94c4c" stroke-width="4" stroke-linecap="round" marker-end="url(#arrow-c94c4c)"/>
<path d="M 785 380 C 801.6666666666666 378, 818.3333333333334 382, 835 380" fill="none" stroke="#d59621" stroke-width="4" stroke-linecap="round" marker-end="url(#arrow-d59621)"/>
<path d="M 1045 380 C 1061.6666666666667 378, 1078.3333333333333 382, 1095 380" fill="none" stroke="#7651a6" stroke-width="4" stroke-linecap="round" marker-end="url(#arrow-7651a6)"/>
<path d="M 1305 380 C 1321.6666666666667 378, 1338.3333333333333 382, 1355 380" fill="none" stroke="#3c8d77" stroke-width="4" stroke-linecap="round" marker-end="url(#arrow-3c8d77)"/>
<path d="M 1450 450 C 1020 448, 590 612, 160 610" fill="none" stroke="#1e3a5f" stroke-width="4" stroke-linecap="round" stroke-dasharray="12 9" marker-end="url(#arrow-1e3a5f)"/>
<rect x="280" y="570" width="1040" height="105" rx="40" fill="#fffdf7" stroke="#1e3a5f" stroke-width="3" stroke-dasharray="12 9"/><rect x="282" y="569" width="1039" height="106" rx="41" fill="none" stroke="#1e3a5f" stroke-width="1.2" opacity=".32" transform="rotate(.18 800 622.5)"/>
<text x="800" y="615" font-family="'Kaiti SC','STKaiti','Noto Sans SC',sans-serif" font-size="24" font-weight="700" fill="#1e3a5f" text-anchor="middle"><tspan x="800" dy="0">Control / Policy / Dataset / Model / Tool Registry 版本变化</tspan></text>
<text x="800" y="650" font-family="'Kaiti SC','STKaiti','Noto Sans SC',sans-serif" font-size="22" font-weight="500" fill="#55708f" text-anchor="middle"><tspan x="800" dy="0">修复发现 → 加入回归集 → 重新执行 → 保存证据</tspan></text>
<text x="800" y="760" font-family="'Kaiti SC','STKaiti','Noto Sans SC',sans-serif" font-size="28" font-weight="700" fill="#c94c4c" text-anchor="middle"><tspan x="800" dy="0">测试集 ASR = 0 只证明当前版本和当前样本；未知攻击风险仍然存在。</tspan></text>

<text x="1525" y="860" font-family="'Kaiti SC','STKaiti',sans-serif" font-size="18" fill="#55708f" text-anchor="end">生产级多智能体系统 · 第 06 章</text>
</svg>