<svg xmlns="http://www.w3.org/2000/svg" width="1600" height="900" viewBox="0 0 1600 900" role="img">
<defs><marker id="arrow-1e3a5f" viewBox="0 0 10 10" refX="9" refY="5" markerWidth="8" markerHeight="8" orient="auto-start-reverse"><path d="M 0 0 L 10 5 L 0 10 z" fill="#1e3a5f"/></marker><marker id="arrow-d59621" viewBox="0 0 10 10" refX="9" refY="5" markerWidth="8" markerHeight="8" orient="auto-start-reverse"><path d="M 0 0 L 10 5 L 0 10 z" fill="#d59621"/></marker><marker id="arrow-3c8d77" viewBox="0 0 10 10" refX="9" refY="5" markerWidth="8" markerHeight="8" orient="auto-start-reverse"><path d="M 0 0 L 10 5 L 0 10 z" fill="#3c8d77"/></marker><marker id="arrow-c94c4c" viewBox="0 0 10 10" refX="9" refY="5" markerWidth="8" markerHeight="8" orient="auto-start-reverse"><path d="M 0 0 L 10 5 L 0 10 z" fill="#c94c4c"/></marker><marker id="arrow-7651a6" viewBox="0 0 10 10" refX="9" refY="5" markerWidth="8" markerHeight="8" orient="auto-start-reverse"><path d="M 0 0 L 10 5 L 0 10 z" fill="#7651a6"/></marker><marker id="arrow-55708f" viewBox="0 0 10 10" refX="9" refY="5" markerWidth="8" markerHeight="8" orient="auto-start-reverse"><path d="M 0 0 L 10 5 L 0 10 z" fill="#55708f"/></marker></defs>
<rect width="1600" height="900" fill="#fbf7ec"/>
<path d="M 20 180 C 420 171, 920 190, 1580 177 M 30 718 C 530 727, 980 707, 1570 721" stroke="#e7dfce" stroke-width="2" fill="none" opacity=".52"/>

<text x="70" y="76" font-family="'Kaiti SC','STKaiti','Noto Sans SC',sans-serif" font-size="43" font-weight="760" fill="#1e3a5f" text-anchor="start"><tspan x="70" dy="0">Tool Guard：授权是交集，不是角色查表</tspan></text><path d="M 70 94 C 265 87, 485 102, 710 93" fill="none" stroke="#d59621" stroke-width="7" stroke-linecap="round" opacity=".85"/><text x="72" y="128" font-family="'Kaiti SC','STKaiti','Noto Sans SC',sans-serif" font-size="23" font-weight="500" fill="#55708f" text-anchor="start"><tspan x="72" dy="0">用户、Agent、委托、任务、工具、资源、环境和审批必须同时允许。</tspan></text>
<rect x="60" y="210" width="480" height="520" rx="22" fill="#fffdf7" stroke="#1e3a5f" stroke-width="3"/><rect x="62" y="209" width="479" height="521" rx="23" fill="none" stroke="#1e3a5f" stroke-width="1.2" opacity=".32" transform="rotate(.18 300 470)"/>
<text x="300" y="265" font-family="'Kaiti SC','STKaiti','Noto Sans SC',sans-serif" font-size="31" font-weight="760" fill="#1e3a5f" text-anchor="middle"><tspan x="300" dy="0">有效权限输入</tspan></text>
<rect x="105" y="310" width="170" height="52" rx="26" fill="#dfeaf4" stroke="#1e3a5f" stroke-width="2.4"/><rect x="107" y="309" width="169" height="53" rx="27" fill="none" stroke="#1e3a5f" stroke-width="1.2" opacity=".32" transform="rotate(.18 190 336)"/><text x="190" y="344" font-family="'Kaiti SC','STKaiti','Noto Sans SC',sans-serif" font-size="22" font-weight="700" fill="#1e3a5f" text-anchor="middle"><tspan x="190" dy="0">User</tspan></text>
<rect x="325" y="310" width="170" height="52" rx="26" fill="#e9e0f4" stroke="#7651a6" stroke-width="2.4"/><rect x="327" y="309" width="169" height="53" rx="27" fill="none" stroke="#7651a6" stroke-width="1.2" opacity=".32" transform="rotate(.18 410 336)"/><text x="410" y="344" font-family="'Kaiti SC','STKaiti','Noto Sans SC',sans-serif" font-size="22" font-weight="700" fill="#7651a6" text-anchor="middle"><tspan x="410" dy="0">Workload</tspan></text>
<rect x="105" y="390" width="170" height="52" rx="26" fill="#f7e7b8" stroke="#d59621" stroke-width="2.4"/><rect x="107" y="389" width="169" height="53" rx="27" fill="none" stroke="#d59621" stroke-width="1.2" opacity=".32" transform="rotate(.18 190 416)"/><text x="190" y="424" font-family="'Kaiti SC','STKaiti','Noto Sans SC',sans-serif" font-size="22" font-weight="700" fill="#d59621" text-anchor="middle"><tspan x="190" dy="0">Delegation</tspan></text>
<rect x="325" y="390" width="170" height="52" rx="26" fill="#dcefe7" stroke="#3c8d77" stroke-width="2.4"/><rect x="327" y="389" width="169" height="53" rx="27" fill="none" stroke="#3c8d77" stroke-width="1.2" opacity=".32" transform="rotate(.18 410 416)"/><text x="410" y="424" font-family="'Kaiti SC','STKaiti','Noto Sans SC',sans-serif" font-size="22" font-weight="700" fill="#3c8d77" text-anchor="middle"><tspan x="410" dy="0">Task Scope</tspan></text>
<rect x="105" y="470" width="170" height="52" rx="26" fill="#f7dddd" stroke="#c94c4c" stroke-width="2.4"/><rect x="107" y="469" width="169" height="53" rx="27" fill="none" stroke="#c94c4c" stroke-width="1.2" opacity=".32" transform="rotate(.18 190 496)"/><text x="190" y="504" font-family="'Kaiti SC','STKaiti','Noto Sans SC',sans-serif" font-size="22" font-weight="700" fill="#c94c4c" text-anchor="middle"><tspan x="190" dy="0">Tool Policy</tspan></text>
<rect x="325" y="470" width="170" height="52" rx="26" fill="#dfeaf4" stroke="#1e3a5f" stroke-width="2.4"/><rect x="327" y="469" width="169" height="53" rx="27" fill="none" stroke="#1e3a5f" stroke-width="1.2" opacity=".32" transform="rotate(.18 410 496)"/><text x="410" y="504" font-family="'Kaiti SC','STKaiti','Noto Sans SC',sans-serif" font-size="22" font-weight="700" fill="#1e3a5f" text-anchor="middle"><tspan x="410" dy="0">Resource ACL</tspan></text>
<rect x="105" y="550" width="170" height="52" rx="26" fill="#e9e0f4" stroke="#7651a6" stroke-width="2.4"/><rect x="107" y="549" width="169" height="53" rx="27" fill="none" stroke="#7651a6" stroke-width="1.2" opacity=".32" transform="rotate(.18 190 576)"/><text x="190" y="584" font-family="'Kaiti SC','STKaiti','Noto Sans SC',sans-serif" font-size="22" font-weight="700" fill="#7651a6" text-anchor="middle"><tspan x="190" dy="0">Runtime</tspan></text>
<rect x="325" y="550" width="170" height="52" rx="26" fill="#f7e7b8" stroke="#d59621" stroke-width="2.4"/><rect x="327" y="549" width="169" height="53" rx="27" fill="none" stroke="#d59621" stroke-width="1.2" opacity=".32" transform="rotate(.18 410 576)"/><text x="410" y="584" font-family="'Kaiti SC','STKaiti','Noto Sans SC',sans-serif" font-size="22" font-weight="700" fill="#d59621" text-anchor="middle"><tspan x="410" dy="0">Approval</tspan></text>
<text x="300" y="660" font-family="'Kaiti SC','STKaiti','Noto Sans SC',sans-serif" font-size="25" font-weight="700" fill="#c94c4c" text-anchor="middle"><tspan x="300" dy="0">任一条件为空 → DENY</tspan></text>
<path d="M 540 470 C 590 468, 640 472, 690 470" fill="none" stroke="#1e3a5f" stroke-width="4" stroke-linecap="round" marker-end="url(#arrow-1e3a5f)"/>
<rect x="690" y="305" width="250" height="330" rx="22" fill="#f7e7b8" stroke="#d59621" stroke-width="4"/><rect x="692" y="304" width="249" height="331" rx="23" fill="none" stroke="#d59621" stroke-width="1.2" opacity=".32" transform="rotate(.18 815 470)"/>
<text x="815" y="365" font-family="'Kaiti SC','STKaiti','Noto Sans SC',sans-serif" font-size="31" font-weight="760" fill="#d59621" text-anchor="middle"><tspan x="815" dy="0">Policy Decision</tspan></text>
<text x="815" y="435" font-family="'Kaiti SC','STKaiti','Noto Sans SC',sans-serif" font-size="23" font-weight="500" fill="#1e3a5f" text-anchor="middle"><tspan x="815" dy="0">Schema</tspan><tspan x="815" dy="35.65">Risk / Budget</tspan><tspan x="815" dy="35.65">Kill State</tspan><tspan x="815" dy="35.65">Reason Codes</tspan></text>
<rect x="730" y="555" width="170" height="52" rx="26" fill="#fffdf7" stroke="#c94c4c" stroke-width="2.4"/><rect x="732" y="554" width="169" height="53" rx="27" fill="none" stroke="#c94c4c" stroke-width="1.2" opacity=".32" transform="rotate(.18 815 581)"/><text x="815" y="589" font-family="'Kaiti SC','STKaiti','Noto Sans SC',sans-serif" font-size="21" font-weight="700" fill="#c94c4c" text-anchor="middle"><tspan x="815" dy="0">ALLOW / DENY</tspan></text>
<path d="M 940 470 C 986.6666666666666 468, 1033.3333333333333 472, 1080 470" fill="none" stroke="#d59621" stroke-width="4" stroke-linecap="round" marker-end="url(#arrow-d59621)"/>
<rect x="1080" y="250" width="460" height="440" rx="22" fill="#dcefe7" stroke="#3c8d77" stroke-width="3"/><rect x="1082" y="249" width="459" height="441" rx="23" fill="none" stroke="#3c8d77" stroke-width="1.2" opacity=".32" transform="rotate(.18 1310 470)"/>
<text x="1310" y="315" font-family="'Kaiti SC','STKaiti','Noto Sans SC',sans-serif" font-size="31" font-weight="760" fill="#3c8d77" text-anchor="middle"><tspan x="1310" dy="0">受控执行</tspan></text>
<text x="1160" y="385" font-family="'Kaiti SC','STKaiti','Noto Sans SC',sans-serif" font-size="23" font-weight="500" fill="#1e3a5f" text-anchor="start"><tspan x="1160" dy="0">短期受众绑定凭证</tspan><tspan x="1160" dy="35.65">Idempotency Key</tspan><tspan x="1160" dy="35.65">Expected Version</tspan><tspan x="1160" dy="35.65">专用 Executor / Sandbox</tspan><tspan x="1160" dy="35.65">结果最小化</tspan><tspan x="1160" dy="35.65">追加式 Audit</tspan></text>
<text x="800" y="790" font-family="'Kaiti SC','STKaiti','Noto Sans SC',sans-serif" font-size="28" font-weight="700" fill="#c94c4c" text-anchor="middle"><tspan x="800" dy="0">Tool Description 帮模型选择；可信 Registry、Policy 和 Executor 决定能否执行。</tspan></text>

<text x="1525" y="860" font-family="'Kaiti SC','STKaiti',sans-serif" font-size="18" fill="#55708f" text-anchor="end">生产级多智能体系统 · 第 06 章</text>
</svg>