<svg xmlns="http://www.w3.org/2000/svg" width="1600" height="900" viewBox="0 0 1600 900" role="img">
<defs><marker id="arrow-1e3a5f" viewBox="0 0 10 10" refX="9" refY="5" markerWidth="8" markerHeight="8" orient="auto-start-reverse"><path d="M 0 0 L 10 5 L 0 10 z" fill="#1e3a5f"/></marker><marker id="arrow-d59621" viewBox="0 0 10 10" refX="9" refY="5" markerWidth="8" markerHeight="8" orient="auto-start-reverse"><path d="M 0 0 L 10 5 L 0 10 z" fill="#d59621"/></marker><marker id="arrow-3c8d77" viewBox="0 0 10 10" refX="9" refY="5" markerWidth="8" markerHeight="8" orient="auto-start-reverse"><path d="M 0 0 L 10 5 L 0 10 z" fill="#3c8d77"/></marker><marker id="arrow-c94c4c" viewBox="0 0 10 10" refX="9" refY="5" markerWidth="8" markerHeight="8" orient="auto-start-reverse"><path d="M 0 0 L 10 5 L 0 10 z" fill="#c94c4c"/></marker><marker id="arrow-7651a6" viewBox="0 0 10 10" refX="9" refY="5" markerWidth="8" markerHeight="8" orient="auto-start-reverse"><path d="M 0 0 L 10 5 L 0 10 z" fill="#7651a6"/></marker><marker id="arrow-55708f" viewBox="0 0 10 10" refX="9" refY="5" markerWidth="8" markerHeight="8" orient="auto-start-reverse"><path d="M 0 0 L 10 5 L 0 10 z" fill="#55708f"/></marker></defs>
<rect width="1600" height="900" fill="#fbf7ec"/>
<path d="M 20 180 C 420 171, 920 190, 1580 177 M 30 718 C 530 727, 980 707, 1570 721" stroke="#e7dfce" stroke-width="2" fill="none" opacity=".52"/>

<text x="70" y="76" font-family="'Kaiti SC','STKaiti','Noto Sans SC',sans-serif" font-size="43" font-weight="760" fill="#1e3a5f" text-anchor="start"><tspan x="70" dy="0">A2A 与 MCP：两个协议，两类边界</tspan></text><path d="M 70 94 C 265 87, 485 102, 710 93" fill="none" stroke="#d59621" stroke-width="7" stroke-linecap="round" opacity=".85"/><text x="72" y="128" font-family="'Kaiti SC','STKaiti','Noto Sans SC',sans-serif" font-size="23" font-weight="500" fill="#55708f" text-anchor="start"><tspan x="72" dy="0">A2A 连接独立 Agent 系统；MCP 连接 AI Host 与工具、资源和确定性能力。</tspan></text>
<rect x="60" y="220" width="660" height="520" rx="22" fill="#dfeaf4" stroke="#1e3a5f" stroke-width="3"/><rect x="62" y="219" width="659" height="521" rx="23" fill="none" stroke="#1e3a5f" stroke-width="1.2" opacity=".3" transform="rotate(.18 390 480)"/>
<text x="390" y="272" font-family="'Kaiti SC','STKaiti','Noto Sans SC',sans-serif" font-size="30" font-weight="760" fill="#1e3a5f" text-anchor="middle"><tspan x="390" dy="0">A2A · Agent System ↔ Agent System</tspan></text>
<rect x="105" y="335" width="225" height="150" rx="22" fill="#fffdf7" stroke="#1e3a5f" stroke-width="3"/><rect x="107" y="334" width="224" height="151" rx="23" fill="none" stroke="#1e3a5f" stroke-width="1.2" opacity=".3" transform="rotate(.18 217.5 410)"/>
<text x="217" y="385" font-family="'Kaiti SC','STKaiti','Noto Sans SC',sans-serif" font-size="28" font-weight="720" fill="#1e3a5f" text-anchor="middle"><tspan x="217" dy="0">Central</tspan></text>
<text x="217" y="425" font-family="'Kaiti SC','STKaiti','Noto Sans SC',sans-serif" font-size="25" font-weight="500" fill="#1e3a5f" text-anchor="middle"><tspan x="217" dy="0">Supervisor</tspan></text>
<rect x="450" y="335" width="225" height="150" rx="22" fill="#f7e7b8" stroke="#d59621" stroke-width="3"/><rect x="452" y="334" width="224" height="151" rx="23" fill="none" stroke="#d59621" stroke-width="1.2" opacity=".3" transform="rotate(.18 562.5 410)"/>
<text x="562" y="385" font-family="'Kaiti SC','STKaiti','Noto Sans SC',sans-serif" font-size="28" font-weight="720" fill="#d59621" text-anchor="middle"><tspan x="562" dy="0">Claims</tspan></text>
<text x="562" y="425" font-family="'Kaiti SC','STKaiti','Noto Sans SC',sans-serif" font-size="25" font-weight="500" fill="#1e3a5f" text-anchor="middle"><tspan x="562" dy="0">Agent System</tspan></text>
<path d="M 330 410 C 370 408, 410 412, 450 410" fill="none" stroke="#1e3a5f" stroke-width="4" stroke-linecap="round" marker-end="url(#arrow-1e3a5f)"/>
<text x="390" y="380" font-family="'Kaiti SC','STKaiti','Noto Sans SC',sans-serif" font-size="18" font-weight="500" fill="#1e3a5f" text-anchor="middle"><tspan x="390" dy="0">Task · Message</tspan></text>
<text x="390" y="454" font-family="'Kaiti SC','STKaiti','Noto Sans SC',sans-serif" font-size="18" font-weight="500" fill="#1e3a5f" text-anchor="middle"><tspan x="390" dy="0">Artifact · Status</tspan></text>
<rect x="125" y="545" width="170" height="50" rx="25" fill="#fffdf7" stroke="#1e3a5f" stroke-width="2.4"/><rect x="127" y="544" width="169" height="51" rx="26" fill="none" stroke="#1e3a5f" stroke-width="1.2" opacity=".3" transform="rotate(.18 210 570)"/><text x="210" y="578" font-family="'Kaiti SC','STKaiti','Noto Sans SC',sans-serif" font-size="20" font-weight="700" fill="#1e3a5f" text-anchor="middle"><tspan x="210" dy="0">AgentCard</tspan></text>
<rect x="305" y="545" width="170" height="50" rx="25" fill="#e9e0f4" stroke="#7651a6" stroke-width="2.4"/><rect x="307" y="544" width="169" height="51" rx="26" fill="none" stroke="#7651a6" stroke-width="1.2" opacity=".3" transform="rotate(.18 390 570)"/><text x="390" y="578" font-family="'Kaiti SC','STKaiti','Noto Sans SC',sans-serif" font-size="20" font-weight="700" fill="#7651a6" text-anchor="middle"><tspan x="390" dy="0">Skill</tspan></text>
<rect x="485" y="545" width="170" height="50" rx="25" fill="#fffdf7" stroke="#d59621" stroke-width="2.4"/><rect x="487" y="544" width="169" height="51" rx="26" fill="none" stroke="#d59621" stroke-width="1.2" opacity=".3" transform="rotate(.18 570 570)"/><text x="570" y="578" font-family="'Kaiti SC','STKaiti','Noto Sans SC',sans-serif" font-size="20" font-weight="700" fill="#d59621" text-anchor="middle"><tspan x="570" dy="0">Task</tspan></text>
<text x="390" y="655" font-family="'Kaiti SC','STKaiti','Noto Sans SC',sans-serif" font-size="23" font-weight="650" fill="#55708f" text-anchor="middle"><tspan x="390" dy="0">不共享远端内部 Memory、Tool 与实现</tspan></text>
<rect x="880" y="220" width="660" height="520" rx="22" fill="#dcefe7" stroke="#3c8d77" stroke-width="3"/><rect x="882" y="219" width="659" height="521" rx="23" fill="none" stroke="#3c8d77" stroke-width="1.2" opacity=".3" transform="rotate(.18 1210 480)"/>
<text x="1210" y="272" font-family="'Kaiti SC','STKaiti','Noto Sans SC',sans-serif" font-size="30" font-weight="760" fill="#3c8d77" text-anchor="middle"><tspan x="1210" dy="0">MCP · Host / Client ↔ Server</tspan></text>
<rect x="925" y="335" width="225" height="150" rx="22" fill="#fffdf7" stroke="#3c8d77" stroke-width="3"/><rect x="927" y="334" width="224" height="151" rx="23" fill="none" stroke="#3c8d77" stroke-width="1.2" opacity=".3" transform="rotate(.18 1037.5 410)"/>
<text x="1037" y="385" font-family="'Kaiti SC','STKaiti','Noto Sans SC',sans-serif" font-size="28" font-weight="720" fill="#1e3a5f" text-anchor="middle"><tspan x="1037" dy="0">Worker</tspan></text>
<text x="1037" y="425" font-family="'Kaiti SC','STKaiti','Noto Sans SC',sans-serif" font-size="25" font-weight="500" fill="#1e3a5f" text-anchor="middle"><tspan x="1037" dy="0">MCP Client</tspan></text>
<rect x="1270" y="335" width="225" height="150" rx="22" fill="#e9e0f4" stroke="#7651a6" stroke-width="3"/><rect x="1272" y="334" width="224" height="151" rx="23" fill="none" stroke="#7651a6" stroke-width="1.2" opacity=".3" transform="rotate(.18 1382.5 410)"/>
<text x="1382" y="385" font-family="'Kaiti SC','STKaiti','Noto Sans SC',sans-serif" font-size="28" font-weight="720" fill="#7651a6" text-anchor="middle"><tspan x="1382" dy="0">Claims</tspan></text>
<text x="1382" y="425" font-family="'Kaiti SC','STKaiti','Noto Sans SC',sans-serif" font-size="25" font-weight="500" fill="#1e3a5f" text-anchor="middle"><tspan x="1382" dy="0">MCP Server</tspan></text>
<path d="M 1150 410 C 1190 408, 1230 412, 1270 410" fill="none" stroke="#3c8d77" stroke-width="4" stroke-linecap="round" marker-end="url(#arrow-3c8d77)"/>
<text x="1210" y="380" font-family="'Kaiti SC','STKaiti','Noto Sans SC',sans-serif" font-size="18" font-weight="500" fill="#1e3a5f" text-anchor="middle"><tspan x="1210" dy="0">tools/list</tspan></text>
<text x="1210" y="454" font-family="'Kaiti SC','STKaiti','Noto Sans SC',sans-serif" font-size="18" font-weight="500" fill="#1e3a5f" text-anchor="middle"><tspan x="1210" dy="0">tools/call</tspan></text>
<rect x="945" y="545" width="170" height="50" rx="25" fill="#fffdf7" stroke="#3c8d77" stroke-width="2.4"/><rect x="947" y="544" width="169" height="51" rx="26" fill="none" stroke="#3c8d77" stroke-width="1.2" opacity=".3" transform="rotate(.18 1030 570)"/><text x="1030" y="578" font-family="'Kaiti SC','STKaiti','Noto Sans SC',sans-serif" font-size="20" font-weight="700" fill="#3c8d77" text-anchor="middle"><tspan x="1030" dy="0">Tools</tspan></text>
<rect x="1125" y="545" width="170" height="50" rx="25" fill="#dfeaf4" stroke="#1e3a5f" stroke-width="2.4"/><rect x="1127" y="544" width="169" height="51" rx="26" fill="none" stroke="#1e3a5f" stroke-width="1.2" opacity=".3" transform="rotate(.18 1210 570)"/><text x="1210" y="578" font-family="'Kaiti SC','STKaiti','Noto Sans SC',sans-serif" font-size="20" font-weight="700" fill="#1e3a5f" text-anchor="middle"><tspan x="1210" dy="0">Resources</tspan></text>
<rect x="1305" y="545" width="170" height="50" rx="25" fill="#fffdf7" stroke="#7651a6" stroke-width="2.4"/><rect x="1307" y="544" width="169" height="51" rx="26" fill="none" stroke="#7651a6" stroke-width="1.2" opacity=".3" transform="rotate(.18 1390 570)"/><text x="1390" y="578" font-family="'Kaiti SC','STKaiti','Noto Sans SC',sans-serif" font-size="20" font-weight="700" fill="#7651a6" text-anchor="middle"><tspan x="1390" dy="0">Prompts</tspan></text>
<text x="1210" y="655" font-family="'Kaiti SC','STKaiti','Noto Sans SC',sans-serif" font-size="23" font-weight="650" fill="#55708f" text-anchor="middle"><tspan x="1210" dy="0">工具可发现，不代表当前请求已授权</tspan></text>
<text x="800" y="800" font-family="'Kaiti SC','STKaiti','Noto Sans SC',sans-serif" font-size="27" font-weight="700" fill="#c94c4c" text-anchor="middle"><tspan x="800" dy="0">常见组合：Agent 系统之间使用 A2A；每个 Agent 系统内部使用 MCP 访问工具与数据。</tspan></text>

<text x="1525" y="860" font-family="'Kaiti SC','STKaiti',sans-serif" font-size="18" fill="#55708f" text-anchor="end">生产级多智能体系统 · 第 07 章</text>
</svg>