<svg xmlns="http://www.w3.org/2000/svg" width="1600" height="900" viewBox="0 0 1600 900" role="img">
<defs><marker id="arrow-1e3a5f" viewBox="0 0 10 10" refX="9" refY="5" markerWidth="8" markerHeight="8" orient="auto-start-reverse"><path d="M 0 0 L 10 5 L 0 10 z" fill="#1e3a5f"/></marker><marker id="arrow-d59621" viewBox="0 0 10 10" refX="9" refY="5" markerWidth="8" markerHeight="8" orient="auto-start-reverse"><path d="M 0 0 L 10 5 L 0 10 z" fill="#d59621"/></marker><marker id="arrow-3c8d77" viewBox="0 0 10 10" refX="9" refY="5" markerWidth="8" markerHeight="8" orient="auto-start-reverse"><path d="M 0 0 L 10 5 L 0 10 z" fill="#3c8d77"/></marker><marker id="arrow-c94c4c" viewBox="0 0 10 10" refX="9" refY="5" markerWidth="8" markerHeight="8" orient="auto-start-reverse"><path d="M 0 0 L 10 5 L 0 10 z" fill="#c94c4c"/></marker><marker id="arrow-7651a6" viewBox="0 0 10 10" refX="9" refY="5" markerWidth="8" markerHeight="8" orient="auto-start-reverse"><path d="M 0 0 L 10 5 L 0 10 z" fill="#7651a6"/></marker><marker id="arrow-55708f" viewBox="0 0 10 10" refX="9" refY="5" markerWidth="8" markerHeight="8" orient="auto-start-reverse"><path d="M 0 0 L 10 5 L 0 10 z" fill="#55708f"/></marker></defs>
<rect width="1600" height="900" fill="#fbf7ec"/>
<path d="M 20 180 C 420 171, 920 190, 1580 177 M 30 718 C 530 727, 980 707, 1570 721" stroke="#e7dfce" stroke-width="2" fill="none" opacity=".52"/>

<text x="70" y="76" font-family="'Kaiti SC','STKaiti','Noto Sans SC',sans-serif" font-size="43" font-weight="760" fill="#1e3a5f" text-anchor="start"><tspan x="70" dy="0">Context Graph：从目标到结论的运行时证据链</tspan></text><path d="M 70 94 C 265 87, 485 102, 710 93" fill="none" stroke="#d59621" stroke-width="7" stroke-linecap="round" opacity=".85"/><text x="72" y="128" font-family="'Kaiti SC','STKaiti','Noto Sans SC',sans-serif" font-size="23" font-weight="500" fill="#55708f" text-anchor="start"><tspan x="72" dy="0">它保存业务因果与引用；Checkpoint、Artifact、Trace 和 Knowledge 各自保持独立权威。</tspan></text>
<rect x="55" y="235" width="200" height="105" rx="22" fill="#f7dddd" stroke="#c94c4c" stroke-width="3"/><rect x="57" y="234" width="199" height="106" rx="23" fill="none" stroke="#c94c4c" stroke-width="1.2" opacity=".3" transform="rotate(.18 155 287.5)"/>
<text x="155" y="297" font-family="'Kaiti SC','STKaiti','Noto Sans SC',sans-serif" font-size="30" font-weight="760" fill="#c94c4c" text-anchor="middle"><tspan x="155" dy="0">Goal</tspan></text>
<rect x="325" y="235" width="200" height="105" rx="22" fill="#dfeaf4" stroke="#1e3a5f" stroke-width="3"/><rect x="327" y="234" width="199" height="106" rx="23" fill="none" stroke="#1e3a5f" stroke-width="1.2" opacity=".3" transform="rotate(.18 425 287.5)"/>
<text x="425" y="297" font-family="'Kaiti SC','STKaiti','Noto Sans SC',sans-serif" font-size="28" font-weight="760" fill="#1e3a5f" text-anchor="middle"><tspan x="425" dy="0">Plan / Step</tspan></text>
<rect x="595" y="235" width="200" height="105" rx="22" fill="#f7e7b8" stroke="#d59621" stroke-width="3"/><rect x="597" y="234" width="199" height="106" rx="23" fill="none" stroke="#d59621" stroke-width="1.2" opacity=".3" transform="rotate(.18 695 287.5)"/>
<text x="695" y="297" font-family="'Kaiti SC','STKaiti','Noto Sans SC',sans-serif" font-size="28" font-weight="760" fill="#d59621" text-anchor="middle"><tspan x="695" dy="0">Agent / Tool</tspan></text>
<rect x="865" y="235" width="200" height="105" rx="22" fill="#dcefe7" stroke="#3c8d77" stroke-width="3"/><rect x="867" y="234" width="199" height="106" rx="23" fill="none" stroke="#3c8d77" stroke-width="1.2" opacity=".3" transform="rotate(.18 965 287.5)"/>
<text x="965" y="297" font-family="'Kaiti SC','STKaiti','Noto Sans SC',sans-serif" font-size="30" font-weight="760" fill="#3c8d77" text-anchor="middle"><tspan x="965" dy="0">Artifact</tspan></text>
<rect x="1135" y="235" width="200" height="105" rx="22" fill="#e9e0f4" stroke="#7651a6" stroke-width="3"/><rect x="1137" y="234" width="199" height="106" rx="23" fill="none" stroke="#7651a6" stroke-width="1.2" opacity=".3" transform="rotate(.18 1235 287.5)"/>
<text x="1235" y="297" font-family="'Kaiti SC','STKaiti','Noto Sans SC',sans-serif" font-size="30" font-weight="760" fill="#7651a6" text-anchor="middle"><tspan x="1235" dy="0">Evidence</tspan></text>
<rect x="1405" y="235" width="150" height="105" rx="22" fill="#fffdf7" stroke="#c94c4c" stroke-width="3"/><rect x="1407" y="234" width="149" height="106" rx="23" fill="none" stroke="#c94c4c" stroke-width="1.2" opacity=".3" transform="rotate(.18 1480 287.5)"/>
<text x="1480" y="297" font-family="'Kaiti SC','STKaiti','Noto Sans SC',sans-serif" font-size="30" font-weight="760" fill="#c94c4c" text-anchor="middle"><tspan x="1480" dy="0">Claim</tspan></text>
<path d="M 255 287 C 278.3333333333333 285, 301.6666666666667 289, 325 287" fill="none" stroke="#c94c4c" stroke-width="4" stroke-linecap="round" marker-end="url(#arrow-c94c4c)"/>
<path d="M 525 287 C 548.3333333333334 285, 571.6666666666666 289, 595 287" fill="none" stroke="#1e3a5f" stroke-width="4" stroke-linecap="round" marker-end="url(#arrow-1e3a5f)"/>
<path d="M 795 287 C 818.3333333333334 285, 841.6666666666666 289, 865 287" fill="none" stroke="#d59621" stroke-width="4" stroke-linecap="round" marker-end="url(#arrow-d59621)"/>
<path d="M 1065 287 C 1088.3333333333333 285, 1111.6666666666667 289, 1135 287" fill="none" stroke="#3c8d77" stroke-width="4" stroke-linecap="round" marker-end="url(#arrow-3c8d77)"/>
<path d="M 1335 287 C 1358.3333333333333 285, 1381.6666666666667 289, 1405 287" fill="none" stroke="#7651a6" stroke-width="4" stroke-linecap="round" marker-end="url(#arrow-7651a6)"/>
<text x="290" y="257" font-family="'Kaiti SC','STKaiti','Noto Sans SC',sans-serif" font-size="15" font-weight="500" fill="#1e3a5f" text-anchor="middle"><tspan x="290" dy="0">DECOMPOSED</tspan></text>
<text x="560" y="257" font-family="'Kaiti SC','STKaiti','Noto Sans SC',sans-serif" font-size="15" font-weight="500" fill="#1e3a5f" text-anchor="middle"><tspan x="560" dy="0">ROUTED</tspan></text>
<text x="830" y="257" font-family="'Kaiti SC','STKaiti','Noto Sans SC',sans-serif" font-size="15" font-weight="500" fill="#1e3a5f" text-anchor="middle"><tspan x="830" dy="0">PRODUCED</tspan></text>
<text x="1100" y="257" font-family="'Kaiti SC','STKaiti','Noto Sans SC',sans-serif" font-size="15" font-weight="500" fill="#1e3a5f" text-anchor="middle"><tspan x="1100" dy="0">CONTAINS</tspan></text>
<text x="1370" y="257" font-family="'Kaiti SC','STKaiti','Noto Sans SC',sans-serif" font-size="15" font-weight="500" fill="#1e3a5f" text-anchor="middle"><tspan x="1370" dy="0">SUPPORTS</tspan></text>
<rect x="100" y="480" width="300" height="165" rx="22" fill="#fffdf7" stroke="#1e3a5f" stroke-width="3"/><rect x="102" y="479" width="299" height="166" rx="23" fill="none" stroke="#1e3a5f" stroke-width="1.2" opacity=".3" transform="rotate(.18 250 562.5)"/>
<text x="250" y="530" font-family="'Kaiti SC','STKaiti','Noto Sans SC',sans-serif" font-size="28" font-weight="720" fill="#1e3a5f" text-anchor="middle"><tspan x="250" dy="0">Checkpoint</tspan></text>
<text x="250" y="574" font-family="'Kaiti SC','STKaiti','Noto Sans SC',sans-serif" font-size="21" font-weight="500" fill="#1e3a5f" text-anchor="middle"><tspan x="250" dy="0">恢复执行状态</tspan></text>
<text x="250" y="612" font-family="'Kaiti SC','STKaiti','Noto Sans SC',sans-serif" font-size="18" font-weight="500" fill="#55708f" text-anchor="middle"><tspan x="250" dy="0">checkpoint_ref</tspan></text>
<rect x="470" y="480" width="300" height="165" rx="22" fill="#fffdf7" stroke="#3c8d77" stroke-width="3"/><rect x="472" y="479" width="299" height="166" rx="23" fill="none" stroke="#3c8d77" stroke-width="1.2" opacity=".3" transform="rotate(.18 620 562.5)"/>
<text x="620" y="530" font-family="'Kaiti SC','STKaiti','Noto Sans SC',sans-serif" font-size="28" font-weight="720" fill="#3c8d77" text-anchor="middle"><tspan x="620" dy="0">Artifact Store</tspan></text>
<text x="620" y="574" font-family="'Kaiti SC','STKaiti','Noto Sans SC',sans-serif" font-size="21" font-weight="500" fill="#1e3a5f" text-anchor="middle"><tspan x="620" dy="0">保存原始大对象</tspan></text>
<text x="620" y="612" font-family="'Kaiti SC','STKaiti','Noto Sans SC',sans-serif" font-size="18" font-weight="500" fill="#55708f" text-anchor="middle"><tspan x="620" dy="0">artifact_ref + hash</tspan></text>
<rect x="840" y="480" width="300" height="165" rx="22" fill="#fffdf7" stroke="#7651a6" stroke-width="3"/><rect x="842" y="479" width="299" height="166" rx="23" fill="none" stroke="#7651a6" stroke-width="1.2" opacity=".3" transform="rotate(.18 990 562.5)"/>
<text x="990" y="530" font-family="'Kaiti SC','STKaiti','Noto Sans SC',sans-serif" font-size="28" font-weight="720" fill="#7651a6" text-anchor="middle"><tspan x="990" dy="0">OpenTelemetry</tspan></text>
<text x="990" y="574" font-family="'Kaiti SC','STKaiti','Noto Sans SC',sans-serif" font-size="21" font-weight="500" fill="#1e3a5f" text-anchor="middle"><tspan x="990" dy="0">运行路径与时延</tspan></text>
<text x="990" y="612" font-family="'Kaiti SC','STKaiti','Noto Sans SC',sans-serif" font-size="18" font-weight="500" fill="#55708f" text-anchor="middle"><tspan x="990" dy="0">trace_ref + span_ref</tspan></text>
<rect x="1210" y="480" width="300" height="165" rx="22" fill="#fffdf7" stroke="#d59621" stroke-width="3"/><rect x="1212" y="479" width="299" height="166" rx="23" fill="none" stroke="#d59621" stroke-width="1.2" opacity=".3" transform="rotate(.18 1360 562.5)"/>
<text x="1360" y="530" font-family="'Kaiti SC','STKaiti','Noto Sans SC',sans-serif" font-size="28" font-weight="720" fill="#d59621" text-anchor="middle"><tspan x="1360" dy="0">Knowledge Graph</tspan></text>
<text x="1360" y="574" font-family="'Kaiti SC','STKaiti','Noto Sans SC',sans-serif" font-size="21" font-weight="500" fill="#1e3a5f" text-anchor="middle"><tspan x="1360" dy="0">业务实体与关系</tspan></text>
<text x="1360" y="612" font-family="'Kaiti SC','STKaiti','Noto Sans SC',sans-serif" font-size="18" font-weight="500" fill="#55708f" text-anchor="middle"><tspan x="1360" dy="0">entity_ref + version</tspan></text>
<path d="M 425 340 C 366.6666666666667 338, 308.3333333333333 482, 250 480" fill="none" stroke="#1e3a5f" stroke-width="4" stroke-linecap="round" stroke-dasharray="10 8"/>
<path d="M 965 340 C 850 338, 735 482, 620 480" fill="none" stroke="#3c8d77" stroke-width="4" stroke-linecap="round" stroke-dasharray="10 8"/>
<path d="M 695 340 C 793.3333333333334 338, 891.6666666666666 482, 990 480" fill="none" stroke="#7651a6" stroke-width="4" stroke-linecap="round" stroke-dasharray="10 8"/>
<path d="M 1235 340 C 1276.6666666666667 338, 1318.3333333333333 482, 1360 480" fill="none" stroke="#d59621" stroke-width="4" stroke-linecap="round" stroke-dasharray="10 8"/>
<text x="800" y="755" font-family="'Kaiti SC','STKaiti','Noto Sans SC',sans-serif" font-size="28" font-weight="700" fill="#c94c4c" text-anchor="middle"><tspan x="800" dy="0">Context Graph 保存关系和引用，不复制所有文件、状态快照、遥测与知识。</tspan></text>

<text x="1525" y="860" font-family="'Kaiti SC','STKaiti',sans-serif" font-size="18" fill="#55708f" text-anchor="end">生产级多智能体系统 · 第 07 章</text>
</svg>