<svg xmlns="http://www.w3.org/2000/svg" width="1600" height="900" viewBox="0 0 1600 900" role="img">
<defs><marker id="arrow-1e3a5f" viewBox="0 0 10 10" refX="9" refY="5" markerWidth="8" markerHeight="8" orient="auto-start-reverse"><path d="M 0 0 L 10 5 L 0 10 z" fill="#1e3a5f"/></marker><marker id="arrow-d59621" viewBox="0 0 10 10" refX="9" refY="5" markerWidth="8" markerHeight="8" orient="auto-start-reverse"><path d="M 0 0 L 10 5 L 0 10 z" fill="#d59621"/></marker><marker id="arrow-3c8d77" viewBox="0 0 10 10" refX="9" refY="5" markerWidth="8" markerHeight="8" orient="auto-start-reverse"><path d="M 0 0 L 10 5 L 0 10 z" fill="#3c8d77"/></marker><marker id="arrow-c94c4c" viewBox="0 0 10 10" refX="9" refY="5" markerWidth="8" markerHeight="8" orient="auto-start-reverse"><path d="M 0 0 L 10 5 L 0 10 z" fill="#c94c4c"/></marker><marker id="arrow-7651a6" viewBox="0 0 10 10" refX="9" refY="5" markerWidth="8" markerHeight="8" orient="auto-start-reverse"><path d="M 0 0 L 10 5 L 0 10 z" fill="#7651a6"/></marker><marker id="arrow-55708f" viewBox="0 0 10 10" refX="9" refY="5" markerWidth="8" markerHeight="8" orient="auto-start-reverse"><path d="M 0 0 L 10 5 L 0 10 z" fill="#55708f"/></marker></defs>
<rect width="1600" height="900" fill="#fbf7ec"/>
<path d="M 20 180 C 420 171, 920 190, 1580 177 M 30 718 C 530 727, 980 707, 1570 721" stroke="#e7dfce" stroke-width="2" fill="none" opacity=".52"/>

<text x="70" y="76" font-family="'Kaiti SC','STKaiti','Noto Sans SC',sans-serif" font-size="43" font-weight="760" fill="#1e3a5f" text-anchor="start"><tspan x="70" dy="0">C-102 调查：一条端到端受控执行链</tspan></text><path d="M 70 94 C 265 87, 485 102, 710 93" fill="none" stroke="#d59621" stroke-width="7" stroke-linecap="round" opacity=".85"/><text x="72" y="128" font-family="'Kaiti SC','STKaiti','Noto Sans SC',sans-serif" font-size="23" font-weight="500" fill="#55708f" text-anchor="start"><tspan x="72" dy="0">目标冻结、计划校验、A2A 委托、MCP 取证、Artifact 汇合与审批边界必须在同一条因果链上。</tspan></text>
<rect x="45" y="250" width="190" height="130" rx="22" fill="#f7dddd" stroke="#c94c4c" stroke-width="3"/><rect x="47" y="249" width="189" height="131" rx="23" fill="none" stroke="#c94c4c" stroke-width="1.2" opacity=".3" transform="rotate(.18 140 315)"/>
<text x="140" y="300" font-family="'Kaiti SC','STKaiti','Noto Sans SC',sans-serif" font-size="28" font-weight="720" fill="#c94c4c" text-anchor="middle"><tspan x="140" dy="0">用户目标</tspan></text>
<text x="140" y="340" font-family="'Kaiti SC','STKaiti','Noto Sans SC',sans-serif" font-size="19" font-weight="500" fill="#1e3a5f" text-anchor="middle"><tspan x="140" dy="0">只调查 + 草稿</tspan></text>
<rect x="285" y="250" width="210" height="130" rx="22" fill="#dfeaf4" stroke="#1e3a5f" stroke-width="3"/><rect x="287" y="249" width="209" height="131" rx="23" fill="none" stroke="#1e3a5f" stroke-width="1.2" opacity=".3" transform="rotate(.18 390 315)"/>
<text x="390" y="300" font-family="'Kaiti SC','STKaiti','Noto Sans SC',sans-serif" font-size="28" font-weight="720" fill="#1e3a5f" text-anchor="middle"><tspan x="390" dy="0">Plan DAG</tspan></text>
<text x="390" y="340" font-family="'Kaiti SC','STKaiti','Noto Sans SC',sans-serif" font-size="19" font-weight="500" fill="#1e3a5f" text-anchor="middle"><tspan x="390" dy="0">Validator</tspan></text>
<rect x="545" y="250" width="230" height="130" rx="22" fill="#f7e7b8" stroke="#d59621" stroke-width="3"/><rect x="547" y="249" width="229" height="131" rx="23" fill="none" stroke="#d59621" stroke-width="1.2" opacity=".3" transform="rotate(.18 660 315)"/>
<text x="660" y="300" font-family="'Kaiti SC','STKaiti','Noto Sans SC',sans-serif" font-size="28" font-weight="720" fill="#d59621" text-anchor="middle"><tspan x="660" dy="0">Central</tspan></text>
<text x="660" y="340" font-family="'Kaiti SC','STKaiti','Noto Sans SC',sans-serif" font-size="22" font-weight="500" fill="#1e3a5f" text-anchor="middle"><tspan x="660" dy="0">Supervisor</tspan></text>
<path d="M 235 315 C 251.66666666666666 313, 268.3333333333333 317, 285 315" fill="none" stroke="#c94c4c" stroke-width="4" stroke-linecap="round" marker-end="url(#arrow-c94c4c)"/>
<path d="M 495 315 C 511.6666666666667 313, 528.3333333333334 317, 545 315" fill="none" stroke="#1e3a5f" stroke-width="4" stroke-linecap="round" marker-end="url(#arrow-1e3a5f)"/>
<rect x="880" y="200" width="255" height="120" rx="22" fill="#fffdf7" stroke="#3c8d77" stroke-width="3"/><rect x="882" y="199" width="254" height="121" rx="23" fill="none" stroke="#3c8d77" stroke-width="1.2" opacity=".3" transform="rotate(.18 1007.5 260)"/>
<text x="1007" y="250" font-family="'Kaiti SC','STKaiti','Noto Sans SC',sans-serif" font-size="27" font-weight="720" fill="#3c8d77" text-anchor="middle"><tspan x="1007" dy="0">Claims Team</tspan></text>
<text x="1007" y="286" font-family="'Kaiti SC','STKaiti','Noto Sans SC',sans-serif" font-size="19" font-weight="500" fill="#1e3a5f" text-anchor="middle"><tspan x="1007" dy="0">A2A Task</tspan></text>
<rect x="880" y="350" width="255" height="120" rx="22" fill="#fffdf7" stroke="#7651a6" stroke-width="3"/><rect x="882" y="349" width="254" height="121" rx="23" fill="none" stroke="#7651a6" stroke-width="1.2" opacity=".3" transform="rotate(.18 1007.5 410)"/>
<text x="1007" y="400" font-family="'Kaiti SC','STKaiti','Noto Sans SC',sans-serif" font-size="27" font-weight="720" fill="#7651a6" text-anchor="middle"><tspan x="1007" dy="0">Knowledge Team</tspan></text>
<text x="1007" y="436" font-family="'Kaiti SC','STKaiti','Noto Sans SC',sans-serif" font-size="19" font-weight="500" fill="#1e3a5f" text-anchor="middle"><tspan x="1007" dy="0">A2A Task</tspan></text>
<rect x="880" y="500" width="255" height="120" rx="22" fill="#fffdf7" stroke="#d59621" stroke-width="3"/><rect x="882" y="499" width="254" height="121" rx="23" fill="none" stroke="#d59621" stroke-width="1.2" opacity=".3" transform="rotate(.18 1007.5 560)"/>
<text x="1007" y="550" font-family="'Kaiti SC','STKaiti','Noto Sans SC',sans-serif" font-size="25" font-weight="720" fill="#d59621" text-anchor="middle"><tspan x="1007" dy="0">Notification Team</tspan></text>
<text x="1007" y="586" font-family="'Kaiti SC','STKaiti','Noto Sans SC',sans-serif" font-size="19" font-weight="500" fill="#1e3a5f" text-anchor="middle"><tspan x="1007" dy="0">Draft only</tspan></text>
<path d="M 775 315 C 810 313, 845 262, 880 260" fill="none" stroke="#3c8d77" stroke-width="4" stroke-linecap="round" marker-end="url(#arrow-3c8d77)"/>
<text x="825" y="262" font-family="'Kaiti SC','STKaiti','Noto Sans SC',sans-serif" font-size="16" font-weight="500" fill="#3c8d77" text-anchor="middle"><tspan x="825" dy="0">Ready S2</tspan></text>
<path d="M 1007 320 C 1007 318, 1007 352, 1007 350" fill="none" stroke="#7651a6" stroke-width="4" stroke-linecap="round" marker-end="url(#arrow-7651a6)"/>
<path d="M 1007 470 C 1007 468, 1007 502, 1007 500" fill="none" stroke="#d59621" stroke-width="4" stroke-linecap="round" marker-end="url(#arrow-d59621)"/>
<rect x="1205" y="200" width="340" height="420" rx="22" fill="#dcefe7" stroke="#3c8d77" stroke-width="3"/><rect x="1207" y="199" width="339" height="421" rx="23" fill="none" stroke="#3c8d77" stroke-width="1.2" opacity=".3" transform="rotate(.18 1375 410)"/>
<text x="1375" y="252" font-family="'Kaiti SC','STKaiti','Noto Sans SC',sans-serif" font-size="29" font-weight="760" fill="#3c8d77" text-anchor="middle"><tspan x="1375" dy="0">Artifact + Evidence</tspan></text>
<rect x="1250" y="305" width="250" height="50" rx="25" fill="#fffdf7" stroke="#3c8d77" stroke-width="2.4"/><rect x="1252" y="304" width="249" height="51" rx="26" fill="none" stroke="#3c8d77" stroke-width="1.2" opacity=".3" transform="rotate(.18 1375 330)"/><text x="1375" y="338" font-family="'Kaiti SC','STKaiti','Noto Sans SC',sans-serif" font-size="19" font-weight="700" fill="#3c8d77" text-anchor="middle"><tspan x="1375" dy="0">claim:C-102@v17</tspan></text>
<rect x="1250" y="380" width="250" height="50" rx="25" fill="#fffdf7" stroke="#7651a6" stroke-width="2.4"/><rect x="1252" y="379" width="249" height="51" rx="26" fill="none" stroke="#7651a6" stroke-width="1.2" opacity=".3" transform="rotate(.18 1375 405)"/><text x="1375" y="413" font-family="'Kaiti SC','STKaiti','Noto Sans SC',sans-serif" font-size="19" font-weight="700" fill="#7651a6" text-anchor="middle"><tspan x="1375" dy="0">policy:terms@v8</tspan></text>
<rect x="1250" y="455" width="250" height="50" rx="25" fill="#fffdf7" stroke="#d59621" stroke-width="2.4"/><rect x="1252" y="454" width="249" height="51" rx="26" fill="none" stroke="#d59621" stroke-width="1.2" opacity=".3" transform="rotate(.18 1375 480)"/><text x="1375" y="488" font-family="'Kaiti SC','STKaiti','Noto Sans SC',sans-serif" font-size="19" font-weight="700" fill="#d59621" text-anchor="middle"><tspan x="1375" dy="0">notice:draft@sha256</tspan></text>
<rect x="1250" y="530" width="250" height="50" rx="25" fill="#f7dddd" stroke="#c94c4c" stroke-width="2.4"/><rect x="1252" y="529" width="249" height="51" rx="26" fill="none" stroke="#c94c4c" stroke-width="1.2" opacity=".3" transform="rotate(.18 1375 555)"/><text x="1375" y="563" font-family="'Kaiti SC','STKaiti','Noto Sans SC',sans-serif" font-size="19" font-weight="700" fill="#c94c4c" text-anchor="middle"><tspan x="1375" dy="0">send action = NONE</tspan></text>
<path d="M 1135 260 C 1158.3333333333333 258, 1181.6666666666667 307, 1205 305" fill="none" stroke="#3c8d77" stroke-width="4" stroke-linecap="round" marker-end="url(#arrow-3c8d77)"/>
<path d="M 1135 410 C 1158.3333333333333 408, 1181.6666666666667 422, 1205 420" fill="none" stroke="#7651a6" stroke-width="4" stroke-linecap="round" marker-end="url(#arrow-7651a6)"/>
<path d="M 1135 560 C 1158.3333333333333 558, 1181.6666666666667 537, 1205 535" fill="none" stroke="#d59621" stroke-width="4" stroke-linecap="round" marker-end="url(#arrow-d59621)"/>
<rect x="380" y="675" width="840" height="92" rx="42" fill="#fffdf7" stroke="#1e3a5f" stroke-width="3" stroke-dasharray="12 9"/><rect x="382" y="674" width="839" height="93" rx="43" fill="none" stroke="#1e3a5f" stroke-width="1.2" opacity=".3" transform="rotate(.18 800 721)"/>
<text x="800" y="713" font-family="'Kaiti SC','STKaiti','Noto Sans SC',sans-serif" font-size="25" font-weight="720" fill="#1e3a5f" text-anchor="middle"><tspan x="800" dy="0">Consolidator 只读取 Accepted Result</tspan></text>
<text x="800" y="748" font-family="'Kaiti SC','STKaiti','Noto Sans SC',sans-serif" font-size="21" font-weight="500" fill="#55708f" text-anchor="middle"><tspan x="800" dy="0">每个 Claim → Evidence；每个副作用 → Authority + Approval + Idempotency</tspan></text>
<path d="M 1375 620 C 1316.6666666666667 618, 1258.3333333333333 677, 1200 675" fill="none" stroke="#3c8d77" stroke-width="4" stroke-linecap="round" marker-end="url(#arrow-3c8d77)"/>
<text x="800" y="815" font-family="'Kaiti SC','STKaiti','Noto Sans SC',sans-serif" font-size="28" font-weight="700" fill="#c94c4c" text-anchor="middle"><tspan x="800" dy="0">“生成通知草稿”与“发送通知”必须是不同 Skill、不同 Tool、不同权限。</tspan></text>

<text x="1525" y="860" font-family="'Kaiti SC','STKaiti',sans-serif" font-size="18" fill="#55708f" text-anchor="end">生产级多智能体系统 · 第 07 章</text>
</svg>