<svg xmlns="http://www.w3.org/2000/svg" width="1600" height="900" viewBox="0 0 1600 900" role="img">
<defs><marker id="arrow-1e3a5f" viewBox="0 0 10 10" refX="9" refY="5" markerWidth="8" markerHeight="8" orient="auto-start-reverse"><path d="M 0 0 L 10 5 L 0 10 z" fill="#1e3a5f"/></marker><marker id="arrow-d59621" viewBox="0 0 10 10" refX="9" refY="5" markerWidth="8" markerHeight="8" orient="auto-start-reverse"><path d="M 0 0 L 10 5 L 0 10 z" fill="#d59621"/></marker><marker id="arrow-3c8d77" viewBox="0 0 10 10" refX="9" refY="5" markerWidth="8" markerHeight="8" orient="auto-start-reverse"><path d="M 0 0 L 10 5 L 0 10 z" fill="#3c8d77"/></marker><marker id="arrow-c94c4c" viewBox="0 0 10 10" refX="9" refY="5" markerWidth="8" markerHeight="8" orient="auto-start-reverse"><path d="M 0 0 L 10 5 L 0 10 z" fill="#c94c4c"/></marker><marker id="arrow-7651a6" viewBox="0 0 10 10" refX="9" refY="5" markerWidth="8" markerHeight="8" orient="auto-start-reverse"><path d="M 0 0 L 10 5 L 0 10 z" fill="#7651a6"/></marker><marker id="arrow-55708f" viewBox="0 0 10 10" refX="9" refY="5" markerWidth="8" markerHeight="8" orient="auto-start-reverse"><path d="M 0 0 L 10 5 L 0 10 z" fill="#55708f"/></marker></defs>
<rect width="1600" height="900" fill="#fbf7ec"/>
<path d="M 20 180 C 420 171, 920 190, 1580 177 M 30 718 C 530 727, 980 707, 1570 721" stroke="#e7dfce" stroke-width="2" fill="none" opacity=".52"/>

<text x="70" y="76" font-family="'Kaiti SC','STKaiti','Noto Sans SC',sans-serif" font-size="43" font-weight="760" fill="#1e3a5f" text-anchor="start"><tspan x="70" dy="0">系统合龙：先证明一条垂直链路</tspan></text><path d="M 70 94 C 265 87, 485 102, 710 93" fill="none" stroke="#d59621" stroke-width="7" stroke-linecap="round" opacity=".85"/><text x="72" y="128" font-family="'Kaiti SC','STKaiti','Noto Sans SC',sans-serif" font-size="23" font-weight="500" fill="#55708f" text-anchor="start"><tspan x="72" dy="0">从合同到故障演练形成闭环；每次扩展团队、模型、工具或版本都重新进入验证。</tspan></text>
<rect x="55" y="320" width="220" height="145" rx="22" fill="#dfeaf4" stroke="#1e3a5f" stroke-width="3"/><rect x="57" y="319" width="219" height="146" rx="23" fill="none" stroke="#1e3a5f" stroke-width="1.2" opacity=".3" transform="rotate(.18 165 392.5)"/>
<text x="165" y="370" font-family="'Kaiti SC','STKaiti','Noto Sans SC',sans-serif" font-size="29" font-weight="760" fill="#1e3a5f" text-anchor="middle"><tspan x="165" dy="0">1 · Contracts</tspan></text>
<text x="165" y="414" font-family="'Kaiti SC','STKaiti','Noto Sans SC',sans-serif" font-size="18" font-weight="500" fill="#1e3a5f" text-anchor="middle"><tspan x="165" dy="0">State · Plan · Result</tspan></text>
<rect x="315" y="320" width="220" height="145" rx="22" fill="#f7e7b8" stroke="#d59621" stroke-width="3"/><rect x="317" y="319" width="219" height="146" rx="23" fill="none" stroke="#d59621" stroke-width="1.2" opacity=".3" transform="rotate(.18 425 392.5)"/>
<text x="425" y="370" font-family="'Kaiti SC','STKaiti','Noto Sans SC',sans-serif" font-size="29" font-weight="760" fill="#d59621" text-anchor="middle"><tspan x="425" dy="0">2 · Golden Path</tspan></text>
<text x="425" y="414" font-family="'Kaiti SC','STKaiti','Noto Sans SC',sans-serif" font-size="18" font-weight="500" fill="#1e3a5f" text-anchor="middle"><tspan x="425" dy="0">One Team · One Tool</tspan></text>
<rect x="575" y="320" width="220" height="145" rx="22" fill="#dcefe7" stroke="#3c8d77" stroke-width="3"/><rect x="577" y="319" width="219" height="146" rx="23" fill="none" stroke="#3c8d77" stroke-width="1.2" opacity=".3" transform="rotate(.18 685 392.5)"/>
<text x="685" y="370" font-family="'Kaiti SC','STKaiti','Noto Sans SC',sans-serif" font-size="29" font-weight="760" fill="#3c8d77" text-anchor="middle"><tspan x="685" dy="0">3 · Evidence</tspan></text>
<text x="685" y="414" font-family="'Kaiti SC','STKaiti','Noto Sans SC',sans-serif" font-size="18" font-weight="500" fill="#1e3a5f" text-anchor="middle"><tspan x="685" dy="0">Artifact · Graph · Trace</tspan></text>
<rect x="835" y="320" width="220" height="145" rx="22" fill="#f7dddd" stroke="#c94c4c" stroke-width="3"/><rect x="837" y="319" width="219" height="146" rx="23" fill="none" stroke="#c94c4c" stroke-width="1.2" opacity=".3" transform="rotate(.18 945 392.5)"/>
<text x="945" y="370" font-family="'Kaiti SC','STKaiti','Noto Sans SC',sans-serif" font-size="29" font-weight="760" fill="#c94c4c" text-anchor="middle"><tspan x="945" dy="0">4 · Faults</tspan></text>
<text x="945" y="414" font-family="'Kaiti SC','STKaiti','Noto Sans SC',sans-serif" font-size="18" font-weight="500" fill="#1e3a5f" text-anchor="middle"><tspan x="945" dy="0">Timeout · Crash · Replay</tspan></text>
<rect x="1095" y="320" width="220" height="145" rx="22" fill="#e9e0f4" stroke="#7651a6" stroke-width="3"/><rect x="1097" y="319" width="219" height="146" rx="23" fill="none" stroke="#7651a6" stroke-width="1.2" opacity=".3" transform="rotate(.18 1205 392.5)"/>
<text x="1205" y="370" font-family="'Kaiti SC','STKaiti','Noto Sans SC',sans-serif" font-size="29" font-weight="760" fill="#7651a6" text-anchor="middle"><tspan x="1205" dy="0">5 · Acceptance</tspan></text>
<text x="1205" y="414" font-family="'Kaiti SC','STKaiti','Noto Sans SC',sans-serif" font-size="18" font-weight="500" fill="#1e3a5f" text-anchor="middle"><tspan x="1205" dy="0">SLO · Security · Cost</tspan></text>
<rect x="1355" y="320" width="190" height="145" rx="22" fill="#fffdf7" stroke="#1e3a5f" stroke-width="3"/><rect x="1357" y="319" width="189" height="146" rx="23" fill="none" stroke="#1e3a5f" stroke-width="1.2" opacity=".3" transform="rotate(.18 1450 392.5)"/>
<text x="1450" y="370" font-family="'Kaiti SC','STKaiti','Noto Sans SC',sans-serif" font-size="29" font-weight="760" fill="#1e3a5f" text-anchor="middle"><tspan x="1450" dy="0">6 · Scale</tspan></text>
<text x="1450" y="414" font-family="'Kaiti SC','STKaiti','Noto Sans SC',sans-serif" font-size="18" font-weight="500" fill="#1e3a5f" text-anchor="middle"><tspan x="1450" dy="0">Teams · Concurrency</tspan></text>
<path d="M 275 392 C 288.3333333333333 390, 301.6666666666667 394, 315 392" fill="none" stroke="#1e3a5f" stroke-width="4" stroke-linecap="round" marker-end="url(#arrow-1e3a5f)"/>
<path d="M 535 392 C 548.3333333333334 390, 561.6666666666666 394, 575 392" fill="none" stroke="#d59621" stroke-width="4" stroke-linecap="round" marker-end="url(#arrow-d59621)"/>
<path d="M 795 392 C 808.3333333333334 390, 821.6666666666666 394, 835 392" fill="none" stroke="#3c8d77" stroke-width="4" stroke-linecap="round" marker-end="url(#arrow-3c8d77)"/>
<path d="M 1055 392 C 1068.3333333333333 390, 1081.6666666666667 394, 1095 392" fill="none" stroke="#c94c4c" stroke-width="4" stroke-linecap="round" marker-end="url(#arrow-c94c4c)"/>
<path d="M 1315 392 C 1328.3333333333333 390, 1341.6666666666667 394, 1355 392" fill="none" stroke="#7651a6" stroke-width="4" stroke-linecap="round" marker-end="url(#arrow-7651a6)"/>
<path d="M 1450 465 C 1021.6666666666666 463, 593.3333333333334 612, 165 610" fill="none" stroke="#1e3a5f" stroke-width="4" stroke-linecap="round" stroke-dasharray="12 9" marker-end="url(#arrow-1e3a5f)"/>
<rect x="245" y="580" width="1110" height="120" rx="45" fill="#fffdf7" stroke="#1e3a5f" stroke-width="3" stroke-dasharray="12 9"/><rect x="247" y="579" width="1109" height="121" rx="46" fill="none" stroke="#1e3a5f" stroke-width="1.2" opacity=".3" transform="rotate(.18 800 640)"/>
<text x="800" y="626" font-family="'Kaiti SC','STKaiti','Noto Sans SC',sans-serif" font-size="24" font-weight="700" fill="#1e3a5f" text-anchor="middle"><tspan x="800" dy="0">版本或边界变化：AgentCard · Prompt · Model · Tool · Policy · Schema</tspan></text>
<text x="800" y="666" font-family="'Kaiti SC','STKaiti','Noto Sans SC',sans-serif" font-size="22" font-weight="500" fill="#55708f" text-anchor="middle"><tspan x="800" dy="0">消费者合同测试 → 场景回归 → 故障演练 → 新 Acceptance Report</tspan></text>
<text x="800" y="770" font-family="'Kaiti SC','STKaiti','Noto Sans SC',sans-serif" font-size="29" font-weight="700" fill="#c94c4c" text-anchor="middle"><tspan x="800" dy="0">不要先增加 Agent 数量；先让一条链路可运行、可恢复、可解释、可验收。</tspan></text>

<text x="1525" y="860" font-family="'Kaiti SC','STKaiti',sans-serif" font-size="18" fill="#55708f" text-anchor="end">生产级多智能体系统 · 第 07 章</text>
</svg>