<svg xmlns="http://www.w3.org/2000/svg" width="1600" height="900" viewBox="0 0 1600 900" role="img">
<defs><marker id="arrow-1e3a5f" viewBox="0 0 10 10" refX="9" refY="5" markerWidth="8" markerHeight="8" orient="auto-start-reverse"><path d="M 0 0 L 10 5 L 0 10 z" fill="#1e3a5f"/></marker><marker id="arrow-d59621" viewBox="0 0 10 10" refX="9" refY="5" markerWidth="8" markerHeight="8" orient="auto-start-reverse"><path d="M 0 0 L 10 5 L 0 10 z" fill="#d59621"/></marker><marker id="arrow-3c8d77" viewBox="0 0 10 10" refX="9" refY="5" markerWidth="8" markerHeight="8" orient="auto-start-reverse"><path d="M 0 0 L 10 5 L 0 10 z" fill="#3c8d77"/></marker><marker id="arrow-c94c4c" viewBox="0 0 10 10" refX="9" refY="5" markerWidth="8" markerHeight="8" orient="auto-start-reverse"><path d="M 0 0 L 10 5 L 0 10 z" fill="#c94c4c"/></marker><marker id="arrow-7651a6" viewBox="0 0 10 10" refX="9" refY="5" markerWidth="8" markerHeight="8" orient="auto-start-reverse"><path d="M 0 0 L 10 5 L 0 10 z" fill="#7651a6"/></marker><marker id="arrow-55708f" viewBox="0 0 10 10" refX="9" refY="5" markerWidth="8" markerHeight="8" orient="auto-start-reverse"><path d="M 0 0 L 10 5 L 0 10 z" fill="#55708f"/></marker></defs>
<rect width="1600" height="900" fill="#fbf7ec"/>
<path d="M 20 180 C 420 171, 920 190, 1580 177 M 30 718 C 530 727, 980 707, 1570 721" stroke="#e7dfce" stroke-width="2" fill="none" opacity=".52"/>

<text x="70" y="76" font-family="'Kaiti SC','STKaiti','Noto Sans SC',sans-serif" font-size="43" font-weight="760" fill="#1e3a5f" text-anchor="start"><tspan x="70" dy="0">State Ownership：Fan-out 之后必须确定性 Join</tspan></text><path d="M 70 94 C 265 87, 485 102, 710 93" fill="none" stroke="#d59621" stroke-width="7" stroke-linecap="round" opacity=".85"/><text x="72" y="128" font-family="'Kaiti SC','STKaiti','Noto Sans SC',sans-serif" font-size="23" font-weight="500" fill="#55708f" text-anchor="start"><tspan x="72" dy="0">每个字段只有一个权威写入者或显式 Reducer；重复、迟到和冲突结果不能靠最后写入者获胜。</tspan></text>
<rect x="55" y="240" width="360" height="460" rx="22" fill="#dfeaf4" stroke="#1e3a5f" stroke-width="3"/><rect x="57" y="239" width="359" height="461" rx="23" fill="none" stroke="#1e3a5f" stroke-width="1.2" opacity=".3" transform="rotate(.18 235 470)"/>
<text x="235" y="292" font-family="'Kaiti SC','STKaiti','Noto Sans SC',sans-serif" font-size="30" font-weight="760" fill="#1e3a5f" text-anchor="middle"><tspan x="235" dy="0">Supervisor State</tspan></text>
<rect x="95" y="340" width="280" height="50" rx="25" fill="#fffdf7" stroke="#1e3a5f" stroke-width="2.4"/><rect x="97" y="339" width="279" height="51" rx="26" fill="none" stroke="#1e3a5f" stroke-width="1.2" opacity=".3" transform="rotate(.18 235 365)"/><text x="235" y="373" font-family="'Kaiti SC','STKaiti','Noto Sans SC',sans-serif" font-size="18" font-weight="700" fill="#1e3a5f" text-anchor="middle"><tspan x="235" dy="0">Goal · Request Processor</tspan></text>
<rect x="95" y="415" width="280" height="50" rx="25" fill="#e9e0f4" stroke="#7651a6" stroke-width="2.4"/><rect x="97" y="414" width="279" height="51" rx="26" fill="none" stroke="#7651a6" stroke-width="1.2" opacity=".3" transform="rotate(.18 235 440)"/><text x="235" y="448" font-family="'Kaiti SC','STKaiti','Noto Sans SC',sans-serif" font-size="18" font-weight="700" fill="#7651a6" text-anchor="middle"><tspan x="235" dy="0">Plan · Validator</tspan></text>
<rect x="95" y="490" width="280" height="50" rx="25" fill="#f7e7b8" stroke="#d59621" stroke-width="2.4"/><rect x="97" y="489" width="279" height="51" rx="26" fill="none" stroke="#d59621" stroke-width="1.2" opacity=".3" transform="rotate(.18 235 515)"/><text x="235" y="523" font-family="'Kaiti SC','STKaiti','Noto Sans SC',sans-serif" font-size="18" font-weight="700" fill="#d59621" text-anchor="middle"><tspan x="235" dy="0">Budget · Controller</tspan></text>
<rect x="95" y="565" width="280" height="50" rx="25" fill="#dcefe7" stroke="#3c8d77" stroke-width="2.4"/><rect x="97" y="564" width="279" height="51" rx="26" fill="none" stroke="#3c8d77" stroke-width="1.2" opacity=".3" transform="rotate(.18 235 590)"/><text x="235" y="598" font-family="'Kaiti SC','STKaiti','Noto Sans SC',sans-serif" font-size="18" font-weight="700" fill="#3c8d77" text-anchor="middle"><tspan x="235" dy="0">Evidence · Reducer</tspan></text>
<rect x="95" y="640" width="280" height="50" rx="25" fill="#f7dddd" stroke="#c94c4c" stroke-width="2.4"/><rect x="97" y="639" width="279" height="51" rx="26" fill="none" stroke="#c94c4c" stroke-width="1.2" opacity=".3" transform="rotate(.18 235 665)"/><text x="235" y="673" font-family="'Kaiti SC','STKaiti','Noto Sans SC',sans-serif" font-size="18" font-weight="700" fill="#c94c4c" text-anchor="middle"><tspan x="235" dy="0">Errors · Append-only</tspan></text>
<path d="M 415 470 C 453.3333333333333 468, 491.6666666666667 352, 530 350" fill="none" stroke="#1e3a5f" stroke-width="4" stroke-linecap="round" marker-end="url(#arrow-1e3a5f)"/>
<path d="M 415 470 C 453.3333333333333 468, 491.6666666666667 472, 530 470" fill="none" stroke="#1e3a5f" stroke-width="4" stroke-linecap="round" marker-end="url(#arrow-1e3a5f)"/>
<path d="M 415 470 C 453.3333333333333 468, 491.6666666666667 592, 530 590" fill="none" stroke="#1e3a5f" stroke-width="4" stroke-linecap="round" marker-end="url(#arrow-1e3a5f)"/>
<rect x="530" y="285" width="300" height="130" rx="22" fill="#fffdf7" stroke="#3c8d77" stroke-width="3"/><rect x="532" y="284" width="299" height="131" rx="23" fill="none" stroke="#3c8d77" stroke-width="1.2" opacity=".3" transform="rotate(.18 680 350)"/>
<text x="680" y="335" font-family="'Kaiti SC','STKaiti','Noto Sans SC',sans-serif" font-size="27" font-weight="720" fill="#1e3a5f" text-anchor="middle"><tspan x="680" dy="0">Step S2</tspan></text>
<text x="680" y="375" font-family="'Kaiti SC','STKaiti','Noto Sans SC',sans-serif" font-size="21" font-weight="500" fill="#1e3a5f" text-anchor="middle"><tspan x="680" dy="0">Claims Artifact</tspan></text>
<rect x="530" y="425" width="300" height="130" rx="22" fill="#fffdf7" stroke="#7651a6" stroke-width="3"/><rect x="532" y="424" width="299" height="131" rx="23" fill="none" stroke="#7651a6" stroke-width="1.2" opacity=".3" transform="rotate(.18 680 490)"/>
<text x="680" y="475" font-family="'Kaiti SC','STKaiti','Noto Sans SC',sans-serif" font-size="27" font-weight="720" fill="#1e3a5f" text-anchor="middle"><tspan x="680" dy="0">Step S3</tspan></text>
<text x="680" y="515" font-family="'Kaiti SC','STKaiti','Noto Sans SC',sans-serif" font-size="21" font-weight="500" fill="#1e3a5f" text-anchor="middle"><tspan x="680" dy="0">Policy Evidence</tspan></text>
<rect x="530" y="565" width="300" height="130" rx="22" fill="#fffdf7" stroke="#d59621" stroke-width="3"/><rect x="532" y="564" width="299" height="131" rx="23" fill="none" stroke="#d59621" stroke-width="1.2" opacity=".3" transform="rotate(.18 680 630)"/>
<text x="680" y="615" font-family="'Kaiti SC','STKaiti','Noto Sans SC',sans-serif" font-size="27" font-weight="720" fill="#1e3a5f" text-anchor="middle"><tspan x="680" dy="0">Step S4</tspan></text>
<text x="680" y="655" font-family="'Kaiti SC','STKaiti','Noto Sans SC',sans-serif" font-size="21" font-weight="500" fill="#1e3a5f" text-anchor="middle"><tspan x="680" dy="0">Draft Artifact</tspan></text>
<path d="M 830 350 C 873.3333333333334 348, 916.6666666666666 432, 960 430" fill="none" stroke="#3c8d77" stroke-width="4" stroke-linecap="round" marker-end="url(#arrow-3c8d77)"/>
<path d="M 830 490 C 873.3333333333334 488, 916.6666666666666 492, 960 490" fill="none" stroke="#7651a6" stroke-width="4" stroke-linecap="round" marker-end="url(#arrow-7651a6)"/>
<path d="M 830 630 C 873.3333333333334 628, 916.6666666666666 552, 960 550" fill="none" stroke="#d59621" stroke-width="4" stroke-linecap="round" marker-end="url(#arrow-d59621)"/>
<rect x="960" y="300" width="300" height="360" rx="22" fill="#f7e7b8" stroke="#d59621" stroke-width="4"/><rect x="962" y="299" width="299" height="361" rx="23" fill="none" stroke="#d59621" stroke-width="1.2" opacity=".3" transform="rotate(.18 1110 480)"/>
<text x="1110" y="355" font-family="'Kaiti SC','STKaiti','Noto Sans SC',sans-serif" font-size="31" font-weight="760" fill="#d59621" text-anchor="middle"><tspan x="1110" dy="0">Join Contract</tspan></text>
<text x="1110" y="415" font-family="'Kaiti SC','STKaiti','Noto Sans SC',sans-serif" font-size="23" font-weight="500" fill="#1e3a5f" text-anchor="middle"><tspan x="1110" dy="0">Required Set</tspan><tspan x="1110" dy="33.81">Optional Set</tspan><tspan x="1110" dy="33.81">Deadline</tspan><tspan x="1110" dy="33.81">No Data / Degraded</tspan><tspan x="1110" dy="33.81">Late Result Policy</tspan><tspan x="1110" dy="33.81">Conflict Policy</tspan></text>
<path d="M 1260 480 C 1296.6666666666667 478, 1333.3333333333333 482, 1370 480" fill="none" stroke="#d59621" stroke-width="4" stroke-linecap="round" marker-end="url(#arrow-d59621)"/>
<rect x="1370" y="350" width="175" height="260" rx="22" fill="#dcefe7" stroke="#3c8d77" stroke-width="3"/><rect x="1372" y="349" width="174" height="261" rx="23" fill="none" stroke="#3c8d77" stroke-width="1.2" opacity=".3" transform="rotate(.18 1457.5 480)"/>
<text x="1457" y="420" font-family="'Kaiti SC','STKaiti','Noto Sans SC',sans-serif" font-size="27" font-weight="720" fill="#3c8d77" text-anchor="middle"><tspan x="1457" dy="0">Accepted</tspan></text>
<text x="1457" y="465" font-family="'Kaiti SC','STKaiti','Noto Sans SC',sans-serif" font-size="27" font-weight="720" fill="#3c8d77" text-anchor="middle"><tspan x="1457" dy="0">Results</tspan></text>
<text x="1457" y="535" font-family="'Kaiti SC','STKaiti','Noto Sans SC',sans-serif" font-size="28" font-weight="500" fill="#1e3a5f" text-anchor="middle"><tspan x="1457" dy="0">+</tspan></text>
<text x="1457" y="575" font-family="'Kaiti SC','STKaiti','Noto Sans SC',sans-serif" font-size="25" font-weight="500" fill="#1e3a5f" text-anchor="middle"><tspan x="1457" dy="0">Evidence</tspan></text>
<text x="800" y="775" font-family="'Kaiti SC','STKaiti','Noto Sans SC',sans-serif" font-size="28" font-weight="700" fill="#c94c4c" text-anchor="middle"><tspan x="800" dy="0">旧 Plan 的迟到结果只记录不合并；同一 Step 的不同 Hash 必须阻断并升级。</tspan></text>

<text x="1525" y="860" font-family="'Kaiti SC','STKaiti',sans-serif" font-size="18" fill="#55708f" text-anchor="end">生产级多智能体系统 · 第 07 章</text>
</svg>