<svg xmlns="http://www.w3.org/2000/svg" width="1600" height="900" viewBox="0 0 1600 900" role="img">
<defs><marker id="arrow-1e3a5f" viewBox="0 0 10 10" refX="9" refY="5" markerWidth="8" markerHeight="8" orient="auto-start-reverse"><path d="M 0 0 L 10 5 L 0 10 z" fill="#1e3a5f"/></marker><marker id="arrow-d59621" viewBox="0 0 10 10" refX="9" refY="5" markerWidth="8" markerHeight="8" orient="auto-start-reverse"><path d="M 0 0 L 10 5 L 0 10 z" fill="#d59621"/></marker><marker id="arrow-3c8d77" viewBox="0 0 10 10" refX="9" refY="5" markerWidth="8" markerHeight="8" orient="auto-start-reverse"><path d="M 0 0 L 10 5 L 0 10 z" fill="#3c8d77"/></marker><marker id="arrow-c94c4c" viewBox="0 0 10 10" refX="9" refY="5" markerWidth="8" markerHeight="8" orient="auto-start-reverse"><path d="M 0 0 L 10 5 L 0 10 z" fill="#c94c4c"/></marker><marker id="arrow-7651a6" viewBox="0 0 10 10" refX="9" refY="5" markerWidth="8" markerHeight="8" orient="auto-start-reverse"><path d="M 0 0 L 10 5 L 0 10 z" fill="#7651a6"/></marker><marker id="arrow-55708f" viewBox="0 0 10 10" refX="9" refY="5" markerWidth="8" markerHeight="8" orient="auto-start-reverse"><path d="M 0 0 L 10 5 L 0 10 z" fill="#55708f"/></marker><filter id="paper"><feTurbulence type="fractalNoise" baseFrequency=".9" numOctaves="2" seed="7" result="n"/><feBlend in="SourceGraphic" in2="n" mode="multiply"/></filter></defs>
<rect width="1600" height="900" fill="#fbf7ec"/>
<path d="M 20 180 C 420 171, 920 190, 1580 177 M 30 718 C 530 727, 980 707, 1570 721" stroke="#e7dfce" stroke-width="2" fill="none" opacity=".52"/>

<text x="70" y="76" font-family="'Kaiti SC','STKaiti','Noto Sans SC',sans-serif" font-size="43" font-weight="760" fill="#1e3a5f" text-anchor="start" opacity="1"><tspan x="70" dy="0">协作的核心不是消息，而是合同</tspan></text><path d="M 70 94 C 260 88, 470 101, 680 93" fill="none" stroke="#d59621" stroke-width="7" stroke-linecap="round" opacity=".85"/><text x="72" y="128" font-family="'Kaiti SC','STKaiti','Noto Sans SC',sans-serif" font-size="23" font-weight="500" fill="#55708f" text-anchor="start" opacity="1"><tspan x="72" dy="0">四份业务合同定义语义；A2A、MCP 与工作流承载不同层次。</tspan></text>
<rect x="70" y="215" width="900" height="500" rx="22" fill="#fffdf7" stroke="#1e3a5f" stroke-width="3"/><rect x="72" y="214" width="899" height="501" rx="23" fill="none" stroke="#1e3a5f" stroke-width="1.2" opacity=".32" transform="rotate(.18 520 465)"/>
<text x="110" y="270" font-family="'Kaiti SC','STKaiti','Noto Sans SC',sans-serif" font-size="31" font-weight="750" fill="#1e3a5f" text-anchor="start" opacity="1"><tspan x="110" dy="0">业务协作合同</tspan></text>
<rect x="110" y="320" width="185" height="250" rx="22" fill="#dfeaf4" stroke="#1e3a5f" stroke-width="3"/><rect x="112" y="319" width="184" height="251" rx="23" fill="none" stroke="#1e3a5f" stroke-width="1.2" opacity=".32" transform="rotate(.18 202.5 445)"/>
<text x="202" y="365" font-family="'Kaiti SC','STKaiti','Noto Sans SC',sans-serif" font-size="27" font-weight="700" fill="#1e3a5f" text-anchor="middle" opacity="1"><tspan x="202" dy="0">Delegation</tspan></text>
<text x="202" y="408" font-family="'Kaiti SC','STKaiti','Noto Sans SC',sans-serif" font-size="22" font-weight="500" fill="#1e3a5f" text-anchor="middle" opacity="1"><tspan x="202" dy="0">目标</tspan><tspan x="202" dy="28.16">Scope</tspan><tspan x="202" dy="28.16">验收</tspan><tspan x="202" dy="28.16">预算</tspan></text>
<rect x="325" y="320" width="185" height="250" rx="22" fill="#dcefe7" stroke="#3c8d77" stroke-width="3"/><rect x="327" y="319" width="184" height="251" rx="23" fill="none" stroke="#3c8d77" stroke-width="1.2" opacity=".32" transform="rotate(.18 417.5 445)"/>
<text x="417" y="365" font-family="'Kaiti SC','STKaiti','Noto Sans SC',sans-serif" font-size="27" font-weight="700" fill="#3c8d77" text-anchor="middle" opacity="1"><tspan x="417" dy="0">Result</tspan></text>
<text x="417" y="408" font-family="'Kaiti SC','STKaiti','Noto Sans SC',sans-serif" font-size="22" font-weight="500" fill="#1e3a5f" text-anchor="middle" opacity="1"><tspan x="417" dy="0">状态</tspan><tspan x="417" dy="28.16">Claims</tspan><tspan x="417" dy="28.16">缺口</tspan><tspan x="417" dy="28.16">副作用</tspan></text>
<rect x="540" y="320" width="185" height="250" rx="22" fill="#f7e7b8" stroke="#d59621" stroke-width="3"/><rect x="542" y="319" width="184" height="251" rx="23" fill="none" stroke="#d59621" stroke-width="1.2" opacity=".32" transform="rotate(.18 632.5 445)"/>
<text x="632" y="365" font-family="'Kaiti SC','STKaiti','Noto Sans SC',sans-serif" font-size="27" font-weight="700" fill="#d59621" text-anchor="middle" opacity="1"><tspan x="632" dy="0">Evidence</tspan></text>
<text x="632" y="408" font-family="'Kaiti SC','STKaiti','Noto Sans SC',sans-serif" font-size="22" font-weight="500" fill="#1e3a5f" text-anchor="middle" opacity="1"><tspan x="632" dy="0">来源</tspan><tspan x="632" dy="28.16">范围</tspan><tspan x="632" dy="28.16">哈希</tspan><tspan x="632" dy="28.16">新鲜度</tspan></text>
<rect x="755" y="320" width="175" height="250" rx="22" fill="#e9e0f4" stroke="#7651a6" stroke-width="3"/><rect x="757" y="319" width="174" height="251" rx="23" fill="none" stroke="#7651a6" stroke-width="1.2" opacity=".32" transform="rotate(.18 842.5 445)"/>
<text x="842" y="365" font-family="'Kaiti SC','STKaiti','Noto Sans SC',sans-serif" font-size="27" font-weight="700" fill="#7651a6" text-anchor="middle" opacity="1"><tspan x="842" dy="0">Join</tspan></text>
<text x="842" y="408" font-family="'Kaiti SC','STKaiti','Noto Sans SC',sans-serif" font-size="22" font-weight="500" fill="#1e3a5f" text-anchor="middle" opacity="1"><tspan x="842" dy="0">等待</tspan><tspan x="842" dy="28.16">阈值</tspan><tspan x="842" dy="28.16">冲突</tspan><tspan x="842" dy="28.16">超时</tspan></text>
<path d="M 295 445 C 305 443, 315 447, 325 445" fill="none" stroke="#1e3a5f" stroke-width="4" stroke-linecap="round" marker-end="url(#arrow-1e3a5f)" opacity="1"/>
<path d="M 510 445 C 520 443, 530 447, 540 445" fill="none" stroke="#3c8d77" stroke-width="4" stroke-linecap="round" marker-end="url(#arrow-3c8d77)" opacity="1"/>
<path d="M 725 445 C 735 443, 745 447, 755 445" fill="none" stroke="#d59621" stroke-width="4" stroke-linecap="round" marker-end="url(#arrow-d59621)" opacity="1"/>
<text x="110" y="635" font-family="'Kaiti SC','STKaiti','Noto Sans SC',sans-serif" font-size="25" font-weight="650" fill="#55708f" text-anchor="start" opacity="1"><tspan x="110" dy="0">合同可测试 · 失败可表达 · 结论可追溯</tspan></text>
<rect x="1030" y="215" width="500" height="500" rx="22" fill="#fffdf7" stroke="#1e3a5f" stroke-width="3"/><rect x="1032" y="214" width="499" height="501" rx="23" fill="none" stroke="#1e3a5f" stroke-width="1.2" opacity=".32" transform="rotate(.18 1280 465)"/>
<text x="1070" y="270" font-family="'Kaiti SC','STKaiti','Noto Sans SC',sans-serif" font-size="31" font-weight="750" fill="#1e3a5f" text-anchor="start" opacity="1"><tspan x="1070" dy="0">协议与运行时分层</tspan></text>
<rect x="1070" y="320" width="420" height="82" rx="22" fill="#dfeaf4" stroke="#1e3a5f" stroke-width="3"/><rect x="1072" y="319" width="419" height="83" rx="23" fill="none" stroke="#1e3a5f" stroke-width="1.2" opacity=".32" transform="rotate(.18 1280 361)"/>
<text x="1280" y="371" font-family="'Kaiti SC','STKaiti','Noto Sans SC',sans-serif" font-size="24" font-weight="650" fill="#1e3a5f" text-anchor="middle" opacity="1"><tspan x="1280" dy="0">Agent ↔ Agent：A2A / Queue / RPC</tspan></text>
<rect x="1070" y="425" width="420" height="82" rx="22" fill="#dcefe7" stroke="#3c8d77" stroke-width="3"/><rect x="1072" y="424" width="419" height="83" rx="23" fill="none" stroke="#3c8d77" stroke-width="1.2" opacity=".32" transform="rotate(.18 1280 466)"/>
<text x="1280" y="476" font-family="'Kaiti SC','STKaiti','Noto Sans SC',sans-serif" font-size="24" font-weight="650" fill="#3c8d77" text-anchor="middle" opacity="1"><tspan x="1280" dy="0">Agent ↔ Tool：MCP / Tool Calling</tspan></text>
<rect x="1070" y="530" width="420" height="115" rx="22" fill="#f7e7b8" stroke="#d59621" stroke-width="3"/><rect x="1072" y="529" width="419" height="116" rx="23" fill="none" stroke="#d59621" stroke-width="1.2" opacity=".32" transform="rotate(.18 1280 587.5)"/>
<text x="1280" y="573" font-family="'Kaiti SC','STKaiti','Noto Sans SC',sans-serif" font-size="25" font-weight="700" fill="#d59621" text-anchor="middle" opacity="1"><tspan x="1280" dy="0">控制与证据</tspan></text>
<text x="1280" y="612" font-family="'Kaiti SC','STKaiti','Noto Sans SC',sans-serif" font-size="21" font-weight="500" fill="#1e3a5f" text-anchor="middle" opacity="1"><tspan x="1280" dy="0">Workflow · Ledger · Artifact · Trace</tspan></text>
<text x="800" y="795" font-family="'Kaiti SC','STKaiti','Noto Sans SC',sans-serif" font-size="27" font-weight="700" fill="#c94c4c" text-anchor="middle" opacity="1"><tspan x="800" dy="0">协议保证互操作，不替代任务分解、授权、证据质量和全局收敛。</tspan></text>

<text x="1525" y="860" font-family="'Kaiti SC','STKaiti',sans-serif" font-size="18" fill="#55708f" text-anchor="end">生产级多智能体系统 · 第 03 章</text>
</svg>