<svg xmlns="http://www.w3.org/2000/svg" width="1600" height="900" viewBox="0 0 1600 900" role="img">
<defs><marker id="arrow-1e3a5f" viewBox="0 0 10 10" refX="9" refY="5" markerWidth="8" markerHeight="8" orient="auto-start-reverse"><path d="M 0 0 L 10 5 L 0 10 z" fill="#1e3a5f"/></marker><marker id="arrow-d59621" viewBox="0 0 10 10" refX="9" refY="5" markerWidth="8" markerHeight="8" orient="auto-start-reverse"><path d="M 0 0 L 10 5 L 0 10 z" fill="#d59621"/></marker><marker id="arrow-3c8d77" viewBox="0 0 10 10" refX="9" refY="5" markerWidth="8" markerHeight="8" orient="auto-start-reverse"><path d="M 0 0 L 10 5 L 0 10 z" fill="#3c8d77"/></marker><marker id="arrow-c94c4c" viewBox="0 0 10 10" refX="9" refY="5" markerWidth="8" markerHeight="8" orient="auto-start-reverse"><path d="M 0 0 L 10 5 L 0 10 z" fill="#c94c4c"/></marker><marker id="arrow-7651a6" viewBox="0 0 10 10" refX="9" refY="5" markerWidth="8" markerHeight="8" orient="auto-start-reverse"><path d="M 0 0 L 10 5 L 0 10 z" fill="#7651a6"/></marker><marker id="arrow-55708f" viewBox="0 0 10 10" refX="9" refY="5" markerWidth="8" markerHeight="8" orient="auto-start-reverse"><path d="M 0 0 L 10 5 L 0 10 z" fill="#55708f"/></marker><filter id="paper"><feTurbulence type="fractalNoise" baseFrequency=".9" numOctaves="2" seed="7" result="n"/><feBlend in="SourceGraphic" in2="n" mode="multiply"/></filter></defs>
<rect width="1600" height="900" fill="#fbf7ec"/>
<path d="M 20 180 C 420 171, 920 190, 1580 177 M 30 718 C 530 727, 980 707, 1570 721" stroke="#e7dfce" stroke-width="2" fill="none" opacity=".52"/>

<text x="70" y="76" font-family="'Kaiti SC','STKaiti','Noto Sans SC',sans-serif" font-size="43" font-weight="760" fill="#1e3a5f" text-anchor="start" opacity="1"><tspan x="70" dy="0">同一条箭头，两种所有权</tspan></text><path d="M 70 94 C 260 88, 470 101, 680 93" fill="none" stroke="#d59621" stroke-width="7" stroke-linecap="round" opacity=".85"/><text x="72" y="128" font-family="'Kaiti SC','STKaiti','Noto Sans SC',sans-serif" font-size="23" font-weight="500" fill="#55708f" text-anchor="start" opacity="1"><tspan x="72" dy="0">Handoff 转移当前责任；Supervisor 保留全局责任，只委托子任务。</tspan></text>
<rect x="70" y="205" width="690" height="555" rx="22" fill="#fffdf7" stroke="#d59621" stroke-width="3"/><rect x="72" y="204" width="689" height="556" rx="23" fill="none" stroke="#d59621" stroke-width="1.2" opacity=".32" transform="rotate(.18 415 482.5)"/>
<rect x="105" y="235" width="210" height="52" rx="26" fill="#f7e7b8" stroke="#d59621" stroke-width="2.4"/><rect x="107" y="234" width="209" height="53" rx="27" fill="none" stroke="#d59621" stroke-width="1.2" opacity=".32" transform="rotate(.18 210 261)"/><text x="210" y="269" font-family="'Kaiti SC','STKaiti','Noto Sans SC',sans-serif" font-size="29" font-weight="650" fill="#d59621" text-anchor="middle" opacity="1"><tspan x="210" dy="0">Handoff</tspan></text>
<text x="105" y="330" font-family="'Kaiti SC','STKaiti','Noto Sans SC',sans-serif" font-size="28" font-weight="720" fill="#d59621" text-anchor="start" opacity="1"><tspan x="105" dy="0">所有权随控制权一起转移</tspan></text>
<rect x="125" y="405" width="205" height="125" rx="22" fill="#dfeaf4" stroke="#1e3a5f" stroke-width="3"/><rect x="127" y="404" width="204" height="126" rx="23" fill="none" stroke="#1e3a5f" stroke-width="1.2" opacity=".32" transform="rotate(.18 227.5 467.5)"/>
<text x="227" y="457" font-family="'Kaiti SC','STKaiti','Noto Sans SC',sans-serif" font-size="29" font-weight="680" fill="#1e3a5f" text-anchor="middle" opacity="1"><tspan x="227" dy="0">前台 Agent</tspan></text>
<text x="227" y="493" font-family="'Kaiti SC','STKaiti','Noto Sans SC',sans-serif" font-size="21" font-weight="500" fill="#55708f" text-anchor="middle" opacity="1"><tspan x="227" dy="0">原责任主体</tspan></text>
<rect x="500" y="405" width="205" height="125" rx="22" fill="#f7e7b8" stroke="#d59621" stroke-width="3"/><rect x="502" y="404" width="204" height="126" rx="23" fill="none" stroke="#d59621" stroke-width="1.2" opacity=".32" transform="rotate(.18 602.5 467.5)"/>
<text x="602" y="457" font-family="'Kaiti SC','STKaiti','Noto Sans SC',sans-serif" font-size="29" font-weight="680" fill="#d59621" text-anchor="middle" opacity="1"><tspan x="602" dy="0">争议 Agent</tspan></text>
<text x="602" y="493" font-family="'Kaiti SC','STKaiti','Noto Sans SC',sans-serif" font-size="21" font-weight="500" fill="#55708f" text-anchor="middle" opacity="1"><tspan x="602" dy="0">新责任主体</tspan></text>
<path d="M 330 466 C 386.6666666666667 464, 443.3333333333333 468, 500 466" fill="none" stroke="#d59621" stroke-width="6" stroke-linecap="round" marker-end="url(#arrow-d59621)" opacity="1"/>
<text x="415" y="433" font-family="'Kaiti SC','STKaiti','Noto Sans SC',sans-serif" font-size="20" font-weight="650" fill="#55708f" text-anchor="middle" opacity="1"><tspan x="415" dy="0">交接合同</tspan></text>
<text x="105" y="600" font-family="'Kaiti SC','STKaiti','Noto Sans SC',sans-serif" font-size="24" font-weight="500" fill="#1e3a5f" text-anchor="start" opacity="1"><tspan x="105" dy="0">适合：阶段或责任领域明确切换</tspan><tspan x="105" dy="30.72">关键控制：交接摘要、路由历史、循环保护</tspan></text>
<rect x="840" y="205" width="690" height="555" rx="22" fill="#fffdf7" stroke="#3c8d77" stroke-width="3"/><rect x="842" y="204" width="689" height="556" rx="23" fill="none" stroke="#3c8d77" stroke-width="1.2" opacity=".32" transform="rotate(.18 1185 482.5)"/>
<rect x="875" y="235" width="235" height="52" rx="26" fill="#dcefe7" stroke="#3c8d77" stroke-width="2.4"/><rect x="877" y="234" width="234" height="53" rx="27" fill="none" stroke="#3c8d77" stroke-width="1.2" opacity=".32" transform="rotate(.18 992.5 261)"/><text x="992.5" y="269" font-family="'Kaiti SC','STKaiti','Noto Sans SC',sans-serif" font-size="29" font-weight="650" fill="#3c8d77" text-anchor="middle" opacity="1"><tspan x="992.5" dy="0">Supervisor</tspan></text>
<text x="875" y="330" font-family="'Kaiti SC','STKaiti','Noto Sans SC',sans-serif" font-size="28" font-weight="720" fill="#3c8d77" text-anchor="start" opacity="1"><tspan x="875" dy="0">全局所有权始终保留</tspan></text>
<rect x="1065" y="380" width="240" height="130" rx="22" fill="#dcefe7" stroke="#3c8d77" stroke-width="3"/><rect x="1067" y="379" width="239" height="131" rx="23" fill="none" stroke="#3c8d77" stroke-width="1.2" opacity=".32" transform="rotate(.18 1185 445)"/>
<text x="1185" y="432" font-family="'Kaiti SC','STKaiti','Noto Sans SC',sans-serif" font-size="30" font-weight="720" fill="#3c8d77" text-anchor="middle" opacity="1"><tspan x="1185" dy="0">Supervisor</tspan></text>
<text x="1185" y="470" font-family="'Kaiti SC','STKaiti','Noto Sans SC',sans-serif" font-size="21" font-weight="500" fill="#55708f" text-anchor="middle" opacity="1"><tspan x="1185" dy="0">目标 · 预算 · 结果</tspan></text>
<rect x="885" y="580" width="195" height="105" rx="22" fill="#dfeaf4" stroke="#1e3a5f" stroke-width="3"/><rect x="887" y="579" width="194" height="106" rx="23" fill="none" stroke="#1e3a5f" stroke-width="1.2" opacity=".32" transform="rotate(.18 982.5 632.5)"/>
<text x="982" y="643" font-family="'Kaiti SC','STKaiti','Noto Sans SC',sans-serif" font-size="27" font-weight="650" fill="#1e3a5f" text-anchor="middle" opacity="1"><tspan x="982" dy="0">日志专家</tspan></text>
<rect x="1290" y="580" width="195" height="105" rx="22" fill="#e9e0f4" stroke="#7651a6" stroke-width="3"/><rect x="1292" y="579" width="194" height="106" rx="23" fill="none" stroke="#7651a6" stroke-width="1.2" opacity=".32" transform="rotate(.18 1387.5 632.5)"/>
<text x="1387" y="643" font-family="'Kaiti SC','STKaiti','Noto Sans SC',sans-serif" font-size="27" font-weight="650" fill="#7651a6" text-anchor="middle" opacity="1"><tspan x="1387" dy="0">安全专家</tspan></text>
<path d="M 1120 510 C 1083.3333333333333 508, 1046.6666666666667 582, 1010 580" fill="none" stroke="#3c8d77" stroke-width="4" stroke-linecap="round" marker-end="url(#arrow-3c8d77)" opacity="1"/>
<path d="M 1250 510 C 1286.6666666666667 508, 1323.3333333333333 582, 1360 580" fill="none" stroke="#3c8d77" stroke-width="4" stroke-linecap="round" marker-end="url(#arrow-3c8d77)" opacity="1"/>
<text x="1185" y="555" font-family="'Kaiti SC','STKaiti','Noto Sans SC',sans-serif" font-size="21" font-weight="500" fill="#55708f" text-anchor="middle" opacity="1"><tspan x="1185" dy="0">受限子任务</tspan></text>
<text x="800" y="830" font-family="'Kaiti SC','STKaiti','Noto Sans SC',sans-serif" font-size="25" font-weight="650" fill="#1e3a5f" text-anchor="middle" opacity="1"><tspan x="800" dy="0">判断句：接手“用户接下来由谁负责”是 Handoff；回答“全局任务中的一个问题”是委托。</tspan></text>

<text x="1525" y="860" font-family="'Kaiti SC','STKaiti',sans-serif" font-size="18" fill="#55708f" text-anchor="end">生产级多智能体系统 · 第 03 章</text>
</svg>