<svg xmlns="http://www.w3.org/2000/svg" width="1600" height="900" viewBox="0 0 1600 900" role="img">
<defs><marker id="arrow-1e3a5f" viewBox="0 0 10 10" refX="9" refY="5" markerWidth="8" markerHeight="8" orient="auto-start-reverse"><path d="M 0 0 L 10 5 L 0 10 z" fill="#1e3a5f"/></marker><marker id="arrow-d59621" viewBox="0 0 10 10" refX="9" refY="5" markerWidth="8" markerHeight="8" orient="auto-start-reverse"><path d="M 0 0 L 10 5 L 0 10 z" fill="#d59621"/></marker><marker id="arrow-3c8d77" viewBox="0 0 10 10" refX="9" refY="5" markerWidth="8" markerHeight="8" orient="auto-start-reverse"><path d="M 0 0 L 10 5 L 0 10 z" fill="#3c8d77"/></marker><marker id="arrow-c94c4c" viewBox="0 0 10 10" refX="9" refY="5" markerWidth="8" markerHeight="8" orient="auto-start-reverse"><path d="M 0 0 L 10 5 L 0 10 z" fill="#c94c4c"/></marker><marker id="arrow-7651a6" viewBox="0 0 10 10" refX="9" refY="5" markerWidth="8" markerHeight="8" orient="auto-start-reverse"><path d="M 0 0 L 10 5 L 0 10 z" fill="#7651a6"/></marker><marker id="arrow-55708f" viewBox="0 0 10 10" refX="9" refY="5" markerWidth="8" markerHeight="8" orient="auto-start-reverse"><path d="M 0 0 L 10 5 L 0 10 z" fill="#55708f"/></marker><filter id="paper"><feTurbulence type="fractalNoise" baseFrequency=".9" numOctaves="2" seed="7" result="n"/><feBlend in="SourceGraphic" in2="n" mode="multiply"/></filter></defs>
<rect width="1600" height="900" fill="#fbf7ec"/>
<path d="M 20 180 C 420 171, 920 190, 1580 177 M 30 718 C 530 727, 980 707, 1570 721" stroke="#e7dfce" stroke-width="2" fill="none" opacity=".52"/>

<text x="70" y="76" font-family="'Kaiti SC','STKaiti','Noto Sans SC',sans-serif" font-size="43" font-weight="760" fill="#1e3a5f" text-anchor="start" opacity="1"><tspan x="70" dy="0">多 Agent 架构，先回答五个控制问题</tspan></text><path d="M 70 94 C 260 88, 470 101, 680 93" fill="none" stroke="#d59621" stroke-width="7" stroke-linecap="round" opacity=".85"/><text x="72" y="128" font-family="'Kaiti SC','STKaiti','Noto Sans SC',sans-serif" font-size="23" font-weight="500" fill="#55708f" text-anchor="start" opacity="1"><tspan x="72" dy="0">模式名称只是表象；真正决定系统行为的是控制与责任。</tspan></text>
<rect x="585" y="325" width="430" height="200" rx="90" fill="#fffdf7" stroke="#1e3a5f" stroke-width="4"/><rect x="587" y="324" width="429" height="201" rx="91" fill="none" stroke="#1e3a5f" stroke-width="1.2" opacity=".32" transform="rotate(.18 800 425)"/>
<text x="800" y="395" font-family="'Kaiti SC','STKaiti','Noto Sans SC',sans-serif" font-size="45" font-weight="760" fill="#1e3a5f" text-anchor="middle" opacity="1"><tspan x="800" dy="0">多 Agent</tspan></text>
<text x="800" y="446" font-family="'Kaiti SC','STKaiti','Noto Sans SC',sans-serif" font-size="31" font-weight="500" fill="#55708f" text-anchor="middle" opacity="1"><tspan x="800" dy="0">分布式控制系统</tspan></text>
<text x="800" y="490" font-family="'Kaiti SC','STKaiti','Noto Sans SC',sans-serif" font-size="24" font-weight="650" fill="#c94c4c" text-anchor="middle" opacity="1"><tspan x="800" dy="0">不是“多开几个模型”</tspan></text>
<rect x="90" y="235" width="310" height="150" rx="22" fill="#dfeaf4" stroke="#1e3a5f" stroke-width="3"/><rect x="92" y="234" width="309" height="151" rx="23" fill="none" stroke="#1e3a5f" stroke-width="1.2" opacity=".32" transform="rotate(.18 245 310)"/>
<text x="245" y="285" font-family="'Kaiti SC','STKaiti','Noto Sans SC',sans-serif" font-size="31" font-weight="720" fill="#1e3a5f" text-anchor="middle" opacity="1"><tspan x="245" dy="0">① 控制权</tspan></text>
<text x="245" y="328" font-family="'Kaiti SC','STKaiti','Noto Sans SC',sans-serif" font-size="24" font-weight="500" fill="#1e3a5f" text-anchor="middle" opacity="1"><tspan x="245" dy="0">谁决定下一步？</tspan></text>
<rect x="1200" y="235" width="310" height="150" rx="22" fill="#f7e7b8" stroke="#d59621" stroke-width="3"/><rect x="1202" y="234" width="309" height="151" rx="23" fill="none" stroke="#d59621" stroke-width="1.2" opacity=".32" transform="rotate(.18 1355 310)"/>
<text x="1355" y="285" font-family="'Kaiti SC','STKaiti','Noto Sans SC',sans-serif" font-size="31" font-weight="720" fill="#d59621" text-anchor="middle" opacity="1"><tspan x="1355" dy="0">② 所有权</tspan></text>
<text x="1355" y="328" font-family="'Kaiti SC','STKaiti','Noto Sans SC',sans-serif" font-size="24" font-weight="500" fill="#1e3a5f" text-anchor="middle" opacity="1"><tspan x="1355" dy="0">谁对结果负责？</tspan></text>
<rect x="80" y="570" width="320" height="150" rx="22" fill="#dcefe7" stroke="#3c8d77" stroke-width="3"/><rect x="82" y="569" width="319" height="151" rx="23" fill="none" stroke="#3c8d77" stroke-width="1.2" opacity=".32" transform="rotate(.18 240 645)"/>
<text x="240" y="620" font-family="'Kaiti SC','STKaiti','Noto Sans SC',sans-serif" font-size="31" font-weight="720" fill="#3c8d77" text-anchor="middle" opacity="1"><tspan x="240" dy="0">③ 拓扑</tspan></text>
<text x="240" y="663" font-family="'Kaiti SC','STKaiti','Noto Sans SC',sans-serif" font-size="23" font-weight="500" fill="#1e3a5f" text-anchor="middle" opacity="1"><tspan x="240" dy="0">信息和控制怎样流动？</tspan></text>
<rect x="640" y="625" width="320" height="150" rx="22" fill="#e9e0f4" stroke="#7651a6" stroke-width="3"/><rect x="642" y="624" width="319" height="151" rx="23" fill="none" stroke="#7651a6" stroke-width="1.2" opacity=".32" transform="rotate(.18 800 700)"/>
<text x="800" y="675" font-family="'Kaiti SC','STKaiti','Noto Sans SC',sans-serif" font-size="31" font-weight="720" fill="#7651a6" text-anchor="middle" opacity="1"><tspan x="800" dy="0">④ 边界</tspan></text>
<text x="800" y="718" font-family="'Kaiti SC','STKaiti','Noto Sans SC',sans-serif" font-size="24" font-weight="500" fill="#1e3a5f" text-anchor="middle" opacity="1"><tspan x="800" dy="0">为什么必须拆开？</tspan></text>
<rect x="1200" y="570" width="310" height="150" rx="22" fill="#f7dddd" stroke="#c94c4c" stroke-width="3"/><rect x="1202" y="569" width="309" height="151" rx="23" fill="none" stroke="#c94c4c" stroke-width="1.2" opacity=".32" transform="rotate(.18 1355 645)"/>
<text x="1355" y="620" font-family="'Kaiti SC','STKaiti','Noto Sans SC',sans-serif" font-size="31" font-weight="720" fill="#c94c4c" text-anchor="middle" opacity="1"><tspan x="1355" dy="0">⑤ 收敛</tspan></text>
<text x="1355" y="663" font-family="'Kaiti SC','STKaiti','Noto Sans SC',sans-serif" font-size="23" font-weight="500" fill="#1e3a5f" text-anchor="middle" opacity="1"><tspan x="1355" dy="0">怎样确认完成或停止？</tspan></text>
<path d="M 400 310 C 461.6666666666667 308, 523.3333333333334 387, 585 385" fill="none" stroke="#1e3a5f" stroke-width="4" stroke-linecap="round" marker-end="url(#arrow-1e3a5f)" opacity="1"/>
<path d="M 1200 310 C 1138.3333333333333 308, 1076.6666666666667 387, 1015 385" fill="none" stroke="#d59621" stroke-width="4" stroke-linecap="round" marker-end="url(#arrow-d59621)" opacity="1"/>
<path d="M 400 620 C 466.6666666666667 618, 533.3333333333334 502, 600 500" fill="none" stroke="#3c8d77" stroke-width="4" stroke-linecap="round" marker-end="url(#arrow-3c8d77)" opacity="1"/>
<path d="M 800 625 C 800 623, 800 527, 800 525" fill="none" stroke="#7651a6" stroke-width="4" stroke-linecap="round" marker-end="url(#arrow-7651a6)" opacity="1"/>
<path d="M 1200 620 C 1133.3333333333333 618, 1066.6666666666667 502, 1000 500" fill="none" stroke="#c94c4c" stroke-width="4" stroke-linecap="round" marker-end="url(#arrow-c94c4c)" opacity="1"/>
<text x="77" y="805" font-family="'Kaiti SC','STKaiti','Noto Sans SC',sans-serif" font-size="24" font-weight="500" fill="#55708f" text-anchor="start" opacity="1"><tspan x="77" dy="0">故障语义贯穿五个问题：谁处理、谁承担、传播多远、能否隔离、何时停止。</tspan></text>

<text x="1525" y="860" font-family="'Kaiti SC','STKaiti',sans-serif" font-size="18" fill="#55708f" text-anchor="end">生产级多智能体系统 · 第 03 章</text>
</svg>