<svg xmlns="http://www.w3.org/2000/svg" width="1600" height="900" viewBox="0 0 1600 900" role="img">
<defs><marker id="arrow-1e3a5f" viewBox="0 0 10 10" refX="9" refY="5" markerWidth="8" markerHeight="8" orient="auto-start-reverse"><path d="M 0 0 L 10 5 L 0 10 z" fill="#1e3a5f"/></marker><marker id="arrow-d59621" viewBox="0 0 10 10" refX="9" refY="5" markerWidth="8" markerHeight="8" orient="auto-start-reverse"><path d="M 0 0 L 10 5 L 0 10 z" fill="#d59621"/></marker><marker id="arrow-3c8d77" viewBox="0 0 10 10" refX="9" refY="5" markerWidth="8" markerHeight="8" orient="auto-start-reverse"><path d="M 0 0 L 10 5 L 0 10 z" fill="#3c8d77"/></marker><marker id="arrow-c94c4c" viewBox="0 0 10 10" refX="9" refY="5" markerWidth="8" markerHeight="8" orient="auto-start-reverse"><path d="M 0 0 L 10 5 L 0 10 z" fill="#c94c4c"/></marker><marker id="arrow-7651a6" viewBox="0 0 10 10" refX="9" refY="5" markerWidth="8" markerHeight="8" orient="auto-start-reverse"><path d="M 0 0 L 10 5 L 0 10 z" fill="#7651a6"/></marker><marker id="arrow-55708f" viewBox="0 0 10 10" refX="9" refY="5" markerWidth="8" markerHeight="8" orient="auto-start-reverse"><path d="M 0 0 L 10 5 L 0 10 z" fill="#55708f"/></marker><filter id="paper"><feTurbulence type="fractalNoise" baseFrequency=".9" numOctaves="2" seed="7" result="n"/><feBlend in="SourceGraphic" in2="n" mode="multiply"/></filter></defs>
<rect width="1600" height="900" fill="#fbf7ec"/>
<path d="M 20 180 C 420 171, 920 190, 1580 177 M 30 718 C 530 727, 980 707, 1570 721" stroke="#e7dfce" stroke-width="2" fill="none" opacity=".52"/>

<text x="70" y="76" font-family="'Kaiti SC','STKaiti','Noto Sans SC',sans-serif" font-size="43" font-weight="760" fill="#1e3a5f" text-anchor="start" opacity="1"><tspan x="70" dy="0">模式不是菜单，而是五类控制结构</tspan></text><path d="M 70 94 C 260 88, 470 101, 680 93" fill="none" stroke="#d59621" stroke-width="7" stroke-linecap="round" opacity=".85"/><text x="72" y="128" font-family="'Kaiti SC','STKaiti','Noto Sans SC',sans-serif" font-size="23" font-weight="500" fill="#55708f" text-anchor="start" opacity="1"><tspan x="72" dy="0">同一系统可以组合模式；每一层都要说明它解决了什么问题。</tspan></text>
<rect x="70" y="205" width="280" height="540" rx="22" fill="#fffdf7" stroke="#1e3a5f" stroke-width="3"/><rect x="72" y="204" width="279" height="541" rx="23" fill="none" stroke="#1e3a5f" stroke-width="1.2" opacity=".32" transform="rotate(.18 210 475)"/>
<rect x="105" y="235" width="210" height="52" rx="26" fill="#dfeaf4" stroke="#1e3a5f" stroke-width="2.4"/><rect x="107" y="234" width="209" height="53" rx="27" fill="none" stroke="#1e3a5f" stroke-width="1.2" opacity=".32" transform="rotate(.18 210 261)"/><text x="210" y="269" font-family="'Kaiti SC','STKaiti','Noto Sans SC',sans-serif" font-size="24" font-weight="650" fill="#1e3a5f" text-anchor="middle" opacity="1"><tspan x="210" dy="0">稳定任务</tspan></text>
<text x="210" y="330" font-family="'Kaiti SC','STKaiti','Noto Sans SC',sans-serif" font-size="27" font-weight="650" fill="#1e3a5f" text-anchor="middle" opacity="1"><tspan x="210" dy="0">确定性流水线</tspan><tspan x="210" dy="34.56">Sequential</tspan><tspan x="210" dy="34.56">Chain-of-Agents</tspan></text>
<text x="210" y="485" font-family="'Kaiti SC','STKaiti','Noto Sans SC',sans-serif" font-size="22" font-weight="500" fill="#55708f" text-anchor="middle" opacity="1"><tspan x="210" dy="0">路径由代码决定</tspan><tspan x="210" dy="28.16">可预测 · 易测试</tspan><tspan x="210" dy="28.16">适合稳定步骤</tspan></text>
<rect x="375" y="205" width="280" height="540" rx="22" fill="#fffdf7" stroke="#7651a6" stroke-width="3"/><rect x="377" y="204" width="279" height="541" rx="23" fill="none" stroke="#7651a6" stroke-width="1.2" opacity=".32" transform="rotate(.18 515 475)"/>
<rect x="410" y="235" width="210" height="52" rx="26" fill="#e9e0f4" stroke="#7651a6" stroke-width="2.4"/><rect x="412" y="234" width="209" height="53" rx="27" fill="none" stroke="#7651a6" stroke-width="1.2" opacity=".32" transform="rotate(.18 515 261)"/><text x="515" y="269" font-family="'Kaiti SC','STKaiti','Noto Sans SC',sans-serif" font-size="24" font-weight="650" fill="#7651a6" text-anchor="middle" opacity="1"><tspan x="515" dy="0">探索问题</tspan></text>
<text x="515" y="330" font-family="'Kaiti SC','STKaiti','Noto Sans SC',sans-serif" font-size="27" font-weight="650" fill="#7651a6" text-anchor="middle" opacity="1"><tspan x="515" dy="0">搜索与审议</tspan><tspan x="515" dy="34.56">Tree-of-Thoughts</tspan><tspan x="515" dy="34.56">Magentic</tspan></text>
<text x="515" y="485" font-family="'Kaiti SC','STKaiti','Noto Sans SC',sans-serif" font-size="22" font-weight="500" fill="#55708f" text-anchor="middle" opacity="1"><tspan x="515" dy="0">探索、评分、重规划</tspan><tspan x="515" dy="28.16">必须限制宽度深度</tspan><tspan x="515" dy="28.16">目标合同保持不变</tspan></text>
<rect x="680" y="205" width="280" height="540" rx="22" fill="#fffdf7" stroke="#d59621" stroke-width="3"/><rect x="682" y="204" width="279" height="541" rx="23" fill="none" stroke="#d59621" stroke-width="1.2" opacity=".32" transform="rotate(.18 820 475)"/>
<rect x="715" y="235" width="210" height="52" rx="26" fill="#f7e7b8" stroke="#d59621" stroke-width="2.4"/><rect x="717" y="234" width="209" height="53" rx="27" fill="none" stroke="#d59621" stroke-width="1.2" opacity=".32" transform="rotate(.18 820 261)"/><text x="820" y="269" font-family="'Kaiti SC','STKaiti','Noto Sans SC',sans-serif" font-size="24" font-weight="650" fill="#d59621" text-anchor="middle" opacity="1"><tspan x="820" dy="0">责任变化</tspan></text>
<text x="820" y="330" font-family="'Kaiti SC','STKaiti','Noto Sans SC',sans-serif" font-size="27" font-weight="650" fill="#d59621" text-anchor="middle" opacity="1"><tspan x="820" dy="0">控制权切换</tspan><tspan x="820" dy="34.56">Handoff</tspan><tspan x="820" dy="34.56">Supervisor</tspan></text>
<text x="820" y="485" font-family="'Kaiti SC','STKaiti','Noto Sans SC',sans-serif" font-size="22" font-weight="500" fill="#55708f" text-anchor="middle" opacity="1"><tspan x="820" dy="0">移交当前责任</tspan><tspan x="820" dy="28.16">或保留全局责任</tspan><tspan x="820" dy="28.16">所有权必须明确</tspan></text>
<rect x="985" y="205" width="280" height="540" rx="22" fill="#fffdf7" stroke="#3c8d77" stroke-width="3"/><rect x="987" y="204" width="279" height="541" rx="23" fill="none" stroke="#3c8d77" stroke-width="1.2" opacity=".32" transform="rotate(.18 1125 475)"/>
<rect x="1020" y="235" width="210" height="52" rx="26" fill="#dcefe7" stroke="#3c8d77" stroke-width="2.4"/><rect x="1022" y="234" width="209" height="53" rx="27" fill="none" stroke="#3c8d77" stroke-width="1.2" opacity=".32" transform="rotate(.18 1125 261)"/><text x="1125" y="269" font-family="'Kaiti SC','STKaiti','Noto Sans SC',sans-serif" font-size="24" font-weight="650" fill="#3c8d77" text-anchor="middle" opacity="1"><tspan x="1125" dy="0">独立子任务</tspan></text>
<text x="1125" y="330" font-family="'Kaiti SC','STKaiti','Noto Sans SC',sans-serif" font-size="27" font-weight="650" fill="#3c8d77" text-anchor="middle" opacity="1"><tspan x="1125" dy="0">并行聚合</tspan><tspan x="1125" dy="34.56">Router</tspan><tspan x="1125" dy="34.56">Fan-Out / Join</tspan></text>
<text x="1125" y="485" font-family="'Kaiti SC','STKaiti','Noto Sans SC',sans-serif" font-size="22" font-weight="500" fill="#55708f" text-anchor="middle" opacity="1"><tspan x="1125" dy="0">并行缩短关键路径</tspan><tspan x="1125" dy="28.16">难点在 Join</tspan><tspan x="1125" dy="28.16">部分结果要有语义</tspan></text>
<rect x="1290" y="205" width="240" height="540" rx="22" fill="#fffdf7" stroke="#c94c4c" stroke-width="3"/><rect x="1292" y="204" width="239" height="541" rx="23" fill="none" stroke="#c94c4c" stroke-width="1.2" opacity=".32" transform="rotate(.18 1410 475)"/>
<rect x="1305" y="235" width="210" height="52" rx="26" fill="#f7dddd" stroke="#c94c4c" stroke-width="2.4"/><rect x="1307" y="234" width="209" height="53" rx="27" fill="none" stroke="#c94c4c" stroke-width="1.2" opacity=".32" transform="rotate(.18 1410 261)"/><text x="1410" y="269" font-family="'Kaiti SC','STKaiti','Noto Sans SC',sans-serif" font-size="24" font-weight="650" fill="#c94c4c" text-anchor="middle" opacity="1"><tspan x="1410" dy="0">组织复杂</tspan></text>
<text x="1410" y="330" font-family="'Kaiti SC','STKaiti','Noto Sans SC',sans-serif" font-size="25" font-weight="650" fill="#c94c4c" text-anchor="middle" opacity="1"><tspan x="1410" dy="0">组织与元模式</tspan><tspan x="1410" dy="32">Hierarchical</tspan><tspan x="1410" dy="32">Semantic Consensus</tspan></text>
<text x="1410" y="485" font-family="'Kaiti SC','STKaiti','Noto Sans SC',sans-serif" font-size="22" font-weight="500" fill="#55708f" text-anchor="middle" opacity="1"><tspan x="1410" dy="0">分层团队与汇总</tspan><tspan x="1410" dy="28.16">证据独立性优先</tspan><tspan x="1410" dy="28.16">不是简单多数票</tspan></text>
<text x="800" y="812" font-family="'Kaiti SC','STKaiti','Noto Sans SC',sans-serif" font-size="25" font-weight="650" fill="#1e3a5f" text-anchor="middle" opacity="1"><tspan x="800" dy="0">选择原则：使用能够满足约束的最小动态结构；新增模式必须用质量、延迟、成本或风险收益证明。</tspan></text>

<text x="1525" y="860" font-family="'Kaiti SC','STKaiti',sans-serif" font-size="18" fill="#55708f" text-anchor="end">生产级多智能体系统 · 第 03 章</text>
</svg>