<svg xmlns="http://www.w3.org/2000/svg" width="1600" height="900" viewBox="0 0 1600 900"><defs><marker id="arrow-1e3a5f" viewBox="0 0 10 10" refX="9" refY="5" markerWidth="7" markerHeight="7" orient="auto-start-reverse"><path d="M 0 0 L 10 5 L 0 10 z" fill="#1e3a5f"/></marker><marker id="arrow-d59621" viewBox="0 0 10 10" refX="9" refY="5" markerWidth="7" markerHeight="7" orient="auto-start-reverse"><path d="M 0 0 L 10 5 L 0 10 z" fill="#d59621"/></marker><marker id="arrow-3c8d77" viewBox="0 0 10 10" refX="9" refY="5" markerWidth="7" markerHeight="7" orient="auto-start-reverse"><path d="M 0 0 L 10 5 L 0 10 z" fill="#3c8d77"/></marker><marker id="arrow-c94c4c" viewBox="0 0 10 10" refX="9" refY="5" markerWidth="7" markerHeight="7" orient="auto-start-reverse"><path d="M 0 0 L 10 5 L 0 10 z" fill="#c94c4c"/></marker><marker id="arrow-7651a6" viewBox="0 0 10 10" refX="9" refY="5" markerWidth="7" markerHeight="7" orient="auto-start-reverse"><path d="M 0 0 L 10 5 L 0 10 z" fill="#7651a6"/></marker><filter id="paper"><feTurbulence type="fractalNoise" baseFrequency=".8" numOctaves="2" seed="10" result="noise"/><feColorMatrix in="noise" type="saturate" values="0"/><feComponentTransfer><feFuncA type="table" tableValues="0 .035"/></feComponentTransfer></filter></defs><rect width="1600" height="900" fill="#fbf7ec"/><rect width="1600" height="900" fill="#38516d" filter="url(#paper)" opacity=".16"/>
<text x="70" y="82" font-family="'Kaiti SC','STKaiti','Noto Sans SC',sans-serif" font-size="43" font-weight="800" fill="#1e3a5f" text-anchor="start"><tspan x="70" dy="0">验收证据链：从 Requirement 到 Sign-off</tspan></text><text x="72" y="128" font-family="'Kaiti SC','STKaiti','Noto Sans SC',sans-serif" font-size="22" font-weight="500" fill="#55708f" text-anchor="start"><tspan x="72" dy="0">一个节点缺失，系统声明就只能降级为假设。</tspan></text><path d="M 70 160 C 556.6666666666666 158, 1043.3333333333333 162, 1530 160" fill="none" stroke="#d59621" stroke-width="3" stroke-linecap="round" stroke-dasharray="10 10"/>
<rect x="40" y="300" width="180" height="155" rx="22" fill="#dfeaf4" stroke="#1e3a5f" stroke-width="3"/><rect x="42" y="299" width="179" height="156" rx="23" fill="none" stroke="#1e3a5f" stroke-width="1.2" opacity=".28" transform="rotate(.18 130 377.5)"/><text x="130" y="353" font-family="'Kaiti SC','STKaiti','Noto Sans SC',sans-serif" font-size="24" font-weight="800" fill="#1e3a5f" text-anchor="middle"><tspan x="130" dy="0">Requirement</tspan></text><text x="130" y="402" font-family="'Kaiti SC','STKaiti','Noto Sans SC',sans-serif" font-size="18" font-weight="500" fill="#55708f" text-anchor="middle"><tspan x="130" dy="0">要证明什么</tspan></text><path d="M 220 377 C 231.66666666666666 375, 243.33333333333334 379, 255 377" fill="none" stroke="#1e3a5f" stroke-width="4" stroke-linecap="round" marker-end="url(#arrow-1e3a5f)"/><rect x="260" y="300" width="180" height="155" rx="22" fill="#e9e0f4" stroke="#7651a6" stroke-width="3"/><rect x="262" y="299" width="179" height="156" rx="23" fill="none" stroke="#7651a6" stroke-width="1.2" opacity=".28" transform="rotate(.18 350 377.5)"/><text x="350" y="353" font-family="'Kaiti SC','STKaiti','Noto Sans SC',sans-serif" font-size="24" font-weight="800" fill="#7651a6" text-anchor="middle"><tspan x="350" dy="0">ADR</tspan></text><text x="350" y="402" font-family="'Kaiti SC','STKaiti','Noto Sans SC',sans-serif" font-size="18" font-weight="500" fill="#55708f" text-anchor="middle"><tspan x="350" dy="0">为什么这样设计</tspan></text><path d="M 440 377 C 451.6666666666667 375, 463.3333333333333 379, 475 377" fill="none" stroke="#7651a6" stroke-width="4" stroke-linecap="round" marker-end="url(#arrow-7651a6)"/><rect x="480" y="300" width="180" height="155" rx="22" fill="#dcefe7" stroke="#3c8d77" stroke-width="3"/><rect x="482" y="299" width="179" height="156" rx="23" fill="none" stroke="#3c8d77" stroke-width="1.2" opacity=".28" transform="rotate(.18 570 377.5)"/><text x="570" y="353" font-family="'Kaiti SC','STKaiti','Noto Sans SC',sans-serif" font-size="24" font-weight="800" fill="#3c8d77" text-anchor="middle"><tspan x="570" dy="0">Contract</tspan></text><text x="570" y="402" font-family="'Kaiti SC','STKaiti','Noto Sans SC',sans-serif" font-size="18" font-weight="500" fill="#55708f" text-anchor="middle"><tspan x="570" dy="0">边界必须成立</tspan></text><path d="M 660 377 C 671.6666666666666 375, 683.3333333333334 379, 695 377" fill="none" stroke="#3c8d77" stroke-width="4" stroke-linecap="round" marker-end="url(#arrow-3c8d77)"/><rect x="700" y="300" width="180" height="155" rx="22" fill="#fffdf7" stroke="#1e3a5f" stroke-width="3"/><rect x="702" y="299" width="179" height="156" rx="23" fill="none" stroke="#1e3a5f" stroke-width="1.2" opacity=".28" transform="rotate(.18 790 377.5)"/><text x="790" y="353" font-family="'Kaiti SC','STKaiti','Noto Sans SC',sans-serif" font-size="24" font-weight="800" fill="#1e3a5f" text-anchor="middle"><tspan x="790" dy="0">Implementation</tspan></text><text x="790" y="402" font-family="'Kaiti SC','STKaiti','Noto Sans SC',sans-serif" font-size="18" font-weight="500" fill="#55708f" text-anchor="middle"><tspan x="790" dy="0">哪个版本实现</tspan></text><path d="M 880 377 C 891.6666666666666 375, 903.3333333333334 379, 915 377" fill="none" stroke="#1e3a5f" stroke-width="4" stroke-linecap="round" marker-end="url(#arrow-1e3a5f)"/><rect x="920" y="300" width="180" height="155" rx="22" fill="#f7e7b8" stroke="#d59621" stroke-width="3"/><rect x="922" y="299" width="179" height="156" rx="23" fill="none" stroke="#d59621" stroke-width="1.2" opacity=".28" transform="rotate(.18 1010 377.5)"/><text x="1010" y="353" font-family="'Kaiti SC','STKaiti','Noto Sans SC',sans-serif" font-size="24" font-weight="800" fill="#d59621" text-anchor="middle"><tspan x="1010" dy="0">Test / Eval</tspan></text><text x="1010" y="402" font-family="'Kaiti SC','STKaiti','Noto Sans SC',sans-serif" font-size="18" font-weight="500" fill="#55708f" text-anchor="middle"><tspan x="1010" dy="0">怎样验证</tspan></text><path d="M 1100 377 C 1111.6666666666667 375, 1123.3333333333333 379, 1135 377" fill="none" stroke="#d59621" stroke-width="4" stroke-linecap="round" marker-end="url(#arrow-d59621)"/><rect x="1140" y="300" width="180" height="155" rx="22" fill="#f7dddd" stroke="#c94c4c" stroke-width="3"/><rect x="1142" y="299" width="179" height="156" rx="23" fill="none" stroke="#c94c4c" stroke-width="1.2" opacity=".28" transform="rotate(.18 1230 377.5)"/><text x="1230" y="353" font-family="'Kaiti SC','STKaiti','Noto Sans SC',sans-serif" font-size="24" font-weight="800" fill="#c94c4c" text-anchor="middle"><tspan x="1230" dy="0">Runtime</tspan></text><text x="1230" y="402" font-family="'Kaiti SC','STKaiti','Noto Sans SC',sans-serif" font-size="18" font-weight="500" fill="#55708f" text-anchor="middle"><tspan x="1230" dy="0">生产证据</tspan></text><path d="M 1320 377 C 1331.6666666666667 375, 1343.3333333333333 379, 1355 377" fill="none" stroke="#c94c4c" stroke-width="4" stroke-linecap="round" marker-end="url(#arrow-c94c4c)"/><rect x="1360" y="300" width="180" height="155" rx="22" fill="#dcefe7" stroke="#3c8d77" stroke-width="3"/><rect x="1362" y="299" width="179" height="156" rx="23" fill="none" stroke="#3c8d77" stroke-width="1.2" opacity=".28" transform="rotate(.18 1450 377.5)"/><text x="1450" y="353" font-family="'Kaiti SC','STKaiti','Noto Sans SC',sans-serif" font-size="24" font-weight="800" fill="#3c8d77" text-anchor="middle"><tspan x="1450" dy="0">Sign-off</tspan></text><text x="1450" y="402" font-family="'Kaiti SC','STKaiti','Noto Sans SC',sans-serif" font-size="18" font-weight="500" fill="#55708f" text-anchor="middle"><tspan x="1450" dy="0">谁承担判断</tspan></text>
<rect x="100" y="560" width="1400" height="145" rx="34" fill="#fffdf7" stroke="#d59621" stroke-width="3" stroke-dasharray="12 9"/><rect x="102" y="559" width="1399" height="146" rx="35" fill="none" stroke="#d59621" stroke-width="1.2" opacity=".28" transform="rotate(.18 800 632.5)"/>
<text x="150" y="612" font-family="'Kaiti SC','STKaiti','Noto Sans SC',sans-serif" font-size="27" font-weight="800" fill="#d59621" text-anchor="start"><tspan x="150" dy="0">变更影响</tspan></text>
<text x="360" y="612" font-family="'Kaiti SC','STKaiti','Noto Sans SC',sans-serif" font-size="22" font-weight="700" fill="#1e3a5f" text-anchor="start"><tspan x="360" dy="0">需求变化 → 合同 / 测试 / 指标</tspan></text>
<text x="800" y="612" font-family="'Kaiti SC','STKaiti','Noto Sans SC',sans-serif" font-size="22" font-weight="700" fill="#1e3a5f" text-anchor="start"><tspan x="800" dy="0">合同 Major → Consumer 复核</tspan></text>
<text x="1170" y="612" font-family="'Kaiti SC','STKaiti','Noto Sans SC',sans-serif" font-size="22" font-weight="700" fill="#1e3a5f" text-anchor="start"><tspan x="1170" dy="0">线上异常 → 用户承诺</tspan></text>
<text x="800" y="666" font-family="'Kaiti SC','STKaiti','Noto Sans SC',sans-serif" font-size="24" font-weight="500" fill="#55708f" text-anchor="middle"><tspan x="800" dy="0">Traceability Matrix 不是文档目录，而是可查询的双向关系。</tspan></text>
<text x="800" y="810" font-family="'Kaiti SC','STKaiti','Noto Sans SC',sans-serif" font-size="28" font-weight="760" fill="#c94c4c" text-anchor="middle"><tspan x="800" dy="0">当前 RC 的 Claim，只能由当前 RC 的测试、Trace、Artifact 和签署支持。</tspan></text>
</svg>