<svg xmlns="http://www.w3.org/2000/svg" width="1600" height="900" viewBox="0 0 1600 900"><defs><marker id="arrow-1e3a5f" viewBox="0 0 10 10" refX="9" refY="5" markerWidth="7" markerHeight="7" orient="auto-start-reverse"><path d="M 0 0 L 10 5 L 0 10 z" fill="#1e3a5f"/></marker><marker id="arrow-d59621" viewBox="0 0 10 10" refX="9" refY="5" markerWidth="7" markerHeight="7" orient="auto-start-reverse"><path d="M 0 0 L 10 5 L 0 10 z" fill="#d59621"/></marker><marker id="arrow-3c8d77" viewBox="0 0 10 10" refX="9" refY="5" markerWidth="7" markerHeight="7" orient="auto-start-reverse"><path d="M 0 0 L 10 5 L 0 10 z" fill="#3c8d77"/></marker><marker id="arrow-c94c4c" viewBox="0 0 10 10" refX="9" refY="5" markerWidth="7" markerHeight="7" orient="auto-start-reverse"><path d="M 0 0 L 10 5 L 0 10 z" fill="#c94c4c"/></marker><marker id="arrow-7651a6" viewBox="0 0 10 10" refX="9" refY="5" markerWidth="7" markerHeight="7" orient="auto-start-reverse"><path d="M 0 0 L 10 5 L 0 10 z" fill="#7651a6"/></marker><filter id="paper"><feTurbulence type="fractalNoise" baseFrequency=".8" numOctaves="2" seed="10" result="noise"/><feColorMatrix in="noise" type="saturate" values="0"/><feComponentTransfer><feFuncA type="table" tableValues="0 .035"/></feComponentTransfer></filter></defs><rect width="1600" height="900" fill="#fbf7ec"/><rect width="1600" height="900" fill="#38516d" filter="url(#paper)" opacity=".16"/>
<text x="70" y="82" font-family="'Kaiti SC','STKaiti','Noto Sans SC',sans-serif" font-size="43" font-weight="800" fill="#1e3a5f" text-anchor="start"><tspan x="70" dy="0">Capstone：闭合系统完整生命周期</tspan></text><text x="72" y="128" font-family="'Kaiti SC','STKaiti','Noto Sans SC',sans-serif" font-size="22" font-weight="500" fill="#55708f" text-anchor="start"><tspan x="72" dy="0">交付不是最后补一份 README，而是从问题开始持续生成可验证证据。</tspan></text><path d="M 70 160 C 556.6666666666666 158, 1043.3333333333333 162, 1530 160" fill="none" stroke="#d59621" stroke-width="3" stroke-linecap="round" stroke-dasharray="10 10"/>
<rect x="50" y="275" width="180" height="135" rx="22" fill="#dfeaf4" stroke="#1e3a5f" stroke-width="3"/><rect x="52" y="274" width="179" height="136" rx="23" fill="none" stroke="#1e3a5f" stroke-width="1.2" opacity=".28" transform="rotate(.18 140 342.5)"/><text x="140" y="326" font-family="'Kaiti SC','STKaiti','Noto Sans SC',sans-serif" font-size="25" font-weight="800" fill="#1e3a5f" text-anchor="middle"><tspan x="140" dy="0">Discover</tspan></text><text x="140" y="370" font-family="'Kaiti SC','STKaiti','Noto Sans SC',sans-serif" font-size="18" font-weight="500" fill="#55708f" text-anchor="middle"><tspan x="140" dy="0">问题 / 基线</tspan></text><path d="M 230 342 C 241.66666666666666 340, 253.33333333333334 344, 265 342" fill="none" stroke="#1e3a5f" stroke-width="4" stroke-linecap="round" marker-end="url(#arrow-1e3a5f)"/><rect x="270" y="275" width="180" height="135" rx="22" fill="#e9e0f4" stroke="#7651a6" stroke-width="3"/><rect x="272" y="274" width="179" height="136" rx="23" fill="none" stroke="#7651a6" stroke-width="1.2" opacity=".28" transform="rotate(.18 360 342.5)"/><text x="360" y="326" font-family="'Kaiti SC','STKaiti','Noto Sans SC',sans-serif" font-size="25" font-weight="800" fill="#7651a6" text-anchor="middle"><tspan x="360" dy="0">Design</tspan></text><text x="360" y="370" font-family="'Kaiti SC','STKaiti','Noto Sans SC',sans-serif" font-size="18" font-weight="500" fill="#55708f" text-anchor="middle"><tspan x="360" dy="0">ADR / 风险</tspan></text><path d="M 450 342 C 461.6666666666667 340, 473.3333333333333 344, 485 342" fill="none" stroke="#7651a6" stroke-width="4" stroke-linecap="round" marker-end="url(#arrow-7651a6)"/><rect x="490" y="275" width="180" height="135" rx="22" fill="#dcefe7" stroke="#3c8d77" stroke-width="3"/><rect x="492" y="274" width="179" height="136" rx="23" fill="none" stroke="#3c8d77" stroke-width="1.2" opacity=".28" transform="rotate(.18 580 342.5)"/><text x="580" y="326" font-family="'Kaiti SC','STKaiti','Noto Sans SC',sans-serif" font-size="25" font-weight="800" fill="#3c8d77" text-anchor="middle"><tspan x="580" dy="0">Build</tspan></text><text x="580" y="370" font-family="'Kaiti SC','STKaiti','Noto Sans SC',sans-serif" font-size="18" font-weight="500" fill="#55708f" text-anchor="middle"><tspan x="580" dy="0">Slice / 合同</tspan></text><path d="M 670 342 C 681.6666666666666 340, 693.3333333333334 344, 705 342" fill="none" stroke="#3c8d77" stroke-width="4" stroke-linecap="round" marker-end="url(#arrow-3c8d77)"/><rect x="710" y="275" width="180" height="135" rx="22" fill="#f7dddd" stroke="#c94c4c" stroke-width="3"/><rect x="712" y="274" width="179" height="136" rx="23" fill="none" stroke="#c94c4c" stroke-width="1.2" opacity=".28" transform="rotate(.18 800 342.5)"/><text x="800" y="326" font-family="'Kaiti SC','STKaiti','Noto Sans SC',sans-serif" font-size="25" font-weight="800" fill="#c94c4c" text-anchor="middle"><tspan x="800" dy="0">Secure</tspan></text><text x="800" y="370" font-family="'Kaiti SC','STKaiti','Noto Sans SC',sans-serif" font-size="18" font-weight="500" fill="#55708f" text-anchor="middle"><tspan x="800" dy="0">控制 / 红队</tspan></text><path d="M 890 342 C 901.6666666666666 340, 913.3333333333334 344, 925 342" fill="none" stroke="#c94c4c" stroke-width="4" stroke-linecap="round" marker-end="url(#arrow-c94c4c)"/><rect x="930" y="275" width="180" height="135" rx="22" fill="#f7e7b8" stroke="#d59621" stroke-width="3"/><rect x="932" y="274" width="179" height="136" rx="23" fill="none" stroke="#d59621" stroke-width="1.2" opacity=".28" transform="rotate(.18 1020 342.5)"/><text x="1020" y="326" font-family="'Kaiti SC','STKaiti','Noto Sans SC',sans-serif" font-size="25" font-weight="800" fill="#d59621" text-anchor="middle"><tspan x="1020" dy="0">Evaluate</tspan></text><text x="1020" y="370" font-family="'Kaiti SC','STKaiti','Noto Sans SC',sans-serif" font-size="18" font-weight="500" fill="#55708f" text-anchor="middle"><tspan x="1020" dy="0">Golden / N-run</tspan></text><path d="M 1110 342 C 1121.6666666666667 340, 1133.3333333333333 344, 1145 342" fill="none" stroke="#d59621" stroke-width="4" stroke-linecap="round" marker-end="url(#arrow-d59621)"/><rect x="1150" y="275" width="180" height="135" rx="22" fill="#dfeaf4" stroke="#1e3a5f" stroke-width="3"/><rect x="1152" y="274" width="179" height="136" rx="23" fill="none" stroke="#1e3a5f" stroke-width="1.2" opacity=".28" transform="rotate(.18 1240 342.5)"/><text x="1240" y="326" font-family="'Kaiti SC','STKaiti','Noto Sans SC',sans-serif" font-size="25" font-weight="800" fill="#1e3a5f" text-anchor="middle"><tspan x="1240" dy="0">Deploy</tspan></text><text x="1240" y="370" font-family="'Kaiti SC','STKaiti','Noto Sans SC',sans-serif" font-size="18" font-weight="500" fill="#55708f" text-anchor="middle"><tspan x="1240" dy="0">RC / Provenance</tspan></text><path d="M 1330 342 C 1341.6666666666667 340, 1353.3333333333333 344, 1365 342" fill="none" stroke="#1e3a5f" stroke-width="4" stroke-linecap="round" marker-end="url(#arrow-1e3a5f)"/><rect x="1370" y="275" width="180" height="135" rx="22" fill="#dcefe7" stroke="#3c8d77" stroke-width="3"/><rect x="1372" y="274" width="179" height="136" rx="23" fill="none" stroke="#3c8d77" stroke-width="1.2" opacity=".28" transform="rotate(.18 1460 342.5)"/><text x="1460" y="326" font-family="'Kaiti SC','STKaiti','Noto Sans SC',sans-serif" font-size="25" font-weight="800" fill="#3c8d77" text-anchor="middle"><tspan x="1460" dy="0">Operate</tspan></text><text x="1460" y="370" font-family="'Kaiti SC','STKaiti','Noto Sans SC',sans-serif" font-size="18" font-weight="500" fill="#55708f" text-anchor="middle"><tspan x="1460" dy="0">SLO / Learning</tspan></text>
<path d="M 140 410 C 140 408, 140 587, 140 585" fill="none" stroke="#1e3a5f" stroke-width="4" stroke-linecap="round" stroke-dasharray="9 7"/>
<path d="M 360 410 C 360 408, 360 587, 360 585" fill="none" stroke="#7651a6" stroke-width="4" stroke-linecap="round" stroke-dasharray="9 7"/>
<path d="M 580 410 C 580 408, 580 587, 580 585" fill="none" stroke="#3c8d77" stroke-width="4" stroke-linecap="round" stroke-dasharray="9 7"/>
<path d="M 800 410 C 800 408, 800 587, 800 585" fill="none" stroke="#c94c4c" stroke-width="4" stroke-linecap="round" stroke-dasharray="9 7"/>
<path d="M 1020 410 C 1020 408, 1020 587, 1020 585" fill="none" stroke="#d59621" stroke-width="4" stroke-linecap="round" stroke-dasharray="9 7"/>
<path d="M 1240 410 C 1240 408, 1240 587, 1240 585" fill="none" stroke="#1e3a5f" stroke-width="4" stroke-linecap="round" stroke-dasharray="9 7"/>
<path d="M 1460 410 C 1460 408, 1460 587, 1460 585" fill="none" stroke="#3c8d77" stroke-width="4" stroke-linecap="round" stroke-dasharray="9 7"/>
<rect x="210" y="585" width="1180" height="135" rx="38" fill="#fffdf7" stroke="#c94c4c" stroke-width="4"/><rect x="212" y="584" width="1179" height="136" rx="39" fill="none" stroke="#c94c4c" stroke-width="1.2" opacity=".28" transform="rotate(.18 800 652.5)"/>
<text x="800" y="638" font-family="'Kaiti SC','STKaiti','Noto Sans SC',sans-serif" font-size="32" font-weight="800" fill="#c94c4c" text-anchor="middle"><tspan x="800" dy="0">Evidence Package</tspan></text>
<text x="800" y="685" font-family="'Kaiti SC','STKaiti','Noto Sans SC',sans-serif" font-size="23" font-weight="500" fill="#1e3a5f" text-anchor="middle"><tspan x="800" dy="0">Requirement · Decision · Contract · Test · Runtime Evidence · Sign-off</tspan></text>
<text x="800" y="810" font-family="'Kaiti SC','STKaiti','Noto Sans SC',sans-serif" font-size="28" font-weight="760" fill="#c94c4c" text-anchor="middle"><tspan x="800" dy="0">每个“已完成”都必须绑定同一 Release Candidate；证据漂移会让闭环失效。</tspan></text>
</svg>