<svg xmlns="http://www.w3.org/2000/svg" width="1600" height="900" viewBox="0 0 1600 900"><defs><marker id="arrow-1e3a5f" viewBox="0 0 10 10" refX="9" refY="5" markerWidth="7" markerHeight="7" orient="auto-start-reverse"><path d="M 0 0 L 10 5 L 0 10 z" fill="#1e3a5f"/></marker><marker id="arrow-d59621" viewBox="0 0 10 10" refX="9" refY="5" markerWidth="7" markerHeight="7" orient="auto-start-reverse"><path d="M 0 0 L 10 5 L 0 10 z" fill="#d59621"/></marker><marker id="arrow-3c8d77" viewBox="0 0 10 10" refX="9" refY="5" markerWidth="7" markerHeight="7" orient="auto-start-reverse"><path d="M 0 0 L 10 5 L 0 10 z" fill="#3c8d77"/></marker><marker id="arrow-c94c4c" viewBox="0 0 10 10" refX="9" refY="5" markerWidth="7" markerHeight="7" orient="auto-start-reverse"><path d="M 0 0 L 10 5 L 0 10 z" fill="#c94c4c"/></marker><marker id="arrow-7651a6" viewBox="0 0 10 10" refX="9" refY="5" markerWidth="7" markerHeight="7" orient="auto-start-reverse"><path d="M 0 0 L 10 5 L 0 10 z" fill="#7651a6"/></marker><filter id="paper"><feTurbulence type="fractalNoise" baseFrequency=".8" numOctaves="2" seed="10" result="noise"/><feColorMatrix in="noise" type="saturate" values="0"/><feComponentTransfer><feFuncA type="table" tableValues="0 .035"/></feComponentTransfer></filter></defs><rect width="1600" height="900" fill="#fbf7ec"/><rect width="1600" height="900" fill="#38516d" filter="url(#paper)" opacity=".16"/>
<text x="70" y="82" font-family="'Kaiti SC','STKaiti','Noto Sans SC',sans-serif" font-size="43" font-weight="800" fill="#1e3a5f" text-anchor="start"><tspan x="70" dy="0">成熟度由可验证能力决定，不由 Agent 数量决定</tspan></text><text x="72" y="128" font-family="'Kaiti SC','STKaiti','Noto Sans SC',sans-serif" font-size="22" font-weight="500" fill="#55708f" text-anchor="start"><tspan x="72" dy="0">每一级都增加合同、控制、测量或运营能力。</tspan></text><path d="M 70 160 C 556.6666666666666 158, 1043.3333333333333 162, 1530 160" fill="none" stroke="#d59621" stroke-width="3" stroke-linecap="round" stroke-dasharray="10 10"/>
<rect x="80" y="620" width="275" height="150" rx="22" fill="#fffdf7" stroke="#55708f" stroke-width="3"/><rect x="82" y="619" width="274" height="151" rx="23" fill="none" stroke="#55708f" stroke-width="1.2" opacity=".28" transform="rotate(.18 217.5 695)"/>
<text x="217" y="668" font-family="'Kaiti SC','STKaiti','Noto Sans SC',sans-serif" font-size="28" font-weight="800" fill="#55708f" text-anchor="middle"><tspan x="217" dy="0">L0 · Demo</tspan></text>
<text x="217" y="718" font-family="'Kaiti SC','STKaiti','Noto Sans SC',sans-serif" font-size="22" font-weight="500" fill="#1e3a5f" text-anchor="middle"><tspan x="217" dy="0">Happy Path</tspan></text>
<rect x="355" y="530" width="275" height="240" rx="22" fill="#dfeaf4" stroke="#1e3a5f" stroke-width="3"/><rect x="357" y="529" width="274" height="241" rx="23" fill="none" stroke="#1e3a5f" stroke-width="1.2" opacity=".28" transform="rotate(.18 492.5 650)"/>
<text x="492" y="580" font-family="'Kaiti SC','STKaiti','Noto Sans SC',sans-serif" font-size="28" font-weight="800" fill="#1e3a5f" text-anchor="middle"><tspan x="492" dy="0">L1 · Reliable</tspan></text>
<text x="492" y="632" font-family="'Kaiti SC','STKaiti','Noto Sans SC',sans-serif" font-size="20" font-weight="500" fill="#1e3a5f" text-anchor="middle"><tspan x="492" dy="0">Contract</tspan><tspan x="492" dy="29">State</tspan><tspan x="492" dy="29">Failure Semantics</tspan></text>
<rect x="630" y="430" width="275" height="340" rx="22" fill="#f7dddd" stroke="#c94c4c" stroke-width="3"/><rect x="632" y="429" width="274" height="341" rx="23" fill="none" stroke="#c94c4c" stroke-width="1.2" opacity=".28" transform="rotate(.18 767.5 600)"/>
<text x="767" y="482" font-family="'Kaiti SC','STKaiti','Noto Sans SC',sans-serif" font-size="28" font-weight="800" fill="#c94c4c" text-anchor="middle"><tspan x="767" dy="0">L2 · Controlled</tspan></text>
<text x="767" y="538" font-family="'Kaiti SC','STKaiti','Noto Sans SC',sans-serif" font-size="20" font-weight="500" fill="#1e3a5f" text-anchor="middle"><tspan x="767" dy="0">Policy / HITL</tspan><tspan x="767" dy="29">Idempotency</tspan><tspan x="767" dy="29">Recovery</tspan><tspan x="767" dy="29">Security Gate</tspan></text>
<rect x="905" y="330" width="275" height="440" rx="22" fill="#f7e7b8" stroke="#d59621" stroke-width="3"/><rect x="907" y="329" width="274" height="441" rx="23" fill="none" stroke="#d59621" stroke-width="1.2" opacity=".28" transform="rotate(.18 1042.5 550)"/>
<text x="1042" y="384" font-family="'Kaiti SC','STKaiti','Noto Sans SC',sans-serif" font-size="28" font-weight="800" fill="#d59621" text-anchor="middle"><tspan x="1042" dy="0">L3 · Measured</tspan></text>
<text x="1042" y="442" font-family="'Kaiti SC','STKaiti','Noto Sans SC',sans-serif" font-size="20" font-weight="500" fill="#1e3a5f" text-anchor="middle"><tspan x="1042" dy="0">Golden / N-run</tspan><tspan x="1042" dy="29">SLO</tspan><tspan x="1042" dy="29">Cost</tspan><tspan x="1042" dy="29">Evidence Package</tspan><tspan x="1042" dy="29">Release Gate</tspan></text>
<rect x="1180" y="220" width="340" height="550" rx="22" fill="#dcefe7" stroke="#3c8d77" stroke-width="4"/><rect x="1182" y="219" width="339" height="551" rx="23" fill="none" stroke="#3c8d77" stroke-width="1.2" opacity=".28" transform="rotate(.18 1350 495)"/>
<text x="1350" y="280" font-family="'Kaiti SC','STKaiti','Noto Sans SC',sans-serif" font-size="30" font-weight="800" fill="#3c8d77" text-anchor="middle"><tspan x="1350" dy="0">L4 · Operated</tspan></text>
<text x="1350" y="345" font-family="'Kaiti SC','STKaiti','Noto Sans SC',sans-serif" font-size="21" font-weight="500" fill="#1e3a5f" text-anchor="middle"><tspan x="1350" dy="0">GameDay</tspan><tspan x="1350" dy="31.5">Incident Learning</tspan><tspan x="1350" dy="31.5">Provenance</tspan><tspan x="1350" dy="31.5">Maintenance</tspan><tspan x="1350" dy="31.5">Community</tspan><tspan x="1350" dy="31.5">Independent Review</tspan></text>
<text x="800" y="840" font-family="'Kaiti SC','STKaiti','Noto Sans SC',sans-serif" font-size="29" font-weight="760" fill="#c94c4c" text-anchor="middle"><tspan x="800" dy="0">更多 Agent 不是升级条件；可接管、可恢复、可验证才是。</tspan></text>
</svg>