<svg xmlns="http://www.w3.org/2000/svg" width="1600" height="900" viewBox="0 0 1600 900"><defs><marker id="arrow-1e3a5f" viewBox="0 0 10 10" refX="9" refY="5" markerWidth="7" markerHeight="7" orient="auto-start-reverse"><path d="M 0 0 L 10 5 L 0 10 z" fill="#1e3a5f"/></marker><marker id="arrow-d59621" viewBox="0 0 10 10" refX="9" refY="5" markerWidth="7" markerHeight="7" orient="auto-start-reverse"><path d="M 0 0 L 10 5 L 0 10 z" fill="#d59621"/></marker><marker id="arrow-3c8d77" viewBox="0 0 10 10" refX="9" refY="5" markerWidth="7" markerHeight="7" orient="auto-start-reverse"><path d="M 0 0 L 10 5 L 0 10 z" fill="#3c8d77"/></marker><marker id="arrow-c94c4c" viewBox="0 0 10 10" refX="9" refY="5" markerWidth="7" markerHeight="7" orient="auto-start-reverse"><path d="M 0 0 L 10 5 L 0 10 z" fill="#c94c4c"/></marker><marker id="arrow-7651a6" viewBox="0 0 10 10" refX="9" refY="5" markerWidth="7" markerHeight="7" orient="auto-start-reverse"><path d="M 0 0 L 10 5 L 0 10 z" fill="#7651a6"/></marker><filter id="paper"><feTurbulence type="fractalNoise" baseFrequency=".8" numOctaves="2" seed="10" result="noise"/><feColorMatrix in="noise" type="saturate" values="0"/><feComponentTransfer><feFuncA type="table" tableValues="0 .035"/></feComponentTransfer></filter></defs><rect width="1600" height="900" fill="#fbf7ec"/><rect width="1600" height="900" fill="#38516d" filter="url(#paper)" opacity=".16"/>
<text x="70" y="82" font-family="'Kaiti SC','STKaiti','Noto Sans SC',sans-serif" font-size="43" font-weight="800" fill="#1e3a5f" text-anchor="start"><tspan x="70" dy="0">Release Gates：顺序削减风险，而不是累计分数</tspan></text><text x="72" y="128" font-family="'Kaiti SC','STKaiti','Noto Sans SC',sans-serif" font-size="22" font-weight="500" fill="#55708f" text-anchor="start"><tspan x="72" dy="0">性能、文档和功能不能抵扣跨租户泄露、未知副作用或不可恢复状态。</tspan></text><path d="M 70 160 C 556.6666666666666 158, 1043.3333333333333 162, 1530 160" fill="none" stroke="#d59621" stroke-width="3" stroke-linecap="round" stroke-dasharray="10 10"/>
<rect x="85" y="275" width="205" height="190" rx="22" fill="#dfeaf4" stroke="#1e3a5f" stroke-width="4"/><rect x="87" y="274" width="204" height="191" rx="23" fill="none" stroke="#1e3a5f" stroke-width="1.2" opacity=".28" transform="rotate(.18 187.5 370)"/><text x="187" y="322" font-family="'Kaiti SC','STKaiti','Noto Sans SC',sans-serif" font-size="27" font-weight="800" fill="#1e3a5f" text-anchor="middle"><tspan x="187" dy="0">G0</tspan></text><text x="187" y="366" font-family="'Kaiti SC','STKaiti','Noto Sans SC',sans-serif" font-size="29" font-weight="800" fill="#1e3a5f" text-anchor="middle"><tspan x="187" dy="0">Problem</tspan></text><text x="187" y="418" font-family="'Kaiti SC','STKaiti','Noto Sans SC',sans-serif" font-size="19" font-weight="500" fill="#55708f" text-anchor="middle"><tspan x="187" dy="0">Charter</tspan></text><path d="M 290 370 C 303.3333333333333 368, 316.6666666666667 372, 330 370" fill="none" stroke="#1e3a5f" stroke-width="4" stroke-linecap="round" marker-end="url(#arrow-1e3a5f)"/><rect x="335" y="275" width="205" height="190" rx="22" fill="#e9e0f4" stroke="#7651a6" stroke-width="4"/><rect x="337" y="274" width="204" height="191" rx="23" fill="none" stroke="#7651a6" stroke-width="1.2" opacity=".28" transform="rotate(.18 437.5 370)"/><text x="437" y="322" font-family="'Kaiti SC','STKaiti','Noto Sans SC',sans-serif" font-size="27" font-weight="800" fill="#7651a6" text-anchor="middle"><tspan x="437" dy="0">G1</tspan></text><text x="437" y="366" font-family="'Kaiti SC','STKaiti','Noto Sans SC',sans-serif" font-size="29" font-weight="800" fill="#7651a6" text-anchor="middle"><tspan x="437" dy="0">Design</tspan></text><text x="437" y="418" font-family="'Kaiti SC','STKaiti','Noto Sans SC',sans-serif" font-size="19" font-weight="500" fill="#55708f" text-anchor="middle"><tspan x="437" dy="0">ADR / Threat</tspan></text><path d="M 540 370 C 553.3333333333334 368, 566.6666666666666 372, 580 370" fill="none" stroke="#7651a6" stroke-width="4" stroke-linecap="round" marker-end="url(#arrow-7651a6)"/><rect x="585" y="275" width="205" height="190" rx="22" fill="#dcefe7" stroke="#3c8d77" stroke-width="4"/><rect x="587" y="274" width="204" height="191" rx="23" fill="none" stroke="#3c8d77" stroke-width="1.2" opacity=".28" transform="rotate(.18 687.5 370)"/><text x="687" y="322" font-family="'Kaiti SC','STKaiti','Noto Sans SC',sans-serif" font-size="27" font-weight="800" fill="#3c8d77" text-anchor="middle"><tspan x="687" dy="0">G2</tspan></text><text x="687" y="366" font-family="'Kaiti SC','STKaiti','Noto Sans SC',sans-serif" font-size="29" font-weight="800" fill="#3c8d77" text-anchor="middle"><tspan x="687" dy="0">Slice</tspan></text><text x="687" y="418" font-family="'Kaiti SC','STKaiti','Noto Sans SC',sans-serif" font-size="19" font-weight="500" fill="#55708f" text-anchor="middle"><tspan x="687" dy="0">E2E / Trace</tspan></text><path d="M 790 370 C 803.3333333333334 368, 816.6666666666666 372, 830 370" fill="none" stroke="#3c8d77" stroke-width="4" stroke-linecap="round" marker-end="url(#arrow-3c8d77)"/><rect x="835" y="275" width="205" height="190" rx="22" fill="#f7e7b8" stroke="#d59621" stroke-width="4"/><rect x="837" y="274" width="204" height="191" rx="23" fill="none" stroke="#d59621" stroke-width="1.2" opacity=".28" transform="rotate(.18 937.5 370)"/><text x="937" y="322" font-family="'Kaiti SC','STKaiti','Noto Sans SC',sans-serif" font-size="27" font-weight="800" fill="#d59621" text-anchor="middle"><tspan x="937" dy="0">G3</tspan></text><text x="937" y="366" font-family="'Kaiti SC','STKaiti','Noto Sans SC',sans-serif" font-size="29" font-weight="800" fill="#d59621" text-anchor="middle"><tspan x="937" dy="0">Quality</tspan></text><text x="937" y="418" font-family="'Kaiti SC','STKaiti','Noto Sans SC',sans-serif" font-size="19" font-weight="500" fill="#55708f" text-anchor="middle"><tspan x="937" dy="0">Golden / N-run</tspan></text><path d="M 1040 370 C 1053.3333333333333 368, 1066.6666666666667 372, 1080 370" fill="none" stroke="#d59621" stroke-width="4" stroke-linecap="round" marker-end="url(#arrow-d59621)"/><rect x="1085" y="275" width="205" height="190" rx="22" fill="#f7dddd" stroke="#c94c4c" stroke-width="4"/><rect x="1087" y="274" width="204" height="191" rx="23" fill="none" stroke="#c94c4c" stroke-width="1.2" opacity=".28" transform="rotate(.18 1187.5 370)"/><text x="1187" y="322" font-family="'Kaiti SC','STKaiti','Noto Sans SC',sans-serif" font-size="27" font-weight="800" fill="#c94c4c" text-anchor="middle"><tspan x="1187" dy="0">G4</tspan></text><text x="1187" y="366" font-family="'Kaiti SC','STKaiti','Noto Sans SC',sans-serif" font-size="29" font-weight="800" fill="#c94c4c" text-anchor="middle"><tspan x="1187" dy="0">Security</tspan></text><text x="1187" y="418" font-family="'Kaiti SC','STKaiti','Noto Sans SC',sans-serif" font-size="19" font-weight="500" fill="#55708f" text-anchor="middle"><tspan x="1187" dy="0">Red Team / SBOM</tspan></text><path d="M 1290 370 C 1303.3333333333333 368, 1316.6666666666667 372, 1330 370" fill="none" stroke="#c94c4c" stroke-width="4" stroke-linecap="round" marker-end="url(#arrow-c94c4c)"/><rect x="1335" y="275" width="205" height="190" rx="22" fill="#dfeaf4" stroke="#1e3a5f" stroke-width="4"/><rect x="1337" y="274" width="204" height="191" rx="23" fill="none" stroke="#1e3a5f" stroke-width="1.2" opacity=".28" transform="rotate(.18 1437.5 370)"/><text x="1437" y="322" font-family="'Kaiti SC','STKaiti','Noto Sans SC',sans-serif" font-size="27" font-weight="800" fill="#1e3a5f" text-anchor="middle"><tspan x="1437" dy="0">G5</tspan></text><text x="1437" y="366" font-family="'Kaiti SC','STKaiti','Noto Sans SC',sans-serif" font-size="29" font-weight="800" fill="#1e3a5f" text-anchor="middle"><tspan x="1437" dy="0">Operations</tspan></text><text x="1437" y="418" font-family="'Kaiti SC','STKaiti','Noto Sans SC',sans-serif" font-size="19" font-weight="500" fill="#55708f" text-anchor="middle"><tspan x="1437" dy="0">SLO / ORR</tspan></text>
<rect x="235" y="580" width="1130" height="125" rx="34" fill="#fffdf7" stroke="#c94c4c" stroke-width="3" stroke-dasharray="12 9"/><rect x="237" y="579" width="1129" height="126" rx="35" fill="none" stroke="#c94c4c" stroke-width="1.2" opacity=".28" transform="rotate(.18 800 642.5)"/>
<text x="800" y="628" font-family="'Kaiti SC','STKaiti','Noto Sans SC',sans-serif" font-size="30" font-weight="800" fill="#c94c4c" text-anchor="middle"><tspan x="800" dy="0">Pass · Conditional Pass · Fail</tspan></text>
<text x="800" y="670" font-family="'Kaiti SC','STKaiti','Noto Sans SC',sans-serif" font-size="22" font-weight="500" fill="#1e3a5f" text-anchor="middle"><tspan x="800" dy="0">条件必须有 Scope、Owner、Due Date 和 Verifier</tspan></text>
<text x="800" y="810" font-family="'Kaiti SC','STKaiti','Noto Sans SC',sans-serif" font-size="29" font-weight="760" fill="#c94c4c" text-anchor="middle"><tspan x="800" dy="0">后一个 Gate 不能为前一个 Gate 补证；关键变更必须生成新的 RC。</tspan></text>
</svg>